ISO-10303-21;
HEADER;

/* File generated by T-FLEX CAD Version 17.0.27.0 */

FILE_DESCRIPTION(('TFLEX Exchange Step'),'2;1');

FILE_NAME('X2\041A04400435043F043B0435043D04380435\X0\ \X2\043204420443043B043A0438\X0\ \X2\043E04410438\X0\ Z.stp',                                                                         
'2026-04-07T09:50:18+03:00',
('user'),
('Unknown organisation'),
'TFLEX Exchange 2020.2',
'T-FLEX CAD',
'Unknown authorisation');

FILE_SCHEMA( ('AUTOMOTIVE_DESIGN { 1 0 10303 214 1 1 1 1 }') );

ENDSEC;

DATA;
#3=(NAMED_UNIT(*)PLANE_ANGLE_UNIT()SI_UNIT($,.RADIAN.));
#4=PLANE_ANGLE_MEASURE_WITH_UNIT(PLANE_ANGLE_MEASURE(0.0174532925),#3);
#5=(CONVERSION_BASED_UNIT('DEGREE',#4)NAMED_UNIT(#6)PLANE_ANGLE_UNIT());
#6=DIMENSIONAL_EXPONENTS(0.,0.,0.,0.,0.,0.,0.);
#7=(NAMED_UNIT(*)SI_UNIT($,.STERADIAN.)SOLID_ANGLE_UNIT());
#8=(LENGTH_UNIT()NAMED_UNIT(*)SI_UNIT(.MILLI.,.METRE.));
#9=UNCERTAINTY_MEASURE_WITH_UNIT(LENGTH_MEASURE(1.000000E-05),#8,'DISTANCE_ACCURACY_VALUE','Maximum Tolerance applied to model');
#10=(GEOMETRIC_REPRESENTATION_CONTEXT(3)GLOBAL_UNCERTAINTY_ASSIGNED_CONTEXT((#9))GLOBAL_UNIT_ASSIGNED_CONTEXT((#8,#5,#7))REPRESENTATION_CONTEXT('','\X2\041A04400435043F043B0435043D04380435\X0\ \X2\043204420443043B043A0438\X0\ \X2\043E04410438\X0\ Z'));
#12=CARTESIAN_POINT('',(0.,0.,0.));
#13=DIRECTION('',(0.,0.,1.));
#14=DIRECTION('',(1.,0.,0.));
#15=AXIS2_PLACEMENT_3D('',#12,#13,#14);
#27=CARTESIAN_POINT('',(27.,32.,-10.));
#28=CARTESIAN_POINT('',(27.,32.,10.));
#29=CARTESIAN_POINT('',(-27.,32.,-10.));
#30=CARTESIAN_POINT('',(-27.,32.,10.));
#31=B_SPLINE_SURFACE_WITH_KNOTS('',1,1,((#27,#28),(#29,#30)),.UNSPECIFIED.,.F.,.F.,.U.,(2,2),(2,2),(-0.027,0.027),(-0.00995,0.01005),.UNSPECIFIED.);
#32=CARTESIAN_POINT('',(-24.55,32.,-0.));
#33=VERTEX_POINT('',#32);
#34=CARTESIAN_POINT('',(-22.,32.,-2.55));
#35=VERTEX_POINT('',#34);
#36=CARTESIAN_POINT('',(-24.55,32.,-0.));
#37=CARTESIAN_POINT('',(-24.55,32.,2.55));
#38=CARTESIAN_POINT('',(-22.,32.,2.55));
#39=CARTESIAN_POINT('',(-19.45,32.,2.55));
#40=CARTESIAN_POINT('',(-19.45,32.,-0.));
#41=CARTESIAN_POINT('',(-19.45,32.,-2.55));
#42=CARTESIAN_POINT('',(-22.,32.,-2.55));
#43=CARTESIAN_POINT('',(-24.55,32.,-2.55));
#44=CARTESIAN_POINT('',(-24.55,32.,-0.));
#45=(BOUNDED_CURVE()
B_SPLINE_CURVE(2,(#36,#37,#38,#39,#40,#41,#42,#43,#44),.UNSPECIFIED.,.T.,.F.)
B_SPLINE_CURVE_WITH_KNOTS((3,2,2,2,3),(0.,1.570796327,3.141592654,4.71238898,6.283185307),.UNSPECIFIED.)
CURVE()
GEOMETRIC_REPRESENTATION_ITEM()
RATIONAL_B_SPLINE_CURVE((1.,0.707106781,1.,0.707106781,1.,0.707106781,1.,0.707106781,1.))
REPRESENTATION_ITEM(''));
#46=EDGE_CURVE('',#33,#35,#45,.T.);
#47=ORIENTED_EDGE('',*,*,#46,.T.);
#48=CARTESIAN_POINT('',(-24.55,32.,-0.));
#49=CARTESIAN_POINT('',(-24.55,32.,2.55));
#50=CARTESIAN_POINT('',(-22.,32.,2.55));
#51=CARTESIAN_POINT('',(-19.45,32.,2.55));
#52=CARTESIAN_POINT('',(-19.45,32.,-0.));
#53=CARTESIAN_POINT('',(-19.45,32.,-2.55));
#54=CARTESIAN_POINT('',(-22.,32.,-2.55));
#55=CARTESIAN_POINT('',(-24.55,32.,-2.55));
#56=CARTESIAN_POINT('',(-24.55,32.,-0.));
#57=(BOUNDED_CURVE()
B_SPLINE_CURVE(2,(#48,#49,#50,#51,#52,#53,#54,#55,#56),.UNSPECIFIED.,.T.,.F.)
B_SPLINE_CURVE_WITH_KNOTS((3,2,2,2,3),(0.,1.570796327,3.141592654,4.71238898,6.283185307),.UNSPECIFIED.)
CURVE()
GEOMETRIC_REPRESENTATION_ITEM()
RATIONAL_B_SPLINE_CURVE((1.,0.707106781,1.,0.707106781,1.,0.707106781,1.,0.707106781,1.))
REPRESENTATION_ITEM(''));
#58=EDGE_CURVE('',#35,#33,#57,.T.);
#59=ORIENTED_EDGE('',*,*,#58,.T.);
#60=EDGE_LOOP('',(#47,#59));
#61=FACE_BOUND('',#60,.T.);
#62=CARTESIAN_POINT('',(19.45,32.,-0.));
#63=VERTEX_POINT('',#62);
#64=CARTESIAN_POINT('',(22.,32.,-2.55));
#65=VERTEX_POINT('',#64);
#66=CARTESIAN_POINT('',(19.45,32.,-0.));
#67=CARTESIAN_POINT('',(19.45,32.,2.55));
#68=CARTESIAN_POINT('',(22.,32.,2.55));
#69=CARTESIAN_POINT('',(24.55,32.,2.55));
#70=CARTESIAN_POINT('',(24.55,32.,-0.));
#71=CARTESIAN_POINT('',(24.55,32.,-2.55));
#72=CARTESIAN_POINT('',(22.,32.,-2.55));
#73=CARTESIAN_POINT('',(19.45,32.,-2.55));
#74=CARTESIAN_POINT('',(19.45,32.,-0.));
#75=(BOUNDED_CURVE()
B_SPLINE_CURVE(2,(#66,#67,#68,#69,#70,#71,#72,#73,#74),.UNSPECIFIED.,.T.,.F.)
B_SPLINE_CURVE_WITH_KNOTS((3,2,2,2,3),(0.,1.570796327,3.141592654,4.71238898,6.283185307),.UNSPECIFIED.)
CURVE()
GEOMETRIC_REPRESENTATION_ITEM()
RATIONAL_B_SPLINE_CURVE((1.,0.707106781,1.,0.707106781,1.,0.707106781,1.,0.707106781,1.))
REPRESENTATION_ITEM(''));
#76=EDGE_CURVE('',#63,#65,#75,.T.);
#77=ORIENTED_EDGE('',*,*,#76,.T.);
#78=CARTESIAN_POINT('',(19.45,32.,-0.));
#79=CARTESIAN_POINT('',(19.45,32.,2.55));
#80=CARTESIAN_POINT('',(22.,32.,2.55));
#81=CARTESIAN_POINT('',(24.55,32.,2.55));
#82=CARTESIAN_POINT('',(24.55,32.,-0.));
#83=CARTESIAN_POINT('',(24.55,32.,-2.55));
#84=CARTESIAN_POINT('',(22.,32.,-2.55));
#85=CARTESIAN_POINT('',(19.45,32.,-2.55));
#86=CARTESIAN_POINT('',(19.45,32.,-0.));
#87=(BOUNDED_CURVE()
B_SPLINE_CURVE(2,(#78,#79,#80,#81,#82,#83,#84,#85,#86),.UNSPECIFIED.,.T.,.F.)
B_SPLINE_CURVE_WITH_KNOTS((3,2,2,2,3),(0.,1.570796327,3.141592654,4.71238898,6.283185307),.UNSPECIFIED.)
CURVE()
GEOMETRIC_REPRESENTATION_ITEM()
RATIONAL_B_SPLINE_CURVE((1.,0.707106781,1.,0.707106781,1.,0.707106781,1.,0.707106781,1.))
REPRESENTATION_ITEM(''));
#88=EDGE_CURVE('',#65,#63,#87,.T.);
#89=ORIENTED_EDGE('',*,*,#88,.T.);
#90=EDGE_LOOP('',(#77,#89));
#91=FACE_BOUND('',#90,.T.);
#92=CARTESIAN_POINT('',(-15.,32.,10.));
#93=VERTEX_POINT('',#92);
#94=CARTESIAN_POINT('',(-15.,32.,-3.6));
#95=VERTEX_POINT('',#94);
#96=CARTESIAN_POINT('',(-15.,32.,10.));
#97=CARTESIAN_POINT('',(-15.,32.,-3.6));
#98=B_SPLINE_CURVE_WITH_KNOTS('',1,(#96,#97),.UNSPECIFIED.,.F.,.F.,(2,2),(-0.0065,0.0071),.UNSPECIFIED.);
#99=EDGE_CURVE('',#93,#95,#98,.T.);
#100=ORIENTED_EDGE('',*,*,#99,.F.);
#101=CARTESIAN_POINT('',(-27.,32.,10.));
#102=VERTEX_POINT('',#101);
#103=CARTESIAN_POINT('',(-15.,32.,10.));
#104=CARTESIAN_POINT('',(-27.,32.,10.));
#105=B_SPLINE_CURVE_WITH_KNOTS('',1,(#103,#104),.UNSPECIFIED.,.F.,.F.,(2,2),(0.042,0.054),.UNSPECIFIED.);
#106=EDGE_CURVE('',#93,#102,#105,.T.);
#107=ORIENTED_EDGE('',*,*,#106,.T.);
#108=CARTESIAN_POINT('',(-27.,32.,-10.));
#109=VERTEX_POINT('',#108);
#110=CARTESIAN_POINT('',(-27.,32.,10.));
#111=CARTESIAN_POINT('',(-27.,32.,-10.));
#112=B_SPLINE_CURVE_WITH_KNOTS('',1,(#110,#111),.UNSPECIFIED.,.F.,.F.,(2,2),(0.,0.02),.UNSPECIFIED.);
#113=EDGE_CURVE('',#102,#109,#112,.T.);
#114=ORIENTED_EDGE('',*,*,#113,.T.);
#115=CARTESIAN_POINT('',(27.,32.,-10.));
#116=VERTEX_POINT('',#115);
#117=CARTESIAN_POINT('',(-27.,32.,-10.));
#118=CARTESIAN_POINT('',(27.,32.,-10.));
#119=B_SPLINE_CURVE_WITH_KNOTS('',1,(#117,#118),.UNSPECIFIED.,.F.,.F.,(2,2),(0.,0.054),.UNSPECIFIED.);
#120=EDGE_CURVE('',#109,#116,#119,.T.);
#121=ORIENTED_EDGE('',*,*,#120,.T.);
#122=CARTESIAN_POINT('',(27.,32.,10.));
#123=VERTEX_POINT('',#122);
#124=CARTESIAN_POINT('',(27.,32.,-10.));
#125=CARTESIAN_POINT('',(27.,32.,10.));
#126=B_SPLINE_CURVE_WITH_KNOTS('',1,(#124,#125),.UNSPECIFIED.,.F.,.F.,(2,2),(0.,0.02),.UNSPECIFIED.);
#127=EDGE_CURVE('',#116,#123,#126,.T.);
#128=ORIENTED_EDGE('',*,*,#127,.T.);
#129=CARTESIAN_POINT('',(15.,32.,10.));
#130=VERTEX_POINT('',#129);
#131=CARTESIAN_POINT('',(27.,32.,10.));
#132=CARTESIAN_POINT('',(15.,32.,10.));
#133=B_SPLINE_CURVE_WITH_KNOTS('',1,(#131,#132),.UNSPECIFIED.,.F.,.F.,(2,2),(-0.,0.012),.UNSPECIFIED.);
#134=EDGE_CURVE('',#123,#130,#133,.T.);
#135=ORIENTED_EDGE('',*,*,#134,.T.);
#136=CARTESIAN_POINT('',(15.,32.,-3.6));
#137=VERTEX_POINT('',#136);
#138=CARTESIAN_POINT('',(15.,32.,10.));
#139=CARTESIAN_POINT('',(15.,32.,-3.6));
#140=B_SPLINE_CURVE_WITH_KNOTS('',1,(#138,#139),.UNSPECIFIED.,.F.,.F.,(2,2),(-0.0065,0.0071),.UNSPECIFIED.);
#141=EDGE_CURVE('',#130,#137,#140,.T.);
#142=ORIENTED_EDGE('',*,*,#141,.T.);
#143=CARTESIAN_POINT('',(-15.,32.,-3.6));
#144=CARTESIAN_POINT('',(15.,32.,-3.6));
#145=B_SPLINE_CURVE_WITH_KNOTS('',1,(#143,#144),.UNSPECIFIED.,.F.,.F.,(2,2),(0.,0.03),.UNSPECIFIED.);
#146=EDGE_CURVE('',#95,#137,#145,.T.);
#147=ORIENTED_EDGE('',*,*,#146,.F.);
#148=EDGE_LOOP('',(#100,#107,#114,#121,#128,#135,#142,#147));
#149=FACE_BOUND('',#148,.T.);
#150=ADVANCED_FACE('',(#61,#91,#149),#31,.F.);
#151=CARTESIAN_POINT('',(12.67376927,13.,0.));
#152=CARTESIAN_POINT('',(12.67376927,-11.,0.));
#153=CARTESIAN_POINT('',(-12.67376927,13.,0.));
#154=CARTESIAN_POINT('',(-12.67376927,-11.,0.));
#155=B_SPLINE_SURFACE_WITH_KNOTS('',1,1,((#151,#152),(#153,#154)),.UNSPECIFIED.,.F.,.F.,.U.,(2,2),(2,2),(-0.012673769,0.012673769),(-0.013,0.011),.UNSPECIFIED.);
#156=CARTESIAN_POINT('',(-1.05,-7.6,0.));
#157=VERTEX_POINT('',#156);
#158=CARTESIAN_POINT('',(-1.05,-7.6,0.));
#159=CARTESIAN_POINT('',(-1.05,-8.65,0.));
#160=CARTESIAN_POINT('',(-0.,-8.65,0.));
#161=CARTESIAN_POINT('',(1.05,-8.65,0.));
#162=CARTESIAN_POINT('',(1.05,-7.6,0.));
#163=CARTESIAN_POINT('',(1.05,-6.55,0.));
#164=CARTESIAN_POINT('',(0.,-6.55,0.));
#165=CARTESIAN_POINT('',(-1.05,-6.55,0.));
#166=CARTESIAN_POINT('',(-1.05,-7.6,0.));
#167=(BOUNDED_CURVE()
B_SPLINE_CURVE(2,(#158,#159,#160,#161,#162,#163,#164,#165,#166),.UNSPECIFIED.,.T.,.F.)
B_SPLINE_CURVE_WITH_KNOTS((3,2,2,2,3),(0.,1.570796327,3.141592654,4.71238898,6.283185307),.UNSPECIFIED.)
CURVE()
GEOMETRIC_REPRESENTATION_ITEM()
RATIONAL_B_SPLINE_CURVE((1.,0.707106781,1.,0.707106781,1.,0.707106781,1.,0.707106781,1.))
REPRESENTATION_ITEM(''));
#168=EDGE_CURVE('',#157,#157,#167,.T.);
#169=ORIENTED_EDGE('',*,*,#168,.T.);
#170=EDGE_LOOP('',(#169));
#171=FACE_BOUND('',#170,.T.);
#172=CARTESIAN_POINT('',(-6.,0.,0.));
#173=VERTEX_POINT('',#172);
#174=CARTESIAN_POINT('',(-6.,0.,0.));
#175=CARTESIAN_POINT('',(-6.,-6.,0.));
#176=CARTESIAN_POINT('',(-0.,-6.,0.));
#177=CARTESIAN_POINT('',(6.,-6.,0.));
#178=CARTESIAN_POINT('',(6.,-0.,0.));
#179=CARTESIAN_POINT('',(6.,6.,0.));
#180=CARTESIAN_POINT('',(0.,6.,0.));
#181=CARTESIAN_POINT('',(-6.,6.,0.));
#182=CARTESIAN_POINT('',(-6.,0.,0.));
#183=(BOUNDED_CURVE()
B_SPLINE_CURVE(2,(#174,#175,#176,#177,#178,#179,#180,#181,#182),.UNSPECIFIED.,.T.,.F.)
B_SPLINE_CURVE_WITH_KNOTS((3,2,2,2,3),(0.,1.570796327,3.141592654,4.71238898,6.283185307),.UNSPECIFIED.)
CURVE()
GEOMETRIC_REPRESENTATION_ITEM()
RATIONAL_B_SPLINE_CURVE((1.,0.707106781,1.,0.707106781,1.,0.707106781,1.,0.707106781,1.))
REPRESENTATION_ITEM(''));
#184=EDGE_CURVE('',#173,#173,#183,.T.);
#185=ORIENTED_EDGE('',*,*,#184,.T.);
#186=EDGE_LOOP('',(#185));
#187=FACE_BOUND('',#186,.T.);
#188=CARTESIAN_POINT('',(-8.65,0.,0.));
#189=VERTEX_POINT('',#188);
#190=CARTESIAN_POINT('',(-8.65,0.,0.));
#191=CARTESIAN_POINT('',(-8.65,-1.05,0.));
#192=CARTESIAN_POINT('',(-7.6,-1.05,0.));
#193=CARTESIAN_POINT('',(-6.55,-1.05,0.));
#194=CARTESIAN_POINT('',(-6.55,-0.,0.));
#195=CARTESIAN_POINT('',(-6.55,1.05,0.));
#196=CARTESIAN_POINT('',(-7.6,1.05,0.));
#197=CARTESIAN_POINT('',(-8.65,1.05,0.));
#198=CARTESIAN_POINT('',(-8.65,0.,0.));
#199=(BOUNDED_CURVE()
B_SPLINE_CURVE(2,(#190,#191,#192,#193,#194,#195,#196,#197,#198),.UNSPECIFIED.,.T.,.F.)
B_SPLINE_CURVE_WITH_KNOTS((3,2,2,2,3),(0.,1.570796327,3.141592654,4.71238898,6.283185307),.UNSPECIFIED.)
CURVE()
GEOMETRIC_REPRESENTATION_ITEM()
RATIONAL_B_SPLINE_CURVE((1.,0.707106781,1.,0.707106781,1.,0.707106781,1.,0.707106781,1.))
REPRESENTATION_ITEM(''));
#200=EDGE_CURVE('',#189,#189,#199,.T.);
#201=ORIENTED_EDGE('',*,*,#200,.T.);
#202=EDGE_LOOP('',(#201));
#203=FACE_BOUND('',#202,.T.);
#204=CARTESIAN_POINT('',(-1.05,7.6,0.));
#205=VERTEX_POINT('',#204);
#206=CARTESIAN_POINT('',(-1.05,7.6,0.));
#207=CARTESIAN_POINT('',(-1.05,6.55,0.));
#208=CARTESIAN_POINT('',(-0.,6.55,0.));
#209=CARTESIAN_POINT('',(1.05,6.55,0.));
#210=CARTESIAN_POINT('',(1.05,7.6,0.));
#211=CARTESIAN_POINT('',(1.05,8.65,0.));
#212=CARTESIAN_POINT('',(0.,8.65,0.));
#213=CARTESIAN_POINT('',(-1.05,8.65,0.));
#214=CARTESIAN_POINT('',(-1.05,7.6,0.));
#215=(BOUNDED_CURVE()
B_SPLINE_CURVE(2,(#206,#207,#208,#209,#210,#211,#212,#213,#214),.UNSPECIFIED.,.T.,.F.)
B_SPLINE_CURVE_WITH_KNOTS((3,2,2,2,3),(0.,1.570796327,3.141592654,4.71238898,6.283185307),.UNSPECIFIED.)
CURVE()
GEOMETRIC_REPRESENTATION_ITEM()
RATIONAL_B_SPLINE_CURVE((1.,0.707106781,1.,0.707106781,1.,0.707106781,1.,0.707106781,1.))
REPRESENTATION_ITEM(''));
#216=EDGE_CURVE('',#205,#205,#215,.T.);
#217=ORIENTED_EDGE('',*,*,#216,.T.);
#218=EDGE_LOOP('',(#217));
#219=FACE_BOUND('',#218,.T.);
#220=CARTESIAN_POINT('',(6.55,0.,0.));
#221=VERTEX_POINT('',#220);
#222=CARTESIAN_POINT('',(6.55,0.,0.));
#223=CARTESIAN_POINT('',(6.55,-1.05,0.));
#224=CARTESIAN_POINT('',(7.6,-1.05,0.));
#225=CARTESIAN_POINT('',(8.65,-1.05,0.));
#226=CARTESIAN_POINT('',(8.65,-0.,0.));
#227=CARTESIAN_POINT('',(8.65,1.05,0.));
#228=CARTESIAN_POINT('',(7.6,1.05,0.));
#229=CARTESIAN_POINT('',(6.55,1.05,0.));
#230=CARTESIAN_POINT('',(6.55,0.,0.));
#231=(BOUNDED_CURVE()
B_SPLINE_CURVE(2,(#222,#223,#224,#225,#226,#227,#228,#229,#230),.UNSPECIFIED.,.T.,.F.)
B_SPLINE_CURVE_WITH_KNOTS((3,2,2,2,3),(0.,1.570796327,3.141592654,4.71238898,6.283185307),.UNSPECIFIED.)
CURVE()
GEOMETRIC_REPRESENTATION_ITEM()
RATIONAL_B_SPLINE_CURVE((1.,0.707106781,1.,0.707106781,1.,0.707106781,1.,0.707106781,1.))
REPRESENTATION_ITEM(''));
#232=EDGE_CURVE('',#221,#221,#231,.T.);
#233=ORIENTED_EDGE('',*,*,#232,.T.);
#234=EDGE_LOOP('',(#233));
#235=FACE_BOUND('',#234,.T.);
#236=CARTESIAN_POINT('',(12.67376927,13.,0.));
#237=VERTEX_POINT('',#236);
#238=CARTESIAN_POINT('',(-12.67376927,13.,0.));
#239=VERTEX_POINT('',#238);
#240=CARTESIAN_POINT('',(12.67376927,13.,0.));
#241=CARTESIAN_POINT('',(-12.67376927,13.,0.));
#242=B_SPLINE_CURVE_WITH_KNOTS('',1,(#240,#241),.UNSPECIFIED.,.F.,.F.,(2,2),(0.,0.025347539),.UNSPECIFIED.);
#243=EDGE_CURVE('',#237,#239,#242,.T.);
#244=ORIENTED_EDGE('',*,*,#243,.F.);
#245=CARTESIAN_POINT('',(10.918471064,-1.336783311,0.));
#246=VERTEX_POINT('',#245);
#247=CARTESIAN_POINT('',(10.918471064,-1.336783311,0.));
#248=CARTESIAN_POINT('',(12.67376927,13.,0.));
#249=B_SPLINE_CURVE_WITH_KNOTS('',1,(#247,#248),.UNSPECIFIED.,.F.,.F.,(2,2),(0.,0.014443837),.UNSPECIFIED.);
#250=EDGE_CURVE('',#246,#237,#249,.T.);
#251=ORIENTED_EDGE('',*,*,#250,.F.);
#252=CARTESIAN_POINT('',(-10.918471064,-1.336783311,0.));
#253=VERTEX_POINT('',#252);
#254=CARTESIAN_POINT('',(-10.918471064,-1.336783311,0.));
#255=CARTESIAN_POINT('',(-9.735372558,-11.,0.));
#256=CARTESIAN_POINT('',(0.,-11.,0.));
#257=CARTESIAN_POINT('',(9.735372558,-11.,0.));
#258=CARTESIAN_POINT('',(10.918471064,-1.336783311,0.));
#259=(BOUNDED_CURVE()
B_SPLINE_CURVE(2,(#254,#255,#256,#257,#258),.UNSPECIFIED.,.F.,.F.)
B_SPLINE_CURVE_WITH_KNOTS((3,2,3),(0.121826887,1.570796327,3.019765767),.UNSPECIFIED.)
CURVE()
GEOMETRIC_REPRESENTATION_ITEM()
RATIONAL_B_SPLINE_CURVE((1.,0.748841023,1.,0.748841023,1.))
REPRESENTATION_ITEM(''));
#260=EDGE_CURVE('',#253,#246,#259,.T.);
#261=ORIENTED_EDGE('',*,*,#260,.F.);
#262=CARTESIAN_POINT('',(-12.67376927,13.,0.));
#263=CARTESIAN_POINT('',(-10.918471064,-1.336783311,0.));
#264=B_SPLINE_CURVE_WITH_KNOTS('',1,(#262,#263),.UNSPECIFIED.,.F.,.F.,(2,2),(0.019141874,0.033585711),.UNSPECIFIED.);
#265=EDGE_CURVE('',#239,#253,#264,.T.);
#266=ORIENTED_EDGE('',*,*,#265,.F.);
#267=EDGE_LOOP('',(#244,#251,#261,#266));
#268=FACE_BOUND('',#267,.T.);
#269=ADVANCED_FACE('',(#171,#187,#203,#219,#235,#268),#155,.F.);
#270=CARTESIAN_POINT('',(15.,32.,-3.6));
#271=CARTESIAN_POINT('',(15.,32.,10.));
#272=CARTESIAN_POINT('',(10.918471064,-1.336783311,-3.6));
#273=CARTESIAN_POINT('',(10.918471064,-1.336783311,10.));
#274=B_SPLINE_SURFACE_WITH_KNOTS('',1,1,((#270,#271),(#272,#273)),.UNSPECIFIED.,.F.,.F.,.U.,(2,2),(2,2),(-0.033585711,0.),(-0.0071,0.0065),.UNSPECIFIED.);
#275=CARTESIAN_POINT('',(13.116289155,16.614378278,10.));
#276=VERTEX_POINT('',#275);
#277=CARTESIAN_POINT('',(15.,32.,10.));
#278=CARTESIAN_POINT('',(13.116289155,16.614378278,10.));
#279=B_SPLINE_CURVE_WITH_KNOTS('',1,(#277,#278),.UNSPECIFIED.,.F.,.F.,(2,2),(0.,0.015500507),.UNSPECIFIED.);
#280=EDGE_CURVE('',#130,#276,#279,.T.);
#281=ORIENTED_EDGE('',*,*,#280,.T.);
#282=CARTESIAN_POINT('',(12.610151984,12.480391854,4.8125));
#283=VERTEX_POINT('',#282);
#284=CARTESIAN_POINT('',(13.116289155,16.614378278,10.));
#285=CARTESIAN_POINT('',(12.610151984,12.480391854,4.8125));
#286=B_SPLINE_CURVE_WITH_KNOTS('',1,(#284,#285),.UNSPECIFIED.,.F.,.F.,(2,2),(-0.00000484,0.006647691),.UNSPECIFIED.);
#287=EDGE_CURVE('',#276,#283,#286,.T.);
#288=ORIENTED_EDGE('',*,*,#287,.T.);
#289=CARTESIAN_POINT('',(12.306469681,10.,3.5));
#290=VERTEX_POINT('',#289);
#291=CARTESIAN_POINT('',(12.610151984,12.480391854,4.8125));
#292=CARTESIAN_POINT('',(12.500826355,11.587450787,3.5));
#293=CARTESIAN_POINT('',(12.306469681,10.,3.5));
#294=(BOUNDED_CURVE()
B_SPLINE_CURVE(2,(#291,#292,#293),.UNSPECIFIED.,.F.,.F.)
B_SPLINE_CURVE_WITH_KNOTS((3,3),(3.73899907,4.71238898),.UNSPECIFIED.)
CURVE()
GEOMETRIC_REPRESENTATION_ITEM()
RATIONAL_B_SPLINE_CURVE((1.,0.883883476,1.))
REPRESENTATION_ITEM(''));
#295=EDGE_CURVE('',#283,#290,#294,.T.);
#296=ORIENTED_EDGE('',*,*,#295,.T.);
#297=CARTESIAN_POINT('',(10.918471064,-1.336783311,3.5));
#298=VERTEX_POINT('',#297);
#299=CARTESIAN_POINT('',(10.918471064,-1.336783311,3.5));
#300=CARTESIAN_POINT('',(12.306469681,10.,3.5));
#301=B_SPLINE_CURVE_WITH_KNOTS('',1,(#299,#300),.UNSPECIFIED.,.F.,.F.,(2,2),(0.,0.011421436),.UNSPECIFIED.);
#302=EDGE_CURVE('',#298,#290,#301,.T.);
#303=ORIENTED_EDGE('',*,*,#302,.F.);
#304=CARTESIAN_POINT('',(10.918471064,-1.336783311,3.5));
#305=CARTESIAN_POINT('',(10.918471064,-1.336783311,0.));
#306=B_SPLINE_CURVE_WITH_KNOTS('',1,(#304,#305),.UNSPECIFIED.,.F.,.F.,(2,2),(0.,0.0035),.UNSPECIFIED.);
#307=EDGE_CURVE('',#298,#246,#306,.T.);
#308=ORIENTED_EDGE('',*,*,#307,.T.);
#309=ORIENTED_EDGE('',*,*,#250,.T.);
#310=CARTESIAN_POINT('',(12.67376927,13.,-3.6));
#311=VERTEX_POINT('',#310);
#312=CARTESIAN_POINT('',(12.67376927,13.,-3.6));
#313=CARTESIAN_POINT('',(12.67376927,13.,0.));
#314=B_SPLINE_CURVE_WITH_KNOTS('',1,(#312,#313),.UNSPECIFIED.,.F.,.F.,(2,2),(0.,0.0036),.UNSPECIFIED.);
#315=EDGE_CURVE('',#311,#237,#314,.T.);
#316=ORIENTED_EDGE('',*,*,#315,.F.);
#317=CARTESIAN_POINT('',(15.,32.,-3.6));
#318=CARTESIAN_POINT('',(12.67376927,13.,-3.6));
#319=B_SPLINE_CURVE_WITH_KNOTS('',1,(#317,#318),.UNSPECIFIED.,.F.,.F.,(2,2),(0.,0.019141874),.UNSPECIFIED.);
#320=EDGE_CURVE('',#137,#311,#319,.T.);
#321=ORIENTED_EDGE('',*,*,#320,.F.);
#322=ORIENTED_EDGE('',*,*,#141,.F.);
#323=EDGE_LOOP('',(#281,#288,#296,#303,#308,#309,#316,#321,#322));
#324=FACE_BOUND('',#323,.T.);
#325=ADVANCED_FACE('',(#324),#274,.F.);
#326=CARTESIAN_POINT('',(-10.918471064,-1.336783311,-3.6));
#327=CARTESIAN_POINT('',(-10.918471064,-1.336783311,10.));
#328=CARTESIAN_POINT('',(-15.,32.,-3.6));
#329=CARTESIAN_POINT('',(-15.,32.,10.));
#330=B_SPLINE_SURFACE_WITH_KNOTS('',1,1,((#326,#327),(#328,#329)),.UNSPECIFIED.,.F.,.F.,.U.,(2,2),(2,2),(-0.033585711,0.),(-0.0071,0.0065),.UNSPECIFIED.);
#331=CARTESIAN_POINT('',(-12.306469681,10.,3.5));
#332=VERTEX_POINT('',#331);
#333=CARTESIAN_POINT('',(-12.610151984,12.480391854,4.8125));
#334=VERTEX_POINT('',#333);
#335=CARTESIAN_POINT('',(-12.306469681,10.,3.5));
#336=CARTESIAN_POINT('',(-12.500826355,11.587450787,3.5));
#337=CARTESIAN_POINT('',(-12.610151984,12.480391854,4.8125));
#338=(BOUNDED_CURVE()
B_SPLINE_CURVE(2,(#335,#336,#337),.UNSPECIFIED.,.F.,.F.)
B_SPLINE_CURVE_WITH_KNOTS((3,3),(4.71238898,5.685778891),.UNSPECIFIED.)
CURVE()
GEOMETRIC_REPRESENTATION_ITEM()
RATIONAL_B_SPLINE_CURVE((1.,0.883883476,1.))
REPRESENTATION_ITEM(''));
#339=EDGE_CURVE('',#332,#334,#338,.T.);
#340=ORIENTED_EDGE('',*,*,#339,.T.);
#341=CARTESIAN_POINT('',(-13.116289155,16.614378278,10.));
#342=VERTEX_POINT('',#341);
#343=CARTESIAN_POINT('',(-12.610151984,12.480391854,4.8125));
#344=CARTESIAN_POINT('',(-13.116289155,16.614378278,10.));
#345=B_SPLINE_CURVE_WITH_KNOTS('',1,(#343,#344),.UNSPECIFIED.,.F.,.F.,(2,2),(-0.00857618,-0.001923649),.UNSPECIFIED.);
#346=EDGE_CURVE('',#334,#342,#345,.T.);
#347=ORIENTED_EDGE('',*,*,#346,.T.);
#348=CARTESIAN_POINT('',(-13.116289155,16.614378278,10.));
#349=CARTESIAN_POINT('',(-15.,32.,10.));
#350=B_SPLINE_CURVE_WITH_KNOTS('',1,(#348,#349),.UNSPECIFIED.,.F.,.F.,(2,2),(0.003641367,0.019141874),.UNSPECIFIED.);
#351=EDGE_CURVE('',#342,#93,#350,.T.);
#352=ORIENTED_EDGE('',*,*,#351,.T.);
#353=ORIENTED_EDGE('',*,*,#99,.T.);
#354=CARTESIAN_POINT('',(-12.67376927,13.,-3.6));
#355=VERTEX_POINT('',#354);
#356=CARTESIAN_POINT('',(-12.67376927,13.,-3.6));
#357=CARTESIAN_POINT('',(-15.,32.,-3.6));
#358=B_SPLINE_CURVE_WITH_KNOTS('',1,(#356,#357),.UNSPECIFIED.,.F.,.F.,(2,2),(0.,0.019141874),.UNSPECIFIED.);
#359=EDGE_CURVE('',#355,#95,#358,.T.);
#360=ORIENTED_EDGE('',*,*,#359,.F.);
#361=CARTESIAN_POINT('',(-12.67376927,13.,-3.6));
#362=CARTESIAN_POINT('',(-12.67376927,13.,0.));
#363=B_SPLINE_CURVE_WITH_KNOTS('',1,(#361,#362),.UNSPECIFIED.,.F.,.F.,(2,2),(0.,0.0036),.UNSPECIFIED.);
#364=EDGE_CURVE('',#355,#239,#363,.T.);
#365=ORIENTED_EDGE('',*,*,#364,.T.);
#366=ORIENTED_EDGE('',*,*,#265,.T.);
#367=CARTESIAN_POINT('',(-10.918471064,-1.336783311,3.5));
#368=VERTEX_POINT('',#367);
#369=CARTESIAN_POINT('',(-10.918471064,-1.336783311,3.5));
#370=CARTESIAN_POINT('',(-10.918471064,-1.336783311,0.));
#371=B_SPLINE_CURVE_WITH_KNOTS('',1,(#369,#370),.UNSPECIFIED.,.F.,.F.,(2,2),(0.,0.0035),.UNSPECIFIED.);
#372=EDGE_CURVE('',#368,#253,#371,.T.);
#373=ORIENTED_EDGE('',*,*,#372,.F.);
#374=CARTESIAN_POINT('',(-12.306469681,10.,3.5));
#375=CARTESIAN_POINT('',(-10.918471064,-1.336783311,3.5));
#376=B_SPLINE_CURVE_WITH_KNOTS('',1,(#374,#375),.UNSPECIFIED.,.F.,.F.,(2,2),(0.022164275,0.033585711),.UNSPECIFIED.);
#377=EDGE_CURVE('',#332,#368,#376,.T.);
#378=ORIENTED_EDGE('',*,*,#377,.F.);
#379=EDGE_LOOP('',(#340,#347,#352,#353,#360,#365,#366,#373,#378));
#380=FACE_BOUND('',#379,.T.);
#381=ADVANCED_FACE('',(#380),#330,.F.);
#382=CARTESIAN_POINT('',(-6.,0.,3.5));
#383=CARTESIAN_POINT('',(-6.,0.,-0.));
#384=CARTESIAN_POINT('',(-6.,10.392304845,3.5));
#385=CARTESIAN_POINT('',(-6.,10.392304845,-0.));
#386=CARTESIAN_POINT('',(3.,5.196152423,3.5));
#387=CARTESIAN_POINT('',(3.,5.196152423,-0.));
#388=CARTESIAN_POINT('',(12.,0.,3.5));
#389=CARTESIAN_POINT('',(12.,0.,-0.));
#390=CARTESIAN_POINT('',(3.,-5.196152423,3.5));
#391=CARTESIAN_POINT('',(3.,-5.196152423,-0.));
#392=CARTESIAN_POINT('',(-6.,-10.392304845,3.5));
#393=CARTESIAN_POINT('',(-6.,-10.392304845,-0.));
#394=CARTESIAN_POINT('',(-6.,-0.,3.5));
#395=CARTESIAN_POINT('',(-6.,-0.,-0.));
#396=(BOUNDED_SURFACE()
B_SPLINE_SURFACE(2,1,((#382,#383),(#384,#385),(#386,#387),(#388,#389),(#390,#391),(#392,#393),(#394,#395)),.UNSPECIFIED.,.T.,.F.,.U.)
B_SPLINE_SURFACE_WITH_KNOTS((3,2,2,3),(2,2),(0.,2.094395102,4.188790205,6.283185307),(-0.,0.0035),.UNSPECIFIED.)
GEOMETRIC_REPRESENTATION_ITEM()
RATIONAL_B_SPLINE_SURFACE(((1.,1.),(0.5,0.5),(1.,1.),(0.5,0.5),(1.,1.),(0.5,0.5),(1.,1.)))
REPRESENTATION_ITEM('')
SURFACE()
);
#397=ORIENTED_EDGE('',*,*,#184,.F.);
#398=CARTESIAN_POINT('',(-6.,0.,3.5));
#399=VERTEX_POINT('',#398);
#400=CARTESIAN_POINT('',(-6.,0.,3.5));
#401=CARTESIAN_POINT('',(-6.,0.,0.));
#402=B_SPLINE_CURVE_WITH_KNOTS('',1,(#400,#401),.UNSPECIFIED.,.F.,.F.,(2,2),(0.,0.0035),.UNSPECIFIED.);
#403=EDGE_CURVE('',#399,#173,#402,.T.);
#404=ORIENTED_EDGE('',*,*,#403,.F.);
#405=CARTESIAN_POINT('',(-6.,0.,3.5));
#406=CARTESIAN_POINT('',(-6.,-6.,3.5));
#407=CARTESIAN_POINT('',(-0.,-6.,3.5));
#408=CARTESIAN_POINT('',(6.,-6.,3.5));
#409=CARTESIAN_POINT('',(6.,-0.,3.5));
#410=CARTESIAN_POINT('',(6.,6.,3.5));
#411=CARTESIAN_POINT('',(0.,6.,3.5));
#412=CARTESIAN_POINT('',(-6.,6.,3.5));
#413=CARTESIAN_POINT('',(-6.,0.,3.5));
#414=(BOUNDED_CURVE()
B_SPLINE_CURVE(2,(#405,#406,#407,#408,#409,#410,#411,#412,#413),.UNSPECIFIED.,.T.,.F.)
B_SPLINE_CURVE_WITH_KNOTS((3,2,2,2,3),(0.,1.570796327,3.141592654,4.71238898,6.283185307),.UNSPECIFIED.)
CURVE()
GEOMETRIC_REPRESENTATION_ITEM()
RATIONAL_B_SPLINE_CURVE((1.,0.707106781,1.,0.707106781,1.,0.707106781,1.,0.707106781,1.))
REPRESENTATION_ITEM(''));
#415=EDGE_CURVE('',#399,#399,#414,.T.);
#416=ORIENTED_EDGE('',*,*,#415,.T.);
#417=ORIENTED_EDGE('',*,*,#403,.T.);
#418=EDGE_LOOP('',(#397,#404,#416,#417));
#419=FACE_BOUND('',#418,.T.);
#420=ADVANCED_FACE('',(#419),#396,.F.);
#421=CARTESIAN_POINT('',(-8.65,0.,3.5));
#422=CARTESIAN_POINT('',(-8.65,0.,-0.));
#423=CARTESIAN_POINT('',(-8.65,1.818653348,3.5));
#424=CARTESIAN_POINT('',(-8.65,1.818653348,-0.));
#425=CARTESIAN_POINT('',(-7.075,0.909326674,3.5));
#426=CARTESIAN_POINT('',(-7.075,0.909326674,-0.));
#427=CARTESIAN_POINT('',(-5.5,0.,3.5));
#428=CARTESIAN_POINT('',(-5.5,0.,-0.));
#429=CARTESIAN_POINT('',(-7.075,-0.909326674,3.5));
#430=CARTESIAN_POINT('',(-7.075,-0.909326674,-0.));
#431=CARTESIAN_POINT('',(-8.65,-1.818653348,3.5));
#432=CARTESIAN_POINT('',(-8.65,-1.818653348,-0.));
#433=CARTESIAN_POINT('',(-8.65,-0.,3.5));
#434=CARTESIAN_POINT('',(-8.65,-0.,-0.));
#435=(BOUNDED_SURFACE()
B_SPLINE_SURFACE(2,1,((#421,#422),(#423,#424),(#425,#426),(#427,#428),(#429,#430),(#431,#432),(#433,#434)),.UNSPECIFIED.,.T.,.F.,.U.)
B_SPLINE_SURFACE_WITH_KNOTS((3,2,2,3),(2,2),(0.,2.094395102,4.188790205,6.283185307),(-0.,0.0035),.UNSPECIFIED.)
GEOMETRIC_REPRESENTATION_ITEM()
RATIONAL_B_SPLINE_SURFACE(((1.,1.),(0.5,0.5),(1.,1.),(0.5,0.5),(1.,1.),(0.5,0.5),(1.,1.)))
REPRESENTATION_ITEM('')
SURFACE()
);
#436=ORIENTED_EDGE('',*,*,#200,.F.);
#437=CARTESIAN_POINT('',(-8.65,0.,3.5));
#438=VERTEX_POINT('',#437);
#439=CARTESIAN_POINT('',(-8.65,0.,3.5));
#440=CARTESIAN_POINT('',(-8.65,0.,0.));
#441=B_SPLINE_CURVE_WITH_KNOTS('',1,(#439,#440),.UNSPECIFIED.,.F.,.F.,(2,2),(0.,0.0035),.UNSPECIFIED.);
#442=EDGE_CURVE('',#438,#189,#441,.T.);
#443=ORIENTED_EDGE('',*,*,#442,.F.);
#444=CARTESIAN_POINT('',(-8.65,0.,3.5));
#445=CARTESIAN_POINT('',(-8.65,-1.05,3.5));
#446=CARTESIAN_POINT('',(-7.6,-1.05,3.5));
#447=CARTESIAN_POINT('',(-6.55,-1.05,3.5));
#448=CARTESIAN_POINT('',(-6.55,-0.,3.5));
#449=CARTESIAN_POINT('',(-6.55,1.05,3.5));
#450=CARTESIAN_POINT('',(-7.6,1.05,3.5));
#451=CARTESIAN_POINT('',(-8.65,1.05,3.5));
#452=CARTESIAN_POINT('',(-8.65,0.,3.5));
#453=(BOUNDED_CURVE()
B_SPLINE_CURVE(2,(#444,#445,#446,#447,#448,#449,#450,#451,#452),.UNSPECIFIED.,.T.,.F.)
B_SPLINE_CURVE_WITH_KNOTS((3,2,2,2,3),(0.,1.570796327,3.141592654,4.71238898,6.283185307),.UNSPECIFIED.)
CURVE()
GEOMETRIC_REPRESENTATION_ITEM()
RATIONAL_B_SPLINE_CURVE((1.,0.707106781,1.,0.707106781,1.,0.707106781,1.,0.707106781,1.))
REPRESENTATION_ITEM(''));
#454=EDGE_CURVE('',#438,#438,#453,.T.);
#455=ORIENTED_EDGE('',*,*,#454,.T.);
#456=ORIENTED_EDGE('',*,*,#442,.T.);
#457=EDGE_LOOP('',(#436,#443,#455,#456));
#458=FACE_BOUND('',#457,.T.);
#459=ADVANCED_FACE('',(#458),#435,.F.);
#460=CARTESIAN_POINT('',(-1.05,7.6,3.5));
#461=CARTESIAN_POINT('',(-1.05,7.6,-0.));
#462=CARTESIAN_POINT('',(-1.05,9.418653348,3.5));
#463=CARTESIAN_POINT('',(-1.05,9.418653348,-0.));
#464=CARTESIAN_POINT('',(0.525,8.509326674,3.5));
#465=CARTESIAN_POINT('',(0.525,8.509326674,-0.));
#466=CARTESIAN_POINT('',(2.1,7.6,3.5));
#467=CARTESIAN_POINT('',(2.1,7.6,-0.));
#468=CARTESIAN_POINT('',(0.525,6.690673326,3.5));
#469=CARTESIAN_POINT('',(0.525,6.690673326,-0.));
#470=CARTESIAN_POINT('',(-1.05,5.781346652,3.5));
#471=CARTESIAN_POINT('',(-1.05,5.781346652,-0.));
#472=CARTESIAN_POINT('',(-1.05,7.6,3.5));
#473=CARTESIAN_POINT('',(-1.05,7.6,-0.));
#474=(BOUNDED_SURFACE()
B_SPLINE_SURFACE(2,1,((#460,#461),(#462,#463),(#464,#465),(#466,#467),(#468,#469),(#470,#471),(#472,#473)),.UNSPECIFIED.,.T.,.F.,.U.)
B_SPLINE_SURFACE_WITH_KNOTS((3,2,2,3),(2,2),(0.,2.094395102,4.188790205,6.283185307),(-0.,0.0035),.UNSPECIFIED.)
GEOMETRIC_REPRESENTATION_ITEM()
RATIONAL_B_SPLINE_SURFACE(((1.,1.),(0.5,0.5),(1.,1.),(0.5,0.5),(1.,1.),(0.5,0.5),(1.,1.)))
REPRESENTATION_ITEM('')
SURFACE()
);
#475=ORIENTED_EDGE('',*,*,#216,.F.);
#476=CARTESIAN_POINT('',(-1.05,7.6,3.5));
#477=VERTEX_POINT('',#476);
#478=CARTESIAN_POINT('',(-1.05,7.6,3.5));
#479=CARTESIAN_POINT('',(-1.05,7.6,0.));
#480=B_SPLINE_CURVE_WITH_KNOTS('',1,(#478,#479),.UNSPECIFIED.,.F.,.F.,(2,2),(0.,0.0035),.UNSPECIFIED.);
#481=EDGE_CURVE('',#477,#205,#480,.T.);
#482=ORIENTED_EDGE('',*,*,#481,.F.);
#483=CARTESIAN_POINT('',(-1.05,7.6,3.5));
#484=CARTESIAN_POINT('',(-1.05,6.55,3.5));
#485=CARTESIAN_POINT('',(-0.,6.55,3.5));
#486=CARTESIAN_POINT('',(1.05,6.55,3.5));
#487=CARTESIAN_POINT('',(1.05,7.6,3.5));
#488=CARTESIAN_POINT('',(1.05,8.65,3.5));
#489=CARTESIAN_POINT('',(0.,8.65,3.5));
#490=CARTESIAN_POINT('',(-1.05,8.65,3.5));
#491=CARTESIAN_POINT('',(-1.05,7.6,3.5));
#492=(BOUNDED_CURVE()
B_SPLINE_CURVE(2,(#483,#484,#485,#486,#487,#488,#489,#490,#491),.UNSPECIFIED.,.T.,.F.)
B_SPLINE_CURVE_WITH_KNOTS((3,2,2,2,3),(0.,1.570796327,3.141592654,4.71238898,6.283185307),.UNSPECIFIED.)
CURVE()
GEOMETRIC_REPRESENTATION_ITEM()
RATIONAL_B_SPLINE_CURVE((1.,0.707106781,1.,0.707106781,1.,0.707106781,1.,0.707106781,1.))
REPRESENTATION_ITEM(''));
#493=EDGE_CURVE('',#477,#477,#492,.T.);
#494=ORIENTED_EDGE('',*,*,#493,.T.);
#495=ORIENTED_EDGE('',*,*,#481,.T.);
#496=EDGE_LOOP('',(#475,#482,#494,#495));
#497=FACE_BOUND('',#496,.T.);
#498=ADVANCED_FACE('',(#497),#474,.F.);
#499=CARTESIAN_POINT('',(6.55,0.,3.5));
#500=CARTESIAN_POINT('',(6.55,0.,-0.));
#501=CARTESIAN_POINT('',(6.55,1.818653348,3.5));
#502=CARTESIAN_POINT('',(6.55,1.818653348,-0.));
#503=CARTESIAN_POINT('',(8.125,0.909326674,3.5));
#504=CARTESIAN_POINT('',(8.125,0.909326674,-0.));
#505=CARTESIAN_POINT('',(9.7,0.,3.5));
#506=CARTESIAN_POINT('',(9.7,0.,-0.));
#507=CARTESIAN_POINT('',(8.125,-0.909326674,3.5));
#508=CARTESIAN_POINT('',(8.125,-0.909326674,-0.));
#509=CARTESIAN_POINT('',(6.55,-1.818653348,3.5));
#510=CARTESIAN_POINT('',(6.55,-1.818653348,-0.));
#511=CARTESIAN_POINT('',(6.55,-0.,3.5));
#512=CARTESIAN_POINT('',(6.55,-0.,-0.));
#513=(BOUNDED_SURFACE()
B_SPLINE_SURFACE(2,1,((#499,#500),(#501,#502),(#503,#504),(#505,#506),(#507,#508),(#509,#510),(#511,#512)),.UNSPECIFIED.,.T.,.F.,.U.)
B_SPLINE_SURFACE_WITH_KNOTS((3,2,2,3),(2,2),(0.,2.094395102,4.188790205,6.283185307),(-0.,0.0035),.UNSPECIFIED.)
GEOMETRIC_REPRESENTATION_ITEM()
RATIONAL_B_SPLINE_SURFACE(((1.,1.),(0.5,0.5),(1.,1.),(0.5,0.5),(1.,1.),(0.5,0.5),(1.,1.)))
REPRESENTATION_ITEM('')
SURFACE()
);
#514=ORIENTED_EDGE('',*,*,#232,.F.);
#515=CARTESIAN_POINT('',(6.55,0.,3.5));
#516=VERTEX_POINT('',#515);
#517=CARTESIAN_POINT('',(6.55,0.,3.5));
#518=CARTESIAN_POINT('',(6.55,0.,0.));
#519=B_SPLINE_CURVE_WITH_KNOTS('',1,(#517,#518),.UNSPECIFIED.,.F.,.F.,(2,2),(0.,0.0035),.UNSPECIFIED.);
#520=EDGE_CURVE('',#516,#221,#519,.T.);
#521=ORIENTED_EDGE('',*,*,#520,.F.);
#522=CARTESIAN_POINT('',(6.55,0.,3.5));
#523=CARTESIAN_POINT('',(6.55,-1.05,3.5));
#524=CARTESIAN_POINT('',(7.6,-1.05,3.5));
#525=CARTESIAN_POINT('',(8.65,-1.05,3.5));
#526=CARTESIAN_POINT('',(8.65,-0.,3.5));
#527=CARTESIAN_POINT('',(8.65,1.05,3.5));
#528=CARTESIAN_POINT('',(7.6,1.05,3.5));
#529=CARTESIAN_POINT('',(6.55,1.05,3.5));
#530=CARTESIAN_POINT('',(6.55,0.,3.5));
#531=(BOUNDED_CURVE()
B_SPLINE_CURVE(2,(#522,#523,#524,#525,#526,#527,#528,#529,#530),.UNSPECIFIED.,.T.,.F.)
B_SPLINE_CURVE_WITH_KNOTS((3,2,2,2,3),(0.,1.570796327,3.141592654,4.71238898,6.283185307),.UNSPECIFIED.)
CURVE()
GEOMETRIC_REPRESENTATION_ITEM()
RATIONAL_B_SPLINE_CURVE((1.,0.707106781,1.,0.707106781,1.,0.707106781,1.,0.707106781,1.))
REPRESENTATION_ITEM(''));
#532=EDGE_CURVE('',#516,#516,#531,.T.);
#533=ORIENTED_EDGE('',*,*,#532,.T.);
#534=ORIENTED_EDGE('',*,*,#520,.T.);
#535=EDGE_LOOP('',(#514,#521,#533,#534));
#536=FACE_BOUND('',#535,.T.);
#537=ADVANCED_FACE('',(#536),#513,.F.);
#538=CARTESIAN_POINT('',(10.918471064,-1.336783311,3.5));
#539=CARTESIAN_POINT('',(10.918471064,-1.336783311,-0.));
#540=CARTESIAN_POINT('',(10.25168658,-6.782891915,3.5));
#541=CARTESIAN_POINT('',(10.25168658,-6.782891915,-0.));
#542=CARTESIAN_POINT('',(5.5,-9.526279442,3.5));
#543=CARTESIAN_POINT('',(5.5,-9.526279442,-0.));
#544=CARTESIAN_POINT('',(-8.898052089,-17.838998691,3.5));
#545=CARTESIAN_POINT('',(-8.898052089,-17.838998691,-0.));
#546=CARTESIAN_POINT('',(-10.918471064,-1.336783311,3.5));
#547=CARTESIAN_POINT('',(-10.918471064,-1.336783311,-0.));
#548=(BOUNDED_SURFACE()
B_SPLINE_SURFACE(2,1,((#538,#539),(#540,#541),(#542,#543),(#544,#545),(#546,#547)),.UNSPECIFIED.,.F.,.F.,.U.)
B_SPLINE_SURFACE_WITH_KNOTS((3,2,3),(2,2),(3.252214271,4.188790205,6.140706765),(-0.,0.0035),.UNSPECIFIED.)
GEOMETRIC_REPRESENTATION_ITEM()
RATIONAL_B_SPLINE_SURFACE(((0.752789734,0.752789734),(0.776408966,0.776408966),(1.,1.),(0.534014246,0.534014246),(0.936599383,0.936599383)))
REPRESENTATION_ITEM('')
SURFACE()
);
#549=ORIENTED_EDGE('',*,*,#260,.T.);
#550=ORIENTED_EDGE('',*,*,#307,.F.);
#551=CARTESIAN_POINT('',(-10.918471064,-1.336783311,3.5));
#552=CARTESIAN_POINT('',(-9.735372558,-11.,3.5));
#553=CARTESIAN_POINT('',(0.,-11.,3.5));
#554=CARTESIAN_POINT('',(9.735372558,-11.,3.5));
#555=CARTESIAN_POINT('',(10.918471064,-1.336783311,3.5));
#556=(BOUNDED_CURVE()
B_SPLINE_CURVE(2,(#551,#552,#553,#554,#555),.UNSPECIFIED.,.F.,.F.)
B_SPLINE_CURVE_WITH_KNOTS((3,2,3),(0.121826887,1.570796327,3.019765767),.UNSPECIFIED.)
CURVE()
GEOMETRIC_REPRESENTATION_ITEM()
RATIONAL_B_SPLINE_CURVE((1.,0.748841023,1.,0.748841023,1.))
REPRESENTATION_ITEM(''));
#557=EDGE_CURVE('',#368,#298,#556,.T.);
#558=ORIENTED_EDGE('',*,*,#557,.F.);
#559=ORIENTED_EDGE('',*,*,#372,.T.);
#560=EDGE_LOOP('',(#549,#550,#558,#559));
#561=FACE_BOUND('',#560,.T.);
#562=ADVANCED_FACE('',(#561),#548,.T.);
#563=CARTESIAN_POINT('',(-1.05,-7.6,3.5));
#564=CARTESIAN_POINT('',(-1.05,-7.6,-0.));
#565=CARTESIAN_POINT('',(-1.05,-5.781346652,3.5));
#566=CARTESIAN_POINT('',(-1.05,-5.781346652,-0.));
#567=CARTESIAN_POINT('',(0.525,-6.690673326,3.5));
#568=CARTESIAN_POINT('',(0.525,-6.690673326,-0.));
#569=CARTESIAN_POINT('',(2.1,-7.6,3.5));
#570=CARTESIAN_POINT('',(2.1,-7.6,-0.));
#571=CARTESIAN_POINT('',(0.525,-8.509326674,3.5));
#572=CARTESIAN_POINT('',(0.525,-8.509326674,-0.));
#573=CARTESIAN_POINT('',(-1.05,-9.418653348,3.5));
#574=CARTESIAN_POINT('',(-1.05,-9.418653348,-0.));
#575=CARTESIAN_POINT('',(-1.05,-7.6,3.5));
#576=CARTESIAN_POINT('',(-1.05,-7.6,-0.));
#577=(BOUNDED_SURFACE()
B_SPLINE_SURFACE(2,1,((#563,#564),(#565,#566),(#567,#568),(#569,#570),(#571,#572),(#573,#574),(#575,#576)),.UNSPECIFIED.,.T.,.F.,.U.)
B_SPLINE_SURFACE_WITH_KNOTS((3,2,2,3),(2,2),(0.,2.094395102,4.188790205,6.283185307),(-0.,0.0035),.UNSPECIFIED.)
GEOMETRIC_REPRESENTATION_ITEM()
RATIONAL_B_SPLINE_SURFACE(((1.,1.),(0.5,0.5),(1.,1.),(0.5,0.5),(1.,1.),(0.5,0.5),(1.,1.)))
REPRESENTATION_ITEM('')
SURFACE()
);
#578=ORIENTED_EDGE('',*,*,#168,.F.);
#579=CARTESIAN_POINT('',(-1.05,-7.6,3.5));
#580=VERTEX_POINT('',#579);
#581=CARTESIAN_POINT('',(-1.05,-7.6,3.5));
#582=CARTESIAN_POINT('',(-1.05,-7.6,0.));
#583=B_SPLINE_CURVE_WITH_KNOTS('',1,(#581,#582),.UNSPECIFIED.,.F.,.F.,(2,2),(0.,0.0035),.UNSPECIFIED.);
#584=EDGE_CURVE('',#580,#157,#583,.T.);
#585=ORIENTED_EDGE('',*,*,#584,.F.);
#586=CARTESIAN_POINT('',(-1.05,-7.6,3.5));
#587=CARTESIAN_POINT('',(-1.05,-8.65,3.5));
#588=CARTESIAN_POINT('',(-0.,-8.65,3.5));
#589=CARTESIAN_POINT('',(1.05,-8.65,3.5));
#590=CARTESIAN_POINT('',(1.05,-7.6,3.5));
#591=CARTESIAN_POINT('',(1.05,-6.55,3.5));
#592=CARTESIAN_POINT('',(0.,-6.55,3.5));
#593=CARTESIAN_POINT('',(-1.05,-6.55,3.5));
#594=CARTESIAN_POINT('',(-1.05,-7.6,3.5));
#595=(BOUNDED_CURVE()
B_SPLINE_CURVE(2,(#586,#587,#588,#589,#590,#591,#592,#593,#594),.UNSPECIFIED.,.T.,.F.)
B_SPLINE_CURVE_WITH_KNOTS((3,2,2,2,3),(0.,1.570796327,3.141592654,4.71238898,6.283185307),.UNSPECIFIED.)
CURVE()
GEOMETRIC_REPRESENTATION_ITEM()
RATIONAL_B_SPLINE_CURVE((1.,0.707106781,1.,0.707106781,1.,0.707106781,1.,0.707106781,1.))
REPRESENTATION_ITEM(''));
#596=EDGE_CURVE('',#580,#580,#595,.T.);
#597=ORIENTED_EDGE('',*,*,#596,.T.);
#598=ORIENTED_EDGE('',*,*,#584,.T.);
#599=EDGE_LOOP('',(#578,#585,#597,#598));
#600=FACE_BOUND('',#599,.T.);
#601=ADVANCED_FACE('',(#600),#577,.F.);
#602=CARTESIAN_POINT('',(12.306469681,10.,3.5));
#603=CARTESIAN_POINT('',(12.306469681,-11.,3.5));
#604=CARTESIAN_POINT('',(-12.306469681,10.,3.5));
#605=CARTESIAN_POINT('',(-12.306469681,-11.,3.5));
#606=B_SPLINE_SURFACE_WITH_KNOTS('',1,1,((#602,#603),(#604,#605)),.UNSPECIFIED.,.F.,.F.,.U.,(2,2),(2,2),(-0.01230647,0.01230647),(-0.01,0.011),.UNSPECIFIED.);
#607=ORIENTED_EDGE('',*,*,#302,.T.);
#608=CARTESIAN_POINT('',(12.306469681,10.,3.5));
#609=CARTESIAN_POINT('',(-12.306469681,10.,3.5));
#610=B_SPLINE_CURVE_WITH_KNOTS('',1,(#608,#609),.UNSPECIFIED.,.F.,.F.,(2,2),(0.0003673,0.024980239),.UNSPECIFIED.);
#611=EDGE_CURVE('',#290,#332,#610,.T.);
#612=ORIENTED_EDGE('',*,*,#611,.T.);
#613=ORIENTED_EDGE('',*,*,#377,.T.);
#614=ORIENTED_EDGE('',*,*,#557,.T.);
#615=EDGE_LOOP('',(#607,#612,#613,#614));
#616=FACE_BOUND('',#615,.T.);
#617=ORIENTED_EDGE('',*,*,#532,.F.);
#618=EDGE_LOOP('',(#617));
#619=FACE_BOUND('',#618,.T.);
#620=ORIENTED_EDGE('',*,*,#493,.F.);
#621=EDGE_LOOP('',(#620));
#622=FACE_BOUND('',#621,.T.);
#623=ORIENTED_EDGE('',*,*,#454,.F.);
#624=EDGE_LOOP('',(#623));
#625=FACE_BOUND('',#624,.T.);
#626=ORIENTED_EDGE('',*,*,#415,.F.);
#627=EDGE_LOOP('',(#626));
#628=FACE_BOUND('',#627,.T.);
#629=ORIENTED_EDGE('',*,*,#596,.F.);
#630=EDGE_LOOP('',(#629));
#631=FACE_BOUND('',#630,.T.);
#632=ADVANCED_FACE('',(#616,#619,#622,#625,#628,#631),#606,.T.);
#633=CARTESIAN_POINT('',(-12.67376927,13.,-3.6));
#634=CARTESIAN_POINT('',(12.67376927,13.,-3.6));
#635=CARTESIAN_POINT('',(-12.67376927,13.,0.));
#636=CARTESIAN_POINT('',(12.67376927,13.,0.));
#637=B_SPLINE_SURFACE_WITH_KNOTS('',1,1,((#633,#634),(#635,#636)),.UNSPECIFIED.,.F.,.F.,.U.,(2,2),(2,2),(0.,0.0036),(-0.025347539,0.),.UNSPECIFIED.);
#638=ORIENTED_EDGE('',*,*,#243,.T.);
#639=ORIENTED_EDGE('',*,*,#364,.F.);
#640=CARTESIAN_POINT('',(12.67376927,13.,-3.6));
#641=CARTESIAN_POINT('',(-12.67376927,13.,-3.6));
#642=B_SPLINE_CURVE_WITH_KNOTS('',1,(#640,#641),.UNSPECIFIED.,.F.,.F.,(2,2),(0.,0.025347539),.UNSPECIFIED.);
#643=EDGE_CURVE('',#311,#355,#642,.T.);
#644=ORIENTED_EDGE('',*,*,#643,.F.);
#645=ORIENTED_EDGE('',*,*,#315,.T.);
#646=EDGE_LOOP('',(#638,#639,#644,#645));
#647=FACE_BOUND('',#646,.T.);
#648=ADVANCED_FACE('',(#647),#637,.F.);
#649=CARTESIAN_POINT('',(-15.,32.,-3.6));
#650=CARTESIAN_POINT('',(-15.,13.,-3.6));
#651=CARTESIAN_POINT('',(15.,32.,-3.6));
#652=CARTESIAN_POINT('',(15.,13.,-3.6));
#653=B_SPLINE_SURFACE_WITH_KNOTS('',1,1,((#649,#650),(#651,#652)),.UNSPECIFIED.,.F.,.F.,.U.,(2,2),(2,2),(-0.015,0.015),(-0.032,-0.013),.UNSPECIFIED.);
#654=CARTESIAN_POINT('',(-7.,23.95,-3.6));
#655=VERTEX_POINT('',#654);
#656=CARTESIAN_POINT('',(-8.05,25.,-3.6));
#657=VERTEX_POINT('',#656);
#658=CARTESIAN_POINT('',(-8.05,25.,-3.6));
#659=CARTESIAN_POINT('',(-8.05,26.05,-3.6));
#660=CARTESIAN_POINT('',(-7.,26.05,-3.6));
#661=CARTESIAN_POINT('',(-5.95,26.05,-3.6));
#662=CARTESIAN_POINT('',(-5.95,25.,-3.6));
#663=CARTESIAN_POINT('',(-5.95,23.95,-3.6));
#664=CARTESIAN_POINT('',(-7.,23.95,-3.6));
#665=CARTESIAN_POINT('',(-8.05,23.95,-3.6));
#666=CARTESIAN_POINT('',(-8.05,25.,-3.6));
#667=(BOUNDED_CURVE()
B_SPLINE_CURVE(2,(#658,#659,#660,#661,#662,#663,#664,#665,#666),.UNSPECIFIED.,.T.,.F.)
B_SPLINE_CURVE_WITH_KNOTS((3,2,2,2,3),(0.,1.570796327,3.141592654,4.71238898,6.283185307),.UNSPECIFIED.)
CURVE()
GEOMETRIC_REPRESENTATION_ITEM()
RATIONAL_B_SPLINE_CURVE((1.,0.707106781,1.,0.707106781,1.,0.707106781,1.,0.707106781,1.))
REPRESENTATION_ITEM(''));
#668=EDGE_CURVE('',#655,#657,#667,.T.);
#669=ORIENTED_EDGE('',*,*,#668,.F.);
#670=CARTESIAN_POINT('',(-8.05,25.,-3.6));
#671=CARTESIAN_POINT('',(-8.05,26.05,-3.6));
#672=CARTESIAN_POINT('',(-7.,26.05,-3.6));
#673=CARTESIAN_POINT('',(-5.95,26.05,-3.6));
#674=CARTESIAN_POINT('',(-5.95,25.,-3.6));
#675=CARTESIAN_POINT('',(-5.95,23.95,-3.6));
#676=CARTESIAN_POINT('',(-7.,23.95,-3.6));
#677=CARTESIAN_POINT('',(-8.05,23.95,-3.6));
#678=CARTESIAN_POINT('',(-8.05,25.,-3.6));
#679=(BOUNDED_CURVE()
B_SPLINE_CURVE(2,(#670,#671,#672,#673,#674,#675,#676,#677,#678),.UNSPECIFIED.,.T.,.F.)
B_SPLINE_CURVE_WITH_KNOTS((3,2,2,2,3),(0.,1.570796327,3.141592654,4.71238898,6.283185307),.UNSPECIFIED.)
CURVE()
GEOMETRIC_REPRESENTATION_ITEM()
RATIONAL_B_SPLINE_CURVE((1.,0.707106781,1.,0.707106781,1.,0.707106781,1.,0.707106781,1.))
REPRESENTATION_ITEM(''));
#680=EDGE_CURVE('',#657,#655,#679,.T.);
#681=ORIENTED_EDGE('',*,*,#680,.F.);
#682=EDGE_LOOP('',(#669,#681));
#683=FACE_BOUND('',#682,.T.);
#684=CARTESIAN_POINT('',(7.,23.95,-3.6));
#685=VERTEX_POINT('',#684);
#686=CARTESIAN_POINT('',(5.95,25.,-3.6));
#687=VERTEX_POINT('',#686);
#688=CARTESIAN_POINT('',(5.95,25.,-3.6));
#689=CARTESIAN_POINT('',(5.95,26.05,-3.6));
#690=CARTESIAN_POINT('',(7.,26.05,-3.6));
#691=CARTESIAN_POINT('',(8.05,26.05,-3.6));
#692=CARTESIAN_POINT('',(8.05,25.,-3.6));
#693=CARTESIAN_POINT('',(8.05,23.95,-3.6));
#694=CARTESIAN_POINT('',(7.,23.95,-3.6));
#695=CARTESIAN_POINT('',(5.95,23.95,-3.6));
#696=CARTESIAN_POINT('',(5.95,25.,-3.6));
#697=(BOUNDED_CURVE()
B_SPLINE_CURVE(2,(#688,#689,#690,#691,#692,#693,#694,#695,#696),.UNSPECIFIED.,.T.,.F.)
B_SPLINE_CURVE_WITH_KNOTS((3,2,2,2,3),(0.,1.570796327,3.141592654,4.71238898,6.283185307),.UNSPECIFIED.)
CURVE()
GEOMETRIC_REPRESENTATION_ITEM()
RATIONAL_B_SPLINE_CURVE((1.,0.707106781,1.,0.707106781,1.,0.707106781,1.,0.707106781,1.))
REPRESENTATION_ITEM(''));
#698=EDGE_CURVE('',#685,#687,#697,.T.);
#699=ORIENTED_EDGE('',*,*,#698,.F.);
#700=CARTESIAN_POINT('',(5.95,25.,-3.6));
#701=CARTESIAN_POINT('',(5.95,26.05,-3.6));
#702=CARTESIAN_POINT('',(7.,26.05,-3.6));
#703=CARTESIAN_POINT('',(8.05,26.05,-3.6));
#704=CARTESIAN_POINT('',(8.05,25.,-3.6));
#705=CARTESIAN_POINT('',(8.05,23.95,-3.6));
#706=CARTESIAN_POINT('',(7.,23.95,-3.6));
#707=CARTESIAN_POINT('',(5.95,23.95,-3.6));
#708=CARTESIAN_POINT('',(5.95,25.,-3.6));
#709=(BOUNDED_CURVE()
B_SPLINE_CURVE(2,(#700,#701,#702,#703,#704,#705,#706,#707,#708),.UNSPECIFIED.,.T.,.F.)
B_SPLINE_CURVE_WITH_KNOTS((3,2,2,2,3),(0.,1.570796327,3.141592654,4.71238898,6.283185307),.UNSPECIFIED.)
CURVE()
GEOMETRIC_REPRESENTATION_ITEM()
RATIONAL_B_SPLINE_CURVE((1.,0.707106781,1.,0.707106781,1.,0.707106781,1.,0.707106781,1.))
REPRESENTATION_ITEM(''));
#710=EDGE_CURVE('',#687,#685,#709,.T.);
#711=ORIENTED_EDGE('',*,*,#710,.F.);
#712=EDGE_LOOP('',(#699,#711));
#713=FACE_BOUND('',#712,.T.);
#714=ORIENTED_EDGE('',*,*,#146,.T.);
#715=ORIENTED_EDGE('',*,*,#320,.T.);
#716=ORIENTED_EDGE('',*,*,#643,.T.);
#717=ORIENTED_EDGE('',*,*,#359,.T.);
#718=EDGE_LOOP('',(#714,#715,#716,#717));
#719=FACE_BOUND('',#718,.T.);
#720=ADVANCED_FACE('',(#683,#713,#719),#653,.T.);
#721=CARTESIAN_POINT('',(27.,32.,10.));
#722=CARTESIAN_POINT('',(27.,35.,10.));
#723=CARTESIAN_POINT('',(27.,32.,-10.));
#724=CARTESIAN_POINT('',(27.,35.,-10.));
#725=B_SPLINE_SURFACE_WITH_KNOTS('',1,1,((#721,#722),(#723,#724)),.UNSPECIFIED.,.F.,.F.,.U.,(2,2),(2,2),(-0.02,0.),(-0.003,0.),.UNSPECIFIED.);
#726=ORIENTED_EDGE('',*,*,#127,.F.);
#727=CARTESIAN_POINT('',(27.,35.,-10.));
#728=VERTEX_POINT('',#727);
#729=CARTESIAN_POINT('',(27.,35.,-10.));
#730=CARTESIAN_POINT('',(27.,32.,-10.));
#731=B_SPLINE_CURVE_WITH_KNOTS('',1,(#729,#730),.UNSPECIFIED.,.F.,.F.,(2,2),(0.,0.003),.UNSPECIFIED.);
#732=EDGE_CURVE('',#728,#116,#731,.T.);
#733=ORIENTED_EDGE('',*,*,#732,.F.);
#734=CARTESIAN_POINT('',(27.,35.,10.));
#735=VERTEX_POINT('',#734);
#736=CARTESIAN_POINT('',(27.,35.,-10.));
#737=CARTESIAN_POINT('',(27.,35.,10.));
#738=B_SPLINE_CURVE_WITH_KNOTS('',1,(#736,#737),.UNSPECIFIED.,.F.,.F.,(2,2),(0.,0.02),.UNSPECIFIED.);
#739=EDGE_CURVE('',#728,#735,#738,.T.);
#740=ORIENTED_EDGE('',*,*,#739,.T.);
#741=CARTESIAN_POINT('',(27.,35.,10.));
#742=CARTESIAN_POINT('',(27.,32.,10.));
#743=B_SPLINE_CURVE_WITH_KNOTS('',1,(#741,#742),.UNSPECIFIED.,.F.,.F.,(2,2),(0.,0.003),.UNSPECIFIED.);
#744=EDGE_CURVE('',#735,#123,#743,.T.);
#745=ORIENTED_EDGE('',*,*,#744,.T.);
#746=EDGE_LOOP('',(#726,#733,#740,#745));
#747=FACE_BOUND('',#746,.T.);
#748=ADVANCED_FACE('',(#747),#725,.T.);
#749=CARTESIAN_POINT('',(27.,32.,-10.));
#750=CARTESIAN_POINT('',(27.,35.,-10.));
#751=CARTESIAN_POINT('',(-27.,32.,-10.));
#752=CARTESIAN_POINT('',(-27.,35.,-10.));
#753=B_SPLINE_SURFACE_WITH_KNOTS('',1,1,((#749,#750),(#751,#752)),.UNSPECIFIED.,.F.,.F.,.U.,(2,2),(2,2),(-0.054,0.),(-0.003,0.),.UNSPECIFIED.);
#754=ORIENTED_EDGE('',*,*,#120,.F.);
#755=CARTESIAN_POINT('',(-27.,35.,-10.));
#756=VERTEX_POINT('',#755);
#757=CARTESIAN_POINT('',(-27.,35.,-10.));
#758=CARTESIAN_POINT('',(-27.,32.,-10.));
#759=B_SPLINE_CURVE_WITH_KNOTS('',1,(#757,#758),.UNSPECIFIED.,.F.,.F.,(2,2),(0.,0.003),.UNSPECIFIED.);
#760=EDGE_CURVE('',#756,#109,#759,.T.);
#761=ORIENTED_EDGE('',*,*,#760,.F.);
#762=CARTESIAN_POINT('',(-27.,35.,-10.));
#763=CARTESIAN_POINT('',(27.,35.,-10.));
#764=B_SPLINE_CURVE_WITH_KNOTS('',1,(#762,#763),.UNSPECIFIED.,.F.,.F.,(2,2),(0.,0.054),.UNSPECIFIED.);
#765=EDGE_CURVE('',#756,#728,#764,.T.);
#766=ORIENTED_EDGE('',*,*,#765,.T.);
#767=ORIENTED_EDGE('',*,*,#732,.T.);
#768=EDGE_LOOP('',(#754,#761,#766,#767));
#769=FACE_BOUND('',#768,.T.);
#770=ADVANCED_FACE('',(#769),#753,.T.);
#771=CARTESIAN_POINT('',(-27.,32.,-10.));
#772=CARTESIAN_POINT('',(-27.,35.,-10.));
#773=CARTESIAN_POINT('',(-27.,32.,10.));
#774=CARTESIAN_POINT('',(-27.,35.,10.));
#775=B_SPLINE_SURFACE_WITH_KNOTS('',1,1,((#771,#772),(#773,#774)),.UNSPECIFIED.,.F.,.F.,.U.,(2,2),(2,2),(-0.02,0.),(-0.003,0.),.UNSPECIFIED.);
#776=ORIENTED_EDGE('',*,*,#113,.F.);
#777=CARTESIAN_POINT('',(-27.,35.,10.));
#778=VERTEX_POINT('',#777);
#779=CARTESIAN_POINT('',(-27.,35.,10.));
#780=CARTESIAN_POINT('',(-27.,32.,10.));
#781=B_SPLINE_CURVE_WITH_KNOTS('',1,(#779,#780),.UNSPECIFIED.,.F.,.F.,(2,2),(0.,0.003),.UNSPECIFIED.);
#782=EDGE_CURVE('',#778,#102,#781,.T.);
#783=ORIENTED_EDGE('',*,*,#782,.F.);
#784=CARTESIAN_POINT('',(-27.,35.,10.));
#785=CARTESIAN_POINT('',(-27.,35.,-10.));
#786=B_SPLINE_CURVE_WITH_KNOTS('',1,(#784,#785),.UNSPECIFIED.,.F.,.F.,(2,2),(0.,0.02),.UNSPECIFIED.);
#787=EDGE_CURVE('',#778,#756,#786,.T.);
#788=ORIENTED_EDGE('',*,*,#787,.T.);
#789=ORIENTED_EDGE('',*,*,#760,.T.);
#790=EDGE_LOOP('',(#776,#783,#788,#789));
#791=FACE_BOUND('',#790,.T.);
#792=ADVANCED_FACE('',(#791),#775,.T.);
#793=CARTESIAN_POINT('',(22.,35.,-2.55));
#794=CARTESIAN_POINT('',(22.,32.,-2.55));
#795=CARTESIAN_POINT('',(26.416729559,35.,-2.55));
#796=CARTESIAN_POINT('',(26.416729559,32.,-2.55));
#797=CARTESIAN_POINT('',(24.20836478,35.,1.275));
#798=CARTESIAN_POINT('',(24.20836478,32.,1.275));
#799=CARTESIAN_POINT('',(22.,35.,5.1));
#800=CARTESIAN_POINT('',(22.,32.,5.1));
#801=CARTESIAN_POINT('',(19.79163522,35.,1.275));
#802=CARTESIAN_POINT('',(19.79163522,32.,1.275));
#803=CARTESIAN_POINT('',(19.45,35.,0.683270441));
#804=CARTESIAN_POINT('',(19.45,32.,0.683270441));
#805=CARTESIAN_POINT('',(19.45,35.,-0.));
#806=CARTESIAN_POINT('',(19.45,32.,-0.));
#807=(BOUNDED_SURFACE()
B_SPLINE_SURFACE(2,1,((#793,#794),(#795,#796),(#797,#798),(#799,#800),(#801,#802),(#803,#804),(#805,#806)),.UNSPECIFIED.,.F.,.F.,.U.)
B_SPLINE_SURFACE_WITH_KNOTS((3,2,2,3),(2,2),(0.,2.094395102,4.188790205,4.749981681),(-0.,0.003),.UNSPECIFIED.)
GEOMETRIC_REPRESENTATION_ITEM()
RATIONAL_B_SPLINE_SURFACE(((1.,1.),(0.5,0.5),(1.,1.),(0.5,0.5),(1.,1.),(0.866025404,0.866025404),(0.803847577,0.803847577)))
REPRESENTATION_ITEM('')
SURFACE()
);
#808=CARTESIAN_POINT('',(22.,35.,-2.55));
#809=VERTEX_POINT('',#808);
#810=CARTESIAN_POINT('',(22.,32.,-2.55));
#811=CARTESIAN_POINT('',(22.,35.,-2.55));
#812=B_SPLINE_CURVE_WITH_KNOTS('',1,(#810,#811),.UNSPECIFIED.,.F.,.F.,(2,2),(0.,0.003),.UNSPECIFIED.);
#813=EDGE_CURVE('',#65,#809,#812,.T.);
#814=ORIENTED_EDGE('',*,*,#813,.F.);
#815=ORIENTED_EDGE('',*,*,#76,.F.);
#816=CARTESIAN_POINT('',(19.45,35.,-0.));
#817=VERTEX_POINT('',#816);
#818=CARTESIAN_POINT('',(19.45,35.,-0.));
#819=CARTESIAN_POINT('',(19.45,32.,-0.));
#820=B_SPLINE_CURVE_WITH_KNOTS('',1,(#818,#819),.UNSPECIFIED.,.F.,.F.,(2,2),(0.,0.003),.UNSPECIFIED.);
#821=EDGE_CURVE('',#817,#63,#820,.T.);
#822=ORIENTED_EDGE('',*,*,#821,.F.);
#823=CARTESIAN_POINT('',(19.45,35.,-0.));
#824=CARTESIAN_POINT('',(19.45,35.,2.55));
#825=CARTESIAN_POINT('',(22.,35.,2.55));
#826=CARTESIAN_POINT('',(24.55,35.,2.55));
#827=CARTESIAN_POINT('',(24.55,35.,-0.));
#828=CARTESIAN_POINT('',(24.55,35.,-2.55));
#829=CARTESIAN_POINT('',(22.,35.,-2.55));
#830=CARTESIAN_POINT('',(19.45,35.,-2.55));
#831=CARTESIAN_POINT('',(19.45,35.,-0.));
#832=(BOUNDED_CURVE()
B_SPLINE_CURVE(2,(#823,#824,#825,#826,#827,#828,#829,#830,#831),.UNSPECIFIED.,.T.,.F.)
B_SPLINE_CURVE_WITH_KNOTS((3,2,2,2,3),(0.,1.570796327,3.141592654,4.71238898,6.283185307),.UNSPECIFIED.)
CURVE()
GEOMETRIC_REPRESENTATION_ITEM()
RATIONAL_B_SPLINE_CURVE((1.,0.707106781,1.,0.707106781,1.,0.707106781,1.,0.707106781,1.))
REPRESENTATION_ITEM(''));
#833=EDGE_CURVE('',#817,#809,#832,.T.);
#834=ORIENTED_EDGE('',*,*,#833,.T.);
#835=EDGE_LOOP('',(#814,#815,#822,#834));
#836=FACE_BOUND('',#835,.T.);
#837=ADVANCED_FACE('',(#836),#807,.F.);
#838=CARTESIAN_POINT('',(-27.,16.614378278,10.));
#839=CARTESIAN_POINT('',(-27.,35.,10.));
#840=CARTESIAN_POINT('',(27.,16.614378278,10.));
#841=CARTESIAN_POINT('',(27.,35.,10.));
#842=B_SPLINE_SURFACE_WITH_KNOTS('',1,1,((#838,#839),(#840,#841)),.UNSPECIFIED.,.F.,.F.,.U.,(2,2),(2,2),(-0.054,0.),(-0.018385622,0.),.UNSPECIFIED.);
#843=CARTESIAN_POINT('',(-7.,23.95,10.));
#844=VERTEX_POINT('',#843);
#845=CARTESIAN_POINT('',(-5.95,25.,10.));
#846=VERTEX_POINT('',#845);
#847=CARTESIAN_POINT('',(-5.95,25.,10.));
#848=CARTESIAN_POINT('',(-5.95,26.05,10.));
#849=CARTESIAN_POINT('',(-7.,26.05,10.));
#850=CARTESIAN_POINT('',(-8.05,26.05,10.));
#851=CARTESIAN_POINT('',(-8.05,25.,10.));
#852=CARTESIAN_POINT('',(-8.05,23.95,10.));
#853=CARTESIAN_POINT('',(-7.,23.95,10.));
#854=CARTESIAN_POINT('',(-5.95,23.95,10.));
#855=CARTESIAN_POINT('',(-5.95,25.,10.));
#856=(BOUNDED_CURVE()
B_SPLINE_CURVE(2,(#847,#848,#849,#850,#851,#852,#853,#854,#855),.UNSPECIFIED.,.T.,.F.)
B_SPLINE_CURVE_WITH_KNOTS((3,2,2,2,3),(0.,1.570796327,3.141592654,4.71238898,6.283185307),.UNSPECIFIED.)
CURVE()
GEOMETRIC_REPRESENTATION_ITEM()
RATIONAL_B_SPLINE_CURVE((1.,0.707106781,1.,0.707106781,1.,0.707106781,1.,0.707106781,1.))
REPRESENTATION_ITEM(''));
#857=EDGE_CURVE('',#844,#846,#856,.T.);
#858=ORIENTED_EDGE('',*,*,#857,.F.);
#859=CARTESIAN_POINT('',(-5.95,25.,10.));
#860=CARTESIAN_POINT('',(-5.95,26.05,10.));
#861=CARTESIAN_POINT('',(-7.,26.05,10.));
#862=CARTESIAN_POINT('',(-8.05,26.05,10.));
#863=CARTESIAN_POINT('',(-8.05,25.,10.));
#864=CARTESIAN_POINT('',(-8.05,23.95,10.));
#865=CARTESIAN_POINT('',(-7.,23.95,10.));
#866=CARTESIAN_POINT('',(-5.95,23.95,10.));
#867=CARTESIAN_POINT('',(-5.95,25.,10.));
#868=(BOUNDED_CURVE()
B_SPLINE_CURVE(2,(#859,#860,#861,#862,#863,#864,#865,#866,#867),.UNSPECIFIED.,.T.,.F.)
B_SPLINE_CURVE_WITH_KNOTS((3,2,2,2,3),(0.,1.570796327,3.141592654,4.71238898,6.283185307),.UNSPECIFIED.)
CURVE()
GEOMETRIC_REPRESENTATION_ITEM()
RATIONAL_B_SPLINE_CURVE((1.,0.707106781,1.,0.707106781,1.,0.707106781,1.,0.707106781,1.))
REPRESENTATION_ITEM(''));
#869=EDGE_CURVE('',#846,#844,#868,.T.);
#870=ORIENTED_EDGE('',*,*,#869,.F.);
#871=EDGE_LOOP('',(#858,#870));
#872=FACE_BOUND('',#871,.T.);
#873=CARTESIAN_POINT('',(7.,23.95,10.));
#874=VERTEX_POINT('',#873);
#875=CARTESIAN_POINT('',(8.05,25.,10.));
#876=VERTEX_POINT('',#875);
#877=CARTESIAN_POINT('',(8.05,25.,10.));
#878=CARTESIAN_POINT('',(8.05,26.05,10.));
#879=CARTESIAN_POINT('',(7.,26.05,10.));
#880=CARTESIAN_POINT('',(5.95,26.05,10.));
#881=CARTESIAN_POINT('',(5.95,25.,10.));
#882=CARTESIAN_POINT('',(5.95,23.95,10.));
#883=CARTESIAN_POINT('',(7.,23.95,10.));
#884=CARTESIAN_POINT('',(8.05,23.95,10.));
#885=CARTESIAN_POINT('',(8.05,25.,10.));
#886=(BOUNDED_CURVE()
B_SPLINE_CURVE(2,(#877,#878,#879,#880,#881,#882,#883,#884,#885),.UNSPECIFIED.,.T.,.F.)
B_SPLINE_CURVE_WITH_KNOTS((3,2,2,2,3),(0.,1.570796327,3.141592654,4.71238898,6.283185307),.UNSPECIFIED.)
CURVE()
GEOMETRIC_REPRESENTATION_ITEM()
RATIONAL_B_SPLINE_CURVE((1.,0.707106781,1.,0.707106781,1.,0.707106781,1.,0.707106781,1.))
REPRESENTATION_ITEM(''));
#887=EDGE_CURVE('',#874,#876,#886,.T.);
#888=ORIENTED_EDGE('',*,*,#887,.F.);
#889=CARTESIAN_POINT('',(8.05,25.,10.));
#890=CARTESIAN_POINT('',(8.05,26.05,10.));
#891=CARTESIAN_POINT('',(7.,26.05,10.));
#892=CARTESIAN_POINT('',(5.95,26.05,10.));
#893=CARTESIAN_POINT('',(5.95,25.,10.));
#894=CARTESIAN_POINT('',(5.95,23.95,10.));
#895=CARTESIAN_POINT('',(7.,23.95,10.));
#896=CARTESIAN_POINT('',(8.05,23.95,10.));
#897=CARTESIAN_POINT('',(8.05,25.,10.));
#898=(BOUNDED_CURVE()
B_SPLINE_CURVE(2,(#889,#890,#891,#892,#893,#894,#895,#896,#897),.UNSPECIFIED.,.T.,.F.)
B_SPLINE_CURVE_WITH_KNOTS((3,2,2,2,3),(0.,1.570796327,3.141592654,4.71238898,6.283185307),.UNSPECIFIED.)
CURVE()
GEOMETRIC_REPRESENTATION_ITEM()
RATIONAL_B_SPLINE_CURVE((1.,0.707106781,1.,0.707106781,1.,0.707106781,1.,0.707106781,1.))
REPRESENTATION_ITEM(''));
#899=EDGE_CURVE('',#876,#874,#898,.T.);
#900=ORIENTED_EDGE('',*,*,#899,.F.);
#901=EDGE_LOOP('',(#888,#900));
#902=FACE_BOUND('',#901,.T.);
#903=ORIENTED_EDGE('',*,*,#351,.F.);
#904=CARTESIAN_POINT('',(-13.116289155,16.614378278,10.));
#905=CARTESIAN_POINT('',(13.116289155,16.614378278,10.));
#906=B_SPLINE_CURVE_WITH_KNOTS('',1,(#904,#905),.UNSPECIFIED.,.F.,.F.,(2,2),(-0.025790058,0.00044252),.UNSPECIFIED.);
#907=EDGE_CURVE('',#342,#276,#906,.T.);
#908=ORIENTED_EDGE('',*,*,#907,.T.);
#909=ORIENTED_EDGE('',*,*,#280,.F.);
#910=ORIENTED_EDGE('',*,*,#134,.F.);
#911=ORIENTED_EDGE('',*,*,#744,.F.);
#912=CARTESIAN_POINT('',(27.,35.,10.));
#913=CARTESIAN_POINT('',(-27.,35.,10.));
#914=B_SPLINE_CURVE_WITH_KNOTS('',1,(#912,#913),.UNSPECIFIED.,.F.,.F.,(2,2),(-0.,0.054),.UNSPECIFIED.);
#915=EDGE_CURVE('',#735,#778,#914,.T.);
#916=ORIENTED_EDGE('',*,*,#915,.T.);
#917=ORIENTED_EDGE('',*,*,#782,.T.);
#918=ORIENTED_EDGE('',*,*,#106,.F.);
#919=EDGE_LOOP('',(#903,#908,#909,#910,#911,#916,#917,#918));
#920=FACE_BOUND('',#919,.T.);
#921=ADVANCED_FACE('',(#872,#902,#920),#842,.T.);
#922=CARTESIAN_POINT('',(-22.,35.,-2.55));
#923=CARTESIAN_POINT('',(-22.,32.,-2.55));
#924=CARTESIAN_POINT('',(-17.583270441,35.,-2.55));
#925=CARTESIAN_POINT('',(-17.583270441,32.,-2.55));
#926=CARTESIAN_POINT('',(-19.79163522,35.,1.275));
#927=CARTESIAN_POINT('',(-19.79163522,32.,1.275));
#928=CARTESIAN_POINT('',(-22.,35.,5.1));
#929=CARTESIAN_POINT('',(-22.,32.,5.1));
#930=CARTESIAN_POINT('',(-24.20836478,35.,1.275));
#931=CARTESIAN_POINT('',(-24.20836478,32.,1.275));
#932=CARTESIAN_POINT('',(-24.55,35.,0.683270441));
#933=CARTESIAN_POINT('',(-24.55,32.,0.683270441));
#934=CARTESIAN_POINT('',(-24.55,35.,-0.));
#935=CARTESIAN_POINT('',(-24.55,32.,-0.));
#936=(BOUNDED_SURFACE()
B_SPLINE_SURFACE(2,1,((#922,#923),(#924,#925),(#926,#927),(#928,#929),(#930,#931),(#932,#933),(#934,#935)),.UNSPECIFIED.,.F.,.F.,.U.)
B_SPLINE_SURFACE_WITH_KNOTS((3,2,2,3),(2,2),(0.,2.094395102,4.188790205,4.749981681),(-0.,0.003),.UNSPECIFIED.)
GEOMETRIC_REPRESENTATION_ITEM()
RATIONAL_B_SPLINE_SURFACE(((1.,1.),(0.5,0.5),(1.,1.),(0.5,0.5),(1.,1.),(0.866025404,0.866025404),(0.803847577,0.803847577)))
REPRESENTATION_ITEM('')
SURFACE()
);
#937=CARTESIAN_POINT('',(-22.,35.,-2.55));
#938=VERTEX_POINT('',#937);
#939=CARTESIAN_POINT('',(-22.,32.,-2.55));
#940=CARTESIAN_POINT('',(-22.,35.,-2.55));
#941=B_SPLINE_CURVE_WITH_KNOTS('',1,(#939,#940),.UNSPECIFIED.,.F.,.F.,(2,2),(0.,0.003),.UNSPECIFIED.);
#942=EDGE_CURVE('',#35,#938,#941,.T.);
#943=ORIENTED_EDGE('',*,*,#942,.F.);
#944=ORIENTED_EDGE('',*,*,#46,.F.);
#945=CARTESIAN_POINT('',(-24.55,35.,-0.));
#946=VERTEX_POINT('',#945);
#947=CARTESIAN_POINT('',(-24.55,35.,-0.));
#948=CARTESIAN_POINT('',(-24.55,32.,-0.));
#949=B_SPLINE_CURVE_WITH_KNOTS('',1,(#947,#948),.UNSPECIFIED.,.F.,.F.,(2,2),(0.,0.003),.UNSPECIFIED.);
#950=EDGE_CURVE('',#946,#33,#949,.T.);
#951=ORIENTED_EDGE('',*,*,#950,.F.);
#952=CARTESIAN_POINT('',(-24.55,35.,-0.));
#953=CARTESIAN_POINT('',(-24.55,35.,2.55));
#954=CARTESIAN_POINT('',(-22.,35.,2.55));
#955=CARTESIAN_POINT('',(-19.45,35.,2.55));
#956=CARTESIAN_POINT('',(-19.45,35.,-0.));
#957=CARTESIAN_POINT('',(-19.45,35.,-2.55));
#958=CARTESIAN_POINT('',(-22.,35.,-2.55));
#959=CARTESIAN_POINT('',(-24.55,35.,-2.55));
#960=CARTESIAN_POINT('',(-24.55,35.,-0.));
#961=(BOUNDED_CURVE()
B_SPLINE_CURVE(2,(#952,#953,#954,#955,#956,#957,#958,#959,#960),.UNSPECIFIED.,.T.,.F.)
B_SPLINE_CURVE_WITH_KNOTS((3,2,2,2,3),(0.,1.570796327,3.141592654,4.71238898,6.283185307),.UNSPECIFIED.)
CURVE()
GEOMETRIC_REPRESENTATION_ITEM()
RATIONAL_B_SPLINE_CURVE((1.,0.707106781,1.,0.707106781,1.,0.707106781,1.,0.707106781,1.))
REPRESENTATION_ITEM(''));
#962=EDGE_CURVE('',#946,#938,#961,.T.);
#963=ORIENTED_EDGE('',*,*,#962,.T.);
#964=EDGE_LOOP('',(#943,#944,#951,#963));
#965=FACE_BOUND('',#964,.T.);
#966=ADVANCED_FACE('',(#965),#936,.F.);
#967=CARTESIAN_POINT('',(27.,35.,-10.));
#968=CARTESIAN_POINT('',(27.,35.,10.));
#969=CARTESIAN_POINT('',(-27.,35.,-10.));
#970=CARTESIAN_POINT('',(-27.,35.,10.));
#971=B_SPLINE_SURFACE_WITH_KNOTS('',1,1,((#967,#968),(#969,#970)),.UNSPECIFIED.,.F.,.F.,.U.,(2,2),(2,2),(-0.027,0.027),(-0.00995,0.01005),.UNSPECIFIED.);
#972=ORIENTED_EDGE('',*,*,#739,.F.);
#973=ORIENTED_EDGE('',*,*,#765,.F.);
#974=ORIENTED_EDGE('',*,*,#787,.F.);
#975=ORIENTED_EDGE('',*,*,#915,.F.);
#976=EDGE_LOOP('',(#972,#973,#974,#975));
#977=FACE_BOUND('',#976,.T.);
#978=CARTESIAN_POINT('',(19.45,35.,-0.));
#979=CARTESIAN_POINT('',(19.45,35.,2.55));
#980=CARTESIAN_POINT('',(22.,35.,2.55));
#981=CARTESIAN_POINT('',(24.55,35.,2.55));
#982=CARTESIAN_POINT('',(24.55,35.,-0.));
#983=CARTESIAN_POINT('',(24.55,35.,-2.55));
#984=CARTESIAN_POINT('',(22.,35.,-2.55));
#985=CARTESIAN_POINT('',(19.45,35.,-2.55));
#986=CARTESIAN_POINT('',(19.45,35.,-0.));
#987=(BOUNDED_CURVE()
B_SPLINE_CURVE(2,(#978,#979,#980,#981,#982,#983,#984,#985,#986),.UNSPECIFIED.,.T.,.F.)
B_SPLINE_CURVE_WITH_KNOTS((3,2,2,2,3),(0.,1.570796327,3.141592654,4.71238898,6.283185307),.UNSPECIFIED.)
CURVE()
GEOMETRIC_REPRESENTATION_ITEM()
RATIONAL_B_SPLINE_CURVE((1.,0.707106781,1.,0.707106781,1.,0.707106781,1.,0.707106781,1.))
REPRESENTATION_ITEM(''));
#988=EDGE_CURVE('',#809,#817,#987,.T.);
#989=ORIENTED_EDGE('',*,*,#988,.F.);
#990=ORIENTED_EDGE('',*,*,#833,.F.);
#991=EDGE_LOOP('',(#989,#990));
#992=FACE_BOUND('',#991,.T.);
#993=CARTESIAN_POINT('',(-24.55,35.,-0.));
#994=CARTESIAN_POINT('',(-24.55,35.,2.55));
#995=CARTESIAN_POINT('',(-22.,35.,2.55));
#996=CARTESIAN_POINT('',(-19.45,35.,2.55));
#997=CARTESIAN_POINT('',(-19.45,35.,-0.));
#998=CARTESIAN_POINT('',(-19.45,35.,-2.55));
#999=CARTESIAN_POINT('',(-22.,35.,-2.55));
#1000=CARTESIAN_POINT('',(-24.55,35.,-2.55));
#1001=CARTESIAN_POINT('',(-24.55,35.,-0.));
#1002=(BOUNDED_CURVE()
B_SPLINE_CURVE(2,(#993,#994,#995,#996,#997,#998,#999,#1000,#1001),.UNSPECIFIED.,.T.,.F.)
B_SPLINE_CURVE_WITH_KNOTS((3,2,2,2,3),(0.,1.570796327,3.141592654,4.71238898,6.283185307),.UNSPECIFIED.)
CURVE()
GEOMETRIC_REPRESENTATION_ITEM()
RATIONAL_B_SPLINE_CURVE((1.,0.707106781,1.,0.707106781,1.,0.707106781,1.,0.707106781,1.))
REPRESENTATION_ITEM(''));
#1003=EDGE_CURVE('',#938,#946,#1002,.T.);
#1004=ORIENTED_EDGE('',*,*,#1003,.F.);
#1005=ORIENTED_EDGE('',*,*,#962,.F.);
#1006=EDGE_LOOP('',(#1004,#1005));
#1007=FACE_BOUND('',#1006,.T.);
#1008=ADVANCED_FACE('',(#977,#992,#1007),#971,.T.);
#1009=CARTESIAN_POINT('',(7.,23.95,-3.6));
#1010=CARTESIAN_POINT('',(7.,23.95,10.));
#1011=CARTESIAN_POINT('',(8.818653348,23.95,-3.6));
#1012=CARTESIAN_POINT('',(8.818653348,23.95,10.));
#1013=CARTESIAN_POINT('',(7.909326674,25.525,-3.6));
#1014=CARTESIAN_POINT('',(7.909326674,25.525,10.));
#1015=CARTESIAN_POINT('',(7.,27.1,-3.6));
#1016=CARTESIAN_POINT('',(7.,27.1,10.));
#1017=CARTESIAN_POINT('',(6.090673326,25.525,-3.6));
#1018=CARTESIAN_POINT('',(6.090673326,25.525,10.));
#1019=CARTESIAN_POINT('',(5.181346652,23.95,-3.6));
#1020=CARTESIAN_POINT('',(5.181346652,23.95,10.));
#1021=CARTESIAN_POINT('',(7.,23.95,-3.6));
#1022=CARTESIAN_POINT('',(7.,23.95,10.));
#1023=(BOUNDED_SURFACE()
B_SPLINE_SURFACE(2,1,((#1009,#1010),(#1011,#1012),(#1013,#1014),(#1015,#1016),(#1017,#1018),(#1019,#1020),(#1021,#1022)),.UNSPECIFIED.,.T.,.F.,.U.)
B_SPLINE_SURFACE_WITH_KNOTS((3,2,2,3),(2,2),(0.,2.094395102,4.188790205,6.283185307),(0.000000001,0.013600001),.UNSPECIFIED.)
GEOMETRIC_REPRESENTATION_ITEM()
RATIONAL_B_SPLINE_SURFACE(((1.,1.),(0.5,0.5),(1.,1.),(0.5,0.5),(1.,1.),(0.5,0.5),(1.,1.)))
REPRESENTATION_ITEM('')
SURFACE()
);
#1024=CARTESIAN_POINT('',(7.,23.95,10.));
#1025=CARTESIAN_POINT('',(7.,23.95,-3.6));
#1026=B_SPLINE_CURVE_WITH_KNOTS('',1,(#1024,#1025),.UNSPECIFIED.,.F.,.F.,(2,2),(0.000000001,0.013600001),.UNSPECIFIED.);
#1027=EDGE_CURVE('',#874,#685,#1026,.T.);
#1028=ORIENTED_EDGE('',*,*,#1027,.F.);
#1029=ORIENTED_EDGE('',*,*,#887,.T.);
#1030=ORIENTED_EDGE('',*,*,#899,.T.);
#1031=ORIENTED_EDGE('',*,*,#1027,.T.);
#1032=ORIENTED_EDGE('',*,*,#698,.T.);
#1033=ORIENTED_EDGE('',*,*,#710,.T.);
#1034=EDGE_LOOP('',(#1028,#1029,#1030,#1031,#1032,#1033));
#1035=FACE_BOUND('',#1034,.T.);
#1036=ADVANCED_FACE('',(#1035),#1023,.F.);
#1037=CARTESIAN_POINT('',(-7.,23.95,-3.6));
#1038=CARTESIAN_POINT('',(-7.,23.95,10.));
#1039=CARTESIAN_POINT('',(-5.181346652,23.95,-3.6));
#1040=CARTESIAN_POINT('',(-5.181346652,23.95,10.));
#1041=CARTESIAN_POINT('',(-6.090673326,25.525,-3.6));
#1042=CARTESIAN_POINT('',(-6.090673326,25.525,10.));
#1043=CARTESIAN_POINT('',(-7.,27.1,-3.6));
#1044=CARTESIAN_POINT('',(-7.,27.1,10.));
#1045=CARTESIAN_POINT('',(-7.909326674,25.525,-3.6));
#1046=CARTESIAN_POINT('',(-7.909326674,25.525,10.));
#1047=CARTESIAN_POINT('',(-8.818653348,23.95,-3.6));
#1048=CARTESIAN_POINT('',(-8.818653348,23.95,10.));
#1049=CARTESIAN_POINT('',(-7.,23.95,-3.6));
#1050=CARTESIAN_POINT('',(-7.,23.95,10.));
#1051=(BOUNDED_SURFACE()
B_SPLINE_SURFACE(2,1,((#1037,#1038),(#1039,#1040),(#1041,#1042),(#1043,#1044),(#1045,#1046),(#1047,#1048),(#1049,#1050)),.UNSPECIFIED.,.T.,.F.,.U.)
B_SPLINE_SURFACE_WITH_KNOTS((3,2,2,3),(2,2),(0.,2.094395102,4.188790205,6.283185307),(0.000000001,0.013600001),.UNSPECIFIED.)
GEOMETRIC_REPRESENTATION_ITEM()
RATIONAL_B_SPLINE_SURFACE(((1.,1.),(0.5,0.5),(1.,1.),(0.5,0.5),(1.,1.),(0.5,0.5),(1.,1.)))
REPRESENTATION_ITEM('')
SURFACE()
);
#1052=CARTESIAN_POINT('',(-7.,23.95,10.));
#1053=CARTESIAN_POINT('',(-7.,23.95,-3.6));
#1054=B_SPLINE_CURVE_WITH_KNOTS('',1,(#1052,#1053),.UNSPECIFIED.,.F.,.F.,(2,2),(0.000000001,0.013600001),.UNSPECIFIED.);
#1055=EDGE_CURVE('',#844,#655,#1054,.T.);
#1056=ORIENTED_EDGE('',*,*,#1055,.F.);
#1057=ORIENTED_EDGE('',*,*,#857,.T.);
#1058=ORIENTED_EDGE('',*,*,#869,.T.);
#1059=ORIENTED_EDGE('',*,*,#1055,.T.);
#1060=ORIENTED_EDGE('',*,*,#668,.T.);
#1061=ORIENTED_EDGE('',*,*,#680,.T.);
#1062=EDGE_LOOP('',(#1056,#1057,#1058,#1059,#1060,#1061));
#1063=FACE_BOUND('',#1062,.T.);
#1064=ADVANCED_FACE('',(#1063),#1051,.F.);
#1065=CARTESIAN_POINT('',(12.610151984,12.480391854,4.8125));
#1066=CARTESIAN_POINT('',(-12.610151984,12.480391854,4.8125));
#1067=CARTESIAN_POINT('',(12.610151984,11.587450787,3.5));
#1068=CARTESIAN_POINT('',(-12.610151984,11.587450787,3.5));
#1069=CARTESIAN_POINT('',(12.610151984,10.,3.5));
#1070=CARTESIAN_POINT('',(-12.610151984,10.,3.5));
#1071=(BOUNDED_SURFACE()
B_SPLINE_SURFACE(2,1,((#1065,#1066),(#1067,#1068),(#1069,#1070)),.UNSPECIFIED.,.F.,.F.,.U.)
B_SPLINE_SURFACE_WITH_KNOTS((3,3),(2,2),(2.181820244,3.141592654),(0.000063617,0.025283921),.UNSPECIFIED.)
GEOMETRIC_REPRESENTATION_ITEM()
RATIONAL_B_SPLINE_SURFACE(((0.96,0.96),(0.75,0.75),(0.75,0.75)))
REPRESENTATION_ITEM('')
SURFACE()
);
#1072=ORIENTED_EDGE('',*,*,#295,.F.);
#1073=CARTESIAN_POINT('',(12.610151984,12.480391854,4.8125));
#1074=CARTESIAN_POINT('',(-12.610151984,12.480391854,4.8125));
#1075=B_SPLINE_CURVE_WITH_KNOTS('',1,(#1073,#1074),.UNSPECIFIED.,.F.,.F.,(2,2),(0.000063617,0.025283921),.UNSPECIFIED.);
#1076=EDGE_CURVE('',#283,#334,#1075,.T.);
#1077=ORIENTED_EDGE('',*,*,#1076,.T.);
#1078=ORIENTED_EDGE('',*,*,#339,.F.);
#1079=ORIENTED_EDGE('',*,*,#611,.F.);
#1080=EDGE_LOOP('',(#1072,#1077,#1078,#1079));
#1081=FACE_BOUND('',#1080,.T.);
#1082=ADVANCED_FACE('',(#1081),#1071,.F.);
#1083=CARTESIAN_POINT('',(13.116289155,12.480391854,4.8125));
#1084=CARTESIAN_POINT('',(13.116289155,16.614378278,10.));
#1085=CARTESIAN_POINT('',(-13.116289155,12.480391854,4.8125));
#1086=CARTESIAN_POINT('',(-13.116289155,16.614378278,10.));
#1087=B_SPLINE_SURFACE_WITH_KNOTS('',1,1,((#1083,#1084),(#1085,#1086)),.UNSPECIFIED.,.F.,.F.,.U.,(2,2),(2,2),(-0.00044252,0.025790058),(0.,0.00663325),.UNSPECIFIED.);
#1088=ORIENTED_EDGE('',*,*,#287,.F.);
#1089=ORIENTED_EDGE('',*,*,#907,.F.);
#1090=ORIENTED_EDGE('',*,*,#346,.F.);
#1091=ORIENTED_EDGE('',*,*,#1076,.F.);
#1092=EDGE_LOOP('',(#1088,#1089,#1090,#1091));
#1093=FACE_BOUND('',#1092,.T.);
#1094=ADVANCED_FACE('',(#1093),#1087,.F.);
#1095=CARTESIAN_POINT('',(19.45,35.,0.));
#1096=CARTESIAN_POINT('',(19.45,32.,0.));
#1097=CARTESIAN_POINT('',(19.45,35.,-2.55));
#1098=CARTESIAN_POINT('',(19.45,32.,-2.55));
#1099=CARTESIAN_POINT('',(22.,35.,-2.55));
#1100=CARTESIAN_POINT('',(22.,32.,-2.55));
#1101=(BOUNDED_SURFACE()
B_SPLINE_SURFACE(2,1,((#1095,#1096),(#1097,#1098),(#1099,#1100)),.UNSPECIFIED.,.F.,.F.,.U.)
B_SPLINE_SURFACE_WITH_KNOTS((3,3),(2,2),(4.749981681,6.283185307),(-0.,0.003),.UNSPECIFIED.)
GEOMETRIC_REPRESENTATION_ITEM()
RATIONAL_B_SPLINE_SURFACE(((0.803847577,0.803847577),(0.633974596,0.633974596),(1.,1.)))
REPRESENTATION_ITEM('')
SURFACE()
);
#1102=ORIENTED_EDGE('',*,*,#813,.T.);
#1103=ORIENTED_EDGE('',*,*,#988,.T.);
#1104=ORIENTED_EDGE('',*,*,#821,.T.);
#1105=ORIENTED_EDGE('',*,*,#88,.F.);
#1106=EDGE_LOOP('',(#1102,#1103,#1104,#1105));
#1107=FACE_BOUND('',#1106,.T.);
#1108=ADVANCED_FACE('',(#1107),#1101,.F.);
#1109=CARTESIAN_POINT('',(-24.55,35.,0.));
#1110=CARTESIAN_POINT('',(-24.55,32.,0.));
#1111=CARTESIAN_POINT('',(-24.55,35.,-2.55));
#1112=CARTESIAN_POINT('',(-24.55,32.,-2.55));
#1113=CARTESIAN_POINT('',(-22.,35.,-2.55));
#1114=CARTESIAN_POINT('',(-22.,32.,-2.55));
#1115=(BOUNDED_SURFACE()
B_SPLINE_SURFACE(2,1,((#1109,#1110),(#1111,#1112),(#1113,#1114)),.UNSPECIFIED.,.F.,.F.,.U.)
B_SPLINE_SURFACE_WITH_KNOTS((3,3),(2,2),(4.749981681,6.283185307),(-0.,0.003),.UNSPECIFIED.)
GEOMETRIC_REPRESENTATION_ITEM()
RATIONAL_B_SPLINE_SURFACE(((0.803847577,0.803847577),(0.633974596,0.633974596),(1.,1.)))
REPRESENTATION_ITEM('')
SURFACE()
);
#1116=ORIENTED_EDGE('',*,*,#942,.T.);
#1117=ORIENTED_EDGE('',*,*,#1003,.T.);
#1118=ORIENTED_EDGE('',*,*,#950,.T.);
#1119=ORIENTED_EDGE('',*,*,#58,.F.);
#1120=EDGE_LOOP('',(#1116,#1117,#1118,#1119));
#1121=FACE_BOUND('',#1120,.T.);
#1122=ADVANCED_FACE('',(#1121),#1115,.F.);
#1123=CLOSED_SHELL('',(#150,#269,#325,#381,#420,#459,#498,#537,#562,#601,#632,#648,#720,#748,#770,#792,#837,#921,#966,#1008,#1036,#1064,#1082,#1094,#1108,#1122));
#1124=MANIFOLD_SOLID_BREP('\X2\04220435043B043E\X0\_1:1',#1123);
#1125=COLOUR_RGB('',0.768627465,0.768627465,0.768627465);
#1126=FILL_AREA_STYLE_COLOUR('',#1125);
#1127=FILL_AREA_STYLE('',(#1126));
#1128=SURFACE_STYLE_FILL_AREA(#1127);
#1129=SURFACE_SIDE_STYLE('',(#1128));
#1130=SURFACE_STYLE_USAGE(.BOTH.,#1129);
#1131=PRESENTATION_STYLE_ASSIGNMENT((#1130));
#26=STYLED_ITEM('',(#1131),#1124);
#1132=(NAMED_UNIT(*)PLANE_ANGLE_UNIT()SI_UNIT($,.RADIAN.));
#1133=PLANE_ANGLE_MEASURE_WITH_UNIT(PLANE_ANGLE_MEASURE(0.0174532925),#1132);
#1134=(CONVERSION_BASED_UNIT('DEGREE',#1133)NAMED_UNIT(#1135)PLANE_ANGLE_UNIT());
#1135=DIMENSIONAL_EXPONENTS(0.,0.,0.,0.,0.,0.,0.);
#1136=(NAMED_UNIT(*)SI_UNIT($,.STERADIAN.)SOLID_ANGLE_UNIT());
#1137=(LENGTH_UNIT()NAMED_UNIT(*)SI_UNIT(.MILLI.,.METRE.));
#1138=UNCERTAINTY_MEASURE_WITH_UNIT(LENGTH_MEASURE(1.000000E-03),#1137,'DISTANCE_ACCURACY_VALUE','Maximum Tolerance applied to model');
#1139=(GEOMETRIC_REPRESENTATION_CONTEXT(3)GLOBAL_UNCERTAINTY_ASSIGNED_CONTEXT((#1138))GLOBAL_UNIT_ASSIGNED_CONTEXT((#1137,#1134,#1136))REPRESENTATION_CONTEXT('','0'));
#1141=CARTESIAN_POINT('',(0.,0.,0.));
#1142=DIRECTION('',(0.,0.,1.));
#1143=DIRECTION('',(1.,0.,0.));
#1144=AXIS2_PLACEMENT_3D('',#1141,#1142,#1143);
#1155=CARTESIAN_POINT('',(0.,0.,0.));
#1156=DIRECTION('',(0.,0.,1.));
#1157=DIRECTION('',(1.,0.,-0.));
#1158=AXIS2_PLACEMENT_3D('',#1155,#1156,#1157);
#1159=ITEM_DEFINED_TRANSFORMATION('','',#1158,#1144);
#1160=(REPRESENTATION_RELATIONSHIP('','',#1145,#16)REPRESENTATION_RELATIONSHIP_WITH_TRANSFORMATION(#1159)SHAPE_REPRESENTATION_RELATIONSHIP());
#1161=NEXT_ASSEMBLY_USAGE_OCCURRENCE('Nodes_1','Nodes','Nodes',#25,#1154,$);
#1162=PRODUCT_DEFINITION_SHAPE('','',#1161);
#1163=CONTEXT_DEPENDENT_SHAPE_REPRESENTATION(#1160,#1162);
#1164=(NAMED_UNIT(*)PLANE_ANGLE_UNIT()SI_UNIT($,.RADIAN.));
#1165=PLANE_ANGLE_MEASURE_WITH_UNIT(PLANE_ANGLE_MEASURE(0.0174532925),#1164);
#1166=(CONVERSION_BASED_UNIT('DEGREE',#1165)NAMED_UNIT(#1167)PLANE_ANGLE_UNIT());
#1167=DIMENSIONAL_EXPONENTS(0.,0.,0.,0.,0.,0.,0.);
#1168=(NAMED_UNIT(*)SI_UNIT($,.STERADIAN.)SOLID_ANGLE_UNIT());
#1169=(LENGTH_UNIT()NAMED_UNIT(*)SI_UNIT(.MILLI.,.METRE.));
#1170=UNCERTAINTY_MEASURE_WITH_UNIT(LENGTH_MEASURE(1.000000E-03),#1169,'DISTANCE_ACCURACY_VALUE','Maximum Tolerance applied to model');
#1171=(GEOMETRIC_REPRESENTATION_CONTEXT(3)GLOBAL_UNCERTAINTY_ASSIGNED_CONTEXT((#1170))GLOBAL_UNIT_ASSIGNED_CONTEXT((#1169,#1166,#1168))REPRESENTATION_CONTEXT('','3D \X2\042304370435043B\X0\_1'));
#1173=CARTESIAN_POINT('',(0.,0.,0.));
#1174=DIRECTION('',(0.,0.,1.));
#1175=DIRECTION('',(1.,0.,0.));
#1176=AXIS2_PLACEMENT_3D('',#1173,#1174,#1175);
#1187=CARTESIAN_POINT('',(0.,0.,0.));
#1188=DIRECTION('',(0.,0.,1.));
#1189=DIRECTION('',(1.,0.,-0.));
#1190=AXIS2_PLACEMENT_3D('',#1187,#1188,#1189);
#1191=ITEM_DEFINED_TRANSFORMATION('','',#1190,#1176);
#1192=(REPRESENTATION_RELATIONSHIP('','',#1177,#1145)REPRESENTATION_RELATIONSHIP_WITH_TRANSFORMATION(#1191)SHAPE_REPRESENTATION_RELATIONSHIP());
#1193=NEXT_ASSEMBLY_USAGE_OCCURRENCE('3D \X2\042304370435043B\X0\_1_2','3D \X2\042304370435043B\X0\_1','3D \X2\042304370435043B\X0\_1',#1154,#1186,$);
#1194=PRODUCT_DEFINITION_SHAPE('','',#1193);
#1195=CONTEXT_DEPENDENT_SHAPE_REPRESENTATION(#1192,#1194);
#1196=CARTESIAN_POINT('',(7.,25.,3.5));
#1197=GEOMETRIC_CURVE_SET('',(#1196));
#1177=SHAPE_REPRESENTATION('3D \X2\042304370435043B\X0\_1',(#1176),#1171);
#1179=GEOMETRICALLY_BOUNDED_WIREFRAME_SHAPE_REPRESENTATION('3D \X2\042304370435043B\X0\_1',(#1197),#1171);
#1205=SHAPE_REPRESENTATION_RELATIONSHIP('','',#1177,#1179);
#1206=APPLICATION_CONTEXT('data for automotive mechanical design processes');
#1207=APPLICATION_PROTOCOL_DEFINITION('international standard','automotive_design',1994,#1206);
#1208=PRODUCT_CONTEXT('',#1206,'mechanical');
#1209=PRODUCT_DEFINITION_CONTEXT('part definition',#1206,'design');
#1185=PRODUCT('3D \X2\042304370435043B\X0\_1','3D \X2\042304370435043B\X0\_1','',(#1208));
#1210=PRODUCT_RELATED_PRODUCT_CATEGORY('part','',(#1185));
#1211=PRODUCT_DEFINITION_FORMATION_WITH_SPECIFIED_SOURCE('','',#1185,.NOT_KNOWN.);
#1186=PRODUCT_DEFINITION('design','',#1211,#1209);
#1184=PRODUCT_DEFINITION_SHAPE('','',#1186);
#1212=SHAPE_DEFINITION_REPRESENTATION(#1184,#1177);
#1172=DRAUGHTING_MODEL('',(),#1171);
#1213=(NAMED_UNIT(*)PLANE_ANGLE_UNIT()SI_UNIT($,.RADIAN.));
#1214=PLANE_ANGLE_MEASURE_WITH_UNIT(PLANE_ANGLE_MEASURE(0.0174532925),#1213);
#1215=(CONVERSION_BASED_UNIT('DEGREE',#1214)NAMED_UNIT(#1216)PLANE_ANGLE_UNIT());
#1216=DIMENSIONAL_EXPONENTS(0.,0.,0.,0.,0.,0.,0.);
#1217=(NAMED_UNIT(*)SI_UNIT($,.STERADIAN.)SOLID_ANGLE_UNIT());
#1218=(LENGTH_UNIT()NAMED_UNIT(*)SI_UNIT(.MILLI.,.METRE.));
#1219=UNCERTAINTY_MEASURE_WITH_UNIT(LENGTH_MEASURE(1.000000E-03),#1218,'DISTANCE_ACCURACY_VALUE','Maximum Tolerance applied to model');
#1220=(GEOMETRIC_REPRESENTATION_CONTEXT(3)GLOBAL_UNCERTAINTY_ASSIGNED_CONTEXT((#1219))GLOBAL_UNIT_ASSIGNED_CONTEXT((#1218,#1215,#1217))REPRESENTATION_CONTEXT('','3D \X2\042304370435043B\X0\_2'));
#1222=CARTESIAN_POINT('',(0.,0.,0.));
#1223=DIRECTION('',(0.,0.,1.));
#1224=DIRECTION('',(1.,0.,0.));
#1225=AXIS2_PLACEMENT_3D('',#1222,#1223,#1224);
#1236=CARTESIAN_POINT('',(0.,0.,0.));
#1237=DIRECTION('',(0.,0.,1.));
#1238=DIRECTION('',(1.,0.,-0.));
#1239=AXIS2_PLACEMENT_3D('',#1236,#1237,#1238);
#1240=ITEM_DEFINED_TRANSFORMATION('','',#1239,#1225);
#1241=(REPRESENTATION_RELATIONSHIP('','',#1226,#1145)REPRESENTATION_RELATIONSHIP_WITH_TRANSFORMATION(#1240)SHAPE_REPRESENTATION_RELATIONSHIP());
#1242=NEXT_ASSEMBLY_USAGE_OCCURRENCE('3D \X2\042304370435043B\X0\_2_3','3D \X2\042304370435043B\X0\_2','3D \X2\042304370435043B\X0\_2',#1154,#1235,$);
#1243=PRODUCT_DEFINITION_SHAPE('','',#1242);
#1244=CONTEXT_DEPENDENT_SHAPE_REPRESENTATION(#1241,#1243);
#1245=CARTESIAN_POINT('',(-7.,25.,3.5));
#1246=GEOMETRIC_CURVE_SET('',(#1245));
#1226=SHAPE_REPRESENTATION('3D \X2\042304370435043B\X0\_2',(#1225),#1220);
#1228=GEOMETRICALLY_BOUNDED_WIREFRAME_SHAPE_REPRESENTATION('3D \X2\042304370435043B\X0\_2',(#1246),#1220);
#1254=SHAPE_REPRESENTATION_RELATIONSHIP('','',#1226,#1228);
#1234=PRODUCT('3D \X2\042304370435043B\X0\_2','3D \X2\042304370435043B\X0\_2','',(#1208));
#1255=PRODUCT_RELATED_PRODUCT_CATEGORY('part','',(#1234));
#1256=PRODUCT_DEFINITION_FORMATION_WITH_SPECIFIED_SOURCE('','',#1234,.NOT_KNOWN.);
#1235=PRODUCT_DEFINITION('design','',#1256,#1209);
#1233=PRODUCT_DEFINITION_SHAPE('','',#1235);
#1257=SHAPE_DEFINITION_REPRESENTATION(#1233,#1226);
#1221=DRAUGHTING_MODEL('',(),#1220);
#1145=SHAPE_REPRESENTATION('Nodes',(#1144,#1190,#1239),#1139);
#1153=PRODUCT('0','0','',(#1208));
#1258=PRODUCT_RELATED_PRODUCT_CATEGORY('part','',(#1153));
#1259=PRODUCT_DEFINITION_FORMATION_WITH_SPECIFIED_SOURCE('','',#1153,.NOT_KNOWN.);
#1154=PRODUCT_DEFINITION('design','',#1259,#1209);
#1152=PRODUCT_DEFINITION_SHAPE('','',#1154);
#1260=SHAPE_DEFINITION_REPRESENTATION(#1152,#1145);
#1140=DRAUGHTING_MODEL('',(),#1139);
#16=SHAPE_REPRESENTATION('\X2\041A04400435043F043B0435043D04380435\X0\ \X2\043204420443043B043A0438\X0\ \X2\043E04410438\X0\ Z',(#15,#1158),#10);
#17=ADVANCED_BREP_SHAPE_REPRESENTATION('\X2\041A04400435043F043B0435043D04380435\X0\ \X2\043204420443043B043A0438\X0\ \X2\043E04410438\X0\ Z',(#1124),#10);
#1268=SHAPE_REPRESENTATION_RELATIONSHIP('','',#16,#17);
#24=PRODUCT('\X2\041A04400435043F043B0435043D04380435\X0\ \X2\043204420443043B043A0438\X0\ \X2\043E04410438\X0\ Z','\X2\041A04400435043F043B0435043D04380435\X0\ \X2\043204420443043B043A0438\X0\ \X2\043E04410438\X0\ Z','',(#1208));
#1269=PRODUCT_RELATED_PRODUCT_CATEGORY('part','',(#24));
#1270=PRODUCT_DEFINITION_FORMATION_WITH_SPECIFIED_SOURCE('','',#24,.NOT_KNOWN.);
#25=PRODUCT_DEFINITION('design','',#1270,#1209);
#23=PRODUCT_DEFINITION_SHAPE('','',#25);
#1271=SHAPE_DEFINITION_REPRESENTATION(#23,#16);
#11=DRAUGHTING_MODEL('',(),#10);
#1=MECHANICAL_DESIGN_GEOMETRIC_PRESENTATION_REPRESENTATION('',(#26),#10);
ENDSEC;
END-ISO-10303-21;
