ISO-10303-21;
HEADER;

/* File generated by T-FLEX CAD Version 17.0.27.0 */

FILE_DESCRIPTION(('TFLEX Exchange Step'),'2;1');

FILE_NAME('X2\041A04400435043F043B0435043D04380435\X0\ \X2\043204420443043B043A0438\X0\ \X2\043E04410438\X0\ Z \X2\043E0442043204350442043D0430044F\X0\ \X2\0447043004410442044C\X0\.stp',                                                                         
'2026-04-07T09:48:31+03:00',
('user'),
('Unknown organisation'),
'TFLEX Exchange 2020.2',
'T-FLEX CAD',
'Unknown authorisation');

FILE_SCHEMA( ('AUTOMOTIVE_DESIGN { 1 0 10303 214 1 1 1 1 }') );

ENDSEC;

DATA;
#3=(NAMED_UNIT(*)PLANE_ANGLE_UNIT()SI_UNIT($,.RADIAN.));
#4=PLANE_ANGLE_MEASURE_WITH_UNIT(PLANE_ANGLE_MEASURE(0.0174532925),#3);
#5=(CONVERSION_BASED_UNIT('DEGREE',#4)NAMED_UNIT(#6)PLANE_ANGLE_UNIT());
#6=DIMENSIONAL_EXPONENTS(0.,0.,0.,0.,0.,0.,0.);
#7=(NAMED_UNIT(*)SI_UNIT($,.STERADIAN.)SOLID_ANGLE_UNIT());
#8=(LENGTH_UNIT()NAMED_UNIT(*)SI_UNIT(.MILLI.,.METRE.));
#9=UNCERTAINTY_MEASURE_WITH_UNIT(LENGTH_MEASURE(1.000000E-05),#8,'DISTANCE_ACCURACY_VALUE','Maximum Tolerance applied to model');
#10=(GEOMETRIC_REPRESENTATION_CONTEXT(3)GLOBAL_UNCERTAINTY_ASSIGNED_CONTEXT((#9))GLOBAL_UNIT_ASSIGNED_CONTEXT((#8,#5,#7))REPRESENTATION_CONTEXT('','\X2\041A04400435043F043B0435043D04380435\X0\ \X2\043204420443043B043A0438\X0\ \X2\043E04410438\X0\ Z \X2\043E0442043204350442043D0430044F\X0\ \X2\0447043004410442044C\X0\'));
#12=CARTESIAN_POINT('',(0.,0.,0.));
#13=DIRECTION('',(0.,0.,1.));
#14=DIRECTION('',(1.,0.,0.));
#15=AXIS2_PLACEMENT_3D('',#12,#13,#14);
#27=CARTESIAN_POINT('',(-15.,32.,3.5));
#28=CARTESIAN_POINT('',(15.,32.,3.5));
#29=CARTESIAN_POINT('',(-15.,32.,0.));
#30=CARTESIAN_POINT('',(15.,32.,0.));
#31=B_SPLINE_SURFACE_WITH_KNOTS('',1,1,((#27,#28),(#29,#30)),.UNSPECIFIED.,.F.,.F.,.U.,(2,2),(2,2),(0.,0.0035),(-0.03,0.),.UNSPECIFIED.);
#32=CARTESIAN_POINT('',(15.,32.,0.));
#33=VERTEX_POINT('',#32);
#34=CARTESIAN_POINT('',(-15.,32.,0.));
#35=VERTEX_POINT('',#34);
#36=CARTESIAN_POINT('',(15.,32.,0.));
#37=CARTESIAN_POINT('',(-15.,32.,0.));
#38=B_SPLINE_CURVE_WITH_KNOTS('',1,(#36,#37),.UNSPECIFIED.,.F.,.F.,(2,2),(0.,0.03),.UNSPECIFIED.);
#39=EDGE_CURVE('',#33,#35,#38,.T.);
#40=ORIENTED_EDGE('',*,*,#39,.T.);
#41=CARTESIAN_POINT('',(-15.,32.,3.5));
#42=VERTEX_POINT('',#41);
#43=CARTESIAN_POINT('',(-15.,32.,3.5));
#44=CARTESIAN_POINT('',(-15.,32.,0.));
#45=B_SPLINE_CURVE_WITH_KNOTS('',1,(#43,#44),.UNSPECIFIED.,.F.,.F.,(2,2),(0.,0.0035),.UNSPECIFIED.);
#46=EDGE_CURVE('',#42,#35,#45,.T.);
#47=ORIENTED_EDGE('',*,*,#46,.F.);
#48=CARTESIAN_POINT('',(15.,32.,3.5));
#49=VERTEX_POINT('',#48);
#50=CARTESIAN_POINT('',(15.,32.,3.5));
#51=CARTESIAN_POINT('',(-15.,32.,3.5));
#52=B_SPLINE_CURVE_WITH_KNOTS('',1,(#50,#51),.UNSPECIFIED.,.F.,.F.,(2,2),(0.,0.03),.UNSPECIFIED.);
#53=EDGE_CURVE('',#49,#42,#52,.T.);
#54=ORIENTED_EDGE('',*,*,#53,.F.);
#55=CARTESIAN_POINT('',(15.,32.,3.5));
#56=CARTESIAN_POINT('',(15.,32.,0.));
#57=B_SPLINE_CURVE_WITH_KNOTS('',1,(#55,#56),.UNSPECIFIED.,.F.,.F.,(2,2),(0.,0.0035),.UNSPECIFIED.);
#58=EDGE_CURVE('',#49,#33,#57,.T.);
#59=ORIENTED_EDGE('',*,*,#58,.T.);
#60=EDGE_LOOP('',(#40,#47,#54,#59));
#61=FACE_BOUND('',#60,.T.);
#62=ADVANCED_FACE('',(#61),#31,.F.);
#63=CARTESIAN_POINT('',(-10.918471064,-1.336783311,0.));
#64=CARTESIAN_POINT('',(-10.918471064,-1.336783311,3.5));
#65=CARTESIAN_POINT('',(-15.,32.,0.));
#66=CARTESIAN_POINT('',(-15.,32.,3.5));
#67=B_SPLINE_SURFACE_WITH_KNOTS('',1,1,((#63,#64),(#65,#66)),.UNSPECIFIED.,.F.,.F.,.U.,(2,2),(2,2),(-0.033585711,0.),(-0.0035,0.),.UNSPECIFIED.);
#68=CARTESIAN_POINT('',(-10.918471064,-1.336783311,0.));
#69=VERTEX_POINT('',#68);
#70=CARTESIAN_POINT('',(-15.,32.,0.));
#71=CARTESIAN_POINT('',(-10.918471064,-1.336783311,0.));
#72=B_SPLINE_CURVE_WITH_KNOTS('',1,(#70,#71),.UNSPECIFIED.,.F.,.F.,(2,2),(0.,0.033585711),.UNSPECIFIED.);
#73=EDGE_CURVE('',#35,#69,#72,.T.);
#74=ORIENTED_EDGE('',*,*,#73,.T.);
#75=CARTESIAN_POINT('',(-10.918471064,-1.336783311,3.5));
#76=VERTEX_POINT('',#75);
#77=CARTESIAN_POINT('',(-10.918471064,-1.336783311,3.5));
#78=CARTESIAN_POINT('',(-10.918471064,-1.336783311,0.));
#79=B_SPLINE_CURVE_WITH_KNOTS('',1,(#77,#78),.UNSPECIFIED.,.F.,.F.,(2,2),(0.,0.0035),.UNSPECIFIED.);
#80=EDGE_CURVE('',#76,#69,#79,.T.);
#81=ORIENTED_EDGE('',*,*,#80,.F.);
#82=CARTESIAN_POINT('',(-15.,32.,3.5));
#83=CARTESIAN_POINT('',(-10.918471064,-1.336783311,3.5));
#84=B_SPLINE_CURVE_WITH_KNOTS('',1,(#82,#83),.UNSPECIFIED.,.F.,.F.,(2,2),(0.,0.033585711),.UNSPECIFIED.);
#85=EDGE_CURVE('',#42,#76,#84,.T.);
#86=ORIENTED_EDGE('',*,*,#85,.F.);
#87=ORIENTED_EDGE('',*,*,#46,.T.);
#88=EDGE_LOOP('',(#74,#81,#86,#87));
#89=FACE_BOUND('',#88,.T.);
#90=ADVANCED_FACE('',(#89),#67,.F.);
#91=CARTESIAN_POINT('',(10.918471064,-1.336783311,3.5));
#92=CARTESIAN_POINT('',(10.918471064,-1.336783311,-0.));
#93=CARTESIAN_POINT('',(10.25168658,-6.782891915,3.5));
#94=CARTESIAN_POINT('',(10.25168658,-6.782891915,-0.));
#95=CARTESIAN_POINT('',(5.5,-9.526279442,3.5));
#96=CARTESIAN_POINT('',(5.5,-9.526279442,-0.));
#97=CARTESIAN_POINT('',(-8.898052089,-17.838998691,3.5));
#98=CARTESIAN_POINT('',(-8.898052089,-17.838998691,-0.));
#99=CARTESIAN_POINT('',(-10.918471064,-1.336783311,3.5));
#100=CARTESIAN_POINT('',(-10.918471064,-1.336783311,-0.));
#101=(BOUNDED_SURFACE()
B_SPLINE_SURFACE(2,1,((#91,#92),(#93,#94),(#95,#96),(#97,#98),(#99,#100)),.UNSPECIFIED.,.F.,.F.,.U.)
B_SPLINE_SURFACE_WITH_KNOTS((3,2,3),(2,2),(3.252214271,4.188790205,6.140706765),(-0.,0.0035),.UNSPECIFIED.)
GEOMETRIC_REPRESENTATION_ITEM()
RATIONAL_B_SPLINE_SURFACE(((0.752789734,0.752789734),(0.776408966,0.776408966),(1.,1.),(0.534014246,0.534014246),(0.936599383,0.936599383)))
REPRESENTATION_ITEM('')
SURFACE()
);
#102=CARTESIAN_POINT('',(10.918471064,-1.336783311,0.));
#103=VERTEX_POINT('',#102);
#104=CARTESIAN_POINT('',(-10.918471064,-1.336783311,0.));
#105=CARTESIAN_POINT('',(-9.735372558,-11.,0.));
#106=CARTESIAN_POINT('',(0.,-11.,0.));
#107=CARTESIAN_POINT('',(9.735372558,-11.,0.));
#108=CARTESIAN_POINT('',(10.918471064,-1.336783311,0.));
#109=(BOUNDED_CURVE()
B_SPLINE_CURVE(2,(#104,#105,#106,#107,#108),.UNSPECIFIED.,.F.,.F.)
B_SPLINE_CURVE_WITH_KNOTS((3,2,3),(0.121826887,1.570796327,3.019765767),.UNSPECIFIED.)
CURVE()
GEOMETRIC_REPRESENTATION_ITEM()
RATIONAL_B_SPLINE_CURVE((1.,0.748841023,1.,0.748841023,1.))
REPRESENTATION_ITEM(''));
#110=EDGE_CURVE('',#69,#103,#109,.T.);
#111=ORIENTED_EDGE('',*,*,#110,.T.);
#112=CARTESIAN_POINT('',(10.918471064,-1.336783311,3.5));
#113=VERTEX_POINT('',#112);
#114=CARTESIAN_POINT('',(10.918471064,-1.336783311,3.5));
#115=CARTESIAN_POINT('',(10.918471064,-1.336783311,0.));
#116=B_SPLINE_CURVE_WITH_KNOTS('',1,(#114,#115),.UNSPECIFIED.,.F.,.F.,(2,2),(0.,0.0035),.UNSPECIFIED.);
#117=EDGE_CURVE('',#113,#103,#116,.T.);
#118=ORIENTED_EDGE('',*,*,#117,.F.);
#119=CARTESIAN_POINT('',(-10.918471064,-1.336783311,3.5));
#120=CARTESIAN_POINT('',(-9.735372558,-11.,3.5));
#121=CARTESIAN_POINT('',(0.,-11.,3.5));
#122=CARTESIAN_POINT('',(9.735372558,-11.,3.5));
#123=CARTESIAN_POINT('',(10.918471064,-1.336783311,3.5));
#124=(BOUNDED_CURVE()
B_SPLINE_CURVE(2,(#119,#120,#121,#122,#123),.UNSPECIFIED.,.F.,.F.)
B_SPLINE_CURVE_WITH_KNOTS((3,2,3),(0.121826887,1.570796327,3.019765767),.UNSPECIFIED.)
CURVE()
GEOMETRIC_REPRESENTATION_ITEM()
RATIONAL_B_SPLINE_CURVE((1.,0.748841023,1.,0.748841023,1.))
REPRESENTATION_ITEM(''));
#125=EDGE_CURVE('',#76,#113,#124,.T.);
#126=ORIENTED_EDGE('',*,*,#125,.F.);
#127=ORIENTED_EDGE('',*,*,#80,.T.);
#128=EDGE_LOOP('',(#111,#118,#126,#127));
#129=FACE_BOUND('',#128,.T.);
#130=ADVANCED_FACE('',(#129),#101,.T.);
#131=CARTESIAN_POINT('',(-6.,0.,3.5));
#132=CARTESIAN_POINT('',(-6.,0.,-0.));
#133=CARTESIAN_POINT('',(-6.,10.392304845,3.5));
#134=CARTESIAN_POINT('',(-6.,10.392304845,-0.));
#135=CARTESIAN_POINT('',(3.,5.196152423,3.5));
#136=CARTESIAN_POINT('',(3.,5.196152423,-0.));
#137=CARTESIAN_POINT('',(12.,0.,3.5));
#138=CARTESIAN_POINT('',(12.,0.,-0.));
#139=CARTESIAN_POINT('',(3.,-5.196152423,3.5));
#140=CARTESIAN_POINT('',(3.,-5.196152423,-0.));
#141=CARTESIAN_POINT('',(-6.,-10.392304845,3.5));
#142=CARTESIAN_POINT('',(-6.,-10.392304845,-0.));
#143=CARTESIAN_POINT('',(-6.,-0.,3.5));
#144=CARTESIAN_POINT('',(-6.,-0.,-0.));
#145=(BOUNDED_SURFACE()
B_SPLINE_SURFACE(2,1,((#131,#132),(#133,#134),(#135,#136),(#137,#138),(#139,#140),(#141,#142),(#143,#144)),.UNSPECIFIED.,.T.,.F.,.U.)
B_SPLINE_SURFACE_WITH_KNOTS((3,2,2,3),(2,2),(0.,2.094395102,4.188790205,6.283185307),(-0.,0.0035),.UNSPECIFIED.)
GEOMETRIC_REPRESENTATION_ITEM()
RATIONAL_B_SPLINE_SURFACE(((1.,1.),(0.5,0.5),(1.,1.),(0.5,0.5),(1.,1.),(0.5,0.5),(1.,1.)))
REPRESENTATION_ITEM('')
SURFACE()
);
#146=CARTESIAN_POINT('',(-6.,0.,0.));
#147=VERTEX_POINT('',#146);
#148=CARTESIAN_POINT('',(-6.,0.,0.));
#149=CARTESIAN_POINT('',(-6.,-6.,0.));
#150=CARTESIAN_POINT('',(-0.,-6.,0.));
#151=CARTESIAN_POINT('',(6.,-6.,0.));
#152=CARTESIAN_POINT('',(6.,-0.,0.));
#153=CARTESIAN_POINT('',(6.,6.,0.));
#154=CARTESIAN_POINT('',(0.,6.,0.));
#155=CARTESIAN_POINT('',(-6.,6.,0.));
#156=CARTESIAN_POINT('',(-6.,0.,0.));
#157=(BOUNDED_CURVE()
B_SPLINE_CURVE(2,(#148,#149,#150,#151,#152,#153,#154,#155,#156),.UNSPECIFIED.,.T.,.F.)
B_SPLINE_CURVE_WITH_KNOTS((3,2,2,2,3),(0.,1.570796327,3.141592654,4.71238898,6.283185307),.UNSPECIFIED.)
CURVE()
GEOMETRIC_REPRESENTATION_ITEM()
RATIONAL_B_SPLINE_CURVE((1.,0.707106781,1.,0.707106781,1.,0.707106781,1.,0.707106781,1.))
REPRESENTATION_ITEM(''));
#158=EDGE_CURVE('',#147,#147,#157,.T.);
#159=ORIENTED_EDGE('',*,*,#158,.F.);
#160=CARTESIAN_POINT('',(-6.,0.,3.5));
#161=VERTEX_POINT('',#160);
#162=CARTESIAN_POINT('',(-6.,0.,3.5));
#163=CARTESIAN_POINT('',(-6.,0.,0.));
#164=B_SPLINE_CURVE_WITH_KNOTS('',1,(#162,#163),.UNSPECIFIED.,.F.,.F.,(2,2),(0.,0.0035),.UNSPECIFIED.);
#165=EDGE_CURVE('',#161,#147,#164,.T.);
#166=ORIENTED_EDGE('',*,*,#165,.F.);
#167=CARTESIAN_POINT('',(-6.,0.,3.5));
#168=CARTESIAN_POINT('',(-6.,-6.,3.5));
#169=CARTESIAN_POINT('',(-0.,-6.,3.5));
#170=CARTESIAN_POINT('',(6.,-6.,3.5));
#171=CARTESIAN_POINT('',(6.,-0.,3.5));
#172=CARTESIAN_POINT('',(6.,6.,3.5));
#173=CARTESIAN_POINT('',(0.,6.,3.5));
#174=CARTESIAN_POINT('',(-6.,6.,3.5));
#175=CARTESIAN_POINT('',(-6.,0.,3.5));
#176=(BOUNDED_CURVE()
B_SPLINE_CURVE(2,(#167,#168,#169,#170,#171,#172,#173,#174,#175),.UNSPECIFIED.,.T.,.F.)
B_SPLINE_CURVE_WITH_KNOTS((3,2,2,2,3),(0.,1.570796327,3.141592654,4.71238898,6.283185307),.UNSPECIFIED.)
CURVE()
GEOMETRIC_REPRESENTATION_ITEM()
RATIONAL_B_SPLINE_CURVE((1.,0.707106781,1.,0.707106781,1.,0.707106781,1.,0.707106781,1.))
REPRESENTATION_ITEM(''));
#177=EDGE_CURVE('',#161,#161,#176,.T.);
#178=ORIENTED_EDGE('',*,*,#177,.T.);
#179=ORIENTED_EDGE('',*,*,#165,.T.);
#180=EDGE_LOOP('',(#159,#166,#178,#179));
#181=FACE_BOUND('',#180,.T.);
#182=ADVANCED_FACE('',(#181),#145,.F.);
#183=CARTESIAN_POINT('',(-8.65,0.,3.5));
#184=CARTESIAN_POINT('',(-8.65,0.,-0.));
#185=CARTESIAN_POINT('',(-8.65,1.818653348,3.5));
#186=CARTESIAN_POINT('',(-8.65,1.818653348,-0.));
#187=CARTESIAN_POINT('',(-7.075,0.909326674,3.5));
#188=CARTESIAN_POINT('',(-7.075,0.909326674,-0.));
#189=CARTESIAN_POINT('',(-5.5,0.,3.5));
#190=CARTESIAN_POINT('',(-5.5,0.,-0.));
#191=CARTESIAN_POINT('',(-7.075,-0.909326674,3.5));
#192=CARTESIAN_POINT('',(-7.075,-0.909326674,-0.));
#193=CARTESIAN_POINT('',(-8.65,-1.818653348,3.5));
#194=CARTESIAN_POINT('',(-8.65,-1.818653348,-0.));
#195=CARTESIAN_POINT('',(-8.65,-0.,3.5));
#196=CARTESIAN_POINT('',(-8.65,-0.,-0.));
#197=(BOUNDED_SURFACE()
B_SPLINE_SURFACE(2,1,((#183,#184),(#185,#186),(#187,#188),(#189,#190),(#191,#192),(#193,#194),(#195,#196)),.UNSPECIFIED.,.T.,.F.,.U.)
B_SPLINE_SURFACE_WITH_KNOTS((3,2,2,3),(2,2),(0.,2.094395102,4.188790205,6.283185307),(-0.,0.0035),.UNSPECIFIED.)
GEOMETRIC_REPRESENTATION_ITEM()
RATIONAL_B_SPLINE_SURFACE(((1.,1.),(0.5,0.5),(1.,1.),(0.5,0.5),(1.,1.),(0.5,0.5),(1.,1.)))
REPRESENTATION_ITEM('')
SURFACE()
);
#198=CARTESIAN_POINT('',(-8.65,0.,0.));
#199=VERTEX_POINT('',#198);
#200=CARTESIAN_POINT('',(-8.65,0.,0.));
#201=CARTESIAN_POINT('',(-8.65,-1.05,0.));
#202=CARTESIAN_POINT('',(-7.6,-1.05,0.));
#203=CARTESIAN_POINT('',(-6.55,-1.05,0.));
#204=CARTESIAN_POINT('',(-6.55,-0.,0.));
#205=CARTESIAN_POINT('',(-6.55,1.05,0.));
#206=CARTESIAN_POINT('',(-7.6,1.05,0.));
#207=CARTESIAN_POINT('',(-8.65,1.05,0.));
#208=CARTESIAN_POINT('',(-8.65,0.,0.));
#209=(BOUNDED_CURVE()
B_SPLINE_CURVE(2,(#200,#201,#202,#203,#204,#205,#206,#207,#208),.UNSPECIFIED.,.T.,.F.)
B_SPLINE_CURVE_WITH_KNOTS((3,2,2,2,3),(0.,1.570796327,3.141592654,4.71238898,6.283185307),.UNSPECIFIED.)
CURVE()
GEOMETRIC_REPRESENTATION_ITEM()
RATIONAL_B_SPLINE_CURVE((1.,0.707106781,1.,0.707106781,1.,0.707106781,1.,0.707106781,1.))
REPRESENTATION_ITEM(''));
#210=EDGE_CURVE('',#199,#199,#209,.T.);
#211=ORIENTED_EDGE('',*,*,#210,.F.);
#212=CARTESIAN_POINT('',(-8.65,0.,3.5));
#213=VERTEX_POINT('',#212);
#214=CARTESIAN_POINT('',(-8.65,0.,3.5));
#215=CARTESIAN_POINT('',(-8.65,0.,0.));
#216=B_SPLINE_CURVE_WITH_KNOTS('',1,(#214,#215),.UNSPECIFIED.,.F.,.F.,(2,2),(0.,0.0035),.UNSPECIFIED.);
#217=EDGE_CURVE('',#213,#199,#216,.T.);
#218=ORIENTED_EDGE('',*,*,#217,.F.);
#219=CARTESIAN_POINT('',(-8.65,0.,3.5));
#220=CARTESIAN_POINT('',(-8.65,-1.05,3.5));
#221=CARTESIAN_POINT('',(-7.6,-1.05,3.5));
#222=CARTESIAN_POINT('',(-6.55,-1.05,3.5));
#223=CARTESIAN_POINT('',(-6.55,-0.,3.5));
#224=CARTESIAN_POINT('',(-6.55,1.05,3.5));
#225=CARTESIAN_POINT('',(-7.6,1.05,3.5));
#226=CARTESIAN_POINT('',(-8.65,1.05,3.5));
#227=CARTESIAN_POINT('',(-8.65,0.,3.5));
#228=(BOUNDED_CURVE()
B_SPLINE_CURVE(2,(#219,#220,#221,#222,#223,#224,#225,#226,#227),.UNSPECIFIED.,.T.,.F.)
B_SPLINE_CURVE_WITH_KNOTS((3,2,2,2,3),(0.,1.570796327,3.141592654,4.71238898,6.283185307),.UNSPECIFIED.)
CURVE()
GEOMETRIC_REPRESENTATION_ITEM()
RATIONAL_B_SPLINE_CURVE((1.,0.707106781,1.,0.707106781,1.,0.707106781,1.,0.707106781,1.))
REPRESENTATION_ITEM(''));
#229=EDGE_CURVE('',#213,#213,#228,.T.);
#230=ORIENTED_EDGE('',*,*,#229,.T.);
#231=ORIENTED_EDGE('',*,*,#217,.T.);
#232=EDGE_LOOP('',(#211,#218,#230,#231));
#233=FACE_BOUND('',#232,.T.);
#234=ADVANCED_FACE('',(#233),#197,.F.);
#235=CARTESIAN_POINT('',(-1.05,7.6,3.5));
#236=CARTESIAN_POINT('',(-1.05,7.6,-0.));
#237=CARTESIAN_POINT('',(-1.05,9.418653348,3.5));
#238=CARTESIAN_POINT('',(-1.05,9.418653348,-0.));
#239=CARTESIAN_POINT('',(0.525,8.509326674,3.5));
#240=CARTESIAN_POINT('',(0.525,8.509326674,-0.));
#241=CARTESIAN_POINT('',(2.1,7.6,3.5));
#242=CARTESIAN_POINT('',(2.1,7.6,-0.));
#243=CARTESIAN_POINT('',(0.525,6.690673326,3.5));
#244=CARTESIAN_POINT('',(0.525,6.690673326,-0.));
#245=CARTESIAN_POINT('',(-1.05,5.781346652,3.5));
#246=CARTESIAN_POINT('',(-1.05,5.781346652,-0.));
#247=CARTESIAN_POINT('',(-1.05,7.6,3.5));
#248=CARTESIAN_POINT('',(-1.05,7.6,-0.));
#249=(BOUNDED_SURFACE()
B_SPLINE_SURFACE(2,1,((#235,#236),(#237,#238),(#239,#240),(#241,#242),(#243,#244),(#245,#246),(#247,#248)),.UNSPECIFIED.,.T.,.F.,.U.)
B_SPLINE_SURFACE_WITH_KNOTS((3,2,2,3),(2,2),(0.,2.094395102,4.188790205,6.283185307),(-0.,0.0035),.UNSPECIFIED.)
GEOMETRIC_REPRESENTATION_ITEM()
RATIONAL_B_SPLINE_SURFACE(((1.,1.),(0.5,0.5),(1.,1.),(0.5,0.5),(1.,1.),(0.5,0.5),(1.,1.)))
REPRESENTATION_ITEM('')
SURFACE()
);
#250=CARTESIAN_POINT('',(-1.05,7.6,0.));
#251=VERTEX_POINT('',#250);
#252=CARTESIAN_POINT('',(-1.05,7.6,0.));
#253=CARTESIAN_POINT('',(-1.05,6.55,0.));
#254=CARTESIAN_POINT('',(-0.,6.55,0.));
#255=CARTESIAN_POINT('',(1.05,6.55,0.));
#256=CARTESIAN_POINT('',(1.05,7.6,0.));
#257=CARTESIAN_POINT('',(1.05,8.65,0.));
#258=CARTESIAN_POINT('',(0.,8.65,0.));
#259=CARTESIAN_POINT('',(-1.05,8.65,0.));
#260=CARTESIAN_POINT('',(-1.05,7.6,0.));
#261=(BOUNDED_CURVE()
B_SPLINE_CURVE(2,(#252,#253,#254,#255,#256,#257,#258,#259,#260),.UNSPECIFIED.,.T.,.F.)
B_SPLINE_CURVE_WITH_KNOTS((3,2,2,2,3),(0.,1.570796327,3.141592654,4.71238898,6.283185307),.UNSPECIFIED.)
CURVE()
GEOMETRIC_REPRESENTATION_ITEM()
RATIONAL_B_SPLINE_CURVE((1.,0.707106781,1.,0.707106781,1.,0.707106781,1.,0.707106781,1.))
REPRESENTATION_ITEM(''));
#262=EDGE_CURVE('',#251,#251,#261,.T.);
#263=ORIENTED_EDGE('',*,*,#262,.F.);
#264=CARTESIAN_POINT('',(-1.05,7.6,3.5));
#265=VERTEX_POINT('',#264);
#266=CARTESIAN_POINT('',(-1.05,7.6,3.5));
#267=CARTESIAN_POINT('',(-1.05,7.6,0.));
#268=B_SPLINE_CURVE_WITH_KNOTS('',1,(#266,#267),.UNSPECIFIED.,.F.,.F.,(2,2),(0.,0.0035),.UNSPECIFIED.);
#269=EDGE_CURVE('',#265,#251,#268,.T.);
#270=ORIENTED_EDGE('',*,*,#269,.F.);
#271=CARTESIAN_POINT('',(-1.05,7.6,3.5));
#272=CARTESIAN_POINT('',(-1.05,6.55,3.5));
#273=CARTESIAN_POINT('',(-0.,6.55,3.5));
#274=CARTESIAN_POINT('',(1.05,6.55,3.5));
#275=CARTESIAN_POINT('',(1.05,7.6,3.5));
#276=CARTESIAN_POINT('',(1.05,8.65,3.5));
#277=CARTESIAN_POINT('',(0.,8.65,3.5));
#278=CARTESIAN_POINT('',(-1.05,8.65,3.5));
#279=CARTESIAN_POINT('',(-1.05,7.6,3.5));
#280=(BOUNDED_CURVE()
B_SPLINE_CURVE(2,(#271,#272,#273,#274,#275,#276,#277,#278,#279),.UNSPECIFIED.,.T.,.F.)
B_SPLINE_CURVE_WITH_KNOTS((3,2,2,2,3),(0.,1.570796327,3.141592654,4.71238898,6.283185307),.UNSPECIFIED.)
CURVE()
GEOMETRIC_REPRESENTATION_ITEM()
RATIONAL_B_SPLINE_CURVE((1.,0.707106781,1.,0.707106781,1.,0.707106781,1.,0.707106781,1.))
REPRESENTATION_ITEM(''));
#281=EDGE_CURVE('',#265,#265,#280,.T.);
#282=ORIENTED_EDGE('',*,*,#281,.T.);
#283=ORIENTED_EDGE('',*,*,#269,.T.);
#284=EDGE_LOOP('',(#263,#270,#282,#283));
#285=FACE_BOUND('',#284,.T.);
#286=ADVANCED_FACE('',(#285),#249,.F.);
#287=CARTESIAN_POINT('',(6.55,0.,3.5));
#288=CARTESIAN_POINT('',(6.55,0.,-0.));
#289=CARTESIAN_POINT('',(6.55,1.818653348,3.5));
#290=CARTESIAN_POINT('',(6.55,1.818653348,-0.));
#291=CARTESIAN_POINT('',(8.125,0.909326674,3.5));
#292=CARTESIAN_POINT('',(8.125,0.909326674,-0.));
#293=CARTESIAN_POINT('',(9.7,0.,3.5));
#294=CARTESIAN_POINT('',(9.7,0.,-0.));
#295=CARTESIAN_POINT('',(8.125,-0.909326674,3.5));
#296=CARTESIAN_POINT('',(8.125,-0.909326674,-0.));
#297=CARTESIAN_POINT('',(6.55,-1.818653348,3.5));
#298=CARTESIAN_POINT('',(6.55,-1.818653348,-0.));
#299=CARTESIAN_POINT('',(6.55,-0.,3.5));
#300=CARTESIAN_POINT('',(6.55,-0.,-0.));
#301=(BOUNDED_SURFACE()
B_SPLINE_SURFACE(2,1,((#287,#288),(#289,#290),(#291,#292),(#293,#294),(#295,#296),(#297,#298),(#299,#300)),.UNSPECIFIED.,.T.,.F.,.U.)
B_SPLINE_SURFACE_WITH_KNOTS((3,2,2,3),(2,2),(0.,2.094395102,4.188790205,6.283185307),(-0.,0.0035),.UNSPECIFIED.)
GEOMETRIC_REPRESENTATION_ITEM()
RATIONAL_B_SPLINE_SURFACE(((1.,1.),(0.5,0.5),(1.,1.),(0.5,0.5),(1.,1.),(0.5,0.5),(1.,1.)))
REPRESENTATION_ITEM('')
SURFACE()
);
#302=CARTESIAN_POINT('',(6.55,0.,0.));
#303=VERTEX_POINT('',#302);
#304=CARTESIAN_POINT('',(6.55,0.,0.));
#305=CARTESIAN_POINT('',(6.55,-1.05,0.));
#306=CARTESIAN_POINT('',(7.6,-1.05,0.));
#307=CARTESIAN_POINT('',(8.65,-1.05,0.));
#308=CARTESIAN_POINT('',(8.65,-0.,0.));
#309=CARTESIAN_POINT('',(8.65,1.05,0.));
#310=CARTESIAN_POINT('',(7.6,1.05,0.));
#311=CARTESIAN_POINT('',(6.55,1.05,0.));
#312=CARTESIAN_POINT('',(6.55,0.,0.));
#313=(BOUNDED_CURVE()
B_SPLINE_CURVE(2,(#304,#305,#306,#307,#308,#309,#310,#311,#312),.UNSPECIFIED.,.T.,.F.)
B_SPLINE_CURVE_WITH_KNOTS((3,2,2,2,3),(0.,1.570796327,3.141592654,4.71238898,6.283185307),.UNSPECIFIED.)
CURVE()
GEOMETRIC_REPRESENTATION_ITEM()
RATIONAL_B_SPLINE_CURVE((1.,0.707106781,1.,0.707106781,1.,0.707106781,1.,0.707106781,1.))
REPRESENTATION_ITEM(''));
#314=EDGE_CURVE('',#303,#303,#313,.T.);
#315=ORIENTED_EDGE('',*,*,#314,.F.);
#316=CARTESIAN_POINT('',(6.55,0.,3.5));
#317=VERTEX_POINT('',#316);
#318=CARTESIAN_POINT('',(6.55,0.,3.5));
#319=CARTESIAN_POINT('',(6.55,0.,0.));
#320=B_SPLINE_CURVE_WITH_KNOTS('',1,(#318,#319),.UNSPECIFIED.,.F.,.F.,(2,2),(0.,0.0035),.UNSPECIFIED.);
#321=EDGE_CURVE('',#317,#303,#320,.T.);
#322=ORIENTED_EDGE('',*,*,#321,.F.);
#323=CARTESIAN_POINT('',(6.55,0.,3.5));
#324=CARTESIAN_POINT('',(6.55,-1.05,3.5));
#325=CARTESIAN_POINT('',(7.6,-1.05,3.5));
#326=CARTESIAN_POINT('',(8.65,-1.05,3.5));
#327=CARTESIAN_POINT('',(8.65,-0.,3.5));
#328=CARTESIAN_POINT('',(8.65,1.05,3.5));
#329=CARTESIAN_POINT('',(7.6,1.05,3.5));
#330=CARTESIAN_POINT('',(6.55,1.05,3.5));
#331=CARTESIAN_POINT('',(6.55,0.,3.5));
#332=(BOUNDED_CURVE()
B_SPLINE_CURVE(2,(#323,#324,#325,#326,#327,#328,#329,#330,#331),.UNSPECIFIED.,.T.,.F.)
B_SPLINE_CURVE_WITH_KNOTS((3,2,2,2,3),(0.,1.570796327,3.141592654,4.71238898,6.283185307),.UNSPECIFIED.)
CURVE()
GEOMETRIC_REPRESENTATION_ITEM()
RATIONAL_B_SPLINE_CURVE((1.,0.707106781,1.,0.707106781,1.,0.707106781,1.,0.707106781,1.))
REPRESENTATION_ITEM(''));
#333=EDGE_CURVE('',#317,#317,#332,.T.);
#334=ORIENTED_EDGE('',*,*,#333,.T.);
#335=ORIENTED_EDGE('',*,*,#321,.T.);
#336=EDGE_LOOP('',(#315,#322,#334,#335));
#337=FACE_BOUND('',#336,.T.);
#338=ADVANCED_FACE('',(#337),#301,.F.);
#339=CARTESIAN_POINT('',(15.,32.,0.));
#340=CARTESIAN_POINT('',(15.,32.,3.5));
#341=CARTESIAN_POINT('',(10.918471064,-1.336783311,0.));
#342=CARTESIAN_POINT('',(10.918471064,-1.336783311,3.5));
#343=B_SPLINE_SURFACE_WITH_KNOTS('',1,1,((#339,#340),(#341,#342)),.UNSPECIFIED.,.F.,.F.,.U.,(2,2),(2,2),(-0.033585711,0.),(-0.0035,0.),.UNSPECIFIED.);
#344=CARTESIAN_POINT('',(10.918471064,-1.336783311,0.));
#345=CARTESIAN_POINT('',(15.,32.,0.));
#346=B_SPLINE_CURVE_WITH_KNOTS('',1,(#344,#345),.UNSPECIFIED.,.F.,.F.,(2,2),(0.,0.033585711),.UNSPECIFIED.);
#347=EDGE_CURVE('',#103,#33,#346,.T.);
#348=ORIENTED_EDGE('',*,*,#347,.T.);
#349=ORIENTED_EDGE('',*,*,#58,.F.);
#350=CARTESIAN_POINT('',(10.918471064,-1.336783311,3.5));
#351=CARTESIAN_POINT('',(15.,32.,3.5));
#352=B_SPLINE_CURVE_WITH_KNOTS('',1,(#350,#351),.UNSPECIFIED.,.F.,.F.,(2,2),(0.,0.033585711),.UNSPECIFIED.);
#353=EDGE_CURVE('',#113,#49,#352,.T.);
#354=ORIENTED_EDGE('',*,*,#353,.F.);
#355=ORIENTED_EDGE('',*,*,#117,.T.);
#356=EDGE_LOOP('',(#348,#349,#354,#355));
#357=FACE_BOUND('',#356,.T.);
#358=ADVANCED_FACE('',(#357),#343,.F.);
#359=CARTESIAN_POINT('',(-1.05,-7.6,3.5));
#360=CARTESIAN_POINT('',(-1.05,-7.6,-0.));
#361=CARTESIAN_POINT('',(-1.05,-5.781346652,3.5));
#362=CARTESIAN_POINT('',(-1.05,-5.781346652,-0.));
#363=CARTESIAN_POINT('',(0.525,-6.690673326,3.5));
#364=CARTESIAN_POINT('',(0.525,-6.690673326,-0.));
#365=CARTESIAN_POINT('',(2.1,-7.6,3.5));
#366=CARTESIAN_POINT('',(2.1,-7.6,-0.));
#367=CARTESIAN_POINT('',(0.525,-8.509326674,3.5));
#368=CARTESIAN_POINT('',(0.525,-8.509326674,-0.));
#369=CARTESIAN_POINT('',(-1.05,-9.418653348,3.5));
#370=CARTESIAN_POINT('',(-1.05,-9.418653348,-0.));
#371=CARTESIAN_POINT('',(-1.05,-7.6,3.5));
#372=CARTESIAN_POINT('',(-1.05,-7.6,-0.));
#373=(BOUNDED_SURFACE()
B_SPLINE_SURFACE(2,1,((#359,#360),(#361,#362),(#363,#364),(#365,#366),(#367,#368),(#369,#370),(#371,#372)),.UNSPECIFIED.,.T.,.F.,.U.)
B_SPLINE_SURFACE_WITH_KNOTS((3,2,2,3),(2,2),(0.,2.094395102,4.188790205,6.283185307),(-0.,0.0035),.UNSPECIFIED.)
GEOMETRIC_REPRESENTATION_ITEM()
RATIONAL_B_SPLINE_SURFACE(((1.,1.),(0.5,0.5),(1.,1.),(0.5,0.5),(1.,1.),(0.5,0.5),(1.,1.)))
REPRESENTATION_ITEM('')
SURFACE()
);
#374=CARTESIAN_POINT('',(-1.05,-7.6,0.));
#375=VERTEX_POINT('',#374);
#376=CARTESIAN_POINT('',(-1.05,-7.6,0.));
#377=CARTESIAN_POINT('',(-1.05,-8.65,0.));
#378=CARTESIAN_POINT('',(-0.,-8.65,0.));
#379=CARTESIAN_POINT('',(1.05,-8.65,0.));
#380=CARTESIAN_POINT('',(1.05,-7.6,0.));
#381=CARTESIAN_POINT('',(1.05,-6.55,0.));
#382=CARTESIAN_POINT('',(0.,-6.55,0.));
#383=CARTESIAN_POINT('',(-1.05,-6.55,0.));
#384=CARTESIAN_POINT('',(-1.05,-7.6,0.));
#385=(BOUNDED_CURVE()
B_SPLINE_CURVE(2,(#376,#377,#378,#379,#380,#381,#382,#383,#384),.UNSPECIFIED.,.T.,.F.)
B_SPLINE_CURVE_WITH_KNOTS((3,2,2,2,3),(0.,1.570796327,3.141592654,4.71238898,6.283185307),.UNSPECIFIED.)
CURVE()
GEOMETRIC_REPRESENTATION_ITEM()
RATIONAL_B_SPLINE_CURVE((1.,0.707106781,1.,0.707106781,1.,0.707106781,1.,0.707106781,1.))
REPRESENTATION_ITEM(''));
#386=EDGE_CURVE('',#375,#375,#385,.T.);
#387=ORIENTED_EDGE('',*,*,#386,.F.);
#388=CARTESIAN_POINT('',(-1.05,-7.6,3.5));
#389=VERTEX_POINT('',#388);
#390=CARTESIAN_POINT('',(-1.05,-7.6,3.5));
#391=CARTESIAN_POINT('',(-1.05,-7.6,0.));
#392=B_SPLINE_CURVE_WITH_KNOTS('',1,(#390,#391),.UNSPECIFIED.,.F.,.F.,(2,2),(0.,0.0035),.UNSPECIFIED.);
#393=EDGE_CURVE('',#389,#375,#392,.T.);
#394=ORIENTED_EDGE('',*,*,#393,.F.);
#395=CARTESIAN_POINT('',(-1.05,-7.6,3.5));
#396=CARTESIAN_POINT('',(-1.05,-8.65,3.5));
#397=CARTESIAN_POINT('',(-0.,-8.65,3.5));
#398=CARTESIAN_POINT('',(1.05,-8.65,3.5));
#399=CARTESIAN_POINT('',(1.05,-7.6,3.5));
#400=CARTESIAN_POINT('',(1.05,-6.55,3.5));
#401=CARTESIAN_POINT('',(0.,-6.55,3.5));
#402=CARTESIAN_POINT('',(-1.05,-6.55,3.5));
#403=CARTESIAN_POINT('',(-1.05,-7.6,3.5));
#404=(BOUNDED_CURVE()
B_SPLINE_CURVE(2,(#395,#396,#397,#398,#399,#400,#401,#402,#403),.UNSPECIFIED.,.T.,.F.)
B_SPLINE_CURVE_WITH_KNOTS((3,2,2,2,3),(0.,1.570796327,3.141592654,4.71238898,6.283185307),.UNSPECIFIED.)
CURVE()
GEOMETRIC_REPRESENTATION_ITEM()
RATIONAL_B_SPLINE_CURVE((1.,0.707106781,1.,0.707106781,1.,0.707106781,1.,0.707106781,1.))
REPRESENTATION_ITEM(''));
#405=EDGE_CURVE('',#389,#389,#404,.T.);
#406=ORIENTED_EDGE('',*,*,#405,.T.);
#407=ORIENTED_EDGE('',*,*,#393,.T.);
#408=EDGE_LOOP('',(#387,#394,#406,#407));
#409=FACE_BOUND('',#408,.T.);
#410=ADVANCED_FACE('',(#409),#373,.F.);
#411=CARTESIAN_POINT('',(15.,32.,3.5));
#412=CARTESIAN_POINT('',(15.,-11.,3.5));
#413=CARTESIAN_POINT('',(-15.,32.,3.5));
#414=CARTESIAN_POINT('',(-15.,-11.,3.5));
#415=B_SPLINE_SURFACE_WITH_KNOTS('',1,1,((#411,#412),(#413,#414)),.UNSPECIFIED.,.F.,.F.,.U.,(2,2),(2,2),(-0.015,0.015),(-0.032,0.011),.UNSPECIFIED.);
#416=CARTESIAN_POINT('',(-7.,23.95,3.5));
#417=VERTEX_POINT('',#416);
#418=CARTESIAN_POINT('',(-5.95,25.,3.5));
#419=VERTEX_POINT('',#418);
#420=CARTESIAN_POINT('',(-5.95,25.,3.5));
#421=CARTESIAN_POINT('',(-5.95,26.05,3.5));
#422=CARTESIAN_POINT('',(-7.,26.05,3.5));
#423=CARTESIAN_POINT('',(-8.05,26.05,3.5));
#424=CARTESIAN_POINT('',(-8.05,25.,3.5));
#425=CARTESIAN_POINT('',(-8.05,23.95,3.5));
#426=CARTESIAN_POINT('',(-7.,23.95,3.5));
#427=CARTESIAN_POINT('',(-5.95,23.95,3.5));
#428=CARTESIAN_POINT('',(-5.95,25.,3.5));
#429=(BOUNDED_CURVE()
B_SPLINE_CURVE(2,(#420,#421,#422,#423,#424,#425,#426,#427,#428),.UNSPECIFIED.,.T.,.F.)
B_SPLINE_CURVE_WITH_KNOTS((3,2,2,2,3),(0.,1.570796327,3.141592654,4.71238898,6.283185307),.UNSPECIFIED.)
CURVE()
GEOMETRIC_REPRESENTATION_ITEM()
RATIONAL_B_SPLINE_CURVE((1.,0.707106781,1.,0.707106781,1.,0.707106781,1.,0.707106781,1.))
REPRESENTATION_ITEM(''));
#430=EDGE_CURVE('',#417,#419,#429,.T.);
#431=ORIENTED_EDGE('',*,*,#430,.F.);
#432=CARTESIAN_POINT('',(-5.95,25.,3.5));
#433=CARTESIAN_POINT('',(-5.95,26.05,3.5));
#434=CARTESIAN_POINT('',(-7.,26.05,3.5));
#435=CARTESIAN_POINT('',(-8.05,26.05,3.5));
#436=CARTESIAN_POINT('',(-8.05,25.,3.5));
#437=CARTESIAN_POINT('',(-8.05,23.95,3.5));
#438=CARTESIAN_POINT('',(-7.,23.95,3.5));
#439=CARTESIAN_POINT('',(-5.95,23.95,3.5));
#440=CARTESIAN_POINT('',(-5.95,25.,3.5));
#441=(BOUNDED_CURVE()
B_SPLINE_CURVE(2,(#432,#433,#434,#435,#436,#437,#438,#439,#440),.UNSPECIFIED.,.T.,.F.)
B_SPLINE_CURVE_WITH_KNOTS((3,2,2,2,3),(0.,1.570796327,3.141592654,4.71238898,6.283185307),.UNSPECIFIED.)
CURVE()
GEOMETRIC_REPRESENTATION_ITEM()
RATIONAL_B_SPLINE_CURVE((1.,0.707106781,1.,0.707106781,1.,0.707106781,1.,0.707106781,1.))
REPRESENTATION_ITEM(''));
#442=EDGE_CURVE('',#419,#417,#441,.T.);
#443=ORIENTED_EDGE('',*,*,#442,.F.);
#444=EDGE_LOOP('',(#431,#443));
#445=FACE_BOUND('',#444,.T.);
#446=CARTESIAN_POINT('',(7.,23.95,3.5));
#447=VERTEX_POINT('',#446);
#448=CARTESIAN_POINT('',(8.05,25.,3.5));
#449=VERTEX_POINT('',#448);
#450=CARTESIAN_POINT('',(8.05,25.,3.5));
#451=CARTESIAN_POINT('',(8.05,26.05,3.5));
#452=CARTESIAN_POINT('',(7.,26.05,3.5));
#453=CARTESIAN_POINT('',(5.95,26.05,3.5));
#454=CARTESIAN_POINT('',(5.95,25.,3.5));
#455=CARTESIAN_POINT('',(5.95,23.95,3.5));
#456=CARTESIAN_POINT('',(7.,23.95,3.5));
#457=CARTESIAN_POINT('',(8.05,23.95,3.5));
#458=CARTESIAN_POINT('',(8.05,25.,3.5));
#459=(BOUNDED_CURVE()
B_SPLINE_CURVE(2,(#450,#451,#452,#453,#454,#455,#456,#457,#458),.UNSPECIFIED.,.T.,.F.)
B_SPLINE_CURVE_WITH_KNOTS((3,2,2,2,3),(0.,1.570796327,3.141592654,4.71238898,6.283185307),.UNSPECIFIED.)
CURVE()
GEOMETRIC_REPRESENTATION_ITEM()
RATIONAL_B_SPLINE_CURVE((1.,0.707106781,1.,0.707106781,1.,0.707106781,1.,0.707106781,1.))
REPRESENTATION_ITEM(''));
#460=EDGE_CURVE('',#447,#449,#459,.T.);
#461=ORIENTED_EDGE('',*,*,#460,.F.);
#462=CARTESIAN_POINT('',(8.05,25.,3.5));
#463=CARTESIAN_POINT('',(8.05,26.05,3.5));
#464=CARTESIAN_POINT('',(7.,26.05,3.5));
#465=CARTESIAN_POINT('',(5.95,26.05,3.5));
#466=CARTESIAN_POINT('',(5.95,25.,3.5));
#467=CARTESIAN_POINT('',(5.95,23.95,3.5));
#468=CARTESIAN_POINT('',(7.,23.95,3.5));
#469=CARTESIAN_POINT('',(8.05,23.95,3.5));
#470=CARTESIAN_POINT('',(8.05,25.,3.5));
#471=(BOUNDED_CURVE()
B_SPLINE_CURVE(2,(#462,#463,#464,#465,#466,#467,#468,#469,#470),.UNSPECIFIED.,.T.,.F.)
B_SPLINE_CURVE_WITH_KNOTS((3,2,2,2,3),(0.,1.570796327,3.141592654,4.71238898,6.283185307),.UNSPECIFIED.)
CURVE()
GEOMETRIC_REPRESENTATION_ITEM()
RATIONAL_B_SPLINE_CURVE((1.,0.707106781,1.,0.707106781,1.,0.707106781,1.,0.707106781,1.))
REPRESENTATION_ITEM(''));
#472=EDGE_CURVE('',#449,#447,#471,.T.);
#473=ORIENTED_EDGE('',*,*,#472,.F.);
#474=EDGE_LOOP('',(#461,#473));
#475=FACE_BOUND('',#474,.T.);
#476=ORIENTED_EDGE('',*,*,#53,.T.);
#477=ORIENTED_EDGE('',*,*,#85,.T.);
#478=ORIENTED_EDGE('',*,*,#125,.T.);
#479=ORIENTED_EDGE('',*,*,#353,.T.);
#480=EDGE_LOOP('',(#476,#477,#478,#479));
#481=FACE_BOUND('',#480,.T.);
#482=ORIENTED_EDGE('',*,*,#333,.F.);
#483=EDGE_LOOP('',(#482));
#484=FACE_BOUND('',#483,.T.);
#485=ORIENTED_EDGE('',*,*,#281,.F.);
#486=EDGE_LOOP('',(#485));
#487=FACE_BOUND('',#486,.T.);
#488=ORIENTED_EDGE('',*,*,#229,.F.);
#489=EDGE_LOOP('',(#488));
#490=FACE_BOUND('',#489,.T.);
#491=ORIENTED_EDGE('',*,*,#177,.F.);
#492=EDGE_LOOP('',(#491));
#493=FACE_BOUND('',#492,.T.);
#494=ORIENTED_EDGE('',*,*,#405,.F.);
#495=EDGE_LOOP('',(#494));
#496=FACE_BOUND('',#495,.T.);
#497=ADVANCED_FACE('',(#445,#475,#481,#484,#487,#490,#493,#496),#415,.T.);
#498=CARTESIAN_POINT('',(15.,32.,0.));
#499=CARTESIAN_POINT('',(15.,-11.,0.));
#500=CARTESIAN_POINT('',(-15.,32.,0.));
#501=CARTESIAN_POINT('',(-15.,-11.,0.));
#502=B_SPLINE_SURFACE_WITH_KNOTS('',1,1,((#498,#499),(#500,#501)),.UNSPECIFIED.,.F.,.F.,.U.,(2,2),(2,2),(-0.015,0.015),(-0.032,0.011),.UNSPECIFIED.);
#503=CARTESIAN_POINT('',(-7.,23.95,0.000001));
#504=VERTEX_POINT('',#503);
#505=CARTESIAN_POINT('',(-7.,23.95,0.000001));
#506=CARTESIAN_POINT('',(-8.05,23.95,0.000001));
#507=CARTESIAN_POINT('',(-8.05,25.,0.000001));
#508=CARTESIAN_POINT('',(-8.05,26.05,0.000001));
#509=CARTESIAN_POINT('',(-7.,26.05,0.000001));
#510=CARTESIAN_POINT('',(-5.95,26.05,0.000001));
#511=CARTESIAN_POINT('',(-5.95,25.,0.000001));
#512=CARTESIAN_POINT('',(-5.95,23.95,0.000001));
#513=CARTESIAN_POINT('',(-7.,23.95,0.000001));
#514=(BOUNDED_CURVE()
B_SPLINE_CURVE(2,(#505,#506,#507,#508,#509,#510,#511,#512,#513),.UNSPECIFIED.,.T.,.F.)
B_SPLINE_CURVE_WITH_KNOTS((3,2,2,2,3),(0.,1.570796327,3.141592654,4.71238898,6.283185307),.UNSPECIFIED.)
CURVE()
GEOMETRIC_REPRESENTATION_ITEM()
RATIONAL_B_SPLINE_CURVE((1.,0.707106781,1.,0.707106781,1.,0.707106781,1.,0.707106781,1.))
REPRESENTATION_ITEM(''));
#515=EDGE_CURVE('',#504,#504,#514,.T.);
#516=ORIENTED_EDGE('',*,*,#515,.F.);
#517=EDGE_LOOP('',(#516));
#518=FACE_BOUND('',#517,.T.);
#519=CARTESIAN_POINT('',(7.,23.95,0.000001));
#520=VERTEX_POINT('',#519);
#521=CARTESIAN_POINT('',(7.,23.95,0.000001));
#522=CARTESIAN_POINT('',(5.95,23.95,0.000001));
#523=CARTESIAN_POINT('',(5.95,25.,0.000001));
#524=CARTESIAN_POINT('',(5.95,26.05,0.000001));
#525=CARTESIAN_POINT('',(7.,26.05,0.000001));
#526=CARTESIAN_POINT('',(8.05,26.05,0.000001));
#527=CARTESIAN_POINT('',(8.05,25.,0.000001));
#528=CARTESIAN_POINT('',(8.05,23.95,0.000001));
#529=CARTESIAN_POINT('',(7.,23.95,0.000001));
#530=(BOUNDED_CURVE()
B_SPLINE_CURVE(2,(#521,#522,#523,#524,#525,#526,#527,#528,#529),.UNSPECIFIED.,.T.,.F.)
B_SPLINE_CURVE_WITH_KNOTS((3,2,2,2,3),(0.,1.570796327,3.141592654,4.71238898,6.283185307),.UNSPECIFIED.)
CURVE()
GEOMETRIC_REPRESENTATION_ITEM()
RATIONAL_B_SPLINE_CURVE((1.,0.707106781,1.,0.707106781,1.,0.707106781,1.,0.707106781,1.))
REPRESENTATION_ITEM(''));
#531=EDGE_CURVE('',#520,#520,#530,.T.);
#532=ORIENTED_EDGE('',*,*,#531,.F.);
#533=EDGE_LOOP('',(#532));
#534=FACE_BOUND('',#533,.T.);
#535=ORIENTED_EDGE('',*,*,#39,.F.);
#536=ORIENTED_EDGE('',*,*,#347,.F.);
#537=ORIENTED_EDGE('',*,*,#110,.F.);
#538=ORIENTED_EDGE('',*,*,#73,.F.);
#539=EDGE_LOOP('',(#535,#536,#537,#538));
#540=FACE_BOUND('',#539,.T.);
#541=ORIENTED_EDGE('',*,*,#314,.T.);
#542=EDGE_LOOP('',(#541));
#543=FACE_BOUND('',#542,.T.);
#544=ORIENTED_EDGE('',*,*,#262,.T.);
#545=EDGE_LOOP('',(#544));
#546=FACE_BOUND('',#545,.T.);
#547=ORIENTED_EDGE('',*,*,#210,.T.);
#548=EDGE_LOOP('',(#547));
#549=FACE_BOUND('',#548,.T.);
#550=ORIENTED_EDGE('',*,*,#158,.T.);
#551=EDGE_LOOP('',(#550));
#552=FACE_BOUND('',#551,.T.);
#553=ORIENTED_EDGE('',*,*,#386,.T.);
#554=EDGE_LOOP('',(#553));
#555=FACE_BOUND('',#554,.T.);
#556=ADVANCED_FACE('',(#518,#534,#540,#543,#546,#549,#552,#555),#502,.F.);
#557=CARTESIAN_POINT('',(7.,23.95,3.5));
#558=CARTESIAN_POINT('',(7.,23.95,0.000001));
#559=CARTESIAN_POINT('',(5.181346652,23.95,3.5));
#560=CARTESIAN_POINT('',(5.181346652,23.95,0.000001));
#561=CARTESIAN_POINT('',(6.090673326,25.525,3.5));
#562=CARTESIAN_POINT('',(6.090673326,25.525,0.000001));
#563=CARTESIAN_POINT('',(7.,27.1,3.5));
#564=CARTESIAN_POINT('',(7.,27.1,0.000001));
#565=CARTESIAN_POINT('',(7.909326674,25.525,3.5));
#566=CARTESIAN_POINT('',(7.909326674,25.525,0.000001));
#567=CARTESIAN_POINT('',(8.818653348,23.95,3.5));
#568=CARTESIAN_POINT('',(8.818653348,23.95,0.000001));
#569=CARTESIAN_POINT('',(7.,23.95,3.5));
#570=CARTESIAN_POINT('',(7.,23.95,0.000001));
#571=(BOUNDED_SURFACE()
B_SPLINE_SURFACE(2,1,((#557,#558),(#559,#560),(#561,#562),(#563,#564),(#565,#566),(#567,#568),(#569,#570)),.UNSPECIFIED.,.T.,.F.,.U.)
B_SPLINE_SURFACE_WITH_KNOTS((3,2,2,3),(2,2),(0.,2.094395102,4.188790205,6.283185307),(0.000000001,0.0035),.UNSPECIFIED.)
GEOMETRIC_REPRESENTATION_ITEM()
RATIONAL_B_SPLINE_SURFACE(((1.,1.),(0.5,0.5),(1.,1.),(0.5,0.5),(1.,1.),(0.5,0.5),(1.,1.)))
REPRESENTATION_ITEM('')
SURFACE()
);
#572=CARTESIAN_POINT('',(7.,23.95,0.000001));
#573=CARTESIAN_POINT('',(7.,23.95,3.5));
#574=B_SPLINE_CURVE_WITH_KNOTS('',1,(#572,#573),.UNSPECIFIED.,.F.,.F.,(2,2),(0.000000001,0.0035),.UNSPECIFIED.);
#575=EDGE_CURVE('',#520,#447,#574,.T.);
#576=ORIENTED_EDGE('',*,*,#575,.F.);
#577=ORIENTED_EDGE('',*,*,#531,.T.);
#578=ORIENTED_EDGE('',*,*,#575,.T.);
#579=ORIENTED_EDGE('',*,*,#460,.T.);
#580=ORIENTED_EDGE('',*,*,#472,.T.);
#581=EDGE_LOOP('',(#576,#577,#578,#579,#580));
#582=FACE_BOUND('',#581,.T.);
#583=ADVANCED_FACE('',(#582),#571,.F.);
#584=CARTESIAN_POINT('',(-7.,23.95,3.5));
#585=CARTESIAN_POINT('',(-7.,23.95,0.000001));
#586=CARTESIAN_POINT('',(-8.818653348,23.95,3.5));
#587=CARTESIAN_POINT('',(-8.818653348,23.95,0.000001));
#588=CARTESIAN_POINT('',(-7.909326674,25.525,3.5));
#589=CARTESIAN_POINT('',(-7.909326674,25.525,0.000001));
#590=CARTESIAN_POINT('',(-7.,27.1,3.5));
#591=CARTESIAN_POINT('',(-7.,27.1,0.000001));
#592=CARTESIAN_POINT('',(-6.090673326,25.525,3.5));
#593=CARTESIAN_POINT('',(-6.090673326,25.525,0.000001));
#594=CARTESIAN_POINT('',(-5.181346652,23.95,3.5));
#595=CARTESIAN_POINT('',(-5.181346652,23.95,0.000001));
#596=CARTESIAN_POINT('',(-7.,23.95,3.5));
#597=CARTESIAN_POINT('',(-7.,23.95,0.000001));
#598=(BOUNDED_SURFACE()
B_SPLINE_SURFACE(2,1,((#584,#585),(#586,#587),(#588,#589),(#590,#591),(#592,#593),(#594,#595),(#596,#597)),.UNSPECIFIED.,.T.,.F.,.U.)
B_SPLINE_SURFACE_WITH_KNOTS((3,2,2,3),(2,2),(0.,2.094395102,4.188790205,6.283185307),(0.000000001,0.0035),.UNSPECIFIED.)
GEOMETRIC_REPRESENTATION_ITEM()
RATIONAL_B_SPLINE_SURFACE(((1.,1.),(0.5,0.5),(1.,1.),(0.5,0.5),(1.,1.),(0.5,0.5),(1.,1.)))
REPRESENTATION_ITEM('')
SURFACE()
);
#599=CARTESIAN_POINT('',(-7.,23.95,0.000001));
#600=CARTESIAN_POINT('',(-7.,23.95,3.5));
#601=B_SPLINE_CURVE_WITH_KNOTS('',1,(#599,#600),.UNSPECIFIED.,.F.,.F.,(2,2),(0.000000001,0.0035),.UNSPECIFIED.);
#602=EDGE_CURVE('',#504,#417,#601,.T.);
#603=ORIENTED_EDGE('',*,*,#602,.F.);
#604=ORIENTED_EDGE('',*,*,#515,.T.);
#605=ORIENTED_EDGE('',*,*,#602,.T.);
#606=ORIENTED_EDGE('',*,*,#430,.T.);
#607=ORIENTED_EDGE('',*,*,#442,.T.);
#608=EDGE_LOOP('',(#603,#604,#605,#606,#607));
#609=FACE_BOUND('',#608,.T.);
#610=ADVANCED_FACE('',(#609),#598,.F.);
#611=CLOSED_SHELL('',(#62,#90,#130,#182,#234,#286,#338,#358,#410,#497,#556,#583,#610));
#612=MANIFOLD_SOLID_BREP('\X2\04220435043B043E\X0\_1:1',#611);
#613=COLOUR_RGB('',0.768627465,0.768627465,0.768627465);
#614=FILL_AREA_STYLE_COLOUR('',#613);
#615=FILL_AREA_STYLE('',(#614));
#616=SURFACE_STYLE_FILL_AREA(#615);
#617=SURFACE_SIDE_STYLE('',(#616));
#618=SURFACE_STYLE_USAGE(.BOTH.,#617);
#619=PRESENTATION_STYLE_ASSIGNMENT((#618));
#26=STYLED_ITEM('',(#619),#612);
#620=(NAMED_UNIT(*)PLANE_ANGLE_UNIT()SI_UNIT($,.RADIAN.));
#621=PLANE_ANGLE_MEASURE_WITH_UNIT(PLANE_ANGLE_MEASURE(0.0174532925),#620);
#622=(CONVERSION_BASED_UNIT('DEGREE',#621)NAMED_UNIT(#623)PLANE_ANGLE_UNIT());
#623=DIMENSIONAL_EXPONENTS(0.,0.,0.,0.,0.,0.,0.);
#624=(NAMED_UNIT(*)SI_UNIT($,.STERADIAN.)SOLID_ANGLE_UNIT());
#625=(LENGTH_UNIT()NAMED_UNIT(*)SI_UNIT(.MILLI.,.METRE.));
#626=UNCERTAINTY_MEASURE_WITH_UNIT(LENGTH_MEASURE(1.000000E-03),#625,'DISTANCE_ACCURACY_VALUE','Maximum Tolerance applied to model');
#627=(GEOMETRIC_REPRESENTATION_CONTEXT(3)GLOBAL_UNCERTAINTY_ASSIGNED_CONTEXT((#626))GLOBAL_UNIT_ASSIGNED_CONTEXT((#625,#622,#624))REPRESENTATION_CONTEXT('','0'));
#629=CARTESIAN_POINT('',(0.,0.,0.));
#630=DIRECTION('',(0.,0.,1.));
#631=DIRECTION('',(1.,0.,0.));
#632=AXIS2_PLACEMENT_3D('',#629,#630,#631);
#643=CARTESIAN_POINT('',(0.,0.,0.));
#644=DIRECTION('',(0.,0.,1.));
#645=DIRECTION('',(1.,0.,-0.));
#646=AXIS2_PLACEMENT_3D('',#643,#644,#645);
#647=ITEM_DEFINED_TRANSFORMATION('','',#646,#632);
#648=(REPRESENTATION_RELATIONSHIP('','',#633,#16)REPRESENTATION_RELATIONSHIP_WITH_TRANSFORMATION(#647)SHAPE_REPRESENTATION_RELATIONSHIP());
#649=NEXT_ASSEMBLY_USAGE_OCCURRENCE('Nodes_1','Nodes','Nodes',#25,#642,$);
#650=PRODUCT_DEFINITION_SHAPE('','',#649);
#651=CONTEXT_DEPENDENT_SHAPE_REPRESENTATION(#648,#650);
#652=(NAMED_UNIT(*)PLANE_ANGLE_UNIT()SI_UNIT($,.RADIAN.));
#653=PLANE_ANGLE_MEASURE_WITH_UNIT(PLANE_ANGLE_MEASURE(0.0174532925),#652);
#654=(CONVERSION_BASED_UNIT('DEGREE',#653)NAMED_UNIT(#655)PLANE_ANGLE_UNIT());
#655=DIMENSIONAL_EXPONENTS(0.,0.,0.,0.,0.,0.,0.);
#656=(NAMED_UNIT(*)SI_UNIT($,.STERADIAN.)SOLID_ANGLE_UNIT());
#657=(LENGTH_UNIT()NAMED_UNIT(*)SI_UNIT(.MILLI.,.METRE.));
#658=UNCERTAINTY_MEASURE_WITH_UNIT(LENGTH_MEASURE(1.000000E-03),#657,'DISTANCE_ACCURACY_VALUE','Maximum Tolerance applied to model');
#659=(GEOMETRIC_REPRESENTATION_CONTEXT(3)GLOBAL_UNCERTAINTY_ASSIGNED_CONTEXT((#658))GLOBAL_UNIT_ASSIGNED_CONTEXT((#657,#654,#656))REPRESENTATION_CONTEXT('','3D \X2\042304370435043B\X0\_1'));
#661=CARTESIAN_POINT('',(0.,0.,0.));
#662=DIRECTION('',(0.,0.,1.));
#663=DIRECTION('',(1.,0.,0.));
#664=AXIS2_PLACEMENT_3D('',#661,#662,#663);
#675=CARTESIAN_POINT('',(0.,0.,0.));
#676=DIRECTION('',(0.,0.,1.));
#677=DIRECTION('',(1.,0.,-0.));
#678=AXIS2_PLACEMENT_3D('',#675,#676,#677);
#679=ITEM_DEFINED_TRANSFORMATION('','',#678,#664);
#680=(REPRESENTATION_RELATIONSHIP('','',#665,#633)REPRESENTATION_RELATIONSHIP_WITH_TRANSFORMATION(#679)SHAPE_REPRESENTATION_RELATIONSHIP());
#681=NEXT_ASSEMBLY_USAGE_OCCURRENCE('3D \X2\042304370435043B\X0\_1_2','3D \X2\042304370435043B\X0\_1','3D \X2\042304370435043B\X0\_1',#642,#674,$);
#682=PRODUCT_DEFINITION_SHAPE('','',#681);
#683=CONTEXT_DEPENDENT_SHAPE_REPRESENTATION(#680,#682);
#684=CARTESIAN_POINT('',(7.,25.,0.));
#685=GEOMETRIC_CURVE_SET('',(#684));
#665=SHAPE_REPRESENTATION('3D \X2\042304370435043B\X0\_1',(#664),#659);
#667=GEOMETRICALLY_BOUNDED_WIREFRAME_SHAPE_REPRESENTATION('3D \X2\042304370435043B\X0\_1',(#685),#659);
#693=SHAPE_REPRESENTATION_RELATIONSHIP('','',#665,#667);
#694=APPLICATION_CONTEXT('data for automotive mechanical design processes');
#695=APPLICATION_PROTOCOL_DEFINITION('international standard','automotive_design',1994,#694);
#696=PRODUCT_CONTEXT('',#694,'mechanical');
#697=PRODUCT_DEFINITION_CONTEXT('part definition',#694,'design');
#673=PRODUCT('3D \X2\042304370435043B\X0\_1','3D \X2\042304370435043B\X0\_1','',(#696));
#698=PRODUCT_RELATED_PRODUCT_CATEGORY('part','',(#673));
#699=PRODUCT_DEFINITION_FORMATION_WITH_SPECIFIED_SOURCE('','',#673,.NOT_KNOWN.);
#674=PRODUCT_DEFINITION('design','',#699,#697);
#672=PRODUCT_DEFINITION_SHAPE('','',#674);
#700=SHAPE_DEFINITION_REPRESENTATION(#672,#665);
#660=DRAUGHTING_MODEL('',(),#659);
#701=(NAMED_UNIT(*)PLANE_ANGLE_UNIT()SI_UNIT($,.RADIAN.));
#702=PLANE_ANGLE_MEASURE_WITH_UNIT(PLANE_ANGLE_MEASURE(0.0174532925),#701);
#703=(CONVERSION_BASED_UNIT('DEGREE',#702)NAMED_UNIT(#704)PLANE_ANGLE_UNIT());
#704=DIMENSIONAL_EXPONENTS(0.,0.,0.,0.,0.,0.,0.);
#705=(NAMED_UNIT(*)SI_UNIT($,.STERADIAN.)SOLID_ANGLE_UNIT());
#706=(LENGTH_UNIT()NAMED_UNIT(*)SI_UNIT(.MILLI.,.METRE.));
#707=UNCERTAINTY_MEASURE_WITH_UNIT(LENGTH_MEASURE(1.000000E-03),#706,'DISTANCE_ACCURACY_VALUE','Maximum Tolerance applied to model');
#708=(GEOMETRIC_REPRESENTATION_CONTEXT(3)GLOBAL_UNCERTAINTY_ASSIGNED_CONTEXT((#707))GLOBAL_UNIT_ASSIGNED_CONTEXT((#706,#703,#705))REPRESENTATION_CONTEXT('','3D \X2\042304370435043B\X0\_2'));
#710=CARTESIAN_POINT('',(0.,0.,0.));
#711=DIRECTION('',(0.,0.,1.));
#712=DIRECTION('',(1.,0.,0.));
#713=AXIS2_PLACEMENT_3D('',#710,#711,#712);
#724=CARTESIAN_POINT('',(0.,0.,0.));
#725=DIRECTION('',(0.,0.,1.));
#726=DIRECTION('',(1.,0.,-0.));
#727=AXIS2_PLACEMENT_3D('',#724,#725,#726);
#728=ITEM_DEFINED_TRANSFORMATION('','',#727,#713);
#729=(REPRESENTATION_RELATIONSHIP('','',#714,#633)REPRESENTATION_RELATIONSHIP_WITH_TRANSFORMATION(#728)SHAPE_REPRESENTATION_RELATIONSHIP());
#730=NEXT_ASSEMBLY_USAGE_OCCURRENCE('3D \X2\042304370435043B\X0\_2_3','3D \X2\042304370435043B\X0\_2','3D \X2\042304370435043B\X0\_2',#642,#723,$);
#731=PRODUCT_DEFINITION_SHAPE('','',#730);
#732=CONTEXT_DEPENDENT_SHAPE_REPRESENTATION(#729,#731);
#733=CARTESIAN_POINT('',(-7.,25.,0.));
#734=GEOMETRIC_CURVE_SET('',(#733));
#714=SHAPE_REPRESENTATION('3D \X2\042304370435043B\X0\_2',(#713),#708);
#716=GEOMETRICALLY_BOUNDED_WIREFRAME_SHAPE_REPRESENTATION('3D \X2\042304370435043B\X0\_2',(#734),#708);
#742=SHAPE_REPRESENTATION_RELATIONSHIP('','',#714,#716);
#722=PRODUCT('3D \X2\042304370435043B\X0\_2','3D \X2\042304370435043B\X0\_2','',(#696));
#743=PRODUCT_RELATED_PRODUCT_CATEGORY('part','',(#722));
#744=PRODUCT_DEFINITION_FORMATION_WITH_SPECIFIED_SOURCE('','',#722,.NOT_KNOWN.);
#723=PRODUCT_DEFINITION('design','',#744,#697);
#721=PRODUCT_DEFINITION_SHAPE('','',#723);
#745=SHAPE_DEFINITION_REPRESENTATION(#721,#714);
#709=DRAUGHTING_MODEL('',(),#708);
#633=SHAPE_REPRESENTATION('Nodes',(#632,#678,#727),#627);
#641=PRODUCT('0','0','',(#696));
#746=PRODUCT_RELATED_PRODUCT_CATEGORY('part','',(#641));
#747=PRODUCT_DEFINITION_FORMATION_WITH_SPECIFIED_SOURCE('','',#641,.NOT_KNOWN.);
#642=PRODUCT_DEFINITION('design','',#747,#697);
#640=PRODUCT_DEFINITION_SHAPE('','',#642);
#748=SHAPE_DEFINITION_REPRESENTATION(#640,#633);
#628=DRAUGHTING_MODEL('',(),#627);
#16=SHAPE_REPRESENTATION('\X2\041A04400435043F043B0435043D04380435\X0\ \X2\043204420443043B043A0438\X0\ \X2\043E04410438\X0\ Z \X2\043E0442043204350442043D0430044F\X0\ \X2\0447043004410442044C\X0\',(#15,#646),#10);
#17=ADVANCED_BREP_SHAPE_REPRESENTATION('\X2\041A04400435043F043B0435043D04380435\X0\ \X2\043204420443043B043A0438\X0\ \X2\043E04410438\X0\ Z \X2\043E0442043204350442043D0430044F\X0\ \X2\0447043004410442044C\X0\',(#612),#10);
#756=SHAPE_REPRESENTATION_RELATIONSHIP('','',#16,#17);
#24=PRODUCT('\X2\041A04400435043F043B0435043D04380435\X0\ \X2\043204420443043B043A0438\X0\ \X2\043E04410438\X0\ Z \X2\043E0442043204350442043D0430044F\X0\ \X2\0447043004410442044C\X0\','\X2\041A04400435043F043B0435043D04380435\X0\ \X2\043204420443043B043A0438\X0\ \X2\043E04410438\X0\ Z \X2\043E0442043204350442043D0430044F\X0\ \X2\0447043004410442044C\X0\','',(#696));
#757=PRODUCT_RELATED_PRODUCT_CATEGORY('part','',(#24));
#758=PRODUCT_DEFINITION_FORMATION_WITH_SPECIFIED_SOURCE('','',#24,.NOT_KNOWN.);
#25=PRODUCT_DEFINITION('design','',#758,#697);
#23=PRODUCT_DEFINITION_SHAPE('','',#25);
#759=SHAPE_DEFINITION_REPRESENTATION(#23,#16);
#11=DRAUGHTING_MODEL('',(),#10);
#1=MECHANICAL_DESIGN_GEOMETRIC_PRESENTATION_REPRESENTATION('',(#26),#10);
ENDSEC;
END-ISO-10303-21;
