%TF.GenerationSoftware,KiCad,Pcbnew,10.0.3*%
%TF.CreationDate,2026-06-05T12:50:35+03:00*%
%TF.ProjectId,_____ __________ ___________ PICI2040,1f3b3042-3020-4433-9f40-30323b353d38,rev?*%
%TF.SameCoordinates,Original*%
%TF.FileFunction,Copper,L1,Top*%
%TF.FilePolarity,Positive*%
%FSLAX46Y46*%
G04 Gerber Fmt 4.6, Leading zero omitted, Abs format (unit mm)*
G04 Created by KiCad (PCBNEW 10.0.3) date 2026-06-05 12:50:35*
%MOMM*%
%LPD*%
G01*
G04 APERTURE LIST*
G04 Aperture macros list*
%AMRoundRect*
0 Rectangle with rounded corners*
0 $1 Rounding radius*
0 $2 $3 $4 $5 $6 $7 $8 $9 X,Y pos of 4 corners*
0 Add a 4 corners polygon primitive as box body*
4,1,4,$2,$3,$4,$5,$6,$7,$8,$9,$2,$3,0*
0 Add four circle primitives for the rounded corners*
1,1,$1+$1,$2,$3*
1,1,$1+$1,$4,$5*
1,1,$1+$1,$6,$7*
1,1,$1+$1,$8,$9*
0 Add four rect primitives between the rounded corners*
20,1,$1+$1,$2,$3,$4,$5,0*
20,1,$1+$1,$4,$5,$6,$7,0*
20,1,$1+$1,$6,$7,$8,$9,0*
20,1,$1+$1,$8,$9,$2,$3,0*%
G04 Aperture macros list end*
%TA.AperFunction,ComponentPad*%
%ADD10O,1.600000X1.600000*%
%TD*%
%TA.AperFunction,ComponentPad*%
%ADD11R,1.600000X1.600000*%
%TD*%
%TA.AperFunction,ComponentPad*%
%ADD12RoundRect,0.250000X1.050000X1.050000X-1.050000X1.050000X-1.050000X-1.050000X1.050000X-1.050000X0*%
%TD*%
%TA.AperFunction,ComponentPad*%
%ADD13C,2.600000*%
%TD*%
%TA.AperFunction,ComponentPad*%
%ADD14RoundRect,0.250000X0.600000X0.750000X-0.600000X0.750000X-0.600000X-0.750000X0.600000X-0.750000X0*%
%TD*%
%TA.AperFunction,ComponentPad*%
%ADD15O,1.700000X2.000000*%
%TD*%
%TA.AperFunction,ComponentPad*%
%ADD16R,1.700000X1.700000*%
%TD*%
%TA.AperFunction,ComponentPad*%
%ADD17C,1.700000*%
%TD*%
%TA.AperFunction,SMDPad,CuDef*%
%ADD18O,2.500000X1.500000*%
%TD*%
%TA.AperFunction,SMDPad,CuDef*%
%ADD19O,1.500000X2.500000*%
%TD*%
%TA.AperFunction,ComponentPad*%
%ADD20RoundRect,0.250000X-0.600000X-0.725000X0.600000X-0.725000X0.600000X0.725000X-0.600000X0.725000X0*%
%TD*%
%TA.AperFunction,ComponentPad*%
%ADD21O,1.700000X1.950000*%
%TD*%
%TA.AperFunction,SMDPad,CuDef*%
%ADD22RoundRect,0.250000X-0.350000X-0.450000X0.350000X-0.450000X0.350000X0.450000X-0.350000X0.450000X0*%
%TD*%
%TA.AperFunction,SMDPad,CuDef*%
%ADD23RoundRect,0.250000X0.350000X0.450000X-0.350000X0.450000X-0.350000X-0.450000X0.350000X-0.450000X0*%
%TD*%
%TA.AperFunction,ComponentPad*%
%ADD24R,1.905000X2.000000*%
%TD*%
%TA.AperFunction,ComponentPad*%
%ADD25O,1.905000X2.000000*%
%TD*%
%TA.AperFunction,SMDPad,CuDef*%
%ADD26RoundRect,0.250000X-0.337500X-0.475000X0.337500X-0.475000X0.337500X0.475000X-0.337500X0.475000X0*%
%TD*%
%TA.AperFunction,ComponentPad*%
%ADD27RoundRect,0.250000X-0.550000X-0.550000X0.550000X-0.550000X0.550000X0.550000X-0.550000X0.550000X0*%
%TD*%
%TA.AperFunction,ComponentPad*%
%ADD28C,1.600000*%
%TD*%
%TA.AperFunction,Conductor*%
%ADD29C,0.500000*%
%TD*%
%TA.AperFunction,Conductor*%
%ADD30C,0.250000*%
%TD*%
%TA.AperFunction,Conductor*%
%ADD31C,2.000000*%
%TD*%
%TA.AperFunction,Conductor*%
%ADD32C,0.300000*%
%TD*%
%TA.AperFunction,Conductor*%
%ADD33C,0.200000*%
%TD*%
%TA.AperFunction,Conductor*%
%ADD34C,0.700000*%
%TD*%
G04 APERTURE END LIST*
D10*
%TO.P,A1,16,DIR_16*%
%TO.N,/DIR_PB*%
X125500000Y-99700000D03*
%TO.P,A1,15,STEP_15*%
%TO.N,/STEP_PB*%
X122960000Y-99700000D03*
%TO.P,A1,14,~{SLEEP}_14*%
%TO.N,Net-(A1-~{RESET})*%
X120420000Y-99700000D03*
%TO.P,A1,13,~{RESET}_13*%
X117880000Y-99700000D03*
%TO.P,A1,12,MS3_12*%
%TO.N,Net-(A1-MS3)*%
X115340000Y-99700000D03*
%TO.P,A1,11,MS2_11*%
%TO.N,Net-(A1-MS2)*%
X112800000Y-99700000D03*
%TO.P,A1,10,MS1_10*%
%TO.N,Net-(A1-MS1)*%
X110260000Y-99700000D03*
%TO.P,A1,9,~{ENABLE}_9*%
%TO.N,/ENABLE_PB*%
X107720000Y-99700000D03*
%TO.P,A1,8,VMOT_8*%
%TO.N,+24V*%
X107720000Y-87000000D03*
%TO.P,A1,7,GND_7*%
%TO.N,GND*%
X110260000Y-87000000D03*
%TO.P,A1,6,2B_6*%
%TO.N,Net-(A1-2B)*%
X112800000Y-87000000D03*
%TO.P,A1,5,2A_5*%
%TO.N,Net-(A1-2A)*%
X115340000Y-87000000D03*
%TO.P,A1,4,1A_4*%
%TO.N,Net-(A1-1A)*%
X117880000Y-87000000D03*
%TO.P,A1,3,1B_3*%
%TO.N,Net-(A1-1B)*%
X120420000Y-87000000D03*
%TO.P,A1,2,VDD_2*%
%TO.N,+3.3V*%
X122960000Y-87000000D03*
D11*
%TO.P,A1,1,GND_1*%
%TO.N,GND*%
X125500000Y-87000000D03*
%TD*%
D12*
%TO.P,POWER_IN_24V1,1,Pin_1_1*%
%TO.N,GND*%
X109700000Y-81000000D03*
D13*
%TO.P,POWER_IN_24V1,2,Pin_2_2*%
%TO.N,+24V*%
X104700000Y-81000000D03*
%TD*%
D14*
%TO.P,switch1,1,Pin_1_1*%
%TO.N,/switch_PB*%
X140975000Y-116725000D03*
D15*
%TO.P,switch1,2,Pin_2_2*%
%TO.N,GND*%
X138475000Y-116725000D03*
%TD*%
D16*
%TO.P,J10,1,Pin_1_1*%
%TO.N,/j10_1*%
X172110000Y-117500000D03*
D17*
%TO.P,J10,2,Pin_2_2*%
%TO.N,/j10_2*%
X174650000Y-117500000D03*
%TO.P,J10,3,Pin_3_3*%
%TO.N,/j10_3*%
X177190000Y-117500000D03*
%TO.P,J10,4,Pin_4_4*%
%TO.N,/j10_4*%
X179730000Y-117500000D03*
%TO.P,J10,5,Pin_5_5*%
%TO.N,/j10_5*%
X182270000Y-117500000D03*
%TO.P,J10,6,Pin_6_6*%
%TO.N,/j10_6*%
X184810000Y-117500000D03*
%TO.P,J10,7,Pin_7_7*%
%TO.N,/j10_7*%
X187350000Y-117500000D03*
%TO.P,J10,8,Pin_8_8*%
%TO.N,/j10_8*%
X189890000Y-117500000D03*
%TD*%
D14*
%TO.P,term1,1,Pin_1_1*%
%TO.N,/termistor_PB*%
X107137500Y-116725000D03*
D15*
%TO.P,term1,2,Pin_2_2*%
%TO.N,GND*%
X104637500Y-116725000D03*
%TD*%
D14*
%TO.P,heater1,1,Pin_1_1*%
%TO.N,+24V*%
X115618750Y-116725000D03*
D15*
%TO.P,heater1,2,Pin_2_2*%
%TO.N,Net-(Q3-D)*%
X113118750Y-116725000D03*
%TD*%
D18*
%TO.P,U1,1,0_1*%
%TO.N,/BL_Z-min*%
X172880000Y-79210000D03*
%TO.P,U1,2,1_2*%
%TO.N,/BL_contr_signal*%
X172880000Y-81750000D03*
%TO.P,U1,3,2_3*%
%TO.N,/fan_control*%
X172880000Y-84290000D03*
%TO.P,U1,4,3_4*%
%TO.N,/heater*%
X172880000Y-86830000D03*
%TO.P,U1,5,4_5*%
%TO.N,/cooler*%
X172880000Y-89370000D03*
%TO.P,U1,6,5_6*%
%TO.N,/rez_6*%
X172880000Y-91910000D03*
%TO.P,U1,7,6_7*%
%TO.N,/rez_17*%
X172880000Y-94450000D03*
%TO.P,U1,8,7_8*%
%TO.N,/switch*%
X172880000Y-96990000D03*
%TO.P,U1,9,8_9*%
%TO.N,/j10_1*%
X172880000Y-99530000D03*
D19*
%TO.P,U1,10,9_10*%
%TO.N,/j10_2*%
X175920000Y-100030000D03*
%TO.P,U1,11,10_11*%
%TO.N,/j10_3*%
X178460000Y-100030000D03*
%TO.P,U1,12,11_12*%
%TO.N,/j10_4*%
X181000000Y-100030000D03*
%TO.P,U1,13,12_13*%
%TO.N,/j10_5*%
X183540000Y-100030000D03*
%TO.P,U1,14,13_14*%
%TO.N,/j10_6*%
X186080000Y-100030000D03*
D18*
%TO.P,U1,15,14_15*%
%TO.N,/j10_7*%
X189120000Y-99530000D03*
%TO.P,U1,16,15_16*%
%TO.N,/j10_8*%
X189120000Y-96990000D03*
%TO.P,U1,17,26_17*%
%TO.N,/termistor*%
X189120000Y-94450000D03*
%TO.P,U1,18,27_18*%
%TO.N,/DIR*%
X189120000Y-91910000D03*
%TO.P,U1,19,28_19*%
%TO.N,/STEP*%
X189120000Y-89370000D03*
%TO.P,U1,20,29_20*%
%TO.N,/ENABLE*%
X189120000Y-86830000D03*
%TO.P,U1,21,3V3_21*%
%TO.N,+3.3V*%
X189120000Y-84290000D03*
%TO.P,U1,22,GND_22*%
%TO.N,GND*%
X189120000Y-81750000D03*
%TO.P,U1,23,5V_23*%
%TO.N,+5V*%
X189120000Y-79210000D03*
%TD*%
D20*
%TO.P,bl_touch1,1,Pin_1_1*%
%TO.N,GND*%
X130500000Y-80000000D03*
D21*
%TO.P,bl_touch1,2,Pin_2_2*%
%TO.N,+5V*%
X133000000Y-80000000D03*
%TO.P,bl_touch1,3,Pin_3_3*%
%TO.N,/BL_contr_signal_PB*%
X135500000Y-80000000D03*
%TO.P,bl_touch1,4,Pin_4_4*%
%TO.N,GND*%
X138000000Y-80000000D03*
%TO.P,bl_touch1,5,Pin_5_5*%
%TO.N,/BL_Z-min_PB*%
X140500000Y-80000000D03*
%TD*%
D22*
%TO.P,R7,1*%
%TO.N,+3.3V*%
X102800000Y-110800000D03*
%TO.P,R7,2*%
%TO.N,/termistor_PB*%
X104800000Y-110800000D03*
%TD*%
D23*
%TO.P,R6,1*%
%TO.N,/heater_PB*%
X155800000Y-67850000D03*
%TO.P,R6,2*%
%TO.N,GND*%
X153800000Y-67850000D03*
%TD*%
D16*
%TO.P,J9,1,Pin_1_1*%
%TO.N,Net-(A1-MS1)*%
X118710000Y-90700000D03*
D17*
%TO.P,J9,2,Pin_2_2*%
%TO.N,+3.3V*%
X121250000Y-90700000D03*
%TO.P,J9,3,Pin_3_3*%
%TO.N,Net-(A1-MS2)*%
X118710000Y-93240000D03*
%TO.P,J9,4,Pin_4_4*%
%TO.N,+3.3V*%
X121250000Y-93240000D03*
%TO.P,J9,5,Pin_5_5*%
%TO.N,Net-(A1-MS3)*%
X118710000Y-95780000D03*
%TO.P,J9,6,Pin_6_6*%
%TO.N,+3.3V*%
X121250000Y-95780000D03*
%TD*%
D24*
%TO.P,Q3,1,G_1*%
%TO.N,/heater_PB*%
X113680000Y-107600000D03*
D25*
%TO.P,Q3,2,D_2*%
%TO.N,Net-(Q3-D)*%
X111140000Y-107600000D03*
%TO.P,Q3,3,S_3*%
%TO.N,GND*%
X108600000Y-107600000D03*
%TD*%
D23*
%TO.P,R5,1*%
%TO.N,/fan_control_PB*%
X130575000Y-128400000D03*
%TO.P,R5,2*%
%TO.N,GND*%
X128575000Y-128400000D03*
%TD*%
D26*
%TO.P,C11,2*%
%TO.N,GND*%
X109075000Y-104700000D03*
%TO.P,C11,1*%
%TO.N,/termistor_PB*%
X107000000Y-104700000D03*
%TD*%
D27*
%TO.P,C3,1*%
%TO.N,+24V*%
X108742621Y-93250000D03*
D28*
%TO.P,C3,2*%
%TO.N,GND*%
X111242621Y-93250000D03*
%TD*%
D25*
%TO.P,Q2,3,S_3*%
%TO.N,GND*%
X120000000Y-107600000D03*
%TO.P,Q2,2,D_2*%
%TO.N,Net-(Q2-D)*%
X122540000Y-107600000D03*
D24*
%TO.P,Q2,1,G_1*%
%TO.N,/cooler_PB*%
X125080000Y-107600000D03*
%TD*%
D14*
%TO.P,cooler_mod1,1,Pin_1_1*%
%TO.N,+24V*%
X124100000Y-116725000D03*
D15*
%TO.P,cooler_mod1,2,Pin_2_2*%
%TO.N,Net-(Q2-D)*%
X121600000Y-116725000D03*
%TD*%
D14*
%TO.P,fan1,1,Pin_1_1*%
%TO.N,+24V*%
X132550000Y-116725000D03*
D15*
%TO.P,fan1,2,Pin_2_2*%
%TO.N,Net-(Q1-D)*%
X130050000Y-116725000D03*
%TD*%
D23*
%TO.P,R4,1*%
%TO.N,/cooler_PB*%
X143750000Y-125546000D03*
%TO.P,R4,2*%
%TO.N,GND*%
X141750000Y-125546000D03*
%TD*%
D24*
%TO.P,Q1,1,G_1*%
%TO.N,/fan_control_PB*%
X136480000Y-107600000D03*
D25*
%TO.P,Q1,2,D_2*%
%TO.N,Net-(Q1-D)*%
X133940000Y-107600000D03*
%TO.P,Q1,3,S_3*%
%TO.N,GND*%
X131400000Y-107600000D03*
%TD*%
D20*
%TO.P,extruder1,1,Pin_1_1*%
%TO.N,Net-(A1-2B)*%
X116500000Y-80000000D03*
D21*
%TO.P,extruder1,2,Pin_2_2*%
%TO.N,Net-(A1-2A)*%
X119000000Y-80000000D03*
%TO.P,extruder1,3,Pin_3_3*%
%TO.N,Net-(A1-1A)*%
X121500000Y-80000000D03*
%TO.P,extruder1,4,Pin_4_4*%
%TO.N,Net-(A1-1B)*%
X124000000Y-80000000D03*
%TD*%
D16*
%TO.P,J5,1,Pin_1_1*%
%TO.N,+5V*%
X200000000Y-89656000D03*
D17*
%TO.P,J5,2,Pin_2_2*%
%TO.N,+3.3V*%
X200000000Y-92196000D03*
%TO.P,J5,3,Pin_3_3*%
%TO.N,GND*%
X200000000Y-94736000D03*
%TO.P,J5,4,Pin_4_4*%
X200000000Y-97276000D03*
%TO.P,J5,5,Pin_5_5*%
%TO.N,/ENABLE*%
X200000000Y-99816000D03*
%TO.P,J5,6,Pin_6_6*%
%TO.N,/STEP*%
X200000000Y-102356000D03*
%TO.P,J5,7,Pin_7_7*%
%TO.N,/DIR*%
X200000000Y-104896000D03*
%TO.P,J5,8,Pin_8_8*%
%TO.N,/termistor*%
X200000000Y-107436000D03*
%TD*%
D16*
%TO.P,J6,1,Pin_1_1*%
%TO.N,/BL_Z-min*%
X162000000Y-89656000D03*
D17*
%TO.P,J6,2,Pin_2_2*%
%TO.N,/BL_contr_signal*%
X162000000Y-92196000D03*
%TO.P,J6,3,Pin_3_3*%
%TO.N,/fan_control*%
X162000000Y-94736000D03*
%TO.P,J6,4,Pin_4_4*%
%TO.N,/heater*%
X162000000Y-97276000D03*
%TO.P,J6,5,Pin_5_5*%
%TO.N,/cooler*%
X162000000Y-99816000D03*
%TO.P,J6,6,Pin_6_6*%
%TO.N,/rez_6*%
X162000000Y-102356000D03*
%TO.P,J6,7,Pin_7_7*%
%TO.N,/rez_17*%
X162000000Y-104896000D03*
%TO.P,J6,8,Pin_8_8*%
%TO.N,/switch*%
X162000000Y-107436000D03*
%TD*%
D16*
%TO.P,J8,1,Pin_1_1*%
%TO.N,/BL_Z-min_PB*%
X141800000Y-89656000D03*
D17*
%TO.P,J8,2,Pin_2_2*%
%TO.N,/BL_contr_signal_PB*%
X141800000Y-92196000D03*
%TO.P,J8,3,Pin_3_3*%
%TO.N,/fan_control_PB*%
X141800000Y-94736000D03*
%TO.P,J8,4,Pin_4_4*%
%TO.N,/heater_PB*%
X141800000Y-97276000D03*
%TO.P,J8,5,Pin_5_5*%
%TO.N,/cooler_PB*%
X141800000Y-99816000D03*
%TO.P,J8,6,Pin_6_6*%
%TO.N,/rez_6_PB*%
X141800000Y-102356000D03*
%TO.P,J8,7,Pin_7_7*%
%TO.N,unconnected-(J8-Pin_7-Pad7)*%
X141800000Y-104896000D03*
%TO.P,J8,8,Pin_8_8*%
%TO.N,/switch_PB*%
X141800000Y-107436000D03*
%TD*%
D16*
%TO.P,J7,1,Pin_1_1*%
%TO.N,+5V*%
X103800000Y-89656000D03*
D17*
%TO.P,J7,2,Pin_2_2*%
%TO.N,+3.3V*%
X103800000Y-92196000D03*
%TO.P,J7,3,Pin_3_3*%
%TO.N,GND*%
X103800000Y-94736000D03*
%TO.P,J7,4,Pin_4_4*%
X103800000Y-97276000D03*
%TO.P,J7,5,Pin_5_5*%
%TO.N,/ENABLE_PB*%
X103800000Y-99816000D03*
%TO.P,J7,6,Pin_6_6*%
%TO.N,/STEP_PB*%
X103800000Y-102356000D03*
%TO.P,J7,7,Pin_7_7*%
%TO.N,/DIR_PB*%
X103800000Y-104896000D03*
%TO.P,J7,8,Pin_8_8*%
%TO.N,/termistor_PB*%
X103800000Y-107436000D03*
%TD*%
%TO.N,/termistor_PB*%
D29*
X106536000Y-104700000D02*
X103800000Y-107436000D01*
X107000000Y-104700000D02*
X106536000Y-104700000D01*
X107137500Y-113137500D02*
X107137500Y-116725000D01*
X104800000Y-108436000D02*
X104800000Y-110800000D01*
X104800000Y-110800000D02*
X107137500Y-113137500D01*
X103800000Y-107436000D02*
X104800000Y-108436000D01*
%TO.N,+3.3V*%
D30*
X102625000Y-110625000D02*
X102800000Y-110800000D01*
X102625000Y-93371000D02*
X102625000Y-110625000D01*
X103800000Y-92196000D02*
X102625000Y-93371000D01*
%TO.N,Net-(Q1-D)*%
D31*
X130050000Y-114195000D02*
X130050000Y-116725000D01*
X133940000Y-107600000D02*
X133940000Y-110305000D01*
X133940000Y-110305000D02*
X130050000Y-114195000D01*
%TO.N,Net-(Q2-D)*%
X121600000Y-113500000D02*
X121600000Y-116725000D01*
X122540000Y-112560000D02*
X121600000Y-113500000D01*
X122540000Y-107600000D02*
X122540000Y-112560000D01*
%TO.N,Net-(Q3-D)*%
X111140000Y-114746250D02*
X113118750Y-116725000D01*
X111140000Y-107600000D02*
X111140000Y-114746250D01*
%TO.N,/DIR_PB*%
D29*
X125500000Y-99800000D02*
X125500000Y-99700000D01*
X122300000Y-103000000D02*
X125500000Y-99800000D01*
X105696000Y-103000000D02*
X122300000Y-103000000D01*
X103800000Y-104896000D02*
X105696000Y-103000000D01*
%TO.N,/STEP_PB*%
X122960000Y-99727500D02*
X122960000Y-99700000D01*
X104156000Y-102000000D02*
X120687500Y-102000000D01*
X120687500Y-102000000D02*
X122960000Y-99727500D01*
X103800000Y-102356000D02*
X104156000Y-102000000D01*
%TO.N,/ENABLE_PB*%
X103916000Y-99700000D02*
X107720000Y-99700000D01*
X103800000Y-99816000D02*
X103916000Y-99700000D01*
%TO.N,/BL_contr_signal_PB*%
D32*
X141096000Y-92196000D02*
X135500000Y-86600000D01*
D30*
X141800000Y-92196000D02*
X141096000Y-92196000D01*
D32*
X135500000Y-86600000D02*
X135500000Y-80850000D01*
%TO.N,/switch_PB*%
D29*
X140975000Y-108261000D02*
X140975000Y-116725000D01*
X141800000Y-107436000D02*
X140975000Y-108261000D01*
%TO.N,GND*%
D30*
X199974000Y-97250000D02*
X200000000Y-97276000D01*
%TO.N,/DIR*%
D29*
X189250000Y-91910000D02*
X190810000Y-91910000D01*
X195900000Y-97000000D02*
X195900000Y-100950000D01*
X190810000Y-91910000D02*
X195900000Y-97000000D01*
X199846000Y-104896000D02*
X200000000Y-104896000D01*
X195900000Y-100950000D02*
X199846000Y-104896000D01*
%TO.N,/STEP*%
X196900000Y-95400000D02*
X196900000Y-99256000D01*
X196900000Y-99256000D02*
X200000000Y-102356000D01*
X190870000Y-89370000D02*
X196900000Y-95400000D01*
X189250000Y-89370000D02*
X190870000Y-89370000D01*
%TO.N,/ENABLE*%
X190830000Y-86830000D02*
X197850000Y-93850000D01*
X197850000Y-93850000D02*
X197850000Y-97666000D01*
X197850000Y-97666000D02*
X200000000Y-99816000D01*
D30*
X199459000Y-99275000D02*
X200000000Y-99816000D01*
D29*
X189250000Y-86830000D02*
X190830000Y-86830000D01*
%TO.N,+3.3V*%
X190790000Y-84290000D02*
X198696000Y-92196000D01*
X189250000Y-84290000D02*
X190790000Y-84290000D01*
X104304000Y-92196000D02*
X107500000Y-89000000D01*
X120575000Y-89000000D02*
X121250000Y-89675000D01*
X107500000Y-89000000D02*
X108500000Y-89000000D01*
X198696000Y-92196000D02*
X200000000Y-92196000D01*
X121250000Y-89675000D02*
X121250000Y-90700000D01*
X108500000Y-89000000D02*
X120575000Y-89000000D01*
X103800000Y-92196000D02*
X104304000Y-92196000D01*
X121250000Y-95780000D02*
X121250000Y-93240000D01*
X121250000Y-90700000D02*
X121250000Y-93240000D01*
%TO.N,+5V*%
X114454000Y-78296000D02*
X113250000Y-79500000D01*
X133000000Y-80000000D02*
X133000000Y-79750000D01*
X190960000Y-79210000D02*
X192500000Y-80750000D01*
X188620000Y-79210000D02*
X190960000Y-79210000D01*
X103750000Y-88892828D02*
X103393414Y-89249414D01*
X192500000Y-80750000D02*
X192500000Y-83500000D01*
X103750000Y-86000000D02*
X103750000Y-88892828D01*
D30*
X103800000Y-89656000D02*
X104456000Y-89000000D01*
D29*
X131546000Y-78296000D02*
X114454000Y-78296000D01*
X198656000Y-89656000D02*
X200000000Y-89656000D01*
X110750000Y-85000000D02*
X104750000Y-85000000D01*
X104750000Y-85000000D02*
X103750000Y-86000000D01*
X113250000Y-79500000D02*
X113250000Y-82500000D01*
X113250000Y-82500000D02*
X110750000Y-85000000D01*
X192500000Y-83500000D02*
X198656000Y-89656000D01*
X133000000Y-79750000D02*
X131546000Y-78296000D01*
%TO.N,/BL_Z-min_PB*%
D32*
X141800000Y-89656000D02*
X141800000Y-81300000D01*
X141800000Y-81300000D02*
X140500000Y-80000000D01*
%TO.N,Net-(A1-MS1)*%
D30*
X118710000Y-90865000D02*
X118710000Y-90700000D01*
%TO.N,Net-(A1-MS2)*%
X118710000Y-93405000D02*
X118710000Y-93240000D01*
%TO.N,Net-(A1-MS3)*%
D32*
X118710000Y-95945000D02*
X118710000Y-95780000D01*
%TO.N,/BL_Z-min*%
D29*
X172790000Y-79210000D02*
X162344000Y-89656000D01*
X162344000Y-89656000D02*
X162000000Y-89656000D01*
X173380000Y-79210000D02*
X172790000Y-79210000D01*
%TO.N,/BL_contr_signal*%
X173380000Y-81750000D02*
X172000000Y-81750000D01*
X173380000Y-81750000D02*
X172446000Y-81750000D01*
X172446000Y-81750000D02*
X162000000Y-92196000D01*
X162054000Y-92196000D02*
X162000000Y-92196000D01*
%TO.N,/fan_control*%
X173380000Y-84290000D02*
X172446000Y-84290000D01*
X172446000Y-84290000D02*
X162000000Y-94736000D01*
%TO.N,/heater*%
X173380000Y-86830000D02*
X172446000Y-86830000D01*
X172446000Y-86830000D02*
X162000000Y-97276000D01*
%TO.N,/cooler*%
X172446000Y-89370000D02*
X162000000Y-99816000D01*
X173380000Y-89370000D02*
X172446000Y-89370000D01*
%TO.N,/rez_17*%
X172446000Y-94450000D02*
X162000000Y-104896000D01*
X173380000Y-94450000D02*
X172446000Y-94450000D01*
%TO.N,/switch*%
X173380000Y-96990000D02*
X172446000Y-96990000D01*
X172446000Y-96990000D02*
X162000000Y-107436000D01*
%TO.N,/rez_6*%
X173380000Y-91910000D02*
X172446000Y-91910000D01*
X172446000Y-91910000D02*
X162000000Y-102356000D01*
%TO.N,/termistor*%
X188620000Y-94450000D02*
X190950000Y-94450000D01*
X194750000Y-102186000D02*
X200000000Y-107436000D01*
X190950000Y-94450000D02*
X194750000Y-98250000D01*
X194750000Y-98250000D02*
X194750000Y-102186000D01*
%TO.N,/j10_8*%
X190740000Y-96990000D02*
X193000000Y-99250000D01*
X188620000Y-96990000D02*
X190740000Y-96990000D01*
X189890000Y-104610000D02*
X189890000Y-117500000D01*
X193000000Y-101500000D02*
X189890000Y-104610000D01*
X193000000Y-99250000D02*
X193000000Y-101500000D01*
%TO.N,/j10_3*%
X178460000Y-99530000D02*
X178460000Y-113540000D01*
X177190000Y-114810000D02*
X177190000Y-117500000D01*
X178460000Y-113540000D02*
X177190000Y-114810000D01*
D30*
X177190000Y-117500000D02*
X177190000Y-116810000D01*
%TO.N,/j10_2*%
D29*
X174650000Y-114850000D02*
X174650000Y-117500000D01*
X175920000Y-99530000D02*
X175920000Y-113580000D01*
X175920000Y-113580000D02*
X174650000Y-114850000D01*
%TO.N,/j10_7*%
X188620000Y-113380000D02*
X187350000Y-114650000D01*
X187350000Y-114650000D02*
X187350000Y-117500000D01*
X188620000Y-99530000D02*
X188620000Y-113380000D01*
%TO.N,/j10_1*%
X173380000Y-99530000D02*
X173380000Y-113620000D01*
X173380000Y-113620000D02*
X172110000Y-114890000D01*
X172110000Y-114890000D02*
X172110000Y-117500000D01*
%TO.N,/j10_6*%
X186080000Y-113420000D02*
X184810000Y-114690000D01*
X184810000Y-114690000D02*
X184810000Y-117500000D01*
X186080000Y-99530000D02*
X186080000Y-113420000D01*
%TO.N,/j10_4*%
X179750000Y-117480000D02*
X179730000Y-117500000D01*
X181000000Y-113500000D02*
X179750000Y-114750000D01*
X179750000Y-114750000D02*
X179750000Y-117480000D01*
X181000000Y-99530000D02*
X181000000Y-113500000D01*
%TO.N,/j10_5*%
D30*
X182270000Y-117500000D02*
X182075000Y-117305000D01*
D29*
X183540000Y-113460000D02*
X182270000Y-114730000D01*
X182270000Y-114730000D02*
X182270000Y-117500000D01*
X183540000Y-99530000D02*
X183540000Y-113460000D01*
%TO.N,/switch_PB*%
D33*
X141800000Y-115900000D02*
X140975000Y-116725000D01*
%TO.N,Net-(A1-MS3)*%
D29*
X115340000Y-99700000D02*
X115340000Y-99315000D01*
%TO.N,Net-(A1-MS2)*%
X112800000Y-99315000D02*
X118710000Y-93405000D01*
X112800000Y-99700000D02*
X112800000Y-99315000D01*
%TO.N,Net-(A1-2A)*%
D34*
X119000000Y-82955000D02*
X119000000Y-80450000D01*
%TO.N,Net-(A1-2B)*%
X112800000Y-87000000D02*
X112800000Y-86615000D01*
%TO.N,+3.3V*%
D29*
X122575000Y-87000000D02*
X122960000Y-87000000D01*
%TO.N,Net-(A1-1A)*%
D34*
X117880000Y-87000000D02*
X117880000Y-86615000D01*
%TO.N,Net-(A1-1B)*%
X120420000Y-86615000D02*
X124000000Y-83035000D01*
%TO.N,Net-(A1-1A)*%
X121500000Y-82995000D02*
X121500000Y-80450000D01*
%TO.N,Net-(A1-MS3)*%
D29*
X115340000Y-99315000D02*
X118710000Y-95945000D01*
%TO.N,Net-(A1-2A)*%
D34*
X115340000Y-87000000D02*
X115340000Y-86615000D01*
%TO.N,+3.3V*%
D29*
X120575000Y-89000000D02*
X122575000Y-87000000D01*
%TO.N,Net-(A1-1A)*%
D34*
X117880000Y-86615000D02*
X121500000Y-82995000D01*
%TO.N,Net-(A1-1B)*%
X120420000Y-87000000D02*
X120420000Y-86615000D01*
X124000000Y-83035000D02*
X124000000Y-80450000D01*
%TO.N,Net-(A1-2A)*%
X115340000Y-86615000D02*
X119000000Y-82955000D01*
%TO.N,Net-(A1-2B)*%
X112800000Y-86615000D02*
X116500000Y-82915000D01*
X116500000Y-82915000D02*
X116500000Y-80450000D01*
%TO.N,Net-(A1-MS1)*%
D29*
X110260000Y-99700000D02*
X110260000Y-99315000D01*
X110260000Y-99315000D02*
X118710000Y-90865000D01*
%TD*%
M02*
