%TF.GenerationSoftware,KiCad,Pcbnew,10.0.3*%
%TF.CreationDate,2026-06-05T12:50:35+03:00*%
%TF.ProjectId,_____ __________ ___________ PICI2040,1f3b3042-3020-4433-9f40-30323b353d38,rev?*%
%TF.SameCoordinates,Original*%
%TF.FileFunction,Copper,L2,Bot*%
%TF.FilePolarity,Positive*%
%FSLAX46Y46*%
G04 Gerber Fmt 4.6, Leading zero omitted, Abs format (unit mm)*
G04 Created by KiCad (PCBNEW 10.0.3) date 2026-06-05 12:50:35*
%MOMM*%
%LPD*%
G01*
G04 APERTURE LIST*
G04 Aperture macros list*
%AMRoundRect*
0 Rectangle with rounded corners*
0 $1 Rounding radius*
0 $2 $3 $4 $5 $6 $7 $8 $9 X,Y pos of 4 corners*
0 Add a 4 corners polygon primitive as box body*
4,1,4,$2,$3,$4,$5,$6,$7,$8,$9,$2,$3,0*
0 Add four circle primitives for the rounded corners*
1,1,$1+$1,$2,$3*
1,1,$1+$1,$4,$5*
1,1,$1+$1,$6,$7*
1,1,$1+$1,$8,$9*
0 Add four rect primitives between the rounded corners*
20,1,$1+$1,$2,$3,$4,$5,0*
20,1,$1+$1,$4,$5,$6,$7,0*
20,1,$1+$1,$6,$7,$8,$9,0*
20,1,$1+$1,$8,$9,$2,$3,0*%
G04 Aperture macros list end*
%TA.AperFunction,ComponentPad*%
%ADD10O,1.600000X1.600000*%
%TD*%
%TA.AperFunction,ComponentPad*%
%ADD11R,1.600000X1.600000*%
%TD*%
%TA.AperFunction,ComponentPad*%
%ADD12RoundRect,0.250000X1.050000X1.050000X-1.050000X1.050000X-1.050000X-1.050000X1.050000X-1.050000X0*%
%TD*%
%TA.AperFunction,ComponentPad*%
%ADD13C,2.600000*%
%TD*%
%TA.AperFunction,ComponentPad*%
%ADD14RoundRect,0.250000X0.600000X0.750000X-0.600000X0.750000X-0.600000X-0.750000X0.600000X-0.750000X0*%
%TD*%
%TA.AperFunction,ComponentPad*%
%ADD15O,1.700000X2.000000*%
%TD*%
%TA.AperFunction,ComponentPad*%
%ADD16R,1.700000X1.700000*%
%TD*%
%TA.AperFunction,ComponentPad*%
%ADD17C,1.700000*%
%TD*%
%TA.AperFunction,ComponentPad*%
%ADD18RoundRect,0.250000X-0.600000X-0.725000X0.600000X-0.725000X0.600000X0.725000X-0.600000X0.725000X0*%
%TD*%
%TA.AperFunction,ComponentPad*%
%ADD19O,1.700000X1.950000*%
%TD*%
%TA.AperFunction,ComponentPad*%
%ADD20R,1.905000X2.000000*%
%TD*%
%TA.AperFunction,ComponentPad*%
%ADD21O,1.905000X2.000000*%
%TD*%
%TA.AperFunction,ComponentPad*%
%ADD22RoundRect,0.250000X-0.550000X-0.550000X0.550000X-0.550000X0.550000X0.550000X-0.550000X0.550000X0*%
%TD*%
%TA.AperFunction,ComponentPad*%
%ADD23C,1.600000*%
%TD*%
G04 APERTURE END LIST*
D10*
%TO.P,A1,16,DIR_16*%
%TO.N,/DIR_PB*%
X125500000Y-99700000D03*
%TO.P,A1,15,STEP_15*%
%TO.N,/STEP_PB*%
X122960000Y-99700000D03*
%TO.P,A1,14,~{SLEEP}_14*%
%TO.N,Net-(A1-~{RESET})*%
X120420000Y-99700000D03*
%TO.P,A1,13,~{RESET}_13*%
X117880000Y-99700000D03*
%TO.P,A1,12,MS3_12*%
%TO.N,Net-(A1-MS3)*%
X115340000Y-99700000D03*
%TO.P,A1,11,MS2_11*%
%TO.N,Net-(A1-MS2)*%
X112800000Y-99700000D03*
%TO.P,A1,10,MS1_10*%
%TO.N,Net-(A1-MS1)*%
X110260000Y-99700000D03*
%TO.P,A1,9,~{ENABLE}_9*%
%TO.N,/ENABLE_PB*%
X107720000Y-99700000D03*
%TO.P,A1,8,VMOT_8*%
%TO.N,+24V*%
X107720000Y-87000000D03*
%TO.P,A1,7,GND_7*%
%TO.N,GND*%
X110260000Y-87000000D03*
%TO.P,A1,6,2B_6*%
%TO.N,Net-(A1-2B)*%
X112800000Y-87000000D03*
%TO.P,A1,5,2A_5*%
%TO.N,Net-(A1-2A)*%
X115340000Y-87000000D03*
%TO.P,A1,4,1A_4*%
%TO.N,Net-(A1-1A)*%
X117880000Y-87000000D03*
%TO.P,A1,3,1B_3*%
%TO.N,Net-(A1-1B)*%
X120420000Y-87000000D03*
%TO.P,A1,2,VDD_2*%
%TO.N,+3.3V*%
X122960000Y-87000000D03*
D11*
%TO.P,A1,1,GND_1*%
%TO.N,GND*%
X125500000Y-87000000D03*
%TD*%
D12*
%TO.P,POWER_IN_24V1,1,Pin_1_1*%
%TO.N,GND*%
X109700000Y-81000000D03*
D13*
%TO.P,POWER_IN_24V1,2,Pin_2_2*%
%TO.N,+24V*%
X104700000Y-81000000D03*
%TD*%
D14*
%TO.P,switch1,1,Pin_1_1*%
%TO.N,/switch_PB*%
X140975000Y-116725000D03*
D15*
%TO.P,switch1,2,Pin_2_2*%
%TO.N,GND*%
X138475000Y-116725000D03*
%TD*%
D16*
%TO.P,J10,1,Pin_1_1*%
%TO.N,/j10_1*%
X172110000Y-117500000D03*
D17*
%TO.P,J10,2,Pin_2_2*%
%TO.N,/j10_2*%
X174650000Y-117500000D03*
%TO.P,J10,3,Pin_3_3*%
%TO.N,/j10_3*%
X177190000Y-117500000D03*
%TO.P,J10,4,Pin_4_4*%
%TO.N,/j10_4*%
X179730000Y-117500000D03*
%TO.P,J10,5,Pin_5_5*%
%TO.N,/j10_5*%
X182270000Y-117500000D03*
%TO.P,J10,6,Pin_6_6*%
%TO.N,/j10_6*%
X184810000Y-117500000D03*
%TO.P,J10,7,Pin_7_7*%
%TO.N,/j10_7*%
X187350000Y-117500000D03*
%TO.P,J10,8,Pin_8_8*%
%TO.N,/j10_8*%
X189890000Y-117500000D03*
%TD*%
D14*
%TO.P,term1,1,Pin_1_1*%
%TO.N,/termistor_PB*%
X107137500Y-116725000D03*
D15*
%TO.P,term1,2,Pin_2_2*%
%TO.N,GND*%
X104637500Y-116725000D03*
%TD*%
D14*
%TO.P,heater1,1,Pin_1_1*%
%TO.N,+24V*%
X115618750Y-116725000D03*
D15*
%TO.P,heater1,2,Pin_2_2*%
%TO.N,Net-(Q3-D)*%
X113118750Y-116725000D03*
%TD*%
D18*
%TO.P,bl_touch1,1,Pin_1_1*%
%TO.N,GND*%
X130500000Y-80000000D03*
D19*
%TO.P,bl_touch1,2,Pin_2_2*%
%TO.N,+5V*%
X133000000Y-80000000D03*
%TO.P,bl_touch1,3,Pin_3_3*%
%TO.N,/BL_contr_signal_PB*%
X135500000Y-80000000D03*
%TO.P,bl_touch1,4,Pin_4_4*%
%TO.N,GND*%
X138000000Y-80000000D03*
%TO.P,bl_touch1,5,Pin_5_5*%
%TO.N,/BL_Z-min_PB*%
X140500000Y-80000000D03*
%TD*%
D16*
%TO.P,J9,1,Pin_1_1*%
%TO.N,Net-(A1-MS1)*%
X118710000Y-90700000D03*
D17*
%TO.P,J9,2,Pin_2_2*%
%TO.N,+3.3V*%
X121250000Y-90700000D03*
%TO.P,J9,3,Pin_3_3*%
%TO.N,Net-(A1-MS2)*%
X118710000Y-93240000D03*
%TO.P,J9,4,Pin_4_4*%
%TO.N,+3.3V*%
X121250000Y-93240000D03*
%TO.P,J9,5,Pin_5_5*%
%TO.N,Net-(A1-MS3)*%
X118710000Y-95780000D03*
%TO.P,J9,6,Pin_6_6*%
%TO.N,+3.3V*%
X121250000Y-95780000D03*
%TD*%
D20*
%TO.P,Q3,1,G_1*%
%TO.N,/heater_PB*%
X113680000Y-107600000D03*
D21*
%TO.P,Q3,2,D_2*%
%TO.N,Net-(Q3-D)*%
X111140000Y-107600000D03*
%TO.P,Q3,3,S_3*%
%TO.N,GND*%
X108600000Y-107600000D03*
%TD*%
D22*
%TO.P,C3,1*%
%TO.N,+24V*%
X108742621Y-93250000D03*
D23*
%TO.P,C3,2*%
%TO.N,GND*%
X111242621Y-93250000D03*
%TD*%
D21*
%TO.P,Q2,3,S_3*%
%TO.N,GND*%
X120000000Y-107600000D03*
%TO.P,Q2,2,D_2*%
%TO.N,Net-(Q2-D)*%
X122540000Y-107600000D03*
D20*
%TO.P,Q2,1,G_1*%
%TO.N,/cooler_PB*%
X125080000Y-107600000D03*
%TD*%
D14*
%TO.P,cooler_mod1,1,Pin_1_1*%
%TO.N,+24V*%
X124100000Y-116725000D03*
D15*
%TO.P,cooler_mod1,2,Pin_2_2*%
%TO.N,Net-(Q2-D)*%
X121600000Y-116725000D03*
%TD*%
D14*
%TO.P,fan1,1,Pin_1_1*%
%TO.N,+24V*%
X132550000Y-116725000D03*
D15*
%TO.P,fan1,2,Pin_2_2*%
%TO.N,Net-(Q1-D)*%
X130050000Y-116725000D03*
%TD*%
D20*
%TO.P,Q1,1,G_1*%
%TO.N,/fan_control_PB*%
X136480000Y-107600000D03*
D21*
%TO.P,Q1,2,D_2*%
%TO.N,Net-(Q1-D)*%
X133940000Y-107600000D03*
%TO.P,Q1,3,S_3*%
%TO.N,GND*%
X131400000Y-107600000D03*
%TD*%
D18*
%TO.P,extruder1,1,Pin_1_1*%
%TO.N,Net-(A1-2B)*%
X116500000Y-80000000D03*
D19*
%TO.P,extruder1,2,Pin_2_2*%
%TO.N,Net-(A1-2A)*%
X119000000Y-80000000D03*
%TO.P,extruder1,3,Pin_3_3*%
%TO.N,Net-(A1-1A)*%
X121500000Y-80000000D03*
%TO.P,extruder1,4,Pin_4_4*%
%TO.N,Net-(A1-1B)*%
X124000000Y-80000000D03*
%TD*%
D16*
%TO.P,J5,1,Pin_1_1*%
%TO.N,+5V*%
X200000000Y-89656000D03*
D17*
%TO.P,J5,2,Pin_2_2*%
%TO.N,+3.3V*%
X200000000Y-92196000D03*
%TO.P,J5,3,Pin_3_3*%
%TO.N,GND*%
X200000000Y-94736000D03*
%TO.P,J5,4,Pin_4_4*%
X200000000Y-97276000D03*
%TO.P,J5,5,Pin_5_5*%
%TO.N,/ENABLE*%
X200000000Y-99816000D03*
%TO.P,J5,6,Pin_6_6*%
%TO.N,/STEP*%
X200000000Y-102356000D03*
%TO.P,J5,7,Pin_7_7*%
%TO.N,/DIR*%
X200000000Y-104896000D03*
%TO.P,J5,8,Pin_8_8*%
%TO.N,/termistor*%
X200000000Y-107436000D03*
%TD*%
D16*
%TO.P,J6,1,Pin_1_1*%
%TO.N,/BL_Z-min*%
X162000000Y-89656000D03*
D17*
%TO.P,J6,2,Pin_2_2*%
%TO.N,/BL_contr_signal*%
X162000000Y-92196000D03*
%TO.P,J6,3,Pin_3_3*%
%TO.N,/fan_control*%
X162000000Y-94736000D03*
%TO.P,J6,4,Pin_4_4*%
%TO.N,/heater*%
X162000000Y-97276000D03*
%TO.P,J6,5,Pin_5_5*%
%TO.N,/cooler*%
X162000000Y-99816000D03*
%TO.P,J6,6,Pin_6_6*%
%TO.N,/rez_6*%
X162000000Y-102356000D03*
%TO.P,J6,7,Pin_7_7*%
%TO.N,/rez_17*%
X162000000Y-104896000D03*
%TO.P,J6,8,Pin_8_8*%
%TO.N,/switch*%
X162000000Y-107436000D03*
%TD*%
D16*
%TO.P,J8,1,Pin_1_1*%
%TO.N,/BL_Z-min_PB*%
X141800000Y-89656000D03*
D17*
%TO.P,J8,2,Pin_2_2*%
%TO.N,/BL_contr_signal_PB*%
X141800000Y-92196000D03*
%TO.P,J8,3,Pin_3_3*%
%TO.N,/fan_control_PB*%
X141800000Y-94736000D03*
%TO.P,J8,4,Pin_4_4*%
%TO.N,/heater_PB*%
X141800000Y-97276000D03*
%TO.P,J8,5,Pin_5_5*%
%TO.N,/cooler_PB*%
X141800000Y-99816000D03*
%TO.P,J8,6,Pin_6_6*%
%TO.N,/rez_6_PB*%
X141800000Y-102356000D03*
%TO.P,J8,7,Pin_7_7*%
%TO.N,unconnected-(J8-Pin_7-Pad7)*%
X141800000Y-104896000D03*
%TO.P,J8,8,Pin_8_8*%
%TO.N,/switch_PB*%
X141800000Y-107436000D03*
%TD*%
D16*
%TO.P,J7,1,Pin_1_1*%
%TO.N,+5V*%
X103800000Y-89656000D03*
D17*
%TO.P,J7,2,Pin_2_2*%
%TO.N,+3.3V*%
X103800000Y-92196000D03*
%TO.P,J7,3,Pin_3_3*%
%TO.N,GND*%
X103800000Y-94736000D03*
%TO.P,J7,4,Pin_4_4*%
X103800000Y-97276000D03*
%TO.P,J7,5,Pin_5_5*%
%TO.N,/ENABLE_PB*%
X103800000Y-99816000D03*
%TO.P,J7,6,Pin_6_6*%
%TO.N,/STEP_PB*%
X103800000Y-102356000D03*
%TO.P,J7,7,Pin_7_7*%
%TO.N,/DIR_PB*%
X103800000Y-104896000D03*
%TO.P,J7,8,Pin_8_8*%
%TO.N,/termistor_PB*%
X103800000Y-107436000D03*
%TD*%
%TA.AperFunction,Conductor*%
%TO.N,+24V*%
G36*
X107033906Y-78066185D02*
G01*
X107079661Y-78118989D01*
X107089715Y-78153638D01*
X108109516Y-85583623D01*
X108099131Y-85652717D01*
X108053039Y-85705227D01*
X107985875Y-85724482D01*
X107970222Y-85723199D01*
X107970000Y-85723390D01*
X107970000Y-86684314D01*
X107965606Y-86679920D01*
X107874394Y-86627259D01*
X107772661Y-86600000D01*
X107667339Y-86600000D01*
X107565606Y-86627259D01*
X107474394Y-86679920D01*
X107470000Y-86684314D01*
X107470000Y-85723390D01*
X107415586Y-85732009D01*
X107220970Y-85795244D01*
X107038650Y-85888140D01*
X106873105Y-86008417D01*
X106873104Y-86008417D01*
X106728417Y-86153104D01*
X106728417Y-86153105D01*
X106608140Y-86318650D01*
X106515244Y-86500970D01*
X106452009Y-86695586D01*
X106443391Y-86750000D01*
X107404314Y-86750000D01*
X107399920Y-86754394D01*
X107347259Y-86845606D01*
X107320000Y-86947339D01*
X107320000Y-87052661D01*
X107347259Y-87154394D01*
X107399920Y-87245606D01*
X107404314Y-87250000D01*
X106443391Y-87250000D01*
X106452009Y-87304413D01*
X106515244Y-87499029D01*
X106608140Y-87681349D01*
X106728417Y-87846894D01*
X106728417Y-87846895D01*
X106873104Y-87991582D01*
X107038650Y-88111859D01*
X107220968Y-88204754D01*
X107415578Y-88267988D01*
X107470000Y-88276607D01*
X107470000Y-87315686D01*
X107474394Y-87320080D01*
X107565606Y-87372741D01*
X107667339Y-87400000D01*
X107772661Y-87400000D01*
X107874394Y-87372741D01*
X107965606Y-87320080D01*
X107970000Y-87315686D01*
X107970000Y-88276606D01*
X108024421Y-88267988D01*
X108219033Y-88204754D01*
X108297498Y-88164774D01*
X108366168Y-88151877D01*
X108430908Y-88178153D01*
X108471166Y-88235259D01*
X108476642Y-88258396D01*
X108545233Y-88758129D01*
X108750000Y-90250000D01*
X109876000Y-90250000D01*
X109943039Y-90269685D01*
X109988794Y-90322489D01*
X110000000Y-90374000D01*
X110000000Y-92047356D01*
X109980315Y-92114395D01*
X109927511Y-92160150D01*
X109858353Y-92170094D01*
X109794797Y-92141069D01*
X109788319Y-92135037D01*
X109760966Y-92107684D01*
X109611745Y-92015643D01*
X109611740Y-92015641D01*
X109445318Y-91960494D01*
X109445311Y-91960493D01*
X109342607Y-91950000D01*
X108992621Y-91950000D01*
X108992621Y-92934314D01*
X108988227Y-92929920D01*
X108897015Y-92877259D01*
X108795282Y-92850000D01*
X108689960Y-92850000D01*
X108588227Y-92877259D01*
X108497015Y-92929920D01*
X108492621Y-92934314D01*
X108492621Y-91950000D01*
X108142649Y-91950000D01*
X108142633Y-91950001D01*
X108039923Y-91960494D01*
X107873501Y-92015641D01*
X107873496Y-92015643D01*
X107724275Y-92107684D01*
X107600305Y-92231654D01*
X107508264Y-92380875D01*
X107508262Y-92380880D01*
X107453115Y-92547302D01*
X107453114Y-92547309D01*
X107442621Y-92650013D01*
X107442621Y-93000000D01*
X108426935Y-93000000D01*
X108422541Y-93004394D01*
X108369880Y-93095606D01*
X108342621Y-93197339D01*
X108342621Y-93302661D01*
X108369880Y-93404394D01*
X108422541Y-93495606D01*
X108426935Y-93500000D01*
X107442622Y-93500000D01*
X107442622Y-93849986D01*
X107453115Y-93952697D01*
X107508262Y-94119119D01*
X107508264Y-94119124D01*
X107600305Y-94268345D01*
X107724275Y-94392315D01*
X107873496Y-94484356D01*
X107873501Y-94484358D01*
X108039923Y-94539505D01*
X108039930Y-94539506D01*
X108142640Y-94549999D01*
X108492620Y-94549999D01*
X108492621Y-94549998D01*
X108492621Y-93565686D01*
X108497015Y-93570080D01*
X108588227Y-93622741D01*
X108689960Y-93650000D01*
X108795282Y-93650000D01*
X108897015Y-93622741D01*
X108988227Y-93570080D01*
X108992621Y-93565686D01*
X108992621Y-94549999D01*
X109342593Y-94549999D01*
X109342607Y-94549998D01*
X109445318Y-94539505D01*
X109611740Y-94484358D01*
X109611745Y-94484356D01*
X109760966Y-94392315D01*
X109788319Y-94364963D01*
X109849642Y-94331478D01*
X109919334Y-94336462D01*
X109975267Y-94378334D01*
X109999684Y-94443798D01*
X110000000Y-94452644D01*
X110000000Y-98326962D01*
X109980315Y-98394001D01*
X109927511Y-98439756D01*
X109914321Y-98444891D01*
X109823024Y-98474556D01*
X109760778Y-98494781D01*
X109578386Y-98587715D01*
X109412786Y-98708028D01*
X109268028Y-98852786D01*
X109147715Y-99018386D01*
X109100485Y-99111080D01*
X109052510Y-99161876D01*
X108984689Y-99178671D01*
X108918554Y-99156134D01*
X108879515Y-99111080D01*
X108878037Y-99108179D01*
X108832287Y-99018390D01*
X108824556Y-99007749D01*
X108711971Y-98852786D01*
X108567213Y-98708028D01*
X108401613Y-98587715D01*
X108401612Y-98587714D01*
X108401610Y-98587713D01*
X108319744Y-98546000D01*
X108219223Y-98494781D01*
X108024534Y-98431522D01*
X107849995Y-98403878D01*
X107822352Y-98399500D01*
X107617648Y-98399500D01*
X107593329Y-98403351D01*
X107415465Y-98431522D01*
X107220776Y-98494781D01*
X107038386Y-98587715D01*
X106872786Y-98708028D01*
X106728028Y-98852786D01*
X106607715Y-99018386D01*
X106514781Y-99200776D01*
X106451522Y-99395465D01*
X106419500Y-99597648D01*
X106419500Y-99802351D01*
X106451522Y-100004534D01*
X106514781Y-100199223D01*
X106577141Y-100321609D01*
X106596206Y-100359027D01*
X106607715Y-100381613D01*
X106728028Y-100547213D01*
X106872786Y-100691971D01*
X107027749Y-100804556D01*
X107038390Y-100812287D01*
X107154607Y-100871503D01*
X107220776Y-100905218D01*
X107220778Y-100905218D01*
X107220781Y-100905220D01*
X107325137Y-100939127D01*
X107415465Y-100968477D01*
X107516557Y-100984488D01*
X107617648Y-101000500D01*
X107617649Y-101000500D01*
X107822351Y-101000500D01*
X107822352Y-101000500D01*
X108024534Y-100968477D01*
X108219219Y-100905220D01*
X108401610Y-100812287D01*
X108494590Y-100744732D01*
X108567213Y-100691971D01*
X108567215Y-100691968D01*
X108567219Y-100691966D01*
X108711966Y-100547219D01*
X108711968Y-100547215D01*
X108711971Y-100547213D01*
X108832284Y-100381614D01*
X108832285Y-100381613D01*
X108832287Y-100381610D01*
X108879516Y-100288917D01*
X108927489Y-100238123D01*
X108995310Y-100221328D01*
X109061445Y-100243865D01*
X109100483Y-100288917D01*
X109130732Y-100348283D01*
X109147715Y-100381614D01*
X109268028Y-100547213D01*
X109412786Y-100691971D01*
X109567749Y-100804556D01*
X109578390Y-100812287D01*
X109760781Y-100905220D01*
X109914318Y-100955107D01*
X109971994Y-100994545D01*
X109999192Y-101058903D01*
X110000000Y-101073038D01*
X110000000Y-106609294D01*
X109994002Y-106629719D01*
X109992785Y-106650975D01*
X109981460Y-106672432D01*
X109980315Y-106676333D01*
X109976311Y-106682189D01*
X109970310Y-106690447D01*
X109914976Y-106733107D01*
X109845362Y-106739080D01*
X109783570Y-106706468D01*
X109769681Y-106690437D01*
X109708286Y-106605934D01*
X109546566Y-106444214D01*
X109361538Y-106309783D01*
X109296185Y-106276484D01*
X109157755Y-106205950D01*
X108940248Y-106135278D01*
X108770826Y-106108444D01*
X108714354Y-106099500D01*
X108485646Y-106099500D01*
X108410349Y-106111426D01*
X108259753Y-106135278D01*
X108259750Y-106135278D01*
X108042244Y-106205950D01*
X107838461Y-106309783D01*
X107732896Y-106386480D01*
X107653434Y-106444214D01*
X107653432Y-106444216D01*
X107653431Y-106444216D01*
X107491716Y-106605931D01*
X107491716Y-106605932D01*
X107491714Y-106605934D01*
X107458990Y-106650975D01*
X107357283Y-106790961D01*
X107253450Y-106994744D01*
X107182778Y-107212250D01*
X107182778Y-107212253D01*
X107147000Y-107438146D01*
X107147000Y-107761853D01*
X107182778Y-107987746D01*
X107182778Y-107987749D01*
X107253450Y-108205255D01*
X107253452Y-108205258D01*
X107357283Y-108409038D01*
X107491714Y-108594066D01*
X107653434Y-108755786D01*
X107838462Y-108890217D01*
X108042242Y-108994048D01*
X108042244Y-108994049D01*
X108259751Y-109064721D01*
X108259752Y-109064721D01*
X108259755Y-109064722D01*
X108485646Y-109100500D01*
X108485647Y-109100500D01*
X108714353Y-109100500D01*
X108714354Y-109100500D01*
X108940245Y-109064722D01*
X108940248Y-109064721D01*
X108940249Y-109064721D01*
X109157755Y-108994049D01*
X109157755Y-108994048D01*
X109157758Y-108994048D01*
X109361538Y-108890217D01*
X109546566Y-108755786D01*
X109708286Y-108594066D01*
X109769684Y-108509558D01*
X109791956Y-108492384D01*
X109812122Y-108472783D01*
X109819249Y-108471338D01*
X109825010Y-108466896D01*
X109853033Y-108464489D01*
X109880598Y-108458901D01*
X109887376Y-108461539D01*
X109894624Y-108460917D01*
X109919500Y-108474042D01*
X109945710Y-108484244D01*
X109952948Y-108491690D01*
X109956419Y-108493522D01*
X109970310Y-108509552D01*
X109976311Y-108517810D01*
X109999797Y-108583614D01*
X110000000Y-108590705D01*
X110000000Y-111126000D01*
X109980315Y-111193039D01*
X109927511Y-111238794D01*
X109876000Y-111250000D01*
X102450500Y-111250000D01*
X102383461Y-111230315D01*
X102337706Y-111177511D01*
X102326500Y-111126000D01*
X102326500Y-108035322D01*
X102346185Y-107968283D01*
X102398989Y-107922528D01*
X102468147Y-107912584D01*
X102531703Y-107941609D01*
X102560984Y-107979026D01*
X102565429Y-107987749D01*
X102644951Y-108143820D01*
X102769890Y-108315786D01*
X102920213Y-108466109D01*
X103092179Y-108591048D01*
X103092181Y-108591049D01*
X103092184Y-108591051D01*
X103281588Y-108687557D01*
X103483757Y-108753246D01*
X103693713Y-108786500D01*
X103693714Y-108786500D01*
X103906286Y-108786500D01*
X103906287Y-108786500D01*
X104116243Y-108753246D01*
X104318412Y-108687557D01*
X104507816Y-108591051D01*
X104529789Y-108575086D01*
X104679786Y-108466109D01*
X104679788Y-108466106D01*
X104679792Y-108466104D01*
X104830104Y-108315792D01*
X104830106Y-108315788D01*
X104830109Y-108315786D01*
X104955048Y-108143820D01*
X104955047Y-108143820D01*
X104955051Y-108143816D01*
X105051557Y-107954412D01*
X105117246Y-107752243D01*
X105150500Y-107542287D01*
X105150500Y-107329713D01*
X105117246Y-107119757D01*
X105051557Y-106917588D01*
X104955051Y-106728184D01*
X104955049Y-106728181D01*
X104955048Y-106728179D01*
X104830109Y-106556213D01*
X104679786Y-106405890D01*
X104507820Y-106280951D01*
X104507115Y-106280591D01*
X104499054Y-106276485D01*
X104448259Y-106228512D01*
X104431463Y-106160692D01*
X104453999Y-106094556D01*
X104499054Y-106055515D01*
X104507816Y-106051051D01*
X104529789Y-106035086D01*
X104679786Y-105926109D01*
X104679788Y-105926106D01*
X104679792Y-105926104D01*
X104830104Y-105775792D01*
X104830106Y-105775788D01*
X104830109Y-105775786D01*
X104955048Y-105603820D01*
X104955047Y-105603820D01*
X104955051Y-105603816D01*
X105051557Y-105414412D01*
X105117246Y-105212243D01*
X105150500Y-105002287D01*
X105150500Y-104789713D01*
X105117246Y-104579757D01*
X105051557Y-104377588D01*
X104955051Y-104188184D01*
X104955049Y-104188181D01*
X104955048Y-104188179D01*
X104830109Y-104016213D01*
X104679786Y-103865890D01*
X104507820Y-103740951D01*
X104507115Y-103740591D01*
X104499054Y-103736485D01*
X104448259Y-103688512D01*
X104431463Y-103620692D01*
X104453999Y-103554556D01*
X104499054Y-103515515D01*
X104507816Y-103511051D01*
X104529789Y-103495086D01*
X104679786Y-103386109D01*
X104679788Y-103386106D01*
X104679792Y-103386104D01*
X104830104Y-103235792D01*
X104830106Y-103235788D01*
X104830109Y-103235786D01*
X104955048Y-103063820D01*
X104955047Y-103063820D01*
X104955051Y-103063816D01*
X105051557Y-102874412D01*
X105117246Y-102672243D01*
X105150500Y-102462287D01*
X105150500Y-102249713D01*
X105117246Y-102039757D01*
X105051557Y-101837588D01*
X104955051Y-101648184D01*
X104955049Y-101648181D01*
X104955048Y-101648179D01*
X104830109Y-101476213D01*
X104679786Y-101325890D01*
X104507820Y-101200951D01*
X104507115Y-101200591D01*
X104499054Y-101196485D01*
X104448259Y-101148512D01*
X104431463Y-101080692D01*
X104453999Y-101014556D01*
X104499054Y-100975515D01*
X104507816Y-100971051D01*
X104529789Y-100955086D01*
X104679786Y-100846109D01*
X104679788Y-100846106D01*
X104679792Y-100846104D01*
X104830104Y-100695792D01*
X104830106Y-100695788D01*
X104830109Y-100695786D01*
X104955048Y-100523820D01*
X104955047Y-100523820D01*
X104955051Y-100523816D01*
X105051557Y-100334412D01*
X105117246Y-100132243D01*
X105150500Y-99922287D01*
X105150500Y-99709713D01*
X105117246Y-99499757D01*
X105051557Y-99297588D01*
X104955051Y-99108184D01*
X104955049Y-99108181D01*
X104955048Y-99108179D01*
X104830109Y-98936213D01*
X104679786Y-98785890D01*
X104507820Y-98660951D01*
X104507115Y-98660591D01*
X104499054Y-98656485D01*
X104448259Y-98608512D01*
X104431463Y-98540692D01*
X104453999Y-98474556D01*
X104499054Y-98435515D01*
X104507816Y-98431051D01*
X104558811Y-98394001D01*
X104679786Y-98306109D01*
X104679788Y-98306106D01*
X104679792Y-98306104D01*
X104830104Y-98155792D01*
X104830106Y-98155788D01*
X104830109Y-98155786D01*
X104955048Y-97983820D01*
X104955047Y-97983820D01*
X104955051Y-97983816D01*
X105051557Y-97794412D01*
X105117246Y-97592243D01*
X105150500Y-97382287D01*
X105150500Y-97169713D01*
X105117246Y-96959757D01*
X105051557Y-96757588D01*
X104955051Y-96568184D01*
X104955049Y-96568181D01*
X104955048Y-96568179D01*
X104830109Y-96396213D01*
X104679786Y-96245890D01*
X104507820Y-96120951D01*
X104507115Y-96120591D01*
X104499054Y-96116485D01*
X104448259Y-96068512D01*
X104431463Y-96000692D01*
X104453999Y-95934556D01*
X104499054Y-95895515D01*
X104507816Y-95891051D01*
X104529789Y-95875086D01*
X104679786Y-95766109D01*
X104679788Y-95766106D01*
X104679792Y-95766104D01*
X104830104Y-95615792D01*
X104830106Y-95615788D01*
X104830109Y-95615786D01*
X104955048Y-95443820D01*
X104955047Y-95443820D01*
X104955051Y-95443816D01*
X105051557Y-95254412D01*
X105117246Y-95052243D01*
X105150500Y-94842287D01*
X105150500Y-94629713D01*
X105117246Y-94419757D01*
X105051557Y-94217588D01*
X104955051Y-94028184D01*
X104955049Y-94028181D01*
X104955048Y-94028179D01*
X104830109Y-93856213D01*
X104679786Y-93705890D01*
X104507820Y-93580951D01*
X104507115Y-93580591D01*
X104499054Y-93576485D01*
X104492900Y-93570672D01*
X104484859Y-93568016D01*
X104467877Y-93547040D01*
X104448259Y-93528512D01*
X104446223Y-93520292D01*
X104440895Y-93513711D01*
X104437949Y-93486884D01*
X104431463Y-93460692D01*
X104434194Y-93452676D01*
X104433270Y-93444259D01*
X104445295Y-93420098D01*
X104453999Y-93394556D01*
X104461440Y-93387661D01*
X104464403Y-93381709D01*
X104483208Y-93367493D01*
X104491835Y-93359501D01*
X104495370Y-93357392D01*
X104507816Y-93351051D01*
X104679792Y-93226104D01*
X104830104Y-93075792D01*
X104830106Y-93075788D01*
X104830109Y-93075786D01*
X104955048Y-92903820D01*
X104955047Y-92903820D01*
X104955051Y-92903816D01*
X105051557Y-92714412D01*
X105117246Y-92512243D01*
X105150500Y-92302287D01*
X105150500Y-92089713D01*
X105117246Y-91879757D01*
X105051557Y-91677588D01*
X104955051Y-91488184D01*
X104955049Y-91488181D01*
X104955048Y-91488179D01*
X104830109Y-91316213D01*
X104716569Y-91202673D01*
X104683084Y-91141350D01*
X104688068Y-91071658D01*
X104729940Y-91015725D01*
X104760915Y-90998810D01*
X104892331Y-90949796D01*
X105007546Y-90863546D01*
X105093796Y-90748331D01*
X105144091Y-90613483D01*
X105150500Y-90553873D01*
X105150499Y-88758128D01*
X105144091Y-88698517D01*
X105093796Y-88563669D01*
X105093795Y-88563668D01*
X105093793Y-88563664D01*
X105007547Y-88448455D01*
X105007544Y-88448452D01*
X104892335Y-88362206D01*
X104892328Y-88362202D01*
X104757482Y-88311908D01*
X104757483Y-88311908D01*
X104697883Y-88305501D01*
X104697881Y-88305500D01*
X104697873Y-88305500D01*
X104697864Y-88305500D01*
X102902129Y-88305500D01*
X102902123Y-88305501D01*
X102842516Y-88311908D01*
X102707671Y-88362202D01*
X102707664Y-88362206D01*
X102592455Y-88448452D01*
X102549766Y-88505477D01*
X102493832Y-88547347D01*
X102424140Y-88552331D01*
X102362817Y-88518845D01*
X102329333Y-88457521D01*
X102326500Y-88431165D01*
X102326500Y-80882014D01*
X102900000Y-80882014D01*
X102900000Y-81117985D01*
X102930799Y-81351914D01*
X102991870Y-81579837D01*
X103082160Y-81797819D01*
X103082165Y-81797828D01*
X103200144Y-82002171D01*
X103200145Y-82002172D01*
X103262721Y-82083723D01*
X104098958Y-81247487D01*
X104123978Y-81307890D01*
X104195112Y-81414351D01*
X104285649Y-81504888D01*
X104392110Y-81576022D01*
X104452511Y-81601041D01*
X103616275Y-82437277D01*
X103697827Y-82499854D01*
X103697828Y-82499855D01*
X103902171Y-82617834D01*
X103902180Y-82617839D01*
X104120163Y-82708129D01*
X104120161Y-82708129D01*
X104348085Y-82769200D01*
X104582014Y-82799999D01*
X104582029Y-82800000D01*
X104817971Y-82800000D01*
X104817985Y-82799999D01*
X105051914Y-82769200D01*
X105279837Y-82708129D01*
X105497819Y-82617839D01*
X105497828Y-82617834D01*
X105702181Y-82499850D01*
X105783723Y-82437279D01*
X105783723Y-82437276D01*
X104947487Y-81601041D01*
X105007890Y-81576022D01*
X105114351Y-81504888D01*
X105204888Y-81414351D01*
X105276022Y-81307890D01*
X105301041Y-81247487D01*
X106137276Y-82083723D01*
X106137279Y-82083723D01*
X106199850Y-82002181D01*
X106317834Y-81797828D01*
X106317839Y-81797819D01*
X106408129Y-81579837D01*
X106469200Y-81351914D01*
X106499999Y-81117985D01*
X106500000Y-81117971D01*
X106500000Y-80882028D01*
X106499999Y-80882014D01*
X106469200Y-80648085D01*
X106408129Y-80420162D01*
X106317839Y-80202180D01*
X106317834Y-80202171D01*
X106199855Y-79997828D01*
X106199854Y-79997827D01*
X106137277Y-79916275D01*
X105301041Y-80752511D01*
X105276022Y-80692110D01*
X105204888Y-80585649D01*
X105114351Y-80495112D01*
X105007890Y-80423978D01*
X104947488Y-80398958D01*
X105783723Y-79562721D01*
X105702172Y-79500145D01*
X105702171Y-79500144D01*
X105497828Y-79382165D01*
X105497819Y-79382160D01*
X105279836Y-79291870D01*
X105279838Y-79291870D01*
X105051914Y-79230799D01*
X104817985Y-79200000D01*
X104582014Y-79200000D01*
X104348085Y-79230799D01*
X104120162Y-79291870D01*
X103902180Y-79382160D01*
X103902171Y-79382165D01*
X103697828Y-79500144D01*
X103697818Y-79500150D01*
X103616275Y-79562720D01*
X103616275Y-79562721D01*
X104452512Y-80398958D01*
X104392110Y-80423978D01*
X104285649Y-80495112D01*
X104195112Y-80585649D01*
X104123978Y-80692110D01*
X104098958Y-80752511D01*
X103262721Y-79916275D01*
X103262720Y-79916275D01*
X103200150Y-79997818D01*
X103200144Y-79997828D01*
X103082165Y-80202171D01*
X103082160Y-80202180D01*
X102991870Y-80420162D01*
X102930799Y-80648085D01*
X102900000Y-80882014D01*
X102326500Y-80882014D01*
X102326500Y-78170500D01*
X102346185Y-78103461D01*
X102398989Y-78057706D01*
X102450500Y-78046500D01*
X106966867Y-78046500D01*
X107033906Y-78066185D01*
G37*
%TD.AperFunction*%
%TD*%
M02*
