ISO-10303-21;
HEADER;

/* File generated by T-FLEX CAD Version 17.0.27.0 */

FILE_DESCRIPTION(('TFLEX Exchange Step'),'2;1');

FILE_NAME('X2\041A0440044B0448043A0430\X0\ \X2\043A043E0440043F044304410430\X0\.stp',                                                                                                                              
'2026-04-17T10:44:27+03:00',
('user'),
('Unknown organisation'),
'TFLEX Exchange 2020.2',
'T-FLEX CAD',
'Unknown authorisation');

FILE_SCHEMA( ('AUTOMOTIVE_DESIGN { 1 0 10303 214 1 1 1 1 }') );

ENDSEC;

DATA;
#3=(NAMED_UNIT(*)PLANE_ANGLE_UNIT()SI_UNIT($,.RADIAN.));
#4=PLANE_ANGLE_MEASURE_WITH_UNIT(PLANE_ANGLE_MEASURE(0.0174532925),#3);
#5=(CONVERSION_BASED_UNIT('DEGREE',#4)NAMED_UNIT(#6)PLANE_ANGLE_UNIT());
#6=DIMENSIONAL_EXPONENTS(0.,0.,0.,0.,0.,0.,0.);
#7=(NAMED_UNIT(*)SI_UNIT($,.STERADIAN.)SOLID_ANGLE_UNIT());
#8=(LENGTH_UNIT()NAMED_UNIT(*)SI_UNIT(.MILLI.,.METRE.));
#9=UNCERTAINTY_MEASURE_WITH_UNIT(LENGTH_MEASURE(1.000000E-05),#8,'DISTANCE_ACCURACY_VALUE','Maximum Tolerance applied to model');
#10=(GEOMETRIC_REPRESENTATION_CONTEXT(3)GLOBAL_UNCERTAINTY_ASSIGNED_CONTEXT((#9))GLOBAL_UNIT_ASSIGNED_CONTEXT((#8,#5,#7))REPRESENTATION_CONTEXT('','\X2\041A0440044B0448043A0430\X0\ \X2\043A043E0440043F044304410430\X0\'));
#12=CARTESIAN_POINT('',(0.,0.,0.));
#13=DIRECTION('',(0.,0.,1.));
#14=DIRECTION('',(1.,0.,0.));
#15=AXIS2_PLACEMENT_3D('',#12,#13,#14);
#27=CARTESIAN_POINT('',(100.,37.5,0.));
#28=CARTESIAN_POINT('',(100.,-37.5,0.));
#29=CARTESIAN_POINT('',(100.,37.5,2.));
#30=CARTESIAN_POINT('',(100.,-37.5,2.));
#31=B_SPLINE_SURFACE_WITH_KNOTS('',1,1,((#27,#28),(#29,#30)),.UNSPECIFIED.,.F.,.F.,.U.,(2,2),(2,2),(0.,0.002),(-0.075,0.),.UNSPECIFIED.);
#32=CARTESIAN_POINT('',(100.,-37.5,0.));
#33=VERTEX_POINT('',#32);
#34=CARTESIAN_POINT('',(100.,37.5,0.));
#35=VERTEX_POINT('',#34);
#36=CARTESIAN_POINT('',(100.,-37.5,0.));
#37=CARTESIAN_POINT('',(100.,37.5,0.));
#38=B_SPLINE_CURVE_WITH_KNOTS('',1,(#36,#37),.UNSPECIFIED.,.F.,.F.,(2,2),(0.,0.075),.UNSPECIFIED.);
#39=EDGE_CURVE('',#33,#35,#38,.T.);
#40=ORIENTED_EDGE('',*,*,#39,.T.);
#41=CARTESIAN_POINT('',(100.,37.5,2.));
#42=VERTEX_POINT('',#41);
#43=CARTESIAN_POINT('',(100.,37.5,0.));
#44=CARTESIAN_POINT('',(100.,37.5,2.));
#45=B_SPLINE_CURVE_WITH_KNOTS('',1,(#43,#44),.UNSPECIFIED.,.F.,.F.,(2,2),(0.,0.002),.UNSPECIFIED.);
#46=EDGE_CURVE('',#35,#42,#45,.T.);
#47=ORIENTED_EDGE('',*,*,#46,.T.);
#48=CARTESIAN_POINT('',(100.,-37.5,2.));
#49=VERTEX_POINT('',#48);
#50=CARTESIAN_POINT('',(100.,-37.5,2.));
#51=CARTESIAN_POINT('',(100.,37.5,2.));
#52=B_SPLINE_CURVE_WITH_KNOTS('',1,(#50,#51),.UNSPECIFIED.,.F.,.F.,(2,2),(0.,0.075),.UNSPECIFIED.);
#53=EDGE_CURVE('',#49,#42,#52,.T.);
#54=ORIENTED_EDGE('',*,*,#53,.F.);
#55=CARTESIAN_POINT('',(100.,-37.5,0.));
#56=CARTESIAN_POINT('',(100.,-37.5,2.));
#57=B_SPLINE_CURVE_WITH_KNOTS('',1,(#55,#56),.UNSPECIFIED.,.F.,.F.,(2,2),(0.,0.002),.UNSPECIFIED.);
#58=EDGE_CURVE('',#33,#49,#57,.T.);
#59=ORIENTED_EDGE('',*,*,#58,.F.);
#60=EDGE_LOOP('',(#40,#47,#54,#59));
#61=FACE_BOUND('',#60,.T.);
#62=ADVANCED_FACE('',(#61),#31,.T.);
#63=CARTESIAN_POINT('',(100.,-37.5,0.));
#64=CARTESIAN_POINT('',(-100.,-37.5,0.));
#65=CARTESIAN_POINT('',(100.,-37.5,2.));
#66=CARTESIAN_POINT('',(-100.,-37.5,2.));
#67=B_SPLINE_SURFACE_WITH_KNOTS('',1,1,((#63,#64),(#65,#66)),.UNSPECIFIED.,.F.,.F.,.U.,(2,2),(2,2),(0.,0.002),(-0.2,0.),.UNSPECIFIED.);
#68=CARTESIAN_POINT('',(-100.,-37.5,0.));
#69=VERTEX_POINT('',#68);
#70=CARTESIAN_POINT('',(-100.,-37.5,0.));
#71=CARTESIAN_POINT('',(100.,-37.5,0.));
#72=B_SPLINE_CURVE_WITH_KNOTS('',1,(#70,#71),.UNSPECIFIED.,.F.,.F.,(2,2),(0.,0.2),.UNSPECIFIED.);
#73=EDGE_CURVE('',#69,#33,#72,.T.);
#74=ORIENTED_EDGE('',*,*,#73,.T.);
#75=ORIENTED_EDGE('',*,*,#58,.T.);
#76=CARTESIAN_POINT('',(-100.,-37.5,2.));
#77=VERTEX_POINT('',#76);
#78=CARTESIAN_POINT('',(-100.,-37.5,2.));
#79=CARTESIAN_POINT('',(100.,-37.5,2.));
#80=B_SPLINE_CURVE_WITH_KNOTS('',1,(#78,#79),.UNSPECIFIED.,.F.,.F.,(2,2),(0.,0.2),.UNSPECIFIED.);
#81=EDGE_CURVE('',#77,#49,#80,.T.);
#82=ORIENTED_EDGE('',*,*,#81,.F.);
#83=CARTESIAN_POINT('',(-100.,-37.5,0.));
#84=CARTESIAN_POINT('',(-100.,-37.5,2.));
#85=B_SPLINE_CURVE_WITH_KNOTS('',1,(#83,#84),.UNSPECIFIED.,.F.,.F.,(2,2),(0.,0.002),.UNSPECIFIED.);
#86=EDGE_CURVE('',#69,#77,#85,.T.);
#87=ORIENTED_EDGE('',*,*,#86,.F.);
#88=EDGE_LOOP('',(#74,#75,#82,#87));
#89=FACE_BOUND('',#88,.T.);
#90=ADVANCED_FACE('',(#89),#67,.T.);
#91=CARTESIAN_POINT('',(-100.,-37.5,0.));
#92=CARTESIAN_POINT('',(-100.,37.5,0.));
#93=CARTESIAN_POINT('',(-100.,-37.5,2.));
#94=CARTESIAN_POINT('',(-100.,37.5,2.));
#95=B_SPLINE_SURFACE_WITH_KNOTS('',1,1,((#91,#92),(#93,#94)),.UNSPECIFIED.,.F.,.F.,.U.,(2,2),(2,2),(0.,0.002),(-0.075,0.),.UNSPECIFIED.);
#96=CARTESIAN_POINT('',(-100.,37.5,0.));
#97=VERTEX_POINT('',#96);
#98=CARTESIAN_POINT('',(-100.,37.5,0.));
#99=CARTESIAN_POINT('',(-100.,-37.5,0.));
#100=B_SPLINE_CURVE_WITH_KNOTS('',1,(#98,#99),.UNSPECIFIED.,.F.,.F.,(2,2),(0.,0.075),.UNSPECIFIED.);
#101=EDGE_CURVE('',#97,#69,#100,.T.);
#102=ORIENTED_EDGE('',*,*,#101,.T.);
#103=ORIENTED_EDGE('',*,*,#86,.T.);
#104=CARTESIAN_POINT('',(-100.,37.5,2.));
#105=VERTEX_POINT('',#104);
#106=CARTESIAN_POINT('',(-100.,37.5,2.));
#107=CARTESIAN_POINT('',(-100.,-37.5,2.));
#108=B_SPLINE_CURVE_WITH_KNOTS('',1,(#106,#107),.UNSPECIFIED.,.F.,.F.,(2,2),(0.,0.075),.UNSPECIFIED.);
#109=EDGE_CURVE('',#105,#77,#108,.T.);
#110=ORIENTED_EDGE('',*,*,#109,.F.);
#111=CARTESIAN_POINT('',(-100.,37.5,0.));
#112=CARTESIAN_POINT('',(-100.,37.5,2.));
#113=B_SPLINE_CURVE_WITH_KNOTS('',1,(#111,#112),.UNSPECIFIED.,.F.,.F.,(2,2),(0.,0.002),.UNSPECIFIED.);
#114=EDGE_CURVE('',#97,#105,#113,.T.);
#115=ORIENTED_EDGE('',*,*,#114,.F.);
#116=EDGE_LOOP('',(#102,#103,#110,#115));
#117=FACE_BOUND('',#116,.T.);
#118=ADVANCED_FACE('',(#117),#95,.T.);
#119=CARTESIAN_POINT('',(-100.,37.5,0.));
#120=CARTESIAN_POINT('',(100.,37.5,0.));
#121=CARTESIAN_POINT('',(-100.,37.5,2.));
#122=CARTESIAN_POINT('',(100.,37.5,2.));
#123=B_SPLINE_SURFACE_WITH_KNOTS('',1,1,((#119,#120),(#121,#122)),.UNSPECIFIED.,.F.,.F.,.U.,(2,2),(2,2),(0.,0.002),(-0.2,0.),.UNSPECIFIED.);
#124=CARTESIAN_POINT('',(100.,37.5,0.));
#125=CARTESIAN_POINT('',(-100.,37.5,0.));
#126=B_SPLINE_CURVE_WITH_KNOTS('',1,(#124,#125),.UNSPECIFIED.,.F.,.F.,(2,2),(0.,0.2),.UNSPECIFIED.);
#127=EDGE_CURVE('',#35,#97,#126,.T.);
#128=ORIENTED_EDGE('',*,*,#127,.T.);
#129=ORIENTED_EDGE('',*,*,#114,.T.);
#130=CARTESIAN_POINT('',(100.,37.5,2.));
#131=CARTESIAN_POINT('',(-100.,37.5,2.));
#132=B_SPLINE_CURVE_WITH_KNOTS('',1,(#130,#131),.UNSPECIFIED.,.F.,.F.,(2,2),(0.,0.2),.UNSPECIFIED.);
#133=EDGE_CURVE('',#42,#105,#132,.T.);
#134=ORIENTED_EDGE('',*,*,#133,.F.);
#135=ORIENTED_EDGE('',*,*,#46,.F.);
#136=EDGE_LOOP('',(#128,#129,#134,#135));
#137=FACE_BOUND('',#136,.T.);
#138=ADVANCED_FACE('',(#137),#123,.T.);
#139=CARTESIAN_POINT('',(-100.,37.5,0.));
#140=CARTESIAN_POINT('',(-100.,-37.5,0.));
#141=CARTESIAN_POINT('',(100.,37.5,0.));
#142=CARTESIAN_POINT('',(100.,-37.5,0.));
#143=B_SPLINE_SURFACE_WITH_KNOTS('',1,1,((#139,#140),(#141,#142)),.UNSPECIFIED.,.F.,.F.,.U.,(2,2),(2,2),(-0.1,0.1),(-0.0375,0.0375),.UNSPECIFIED.);
#144=CARTESIAN_POINT('',(96.,35.1,0.));
#145=VERTEX_POINT('',#144);
#146=CARTESIAN_POINT('',(94.4,33.5,0.));
#147=VERTEX_POINT('',#146);
#148=CARTESIAN_POINT('',(94.4,33.5,0.));
#149=CARTESIAN_POINT('',(94.4,35.1,0.));
#150=CARTESIAN_POINT('',(96.,35.1,0.));
#151=CARTESIAN_POINT('',(97.6,35.1,0.));
#152=CARTESIAN_POINT('',(97.6,33.5,0.));
#153=CARTESIAN_POINT('',(97.6,31.9,0.));
#154=CARTESIAN_POINT('',(96.,31.9,0.));
#155=CARTESIAN_POINT('',(94.4,31.9,0.));
#156=CARTESIAN_POINT('',(94.4,33.5,0.));
#157=(BOUNDED_CURVE()
B_SPLINE_CURVE(2,(#148,#149,#150,#151,#152,#153,#154,#155,#156),.UNSPECIFIED.,.T.,.F.)
B_SPLINE_CURVE_WITH_KNOTS((3,2,2,2,3),(0.,1.570796327,3.141592654,4.71238898,6.283185307),.UNSPECIFIED.)
CURVE()
GEOMETRIC_REPRESENTATION_ITEM()
RATIONAL_B_SPLINE_CURVE((1.,0.707106781,1.,0.707106781,1.,0.707106781,1.,0.707106781,1.))
REPRESENTATION_ITEM(''));
#158=EDGE_CURVE('',#145,#147,#157,.T.);
#159=ORIENTED_EDGE('',*,*,#158,.F.);
#160=CARTESIAN_POINT('',(94.4,33.5,0.));
#161=CARTESIAN_POINT('',(94.4,35.1,0.));
#162=CARTESIAN_POINT('',(96.,35.1,0.));
#163=CARTESIAN_POINT('',(97.6,35.1,0.));
#164=CARTESIAN_POINT('',(97.6,33.5,0.));
#165=CARTESIAN_POINT('',(97.6,31.9,0.));
#166=CARTESIAN_POINT('',(96.,31.9,0.));
#167=CARTESIAN_POINT('',(94.4,31.9,0.));
#168=CARTESIAN_POINT('',(94.4,33.5,0.));
#169=(BOUNDED_CURVE()
B_SPLINE_CURVE(2,(#160,#161,#162,#163,#164,#165,#166,#167,#168),.UNSPECIFIED.,.T.,.F.)
B_SPLINE_CURVE_WITH_KNOTS((3,2,2,2,3),(0.,1.570796327,3.141592654,4.71238898,6.283185307),.UNSPECIFIED.)
CURVE()
GEOMETRIC_REPRESENTATION_ITEM()
RATIONAL_B_SPLINE_CURVE((1.,0.707106781,1.,0.707106781,1.,0.707106781,1.,0.707106781,1.))
REPRESENTATION_ITEM(''));
#170=EDGE_CURVE('',#147,#145,#169,.T.);
#171=ORIENTED_EDGE('',*,*,#170,.F.);
#172=EDGE_LOOP('',(#159,#171));
#173=FACE_BOUND('',#172,.T.);
#174=CARTESIAN_POINT('',(-96.,35.1,0.));
#175=VERTEX_POINT('',#174);
#176=CARTESIAN_POINT('',(-97.6,33.5,0.));
#177=VERTEX_POINT('',#176);
#178=CARTESIAN_POINT('',(-97.6,33.5,0.));
#179=CARTESIAN_POINT('',(-97.6,35.1,0.));
#180=CARTESIAN_POINT('',(-96.,35.1,0.));
#181=CARTESIAN_POINT('',(-94.4,35.1,0.));
#182=CARTESIAN_POINT('',(-94.4,33.5,0.));
#183=CARTESIAN_POINT('',(-94.4,31.9,0.));
#184=CARTESIAN_POINT('',(-96.,31.9,0.));
#185=CARTESIAN_POINT('',(-97.6,31.9,0.));
#186=CARTESIAN_POINT('',(-97.6,33.5,0.));
#187=(BOUNDED_CURVE()
B_SPLINE_CURVE(2,(#178,#179,#180,#181,#182,#183,#184,#185,#186),.UNSPECIFIED.,.T.,.F.)
B_SPLINE_CURVE_WITH_KNOTS((3,2,2,2,3),(0.,1.570796327,3.141592654,4.71238898,6.283185307),.UNSPECIFIED.)
CURVE()
GEOMETRIC_REPRESENTATION_ITEM()
RATIONAL_B_SPLINE_CURVE((1.,0.707106781,1.,0.707106781,1.,0.707106781,1.,0.707106781,1.))
REPRESENTATION_ITEM(''));
#188=EDGE_CURVE('',#175,#177,#187,.T.);
#189=ORIENTED_EDGE('',*,*,#188,.F.);
#190=CARTESIAN_POINT('',(-97.6,33.5,0.));
#191=CARTESIAN_POINT('',(-97.6,35.1,0.));
#192=CARTESIAN_POINT('',(-96.,35.1,0.));
#193=CARTESIAN_POINT('',(-94.4,35.1,0.));
#194=CARTESIAN_POINT('',(-94.4,33.5,0.));
#195=CARTESIAN_POINT('',(-94.4,31.9,0.));
#196=CARTESIAN_POINT('',(-96.,31.9,0.));
#197=CARTESIAN_POINT('',(-97.6,31.9,0.));
#198=CARTESIAN_POINT('',(-97.6,33.5,0.));
#199=(BOUNDED_CURVE()
B_SPLINE_CURVE(2,(#190,#191,#192,#193,#194,#195,#196,#197,#198),.UNSPECIFIED.,.T.,.F.)
B_SPLINE_CURVE_WITH_KNOTS((3,2,2,2,3),(0.,1.570796327,3.141592654,4.71238898,6.283185307),.UNSPECIFIED.)
CURVE()
GEOMETRIC_REPRESENTATION_ITEM()
RATIONAL_B_SPLINE_CURVE((1.,0.707106781,1.,0.707106781,1.,0.707106781,1.,0.707106781,1.))
REPRESENTATION_ITEM(''));
#200=EDGE_CURVE('',#177,#175,#199,.T.);
#201=ORIENTED_EDGE('',*,*,#200,.F.);
#202=EDGE_LOOP('',(#189,#201));
#203=FACE_BOUND('',#202,.T.);
#204=CARTESIAN_POINT('',(-96.,-31.9,0.));
#205=VERTEX_POINT('',#204);
#206=CARTESIAN_POINT('',(-97.6,-33.5,0.));
#207=VERTEX_POINT('',#206);
#208=CARTESIAN_POINT('',(-97.6,-33.5,0.));
#209=CARTESIAN_POINT('',(-97.6,-31.9,0.));
#210=CARTESIAN_POINT('',(-96.,-31.9,0.));
#211=CARTESIAN_POINT('',(-94.4,-31.9,0.));
#212=CARTESIAN_POINT('',(-94.4,-33.5,0.));
#213=CARTESIAN_POINT('',(-94.4,-35.1,0.));
#214=CARTESIAN_POINT('',(-96.,-35.1,0.));
#215=CARTESIAN_POINT('',(-97.6,-35.1,0.));
#216=CARTESIAN_POINT('',(-97.6,-33.5,0.));
#217=(BOUNDED_CURVE()
B_SPLINE_CURVE(2,(#208,#209,#210,#211,#212,#213,#214,#215,#216),.UNSPECIFIED.,.T.,.F.)
B_SPLINE_CURVE_WITH_KNOTS((3,2,2,2,3),(0.,1.570796327,3.141592654,4.71238898,6.283185307),.UNSPECIFIED.)
CURVE()
GEOMETRIC_REPRESENTATION_ITEM()
RATIONAL_B_SPLINE_CURVE((1.,0.707106781,1.,0.707106781,1.,0.707106781,1.,0.707106781,1.))
REPRESENTATION_ITEM(''));
#218=EDGE_CURVE('',#205,#207,#217,.T.);
#219=ORIENTED_EDGE('',*,*,#218,.F.);
#220=CARTESIAN_POINT('',(-97.6,-33.5,0.));
#221=CARTESIAN_POINT('',(-97.6,-31.9,0.));
#222=CARTESIAN_POINT('',(-96.,-31.9,0.));
#223=CARTESIAN_POINT('',(-94.4,-31.9,0.));
#224=CARTESIAN_POINT('',(-94.4,-33.5,0.));
#225=CARTESIAN_POINT('',(-94.4,-35.1,0.));
#226=CARTESIAN_POINT('',(-96.,-35.1,0.));
#227=CARTESIAN_POINT('',(-97.6,-35.1,0.));
#228=CARTESIAN_POINT('',(-97.6,-33.5,0.));
#229=(BOUNDED_CURVE()
B_SPLINE_CURVE(2,(#220,#221,#222,#223,#224,#225,#226,#227,#228),.UNSPECIFIED.,.T.,.F.)
B_SPLINE_CURVE_WITH_KNOTS((3,2,2,2,3),(0.,1.570796327,3.141592654,4.71238898,6.283185307),.UNSPECIFIED.)
CURVE()
GEOMETRIC_REPRESENTATION_ITEM()
RATIONAL_B_SPLINE_CURVE((1.,0.707106781,1.,0.707106781,1.,0.707106781,1.,0.707106781,1.))
REPRESENTATION_ITEM(''));
#230=EDGE_CURVE('',#207,#205,#229,.T.);
#231=ORIENTED_EDGE('',*,*,#230,.F.);
#232=EDGE_LOOP('',(#219,#231));
#233=FACE_BOUND('',#232,.T.);
#234=CARTESIAN_POINT('',(96.,-31.9,0.));
#235=VERTEX_POINT('',#234);
#236=CARTESIAN_POINT('',(94.4,-33.5,0.));
#237=VERTEX_POINT('',#236);
#238=CARTESIAN_POINT('',(94.4,-33.5,0.));
#239=CARTESIAN_POINT('',(94.4,-31.9,0.));
#240=CARTESIAN_POINT('',(96.,-31.9,0.));
#241=CARTESIAN_POINT('',(97.6,-31.9,0.));
#242=CARTESIAN_POINT('',(97.6,-33.5,0.));
#243=CARTESIAN_POINT('',(97.6,-35.1,0.));
#244=CARTESIAN_POINT('',(96.,-35.1,0.));
#245=CARTESIAN_POINT('',(94.4,-35.1,0.));
#246=CARTESIAN_POINT('',(94.4,-33.5,0.));
#247=(BOUNDED_CURVE()
B_SPLINE_CURVE(2,(#238,#239,#240,#241,#242,#243,#244,#245,#246),.UNSPECIFIED.,.T.,.F.)
B_SPLINE_CURVE_WITH_KNOTS((3,2,2,2,3),(0.,1.570796327,3.141592654,4.71238898,6.283185307),.UNSPECIFIED.)
CURVE()
GEOMETRIC_REPRESENTATION_ITEM()
RATIONAL_B_SPLINE_CURVE((1.,0.707106781,1.,0.707106781,1.,0.707106781,1.,0.707106781,1.))
REPRESENTATION_ITEM(''));
#248=EDGE_CURVE('',#235,#237,#247,.T.);
#249=ORIENTED_EDGE('',*,*,#248,.F.);
#250=CARTESIAN_POINT('',(94.4,-33.5,0.));
#251=CARTESIAN_POINT('',(94.4,-31.9,0.));
#252=CARTESIAN_POINT('',(96.,-31.9,0.));
#253=CARTESIAN_POINT('',(97.6,-31.9,0.));
#254=CARTESIAN_POINT('',(97.6,-33.5,0.));
#255=CARTESIAN_POINT('',(97.6,-35.1,0.));
#256=CARTESIAN_POINT('',(96.,-35.1,0.));
#257=CARTESIAN_POINT('',(94.4,-35.1,0.));
#258=CARTESIAN_POINT('',(94.4,-33.5,0.));
#259=(BOUNDED_CURVE()
B_SPLINE_CURVE(2,(#250,#251,#252,#253,#254,#255,#256,#257,#258),.UNSPECIFIED.,.T.,.F.)
B_SPLINE_CURVE_WITH_KNOTS((3,2,2,2,3),(0.,1.570796327,3.141592654,4.71238898,6.283185307),.UNSPECIFIED.)
CURVE()
GEOMETRIC_REPRESENTATION_ITEM()
RATIONAL_B_SPLINE_CURVE((1.,0.707106781,1.,0.707106781,1.,0.707106781,1.,0.707106781,1.))
REPRESENTATION_ITEM(''));
#260=EDGE_CURVE('',#237,#235,#259,.T.);
#261=ORIENTED_EDGE('',*,*,#260,.F.);
#262=EDGE_LOOP('',(#249,#261));
#263=FACE_BOUND('',#262,.T.);
#264=ORIENTED_EDGE('',*,*,#39,.F.);
#265=ORIENTED_EDGE('',*,*,#73,.F.);
#266=ORIENTED_EDGE('',*,*,#101,.F.);
#267=ORIENTED_EDGE('',*,*,#127,.F.);
#268=EDGE_LOOP('',(#264,#265,#266,#267));
#269=FACE_BOUND('',#268,.T.);
#270=ADVANCED_FACE('',(#173,#203,#233,#263,#269),#143,.T.);
#271=CARTESIAN_POINT('',(-100.,-37.5,2.));
#272=CARTESIAN_POINT('',(-100.,37.5,2.));
#273=CARTESIAN_POINT('',(100.,-37.5,2.));
#274=CARTESIAN_POINT('',(100.,37.5,2.));
#275=B_SPLINE_SURFACE_WITH_KNOTS('',1,1,((#271,#272),(#273,#274)),.UNSPECIFIED.,.F.,.F.,.U.,(2,2),(2,2),(-0.1,0.1),(-0.0375,0.0375),.UNSPECIFIED.);
#276=CARTESIAN_POINT('',(96.,36.5,1.999999));
#277=VERTEX_POINT('',#276);
#278=CARTESIAN_POINT('',(96.,36.5,1.999999));
#279=CARTESIAN_POINT('',(93.,36.5,1.999999));
#280=CARTESIAN_POINT('',(93.,33.5,1.999999));
#281=CARTESIAN_POINT('',(93.,30.5,1.999999));
#282=CARTESIAN_POINT('',(96.,30.5,1.999999));
#283=CARTESIAN_POINT('',(99.,30.5,1.999999));
#284=CARTESIAN_POINT('',(99.,33.5,1.999999));
#285=CARTESIAN_POINT('',(99.,36.5,1.999999));
#286=CARTESIAN_POINT('',(96.,36.5,1.999999));
#287=(BOUNDED_CURVE()
B_SPLINE_CURVE(2,(#278,#279,#280,#281,#282,#283,#284,#285,#286),.UNSPECIFIED.,.T.,.F.)
B_SPLINE_CURVE_WITH_KNOTS((3,2,2,2,3),(0.,1.570796327,3.141592654,4.71238898,6.283185307),.UNSPECIFIED.)
CURVE()
GEOMETRIC_REPRESENTATION_ITEM()
RATIONAL_B_SPLINE_CURVE((1.,0.707106781,1.,0.707106781,1.,0.707106781,1.,0.707106781,1.))
REPRESENTATION_ITEM(''));
#288=EDGE_CURVE('',#277,#277,#287,.T.);
#289=ORIENTED_EDGE('',*,*,#288,.F.);
#290=EDGE_LOOP('',(#289));
#291=FACE_BOUND('',#290,.T.);
#292=CARTESIAN_POINT('',(-96.,36.5,1.999999));
#293=VERTEX_POINT('',#292);
#294=CARTESIAN_POINT('',(-96.,36.5,1.999999));
#295=CARTESIAN_POINT('',(-99.,36.5,1.999999));
#296=CARTESIAN_POINT('',(-99.,33.5,1.999999));
#297=CARTESIAN_POINT('',(-99.,30.5,1.999999));
#298=CARTESIAN_POINT('',(-96.,30.5,1.999999));
#299=CARTESIAN_POINT('',(-93.,30.5,1.999999));
#300=CARTESIAN_POINT('',(-93.,33.5,1.999999));
#301=CARTESIAN_POINT('',(-93.,36.5,1.999999));
#302=CARTESIAN_POINT('',(-96.,36.5,1.999999));
#303=(BOUNDED_CURVE()
B_SPLINE_CURVE(2,(#294,#295,#296,#297,#298,#299,#300,#301,#302),.UNSPECIFIED.,.T.,.F.)
B_SPLINE_CURVE_WITH_KNOTS((3,2,2,2,3),(0.,1.570796327,3.141592654,4.71238898,6.283185307),.UNSPECIFIED.)
CURVE()
GEOMETRIC_REPRESENTATION_ITEM()
RATIONAL_B_SPLINE_CURVE((1.,0.707106781,1.,0.707106781,1.,0.707106781,1.,0.707106781,1.))
REPRESENTATION_ITEM(''));
#304=EDGE_CURVE('',#293,#293,#303,.T.);
#305=ORIENTED_EDGE('',*,*,#304,.F.);
#306=EDGE_LOOP('',(#305));
#307=FACE_BOUND('',#306,.T.);
#308=CARTESIAN_POINT('',(-96.,-30.5,1.999999));
#309=VERTEX_POINT('',#308);
#310=CARTESIAN_POINT('',(-96.,-30.5,1.999999));
#311=CARTESIAN_POINT('',(-99.,-30.5,1.999999));
#312=CARTESIAN_POINT('',(-99.,-33.5,1.999999));
#313=CARTESIAN_POINT('',(-99.,-36.5,1.999999));
#314=CARTESIAN_POINT('',(-96.,-36.5,1.999999));
#315=CARTESIAN_POINT('',(-93.,-36.5,1.999999));
#316=CARTESIAN_POINT('',(-93.,-33.5,1.999999));
#317=CARTESIAN_POINT('',(-93.,-30.5,1.999999));
#318=CARTESIAN_POINT('',(-96.,-30.5,1.999999));
#319=(BOUNDED_CURVE()
B_SPLINE_CURVE(2,(#310,#311,#312,#313,#314,#315,#316,#317,#318),.UNSPECIFIED.,.T.,.F.)
B_SPLINE_CURVE_WITH_KNOTS((3,2,2,2,3),(0.,1.570796327,3.141592654,4.71238898,6.283185307),.UNSPECIFIED.)
CURVE()
GEOMETRIC_REPRESENTATION_ITEM()
RATIONAL_B_SPLINE_CURVE((1.,0.707106781,1.,0.707106781,1.,0.707106781,1.,0.707106781,1.))
REPRESENTATION_ITEM(''));
#320=EDGE_CURVE('',#309,#309,#319,.T.);
#321=ORIENTED_EDGE('',*,*,#320,.F.);
#322=EDGE_LOOP('',(#321));
#323=FACE_BOUND('',#322,.T.);
#324=CARTESIAN_POINT('',(96.,-30.5,1.999999));
#325=VERTEX_POINT('',#324);
#326=CARTESIAN_POINT('',(96.,-30.5,1.999999));
#327=CARTESIAN_POINT('',(93.,-30.5,1.999999));
#328=CARTESIAN_POINT('',(93.,-33.5,1.999999));
#329=CARTESIAN_POINT('',(93.,-36.5,1.999999));
#330=CARTESIAN_POINT('',(96.,-36.5,1.999999));
#331=CARTESIAN_POINT('',(99.,-36.5,1.999999));
#332=CARTESIAN_POINT('',(99.,-33.5,1.999999));
#333=CARTESIAN_POINT('',(99.,-30.5,1.999999));
#334=CARTESIAN_POINT('',(96.,-30.5,1.999999));
#335=(BOUNDED_CURVE()
B_SPLINE_CURVE(2,(#326,#327,#328,#329,#330,#331,#332,#333,#334),.UNSPECIFIED.,.T.,.F.)
B_SPLINE_CURVE_WITH_KNOTS((3,2,2,2,3),(0.,1.570796327,3.141592654,4.71238898,6.283185307),.UNSPECIFIED.)
CURVE()
GEOMETRIC_REPRESENTATION_ITEM()
RATIONAL_B_SPLINE_CURVE((1.,0.707106781,1.,0.707106781,1.,0.707106781,1.,0.707106781,1.))
REPRESENTATION_ITEM(''));
#336=EDGE_CURVE('',#325,#325,#335,.T.);
#337=ORIENTED_EDGE('',*,*,#336,.F.);
#338=EDGE_LOOP('',(#337));
#339=FACE_BOUND('',#338,.T.);
#340=ORIENTED_EDGE('',*,*,#133,.T.);
#341=ORIENTED_EDGE('',*,*,#109,.T.);
#342=ORIENTED_EDGE('',*,*,#81,.T.);
#343=ORIENTED_EDGE('',*,*,#53,.T.);
#344=EDGE_LOOP('',(#340,#341,#342,#343));
#345=FACE_BOUND('',#344,.T.);
#346=ADVANCED_FACE('',(#291,#307,#323,#339,#345),#275,.T.);
#347=CARTESIAN_POINT('',(96.,-31.9,-0.));
#348=CARTESIAN_POINT('',(96.,-31.9,0.599999));
#349=CARTESIAN_POINT('',(93.228718708,-31.9,-0.));
#350=CARTESIAN_POINT('',(93.228718708,-31.9,0.599999));
#351=CARTESIAN_POINT('',(94.614359354,-34.3,-0.));
#352=CARTESIAN_POINT('',(94.614359354,-34.3,0.599999));
#353=CARTESIAN_POINT('',(96.,-36.7,-0.));
#354=CARTESIAN_POINT('',(96.,-36.7,0.599999));
#355=CARTESIAN_POINT('',(97.385640646,-34.3,-0.));
#356=CARTESIAN_POINT('',(97.385640646,-34.3,0.599999));
#357=CARTESIAN_POINT('',(98.771281292,-31.9,-0.));
#358=CARTESIAN_POINT('',(98.771281292,-31.9,0.599999));
#359=CARTESIAN_POINT('',(96.,-31.9,-0.));
#360=CARTESIAN_POINT('',(96.,-31.9,0.599999));
#361=(BOUNDED_SURFACE()
B_SPLINE_SURFACE(2,1,((#347,#348),(#349,#350),(#351,#352),(#353,#354),(#355,#356),(#357,#358),(#359,#360)),.UNSPECIFIED.,.T.,.F.,.U.)
B_SPLINE_SURFACE_WITH_KNOTS((3,2,2,3),(2,2),(0.,2.094395102,4.188790205,6.283185307),(0.000000011,0.00060001),.UNSPECIFIED.)
GEOMETRIC_REPRESENTATION_ITEM()
RATIONAL_B_SPLINE_SURFACE(((1.,1.),(0.5,0.5),(1.,1.),(0.5,0.5),(1.,1.),(0.5,0.5),(1.,1.)))
REPRESENTATION_ITEM('')
SURFACE()
);
#362=CARTESIAN_POINT('',(96.,-31.9,0.599999));
#363=VERTEX_POINT('',#362);
#364=CARTESIAN_POINT('',(96.,-31.9,0.599999));
#365=CARTESIAN_POINT('',(96.,-31.9,0.));
#366=B_SPLINE_CURVE_WITH_KNOTS('',1,(#364,#365),.UNSPECIFIED.,.F.,.F.,(2,2),(0.000000011,0.00060001),.UNSPECIFIED.);
#367=EDGE_CURVE('',#363,#235,#366,.T.);
#368=ORIENTED_EDGE('',*,*,#367,.F.);
#369=CARTESIAN_POINT('',(96.,-31.9,0.599999));
#370=CARTESIAN_POINT('',(97.6,-31.9,0.599999));
#371=CARTESIAN_POINT('',(97.6,-33.5,0.599999));
#372=CARTESIAN_POINT('',(97.6,-35.1,0.599999));
#373=CARTESIAN_POINT('',(96.,-35.1,0.599999));
#374=CARTESIAN_POINT('',(94.4,-35.1,0.599999));
#375=CARTESIAN_POINT('',(94.4,-33.5,0.599999));
#376=CARTESIAN_POINT('',(94.4,-31.9,0.599999));
#377=CARTESIAN_POINT('',(96.,-31.9,0.599999));
#378=(BOUNDED_CURVE()
B_SPLINE_CURVE(2,(#369,#370,#371,#372,#373,#374,#375,#376,#377),.UNSPECIFIED.,.T.,.F.)
B_SPLINE_CURVE_WITH_KNOTS((3,2,2,2,3),(0.,1.570796327,3.141592654,4.71238898,6.283185307),.UNSPECIFIED.)
CURVE()
GEOMETRIC_REPRESENTATION_ITEM()
RATIONAL_B_SPLINE_CURVE((1.,0.707106781,1.,0.707106781,1.,0.707106781,1.,0.707106781,1.))
REPRESENTATION_ITEM(''));
#379=EDGE_CURVE('',#363,#363,#378,.T.);
#380=ORIENTED_EDGE('',*,*,#379,.F.);
#381=ORIENTED_EDGE('',*,*,#367,.T.);
#382=ORIENTED_EDGE('',*,*,#248,.T.);
#383=ORIENTED_EDGE('',*,*,#260,.T.);
#384=EDGE_LOOP('',(#368,#380,#381,#382,#383));
#385=FACE_BOUND('',#384,.T.);
#386=ADVANCED_FACE('',(#385),#361,.F.);
#387=CARTESIAN_POINT('',(96.,-31.9,0.599999));
#388=CARTESIAN_POINT('',(96.,-30.5,1.999999));
#389=CARTESIAN_POINT('',(93.228718708,-31.9,0.599999));
#390=CARTESIAN_POINT('',(90.803847577,-30.5,1.999999));
#391=CARTESIAN_POINT('',(94.614359354,-34.3,0.599999));
#392=CARTESIAN_POINT('',(93.401923789,-35.,1.999999));
#393=CARTESIAN_POINT('',(96.,-36.7,0.599999));
#394=CARTESIAN_POINT('',(96.,-39.5,1.999999));
#395=CARTESIAN_POINT('',(97.385640646,-34.3,0.599999));
#396=CARTESIAN_POINT('',(98.598076211,-35.,1.999999));
#397=CARTESIAN_POINT('',(98.771281292,-31.9,0.599999));
#398=CARTESIAN_POINT('',(101.196152423,-30.5,1.999999));
#399=CARTESIAN_POINT('',(96.,-31.9,0.599999));
#400=CARTESIAN_POINT('',(96.,-30.5,1.999999));
#401=(BOUNDED_SURFACE()
B_SPLINE_SURFACE(2,1,((#387,#388),(#389,#390),(#391,#392),(#393,#394),(#395,#396),(#397,#398),(#399,#400)),.UNSPECIFIED.,.T.,.F.,.U.)
B_SPLINE_SURFACE_WITH_KNOTS((3,2,2,3),(2,2),(0.,2.094395102,4.188790205,6.283185307),(-0.,0.0014),.UNSPECIFIED.)
GEOMETRIC_REPRESENTATION_ITEM()
RATIONAL_B_SPLINE_SURFACE(((1.,1.),(0.5,0.5),(1.,1.),(0.5,0.5),(1.,1.),(0.5,0.5),(1.,1.)))
REPRESENTATION_ITEM('')
SURFACE()
);
#402=CARTESIAN_POINT('',(96.,-30.5,1.999999));
#403=CARTESIAN_POINT('',(96.,-31.9,0.599999));
#404=B_SPLINE_CURVE_WITH_KNOTS('',1,(#402,#403),.UNSPECIFIED.,.F.,.F.,(2,2),(0.,0.0014),.UNSPECIFIED.);
#405=EDGE_CURVE('',#325,#363,#404,.T.);
#406=ORIENTED_EDGE('',*,*,#405,.F.);
#407=ORIENTED_EDGE('',*,*,#336,.T.);
#408=ORIENTED_EDGE('',*,*,#405,.T.);
#409=ORIENTED_EDGE('',*,*,#379,.T.);
#410=EDGE_LOOP('',(#406,#407,#408,#409));
#411=FACE_BOUND('',#410,.T.);
#412=ADVANCED_FACE('',(#411),#401,.F.);
#413=CARTESIAN_POINT('',(-96.,-31.9,-0.));
#414=CARTESIAN_POINT('',(-96.,-31.9,0.599999));
#415=CARTESIAN_POINT('',(-98.771281292,-31.9,-0.));
#416=CARTESIAN_POINT('',(-98.771281292,-31.9,0.599999));
#417=CARTESIAN_POINT('',(-97.385640646,-34.3,-0.));
#418=CARTESIAN_POINT('',(-97.385640646,-34.3,0.599999));
#419=CARTESIAN_POINT('',(-96.,-36.7,-0.));
#420=CARTESIAN_POINT('',(-96.,-36.7,0.599999));
#421=CARTESIAN_POINT('',(-94.614359354,-34.3,-0.));
#422=CARTESIAN_POINT('',(-94.614359354,-34.3,0.599999));
#423=CARTESIAN_POINT('',(-93.228718708,-31.9,-0.));
#424=CARTESIAN_POINT('',(-93.228718708,-31.9,0.599999));
#425=CARTESIAN_POINT('',(-96.,-31.9,-0.));
#426=CARTESIAN_POINT('',(-96.,-31.9,0.599999));
#427=(BOUNDED_SURFACE()
B_SPLINE_SURFACE(2,1,((#413,#414),(#415,#416),(#417,#418),(#419,#420),(#421,#422),(#423,#424),(#425,#426)),.UNSPECIFIED.,.T.,.F.,.U.)
B_SPLINE_SURFACE_WITH_KNOTS((3,2,2,3),(2,2),(0.,2.094395102,4.188790205,6.283185307),(0.000000011,0.00060001),.UNSPECIFIED.)
GEOMETRIC_REPRESENTATION_ITEM()
RATIONAL_B_SPLINE_SURFACE(((1.,1.),(0.5,0.5),(1.,1.),(0.5,0.5),(1.,1.),(0.5,0.5),(1.,1.)))
REPRESENTATION_ITEM('')
SURFACE()
);
#428=CARTESIAN_POINT('',(-96.,-31.9,0.599999));
#429=VERTEX_POINT('',#428);
#430=CARTESIAN_POINT('',(-96.,-31.9,0.599999));
#431=CARTESIAN_POINT('',(-96.,-31.9,0.));
#432=B_SPLINE_CURVE_WITH_KNOTS('',1,(#430,#431),.UNSPECIFIED.,.F.,.F.,(2,2),(0.000000011,0.00060001),.UNSPECIFIED.);
#433=EDGE_CURVE('',#429,#205,#432,.T.);
#434=ORIENTED_EDGE('',*,*,#433,.F.);
#435=CARTESIAN_POINT('',(-96.,-31.9,0.599999));
#436=CARTESIAN_POINT('',(-94.4,-31.9,0.599999));
#437=CARTESIAN_POINT('',(-94.4,-33.5,0.599999));
#438=CARTESIAN_POINT('',(-94.4,-35.1,0.599999));
#439=CARTESIAN_POINT('',(-96.,-35.1,0.599999));
#440=CARTESIAN_POINT('',(-97.6,-35.1,0.599999));
#441=CARTESIAN_POINT('',(-97.6,-33.5,0.599999));
#442=CARTESIAN_POINT('',(-97.6,-31.9,0.599999));
#443=CARTESIAN_POINT('',(-96.,-31.9,0.599999));
#444=(BOUNDED_CURVE()
B_SPLINE_CURVE(2,(#435,#436,#437,#438,#439,#440,#441,#442,#443),.UNSPECIFIED.,.T.,.F.)
B_SPLINE_CURVE_WITH_KNOTS((3,2,2,2,3),(0.,1.570796327,3.141592654,4.71238898,6.283185307),.UNSPECIFIED.)
CURVE()
GEOMETRIC_REPRESENTATION_ITEM()
RATIONAL_B_SPLINE_CURVE((1.,0.707106781,1.,0.707106781,1.,0.707106781,1.,0.707106781,1.))
REPRESENTATION_ITEM(''));
#445=EDGE_CURVE('',#429,#429,#444,.T.);
#446=ORIENTED_EDGE('',*,*,#445,.F.);
#447=ORIENTED_EDGE('',*,*,#433,.T.);
#448=ORIENTED_EDGE('',*,*,#218,.T.);
#449=ORIENTED_EDGE('',*,*,#230,.T.);
#450=EDGE_LOOP('',(#434,#446,#447,#448,#449));
#451=FACE_BOUND('',#450,.T.);
#452=ADVANCED_FACE('',(#451),#427,.F.);
#453=CARTESIAN_POINT('',(-96.,-31.9,0.599999));
#454=CARTESIAN_POINT('',(-96.,-30.5,1.999999));
#455=CARTESIAN_POINT('',(-98.771281292,-31.9,0.599999));
#456=CARTESIAN_POINT('',(-101.196152423,-30.5,1.999999));
#457=CARTESIAN_POINT('',(-97.385640646,-34.3,0.599999));
#458=CARTESIAN_POINT('',(-98.598076211,-35.,1.999999));
#459=CARTESIAN_POINT('',(-96.,-36.7,0.599999));
#460=CARTESIAN_POINT('',(-96.,-39.5,1.999999));
#461=CARTESIAN_POINT('',(-94.614359354,-34.3,0.599999));
#462=CARTESIAN_POINT('',(-93.401923789,-35.,1.999999));
#463=CARTESIAN_POINT('',(-93.228718708,-31.9,0.599999));
#464=CARTESIAN_POINT('',(-90.803847577,-30.5,1.999999));
#465=CARTESIAN_POINT('',(-96.,-31.9,0.599999));
#466=CARTESIAN_POINT('',(-96.,-30.5,1.999999));
#467=(BOUNDED_SURFACE()
B_SPLINE_SURFACE(2,1,((#453,#454),(#455,#456),(#457,#458),(#459,#460),(#461,#462),(#463,#464),(#465,#466)),.UNSPECIFIED.,.T.,.F.,.U.)
B_SPLINE_SURFACE_WITH_KNOTS((3,2,2,3),(2,2),(0.,2.094395102,4.188790205,6.283185307),(-0.,0.0014),.UNSPECIFIED.)
GEOMETRIC_REPRESENTATION_ITEM()
RATIONAL_B_SPLINE_SURFACE(((1.,1.),(0.5,0.5),(1.,1.),(0.5,0.5),(1.,1.),(0.5,0.5),(1.,1.)))
REPRESENTATION_ITEM('')
SURFACE()
);
#468=CARTESIAN_POINT('',(-96.,-30.5,1.999999));
#469=CARTESIAN_POINT('',(-96.,-31.9,0.599999));
#470=B_SPLINE_CURVE_WITH_KNOTS('',1,(#468,#469),.UNSPECIFIED.,.F.,.F.,(2,2),(0.,0.0014),.UNSPECIFIED.);
#471=EDGE_CURVE('',#309,#429,#470,.T.);
#472=ORIENTED_EDGE('',*,*,#471,.F.);
#473=ORIENTED_EDGE('',*,*,#320,.T.);
#474=ORIENTED_EDGE('',*,*,#471,.T.);
#475=ORIENTED_EDGE('',*,*,#445,.T.);
#476=EDGE_LOOP('',(#472,#473,#474,#475));
#477=FACE_BOUND('',#476,.T.);
#478=ADVANCED_FACE('',(#477),#467,.F.);
#479=CARTESIAN_POINT('',(-96.,35.1,-0.));
#480=CARTESIAN_POINT('',(-96.,35.1,0.599999));
#481=CARTESIAN_POINT('',(-98.771281292,35.1,-0.));
#482=CARTESIAN_POINT('',(-98.771281292,35.1,0.599999));
#483=CARTESIAN_POINT('',(-97.385640646,32.7,-0.));
#484=CARTESIAN_POINT('',(-97.385640646,32.7,0.599999));
#485=CARTESIAN_POINT('',(-96.,30.3,-0.));
#486=CARTESIAN_POINT('',(-96.,30.3,0.599999));
#487=CARTESIAN_POINT('',(-94.614359354,32.7,-0.));
#488=CARTESIAN_POINT('',(-94.614359354,32.7,0.599999));
#489=CARTESIAN_POINT('',(-93.228718708,35.1,-0.));
#490=CARTESIAN_POINT('',(-93.228718708,35.1,0.599999));
#491=CARTESIAN_POINT('',(-96.,35.1,-0.));
#492=CARTESIAN_POINT('',(-96.,35.1,0.599999));
#493=(BOUNDED_SURFACE()
B_SPLINE_SURFACE(2,1,((#479,#480),(#481,#482),(#483,#484),(#485,#486),(#487,#488),(#489,#490),(#491,#492)),.UNSPECIFIED.,.T.,.F.,.U.)
B_SPLINE_SURFACE_WITH_KNOTS((3,2,2,3),(2,2),(0.,2.094395102,4.188790205,6.283185307),(0.000000011,0.00060001),.UNSPECIFIED.)
GEOMETRIC_REPRESENTATION_ITEM()
RATIONAL_B_SPLINE_SURFACE(((1.,1.),(0.5,0.5),(1.,1.),(0.5,0.5),(1.,1.),(0.5,0.5),(1.,1.)))
REPRESENTATION_ITEM('')
SURFACE()
);
#494=CARTESIAN_POINT('',(-96.,35.1,0.599999));
#495=VERTEX_POINT('',#494);
#496=CARTESIAN_POINT('',(-96.,35.1,0.599999));
#497=CARTESIAN_POINT('',(-96.,35.1,0.));
#498=B_SPLINE_CURVE_WITH_KNOTS('',1,(#496,#497),.UNSPECIFIED.,.F.,.F.,(2,2),(0.000000011,0.00060001),.UNSPECIFIED.);
#499=EDGE_CURVE('',#495,#175,#498,.T.);
#500=ORIENTED_EDGE('',*,*,#499,.F.);
#501=CARTESIAN_POINT('',(-96.,35.1,0.599999));
#502=CARTESIAN_POINT('',(-94.4,35.1,0.599999));
#503=CARTESIAN_POINT('',(-94.4,33.5,0.599999));
#504=CARTESIAN_POINT('',(-94.4,31.9,0.599999));
#505=CARTESIAN_POINT('',(-96.,31.9,0.599999));
#506=CARTESIAN_POINT('',(-97.6,31.9,0.599999));
#507=CARTESIAN_POINT('',(-97.6,33.5,0.599999));
#508=CARTESIAN_POINT('',(-97.6,35.1,0.599999));
#509=CARTESIAN_POINT('',(-96.,35.1,0.599999));
#510=(BOUNDED_CURVE()
B_SPLINE_CURVE(2,(#501,#502,#503,#504,#505,#506,#507,#508,#509),.UNSPECIFIED.,.T.,.F.)
B_SPLINE_CURVE_WITH_KNOTS((3,2,2,2,3),(0.,1.570796327,3.141592654,4.71238898,6.283185307),.UNSPECIFIED.)
CURVE()
GEOMETRIC_REPRESENTATION_ITEM()
RATIONAL_B_SPLINE_CURVE((1.,0.707106781,1.,0.707106781,1.,0.707106781,1.,0.707106781,1.))
REPRESENTATION_ITEM(''));
#511=EDGE_CURVE('',#495,#495,#510,.T.);
#512=ORIENTED_EDGE('',*,*,#511,.F.);
#513=ORIENTED_EDGE('',*,*,#499,.T.);
#514=ORIENTED_EDGE('',*,*,#188,.T.);
#515=ORIENTED_EDGE('',*,*,#200,.T.);
#516=EDGE_LOOP('',(#500,#512,#513,#514,#515));
#517=FACE_BOUND('',#516,.T.);
#518=ADVANCED_FACE('',(#517),#493,.F.);
#519=CARTESIAN_POINT('',(-96.,35.1,0.599999));
#520=CARTESIAN_POINT('',(-96.,36.5,1.999999));
#521=CARTESIAN_POINT('',(-98.771281292,35.1,0.599999));
#522=CARTESIAN_POINT('',(-101.196152423,36.5,1.999999));
#523=CARTESIAN_POINT('',(-97.385640646,32.7,0.599999));
#524=CARTESIAN_POINT('',(-98.598076211,32.,1.999999));
#525=CARTESIAN_POINT('',(-96.,30.3,0.599999));
#526=CARTESIAN_POINT('',(-96.,27.5,1.999999));
#527=CARTESIAN_POINT('',(-94.614359354,32.7,0.599999));
#528=CARTESIAN_POINT('',(-93.401923789,32.,1.999999));
#529=CARTESIAN_POINT('',(-93.228718708,35.1,0.599999));
#530=CARTESIAN_POINT('',(-90.803847577,36.5,1.999999));
#531=CARTESIAN_POINT('',(-96.,35.1,0.599999));
#532=CARTESIAN_POINT('',(-96.,36.5,1.999999));
#533=(BOUNDED_SURFACE()
B_SPLINE_SURFACE(2,1,((#519,#520),(#521,#522),(#523,#524),(#525,#526),(#527,#528),(#529,#530),(#531,#532)),.UNSPECIFIED.,.T.,.F.,.U.)
B_SPLINE_SURFACE_WITH_KNOTS((3,2,2,3),(2,2),(0.,2.094395102,4.188790205,6.283185307),(-0.,0.0014),.UNSPECIFIED.)
GEOMETRIC_REPRESENTATION_ITEM()
RATIONAL_B_SPLINE_SURFACE(((1.,1.),(0.5,0.5),(1.,1.),(0.5,0.5),(1.,1.),(0.5,0.5),(1.,1.)))
REPRESENTATION_ITEM('')
SURFACE()
);
#534=CARTESIAN_POINT('',(-96.,36.5,1.999999));
#535=CARTESIAN_POINT('',(-96.,35.1,0.599999));
#536=B_SPLINE_CURVE_WITH_KNOTS('',1,(#534,#535),.UNSPECIFIED.,.F.,.F.,(2,2),(-0.,0.0014),.UNSPECIFIED.);
#537=EDGE_CURVE('',#293,#495,#536,.T.);
#538=ORIENTED_EDGE('',*,*,#537,.F.);
#539=ORIENTED_EDGE('',*,*,#304,.T.);
#540=ORIENTED_EDGE('',*,*,#537,.T.);
#541=ORIENTED_EDGE('',*,*,#511,.T.);
#542=EDGE_LOOP('',(#538,#539,#540,#541));
#543=FACE_BOUND('',#542,.T.);
#544=ADVANCED_FACE('',(#543),#533,.F.);
#545=CARTESIAN_POINT('',(96.,35.1,-0.));
#546=CARTESIAN_POINT('',(96.,35.1,0.599999));
#547=CARTESIAN_POINT('',(93.228718708,35.1,-0.));
#548=CARTESIAN_POINT('',(93.228718708,35.1,0.599999));
#549=CARTESIAN_POINT('',(94.614359354,32.7,-0.));
#550=CARTESIAN_POINT('',(94.614359354,32.7,0.599999));
#551=CARTESIAN_POINT('',(96.,30.3,-0.));
#552=CARTESIAN_POINT('',(96.,30.3,0.599999));
#553=CARTESIAN_POINT('',(97.385640646,32.7,-0.));
#554=CARTESIAN_POINT('',(97.385640646,32.7,0.599999));
#555=CARTESIAN_POINT('',(98.771281292,35.1,-0.));
#556=CARTESIAN_POINT('',(98.771281292,35.1,0.599999));
#557=CARTESIAN_POINT('',(96.,35.1,-0.));
#558=CARTESIAN_POINT('',(96.,35.1,0.599999));
#559=(BOUNDED_SURFACE()
B_SPLINE_SURFACE(2,1,((#545,#546),(#547,#548),(#549,#550),(#551,#552),(#553,#554),(#555,#556),(#557,#558)),.UNSPECIFIED.,.T.,.F.,.U.)
B_SPLINE_SURFACE_WITH_KNOTS((3,2,2,3),(2,2),(0.,2.094395102,4.188790205,6.283185307),(0.000000011,0.00060001),.UNSPECIFIED.)
GEOMETRIC_REPRESENTATION_ITEM()
RATIONAL_B_SPLINE_SURFACE(((1.,1.),(0.5,0.5),(1.,1.),(0.5,0.5),(1.,1.),(0.5,0.5),(1.,1.)))
REPRESENTATION_ITEM('')
SURFACE()
);
#560=CARTESIAN_POINT('',(96.,35.1,0.599999));
#561=VERTEX_POINT('',#560);
#562=CARTESIAN_POINT('',(96.,35.1,0.599999));
#563=CARTESIAN_POINT('',(96.,35.1,0.));
#564=B_SPLINE_CURVE_WITH_KNOTS('',1,(#562,#563),.UNSPECIFIED.,.F.,.F.,(2,2),(0.000000011,0.00060001),.UNSPECIFIED.);
#565=EDGE_CURVE('',#561,#145,#564,.T.);
#566=ORIENTED_EDGE('',*,*,#565,.F.);
#567=CARTESIAN_POINT('',(96.,35.1,0.599999));
#568=CARTESIAN_POINT('',(97.6,35.1,0.599999));
#569=CARTESIAN_POINT('',(97.6,33.5,0.599999));
#570=CARTESIAN_POINT('',(97.6,31.9,0.599999));
#571=CARTESIAN_POINT('',(96.,31.9,0.599999));
#572=CARTESIAN_POINT('',(94.4,31.9,0.599999));
#573=CARTESIAN_POINT('',(94.4,33.5,0.599999));
#574=CARTESIAN_POINT('',(94.4,35.1,0.599999));
#575=CARTESIAN_POINT('',(96.,35.1,0.599999));
#576=(BOUNDED_CURVE()
B_SPLINE_CURVE(2,(#567,#568,#569,#570,#571,#572,#573,#574,#575),.UNSPECIFIED.,.T.,.F.)
B_SPLINE_CURVE_WITH_KNOTS((3,2,2,2,3),(0.,1.570796327,3.141592654,4.71238898,6.283185307),.UNSPECIFIED.)
CURVE()
GEOMETRIC_REPRESENTATION_ITEM()
RATIONAL_B_SPLINE_CURVE((1.,0.707106781,1.,0.707106781,1.,0.707106781,1.,0.707106781,1.))
REPRESENTATION_ITEM(''));
#577=EDGE_CURVE('',#561,#561,#576,.T.);
#578=ORIENTED_EDGE('',*,*,#577,.F.);
#579=ORIENTED_EDGE('',*,*,#565,.T.);
#580=ORIENTED_EDGE('',*,*,#158,.T.);
#581=ORIENTED_EDGE('',*,*,#170,.T.);
#582=EDGE_LOOP('',(#566,#578,#579,#580,#581));
#583=FACE_BOUND('',#582,.T.);
#584=ADVANCED_FACE('',(#583),#559,.F.);
#585=CARTESIAN_POINT('',(96.,35.1,0.599999));
#586=CARTESIAN_POINT('',(96.,36.5,1.999999));
#587=CARTESIAN_POINT('',(93.228718708,35.1,0.599999));
#588=CARTESIAN_POINT('',(90.803847577,36.5,1.999999));
#589=CARTESIAN_POINT('',(94.614359354,32.7,0.599999));
#590=CARTESIAN_POINT('',(93.401923789,32.,1.999999));
#591=CARTESIAN_POINT('',(96.,30.3,0.599999));
#592=CARTESIAN_POINT('',(96.,27.5,1.999999));
#593=CARTESIAN_POINT('',(97.385640646,32.7,0.599999));
#594=CARTESIAN_POINT('',(98.598076211,32.,1.999999));
#595=CARTESIAN_POINT('',(98.771281292,35.1,0.599999));
#596=CARTESIAN_POINT('',(101.196152423,36.5,1.999999));
#597=CARTESIAN_POINT('',(96.,35.1,0.599999));
#598=CARTESIAN_POINT('',(96.,36.5,1.999999));
#599=(BOUNDED_SURFACE()
B_SPLINE_SURFACE(2,1,((#585,#586),(#587,#588),(#589,#590),(#591,#592),(#593,#594),(#595,#596),(#597,#598)),.UNSPECIFIED.,.T.,.F.,.U.)
B_SPLINE_SURFACE_WITH_KNOTS((3,2,2,3),(2,2),(0.,2.094395102,4.188790205,6.283185307),(-0.,0.0014),.UNSPECIFIED.)
GEOMETRIC_REPRESENTATION_ITEM()
RATIONAL_B_SPLINE_SURFACE(((1.,1.),(0.5,0.5),(1.,1.),(0.5,0.5),(1.,1.),(0.5,0.5),(1.,1.)))
REPRESENTATION_ITEM('')
SURFACE()
);
#600=CARTESIAN_POINT('',(96.,36.5,1.999999));
#601=CARTESIAN_POINT('',(96.,35.1,0.599999));
#602=B_SPLINE_CURVE_WITH_KNOTS('',1,(#600,#601),.UNSPECIFIED.,.F.,.F.,(2,2),(-0.,0.0014),.UNSPECIFIED.);
#603=EDGE_CURVE('',#277,#561,#602,.T.);
#604=ORIENTED_EDGE('',*,*,#603,.F.);
#605=ORIENTED_EDGE('',*,*,#288,.T.);
#606=ORIENTED_EDGE('',*,*,#603,.T.);
#607=ORIENTED_EDGE('',*,*,#577,.T.);
#608=EDGE_LOOP('',(#604,#605,#606,#607));
#609=FACE_BOUND('',#608,.T.);
#610=ADVANCED_FACE('',(#609),#599,.F.);
#611=CLOSED_SHELL('',(#62,#90,#118,#138,#270,#346,#386,#412,#452,#478,#518,#544,#584,#610));
#612=MANIFOLD_SOLID_BREP('\X2\04220435043B043E\X0\_1:1',#611);
#613=COLOUR_RGB('',0.768627465,0.768627465,0.768627465);
#614=FILL_AREA_STYLE_COLOUR('',#613);
#615=FILL_AREA_STYLE('',(#614));
#616=SURFACE_STYLE_FILL_AREA(#615);
#617=SURFACE_SIDE_STYLE('',(#616));
#618=SURFACE_STYLE_USAGE(.BOTH.,#617);
#619=PRESENTATION_STYLE_ASSIGNMENT((#618));
#26=STYLED_ITEM('',(#619),#612);
#620=(NAMED_UNIT(*)PLANE_ANGLE_UNIT()SI_UNIT($,.RADIAN.));
#621=PLANE_ANGLE_MEASURE_WITH_UNIT(PLANE_ANGLE_MEASURE(0.0174532925),#620);
#622=(CONVERSION_BASED_UNIT('DEGREE',#621)NAMED_UNIT(#623)PLANE_ANGLE_UNIT());
#623=DIMENSIONAL_EXPONENTS(0.,0.,0.,0.,0.,0.,0.);
#624=(NAMED_UNIT(*)SI_UNIT($,.STERADIAN.)SOLID_ANGLE_UNIT());
#625=(LENGTH_UNIT()NAMED_UNIT(*)SI_UNIT(.MILLI.,.METRE.));
#626=UNCERTAINTY_MEASURE_WITH_UNIT(LENGTH_MEASURE(1.000000E-03),#625,'DISTANCE_ACCURACY_VALUE','Maximum Tolerance applied to model');
#627=(GEOMETRIC_REPRESENTATION_CONTEXT(3)GLOBAL_UNCERTAINTY_ASSIGNED_CONTEXT((#626))GLOBAL_UNIT_ASSIGNED_CONTEXT((#625,#622,#624))REPRESENTATION_CONTEXT('','0'));
#629=CARTESIAN_POINT('',(0.,0.,0.));
#630=DIRECTION('',(0.,0.,1.));
#631=DIRECTION('',(1.,0.,0.));
#632=AXIS2_PLACEMENT_3D('',#629,#630,#631);
#643=CARTESIAN_POINT('',(0.,0.,0.));
#644=DIRECTION('',(0.,0.,1.));
#645=DIRECTION('',(1.,0.,-0.));
#646=AXIS2_PLACEMENT_3D('',#643,#644,#645);
#647=ITEM_DEFINED_TRANSFORMATION('','',#646,#632);
#648=(REPRESENTATION_RELATIONSHIP('','',#633,#16)REPRESENTATION_RELATIONSHIP_WITH_TRANSFORMATION(#647)SHAPE_REPRESENTATION_RELATIONSHIP());
#649=NEXT_ASSEMBLY_USAGE_OCCURRENCE('Nodes_1','Nodes','Nodes',#25,#642,$);
#650=PRODUCT_DEFINITION_SHAPE('','',#649);
#651=CONTEXT_DEPENDENT_SHAPE_REPRESENTATION(#648,#650);
#652=(NAMED_UNIT(*)PLANE_ANGLE_UNIT()SI_UNIT($,.RADIAN.));
#653=PLANE_ANGLE_MEASURE_WITH_UNIT(PLANE_ANGLE_MEASURE(0.0174532925),#652);
#654=(CONVERSION_BASED_UNIT('DEGREE',#653)NAMED_UNIT(#655)PLANE_ANGLE_UNIT());
#655=DIMENSIONAL_EXPONENTS(0.,0.,0.,0.,0.,0.,0.);
#656=(NAMED_UNIT(*)SI_UNIT($,.STERADIAN.)SOLID_ANGLE_UNIT());
#657=(LENGTH_UNIT()NAMED_UNIT(*)SI_UNIT(.MILLI.,.METRE.));
#658=UNCERTAINTY_MEASURE_WITH_UNIT(LENGTH_MEASURE(1.000000E-03),#657,'DISTANCE_ACCURACY_VALUE','Maximum Tolerance applied to model');
#659=(GEOMETRIC_REPRESENTATION_CONTEXT(3)GLOBAL_UNCERTAINTY_ASSIGNED_CONTEXT((#658))GLOBAL_UNIT_ASSIGNED_CONTEXT((#657,#654,#656))REPRESENTATION_CONTEXT('','3D \X2\042304370435043B\X0\_1'));
#661=CARTESIAN_POINT('',(0.,0.,0.));
#662=DIRECTION('',(0.,0.,1.));
#663=DIRECTION('',(1.,0.,0.));
#664=AXIS2_PLACEMENT_3D('',#661,#662,#663);
#675=CARTESIAN_POINT('',(0.,0.,0.));
#676=DIRECTION('',(0.,0.,1.));
#677=DIRECTION('',(1.,0.,-0.));
#678=AXIS2_PLACEMENT_3D('',#675,#676,#677);
#679=ITEM_DEFINED_TRANSFORMATION('','',#678,#664);
#680=(REPRESENTATION_RELATIONSHIP('','',#665,#633)REPRESENTATION_RELATIONSHIP_WITH_TRANSFORMATION(#679)SHAPE_REPRESENTATION_RELATIONSHIP());
#681=NEXT_ASSEMBLY_USAGE_OCCURRENCE('3D \X2\042304370435043B\X0\_1_2','3D \X2\042304370435043B\X0\_1','3D \X2\042304370435043B\X0\_1',#642,#674,$);
#682=PRODUCT_DEFINITION_SHAPE('','',#681);
#683=CONTEXT_DEPENDENT_SHAPE_REPRESENTATION(#680,#682);
#684=CARTESIAN_POINT('',(96.,33.5,2.));
#685=GEOMETRIC_CURVE_SET('',(#684));
#665=SHAPE_REPRESENTATION('3D \X2\042304370435043B\X0\_1',(#664),#659);
#667=GEOMETRICALLY_BOUNDED_WIREFRAME_SHAPE_REPRESENTATION('3D \X2\042304370435043B\X0\_1',(#685),#659);
#693=SHAPE_REPRESENTATION_RELATIONSHIP('','',#665,#667);
#694=APPLICATION_CONTEXT('data for automotive mechanical design processes');
#695=APPLICATION_PROTOCOL_DEFINITION('international standard','automotive_design',1994,#694);
#696=PRODUCT_CONTEXT('',#694,'mechanical');
#697=PRODUCT_DEFINITION_CONTEXT('part definition',#694,'design');
#673=PRODUCT('3D \X2\042304370435043B\X0\_1','3D \X2\042304370435043B\X0\_1','',(#696));
#698=PRODUCT_RELATED_PRODUCT_CATEGORY('part','',(#673));
#699=PRODUCT_DEFINITION_FORMATION_WITH_SPECIFIED_SOURCE('','',#673,.NOT_KNOWN.);
#674=PRODUCT_DEFINITION('design','',#699,#697);
#672=PRODUCT_DEFINITION_SHAPE('','',#674);
#700=SHAPE_DEFINITION_REPRESENTATION(#672,#665);
#660=DRAUGHTING_MODEL('',(),#659);
#701=(NAMED_UNIT(*)PLANE_ANGLE_UNIT()SI_UNIT($,.RADIAN.));
#702=PLANE_ANGLE_MEASURE_WITH_UNIT(PLANE_ANGLE_MEASURE(0.0174532925),#701);
#703=(CONVERSION_BASED_UNIT('DEGREE',#702)NAMED_UNIT(#704)PLANE_ANGLE_UNIT());
#704=DIMENSIONAL_EXPONENTS(0.,0.,0.,0.,0.,0.,0.);
#705=(NAMED_UNIT(*)SI_UNIT($,.STERADIAN.)SOLID_ANGLE_UNIT());
#706=(LENGTH_UNIT()NAMED_UNIT(*)SI_UNIT(.MILLI.,.METRE.));
#707=UNCERTAINTY_MEASURE_WITH_UNIT(LENGTH_MEASURE(1.000000E-03),#706,'DISTANCE_ACCURACY_VALUE','Maximum Tolerance applied to model');
#708=(GEOMETRIC_REPRESENTATION_CONTEXT(3)GLOBAL_UNCERTAINTY_ASSIGNED_CONTEXT((#707))GLOBAL_UNIT_ASSIGNED_CONTEXT((#706,#703,#705))REPRESENTATION_CONTEXT('','3D \X2\042304370435043B\X0\_2'));
#710=CARTESIAN_POINT('',(0.,0.,0.));
#711=DIRECTION('',(0.,0.,1.));
#712=DIRECTION('',(1.,0.,0.));
#713=AXIS2_PLACEMENT_3D('',#710,#711,#712);
#724=CARTESIAN_POINT('',(0.,0.,0.));
#725=DIRECTION('',(0.,0.,1.));
#726=DIRECTION('',(1.,0.,-0.));
#727=AXIS2_PLACEMENT_3D('',#724,#725,#726);
#728=ITEM_DEFINED_TRANSFORMATION('','',#727,#713);
#729=(REPRESENTATION_RELATIONSHIP('','',#714,#633)REPRESENTATION_RELATIONSHIP_WITH_TRANSFORMATION(#728)SHAPE_REPRESENTATION_RELATIONSHIP());
#730=NEXT_ASSEMBLY_USAGE_OCCURRENCE('3D \X2\042304370435043B\X0\_2_3','3D \X2\042304370435043B\X0\_2','3D \X2\042304370435043B\X0\_2',#642,#723,$);
#731=PRODUCT_DEFINITION_SHAPE('','',#730);
#732=CONTEXT_DEPENDENT_SHAPE_REPRESENTATION(#729,#731);
#733=CARTESIAN_POINT('',(96.,-33.5,2.));
#734=GEOMETRIC_CURVE_SET('',(#733));
#714=SHAPE_REPRESENTATION('3D \X2\042304370435043B\X0\_2',(#713),#708);
#716=GEOMETRICALLY_BOUNDED_WIREFRAME_SHAPE_REPRESENTATION('3D \X2\042304370435043B\X0\_2',(#734),#708);
#742=SHAPE_REPRESENTATION_RELATIONSHIP('','',#714,#716);
#722=PRODUCT('3D \X2\042304370435043B\X0\_2','3D \X2\042304370435043B\X0\_2','',(#696));
#743=PRODUCT_RELATED_PRODUCT_CATEGORY('part','',(#722));
#744=PRODUCT_DEFINITION_FORMATION_WITH_SPECIFIED_SOURCE('','',#722,.NOT_KNOWN.);
#723=PRODUCT_DEFINITION('design','',#744,#697);
#721=PRODUCT_DEFINITION_SHAPE('','',#723);
#745=SHAPE_DEFINITION_REPRESENTATION(#721,#714);
#709=DRAUGHTING_MODEL('',(),#708);
#746=(NAMED_UNIT(*)PLANE_ANGLE_UNIT()SI_UNIT($,.RADIAN.));
#747=PLANE_ANGLE_MEASURE_WITH_UNIT(PLANE_ANGLE_MEASURE(0.0174532925),#746);
#748=(CONVERSION_BASED_UNIT('DEGREE',#747)NAMED_UNIT(#749)PLANE_ANGLE_UNIT());
#749=DIMENSIONAL_EXPONENTS(0.,0.,0.,0.,0.,0.,0.);
#750=(NAMED_UNIT(*)SI_UNIT($,.STERADIAN.)SOLID_ANGLE_UNIT());
#751=(LENGTH_UNIT()NAMED_UNIT(*)SI_UNIT(.MILLI.,.METRE.));
#752=UNCERTAINTY_MEASURE_WITH_UNIT(LENGTH_MEASURE(1.000000E-03),#751,'DISTANCE_ACCURACY_VALUE','Maximum Tolerance applied to model');
#753=(GEOMETRIC_REPRESENTATION_CONTEXT(3)GLOBAL_UNCERTAINTY_ASSIGNED_CONTEXT((#752))GLOBAL_UNIT_ASSIGNED_CONTEXT((#751,#748,#750))REPRESENTATION_CONTEXT('','3D \X2\042304370435043B\X0\_3'));
#755=CARTESIAN_POINT('',(0.,0.,0.));
#756=DIRECTION('',(0.,0.,1.));
#757=DIRECTION('',(1.,0.,0.));
#758=AXIS2_PLACEMENT_3D('',#755,#756,#757);
#769=CARTESIAN_POINT('',(0.,0.,0.));
#770=DIRECTION('',(0.,0.,1.));
#771=DIRECTION('',(1.,0.,-0.));
#772=AXIS2_PLACEMENT_3D('',#769,#770,#771);
#773=ITEM_DEFINED_TRANSFORMATION('','',#772,#758);
#774=(REPRESENTATION_RELATIONSHIP('','',#759,#633)REPRESENTATION_RELATIONSHIP_WITH_TRANSFORMATION(#773)SHAPE_REPRESENTATION_RELATIONSHIP());
#775=NEXT_ASSEMBLY_USAGE_OCCURRENCE('3D \X2\042304370435043B\X0\_3_4','3D \X2\042304370435043B\X0\_3','3D \X2\042304370435043B\X0\_3',#642,#768,$);
#776=PRODUCT_DEFINITION_SHAPE('','',#775);
#777=CONTEXT_DEPENDENT_SHAPE_REPRESENTATION(#774,#776);
#778=CARTESIAN_POINT('',(-96.,-33.5,2.));
#779=GEOMETRIC_CURVE_SET('',(#778));
#759=SHAPE_REPRESENTATION('3D \X2\042304370435043B\X0\_3',(#758),#753);
#761=GEOMETRICALLY_BOUNDED_WIREFRAME_SHAPE_REPRESENTATION('3D \X2\042304370435043B\X0\_3',(#779),#753);
#787=SHAPE_REPRESENTATION_RELATIONSHIP('','',#759,#761);
#767=PRODUCT('3D \X2\042304370435043B\X0\_3','3D \X2\042304370435043B\X0\_3','',(#696));
#788=PRODUCT_RELATED_PRODUCT_CATEGORY('part','',(#767));
#789=PRODUCT_DEFINITION_FORMATION_WITH_SPECIFIED_SOURCE('','',#767,.NOT_KNOWN.);
#768=PRODUCT_DEFINITION('design','',#789,#697);
#766=PRODUCT_DEFINITION_SHAPE('','',#768);
#790=SHAPE_DEFINITION_REPRESENTATION(#766,#759);
#754=DRAUGHTING_MODEL('',(),#753);
#791=(NAMED_UNIT(*)PLANE_ANGLE_UNIT()SI_UNIT($,.RADIAN.));
#792=PLANE_ANGLE_MEASURE_WITH_UNIT(PLANE_ANGLE_MEASURE(0.0174532925),#791);
#793=(CONVERSION_BASED_UNIT('DEGREE',#792)NAMED_UNIT(#794)PLANE_ANGLE_UNIT());
#794=DIMENSIONAL_EXPONENTS(0.,0.,0.,0.,0.,0.,0.);
#795=(NAMED_UNIT(*)SI_UNIT($,.STERADIAN.)SOLID_ANGLE_UNIT());
#796=(LENGTH_UNIT()NAMED_UNIT(*)SI_UNIT(.MILLI.,.METRE.));
#797=UNCERTAINTY_MEASURE_WITH_UNIT(LENGTH_MEASURE(1.000000E-03),#796,'DISTANCE_ACCURACY_VALUE','Maximum Tolerance applied to model');
#798=(GEOMETRIC_REPRESENTATION_CONTEXT(3)GLOBAL_UNCERTAINTY_ASSIGNED_CONTEXT((#797))GLOBAL_UNIT_ASSIGNED_CONTEXT((#796,#793,#795))REPRESENTATION_CONTEXT('','3D \X2\042304370435043B\X0\_4'));
#800=CARTESIAN_POINT('',(0.,0.,0.));
#801=DIRECTION('',(0.,0.,1.));
#802=DIRECTION('',(1.,0.,0.));
#803=AXIS2_PLACEMENT_3D('',#800,#801,#802);
#814=CARTESIAN_POINT('',(0.,0.,0.));
#815=DIRECTION('',(0.,0.,1.));
#816=DIRECTION('',(1.,0.,-0.));
#817=AXIS2_PLACEMENT_3D('',#814,#815,#816);
#818=ITEM_DEFINED_TRANSFORMATION('','',#817,#803);
#819=(REPRESENTATION_RELATIONSHIP('','',#804,#633)REPRESENTATION_RELATIONSHIP_WITH_TRANSFORMATION(#818)SHAPE_REPRESENTATION_RELATIONSHIP());
#820=NEXT_ASSEMBLY_USAGE_OCCURRENCE('3D \X2\042304370435043B\X0\_4_5','3D \X2\042304370435043B\X0\_4','3D \X2\042304370435043B\X0\_4',#642,#813,$);
#821=PRODUCT_DEFINITION_SHAPE('','',#820);
#822=CONTEXT_DEPENDENT_SHAPE_REPRESENTATION(#819,#821);
#823=CARTESIAN_POINT('',(-96.,33.5,2.));
#824=GEOMETRIC_CURVE_SET('',(#823));
#804=SHAPE_REPRESENTATION('3D \X2\042304370435043B\X0\_4',(#803),#798);
#806=GEOMETRICALLY_BOUNDED_WIREFRAME_SHAPE_REPRESENTATION('3D \X2\042304370435043B\X0\_4',(#824),#798);
#832=SHAPE_REPRESENTATION_RELATIONSHIP('','',#804,#806);
#812=PRODUCT('3D \X2\042304370435043B\X0\_4','3D \X2\042304370435043B\X0\_4','',(#696));
#833=PRODUCT_RELATED_PRODUCT_CATEGORY('part','',(#812));
#834=PRODUCT_DEFINITION_FORMATION_WITH_SPECIFIED_SOURCE('','',#812,.NOT_KNOWN.);
#813=PRODUCT_DEFINITION('design','',#834,#697);
#811=PRODUCT_DEFINITION_SHAPE('','',#813);
#835=SHAPE_DEFINITION_REPRESENTATION(#811,#804);
#799=DRAUGHTING_MODEL('',(),#798);
#633=SHAPE_REPRESENTATION('Nodes',(#632,#678,#727,#772,#817),#627);
#641=PRODUCT('0','0','',(#696));
#836=PRODUCT_RELATED_PRODUCT_CATEGORY('part','',(#641));
#837=PRODUCT_DEFINITION_FORMATION_WITH_SPECIFIED_SOURCE('','',#641,.NOT_KNOWN.);
#642=PRODUCT_DEFINITION('design','',#837,#697);
#640=PRODUCT_DEFINITION_SHAPE('','',#642);
#838=SHAPE_DEFINITION_REPRESENTATION(#640,#633);
#628=DRAUGHTING_MODEL('',(),#627);
#16=SHAPE_REPRESENTATION('\X2\041A0440044B0448043A0430\X0\ \X2\043A043E0440043F044304410430\X0\',(#15,#646),#10);
#17=ADVANCED_BREP_SHAPE_REPRESENTATION('\X2\041A0440044B0448043A0430\X0\ \X2\043A043E0440043F044304410430\X0\',(#612),#10);
#846=SHAPE_REPRESENTATION_RELATIONSHIP('','',#16,#17);
#24=PRODUCT('\X2\041A0440044B0448043A0430\X0\ \X2\043A043E0440043F044304410430\X0\','\X2\041A0440044B0448043A0430\X0\ \X2\043A043E0440043F044304410430\X0\','',(#696));
#847=PRODUCT_RELATED_PRODUCT_CATEGORY('part','',(#24));
#848=PRODUCT_DEFINITION_FORMATION_WITH_SPECIFIED_SOURCE('','',#24,.NOT_KNOWN.);
#25=PRODUCT_DEFINITION('design','',#848,#697);
#23=PRODUCT_DEFINITION_SHAPE('','',#25);
#849=SHAPE_DEFINITION_REPRESENTATION(#23,#16);
#11=DRAUGHTING_MODEL('',(),#10);
#1=MECHANICAL_DESIGN_GEOMETRIC_PRESENTATION_REPRESENTATION('',(#26),#10);
ENDSEC;
END-ISO-10303-21;
