ISO-10303-21;
HEADER;

/* File generated by T-FLEX CAD Version 17.0.27.0 */

FILE_DESCRIPTION(('TFLEX Exchange Step'),'2;1');

FILE_NAME('X2\041A04400435043F043B0435043D04380435\X0\ \X2\043D0430043F044004300432043B044F044E044904380445\X0\ \X2\043E04410438\X0\ Z.stp',                                                                             
'2026-03-19T13:19:42+03:00',
('user'),
('Unknown organisation'),
'TFLEX Exchange 2020.2',
'T-FLEX CAD',
'Unknown authorisation');

FILE_SCHEMA( ('AUTOMOTIVE_DESIGN { 1 0 10303 214 1 1 1 1 }') );

ENDSEC;

DATA;
#3=(NAMED_UNIT(*)PLANE_ANGLE_UNIT()SI_UNIT($,.RADIAN.));
#4=PLANE_ANGLE_MEASURE_WITH_UNIT(PLANE_ANGLE_MEASURE(0.0174532925),#3);
#5=(CONVERSION_BASED_UNIT('DEGREE',#4)NAMED_UNIT(#6)PLANE_ANGLE_UNIT());
#6=DIMENSIONAL_EXPONENTS(0.,0.,0.,0.,0.,0.,0.);
#7=(NAMED_UNIT(*)SI_UNIT($,.STERADIAN.)SOLID_ANGLE_UNIT());
#8=(LENGTH_UNIT()NAMED_UNIT(*)SI_UNIT(.MILLI.,.METRE.));
#9=UNCERTAINTY_MEASURE_WITH_UNIT(LENGTH_MEASURE(1.000000E-05),#8,'DISTANCE_ACCURACY_VALUE','Maximum Tolerance applied to model');
#10=(GEOMETRIC_REPRESENTATION_CONTEXT(3)GLOBAL_UNCERTAINTY_ASSIGNED_CONTEXT((#9))GLOBAL_UNIT_ASSIGNED_CONTEXT((#8,#5,#7))REPRESENTATION_CONTEXT('','\X2\041A04400435043F043B0435043D04380435\X0\ \X2\043D0430043F044004300432043B044F044E044904380445\X0\ \X2\043E04410438\X0\ Z'));
#12=CARTESIAN_POINT('',(0.,0.,0.));
#13=DIRECTION('',(0.,0.,1.));
#14=DIRECTION('',(1.,0.,0.));
#15=AXIS2_PLACEMENT_3D('',#12,#13,#14);
#27=CARTESIAN_POINT('',(1.5,13.837397166,13.));
#28=CARTESIAN_POINT('',(1.5,13.837397166,-0.));
#29=CARTESIAN_POINT('',(2.560096502,13.604831364,13.));
#30=CARTESIAN_POINT('',(2.560096502,13.604831364,-0.));
#31=CARTESIAN_POINT('',(3.5,13.062177826,13.));
#32=CARTESIAN_POINT('',(3.5,13.062177826,-0.));
#33=CARTESIAN_POINT('',(14.,7.,13.));
#34=CARTESIAN_POINT('',(14.,7.,-0.));
#35=CARTESIAN_POINT('',(3.5,0.937822174,13.));
#36=CARTESIAN_POINT('',(3.5,0.937822174,-0.));
#37=CARTESIAN_POINT('',(-7.,-5.124355653,13.));
#38=CARTESIAN_POINT('',(-7.,-5.124355653,-0.));
#39=CARTESIAN_POINT('',(-7.,7.,13.));
#40=CARTESIAN_POINT('',(-7.,7.,-0.));
#41=(BOUNDED_SURFACE()
B_SPLINE_SURFACE(2,1,((#27,#28),(#29,#30),(#31,#32),(#33,#34),(#35,#36),(#37,#38),(#39,#40)),.UNSPECIFIED.,.F.,.F.,.U.)
B_SPLINE_SURFACE_WITH_KNOTS((3,2,2,3),(2,2),(1.750243723,2.094395102,4.188790205,6.283185307),(-0.01,0.003),.UNSPECIFIED.)
GEOMETRIC_REPRESENTATION_ITEM()
RATIONAL_B_SPLINE_SURFACE(((0.862680942,0.862680942),(0.91783991,0.91783991),(1.,1.),(0.5,0.5),(1.,1.),(0.5,0.5),(1.,1.)))
REPRESENTATION_ITEM('')
SURFACE()
);
#42=CARTESIAN_POINT('',(1.5,13.837397166,3.));
#43=VERTEX_POINT('',#42);
#44=CARTESIAN_POINT('',(6.367726165,4.09275672,3.));
#45=VERTEX_POINT('',#44);
#46=CARTESIAN_POINT('',(1.5,13.837397166,3.));
#47=CARTESIAN_POINT('',(4.767347762,13.12060077,3.));
#48=CARTESIAN_POINT('',(6.262170798,10.128133133,3.));
#49=CARTESIAN_POINT('',(7.756993834,7.135665495,3.));
#50=CARTESIAN_POINT('',(6.367726165,4.09275672,3.));
#51=(BOUNDED_CURVE()
B_SPLINE_CURVE(2,(#46,#47,#48,#49,#50),.UNSPECIFIED.,.F.,.F.)
B_SPLINE_CURVE_WITH_KNOTS((3,2,3),(5.854890244,6.746455689,7.638021135),.UNSPECIFIED.)
CURVE()
GEOMETRIC_REPRESENTATION_ITEM()
RATIONAL_B_SPLINE_CURVE((1.,0.90227346,1.,0.90227346,1.))
REPRESENTATION_ITEM(''));
#52=EDGE_CURVE('',#43,#45,#51,.T.);
#53=ORIENTED_EDGE('',*,*,#52,.F.);
#54=CARTESIAN_POINT('',(1.5,13.837397166,13.));
#55=VERTEX_POINT('',#54);
#56=CARTESIAN_POINT('',(1.5,13.837397166,3.));
#57=CARTESIAN_POINT('',(1.5,13.837397166,13.));
#58=B_SPLINE_CURVE_WITH_KNOTS('',1,(#56,#57),.UNSPECIFIED.,.F.,.F.,(2,2),(-0.01,0.),.UNSPECIFIED.);
#59=EDGE_CURVE('',#43,#55,#58,.T.);
#60=ORIENTED_EDGE('',*,*,#59,.T.);
#61=CARTESIAN_POINT('',(-7.,7.,13.));
#62=VERTEX_POINT('',#61);
#63=CARTESIAN_POINT('',(-7.,7.,13.));
#64=CARTESIAN_POINT('',(-7.,0.486603463,13.));
#65=CARTESIAN_POINT('',(-0.503472726,0.018129533,13.));
#66=CARTESIAN_POINT('',(5.993054548,-0.450344397,13.));
#67=CARTESIAN_POINT('',(6.927575776,5.99566247,13.));
#68=CARTESIAN_POINT('',(7.862097003,12.441669336,13.));
#69=CARTESIAN_POINT('',(1.5,13.837397166,13.));
#70=(BOUNDED_CURVE()
B_SPLINE_CURVE(2,(#63,#64,#65,#66,#67,#68,#69),.UNSPECIFIED.,.F.,.F.)
B_SPLINE_CURVE_WITH_KNOTS((3,2,2,3),(6.283185307,7.781994801,9.280804295,10.779613789),.UNSPECIFIED.)
CURVE()
GEOMETRIC_REPRESENTATION_ITEM()
RATIONAL_B_SPLINE_CURVE((1.,0.732094487,1.,0.732094487,1.,0.732094487,1.))
REPRESENTATION_ITEM(''));
#71=EDGE_CURVE('',#62,#55,#70,.T.);
#72=ORIENTED_EDGE('',*,*,#71,.F.);
#73=CARTESIAN_POINT('',(-7.,7.,3.));
#74=VERTEX_POINT('',#73);
#75=CARTESIAN_POINT('',(-7.,7.,13.));
#76=CARTESIAN_POINT('',(-7.,7.,3.));
#77=B_SPLINE_CURVE_WITH_KNOTS('',1,(#75,#76),.UNSPECIFIED.,.F.,.F.,(2,2),(0.,0.01),.UNSPECIFIED.);
#78=EDGE_CURVE('',#62,#74,#77,.T.);
#79=ORIENTED_EDGE('',*,*,#78,.T.);
#80=CARTESIAN_POINT('',(-6.367726165,4.09275672,3.));
#81=VERTEX_POINT('',#80);
#82=CARTESIAN_POINT('',(-6.367726165,4.09275672,3.));
#83=CARTESIAN_POINT('',(-7.,5.477624189,3.));
#84=CARTESIAN_POINT('',(-7.,7.,3.));
#85=(BOUNDED_CURVE()
B_SPLINE_CURVE(2,(#82,#83,#84),.UNSPECIFIED.,.F.,.F.)
B_SPLINE_CURVE_WITH_KNOTS((3,3),(3.141592654,3.569887717),.UNSPECIFIED.)
CURVE()
GEOMETRIC_REPRESENTATION_ITEM()
RATIONAL_B_SPLINE_CURVE((1.,0.977157911,1.))
REPRESENTATION_ITEM(''));
#86=EDGE_CURVE('',#81,#74,#85,.T.);
#87=ORIENTED_EDGE('',*,*,#86,.F.);
#88=CARTESIAN_POINT('',(-6.367726165,4.09275672,0.));
#89=VERTEX_POINT('',#88);
#90=CARTESIAN_POINT('',(-6.367726165,4.09275672,3.));
#91=CARTESIAN_POINT('',(-6.367726165,4.09275672,0.));
#92=B_SPLINE_CURVE_WITH_KNOTS('',1,(#90,#91),.UNSPECIFIED.,.F.,.F.,(2,2),(0.,0.003),.UNSPECIFIED.);
#93=EDGE_CURVE('',#81,#89,#92,.T.);
#94=ORIENTED_EDGE('',*,*,#93,.T.);
#95=CARTESIAN_POINT('',(6.367726165,4.09275672,0.));
#96=VERTEX_POINT('',#95);
#97=CARTESIAN_POINT('',(-6.367726165,4.09275672,0.));
#98=CARTESIAN_POINT('',(-4.499140871,-0.,0.));
#99=CARTESIAN_POINT('',(0.,-0.,0.));
#100=CARTESIAN_POINT('',(4.499140871,0.,0.));
#101=CARTESIAN_POINT('',(6.367726165,4.09275672,0.));
#102=(BOUNDED_CURVE()
B_SPLINE_CURVE(2,(#97,#98,#99,#100,#101),.UNSPECIFIED.,.F.,.F.)
B_SPLINE_CURVE_WITH_KNOTS((3,2,3),(0.428295064,1.570796327,2.71329759),.UNSPECIFIED.)
CURVE()
GEOMETRIC_REPRESENTATION_ITEM()
RATIONAL_B_SPLINE_CURVE((1.,0.841225436,1.,0.841225436,1.))
REPRESENTATION_ITEM(''));
#103=EDGE_CURVE('',#89,#96,#102,.T.);
#104=ORIENTED_EDGE('',*,*,#103,.T.);
#105=CARTESIAN_POINT('',(6.367726165,4.09275672,3.));
#106=CARTESIAN_POINT('',(6.367726165,4.09275672,0.));
#107=B_SPLINE_CURVE_WITH_KNOTS('',1,(#105,#106),.UNSPECIFIED.,.F.,.F.,(2,2),(0.,0.003),.UNSPECIFIED.);
#108=EDGE_CURVE('',#45,#96,#107,.T.);
#109=ORIENTED_EDGE('',*,*,#108,.F.);
#110=EDGE_LOOP('',(#53,#60,#72,#79,#87,#94,#104,#109));
#111=FACE_BOUND('',#110,.T.);
#112=ADVANCED_FACE('',(#111),#41,.T.);
#113=CARTESIAN_POINT('',(-1.5,23.,3.));
#114=CARTESIAN_POINT('',(-1.5,4.09275672,3.));
#115=CARTESIAN_POINT('',(-15.,23.,3.));
#116=CARTESIAN_POINT('',(-15.,4.09275672,3.));
#117=B_SPLINE_SURFACE_WITH_KNOTS('',1,1,((#113,#114),(#115,#116)),.UNSPECIFIED.,.F.,.F.,.U.,(2,2),(2,2),(0.0015,0.015),(-0.023,-0.004092757),.UNSPECIFIED.);
#118=CARTESIAN_POINT('',(-1.5,13.837397166,3.));
#119=VERTEX_POINT('',#118);
#120=CARTESIAN_POINT('',(-7.,7.,3.));
#121=CARTESIAN_POINT('',(-7.,12.630797666,3.));
#122=CARTESIAN_POINT('',(-1.5,13.837397166,3.));
#123=(BOUNDED_CURVE()
B_SPLINE_CURVE(2,(#120,#121,#122),.UNSPECIFIED.,.F.,.F.)
B_SPLINE_CURVE_WITH_KNOTS((3,3),(1.786756825,3.141592654),.UNSPECIFIED.)
CURVE()
GEOMETRIC_REPRESENTATION_ITEM()
RATIONAL_B_SPLINE_CURVE((1.,0.779193722,1.))
REPRESENTATION_ITEM(''));
#124=EDGE_CURVE('',#74,#119,#123,.T.);
#125=ORIENTED_EDGE('',*,*,#124,.T.);
#126=CARTESIAN_POINT('',(-1.5,23.,3.));
#127=VERTEX_POINT('',#126);
#128=CARTESIAN_POINT('',(-1.5,13.837397166,3.));
#129=CARTESIAN_POINT('',(-1.5,23.,3.));
#130=B_SPLINE_CURVE_WITH_KNOTS('',1,(#128,#129),.UNSPECIFIED.,.F.,.F.,(2,2),(0.000837397,0.01),.UNSPECIFIED.);
#131=EDGE_CURVE('',#119,#127,#130,.T.);
#132=ORIENTED_EDGE('',*,*,#131,.T.);
#133=CARTESIAN_POINT('',(-15.,23.,3.));
#134=VERTEX_POINT('',#133);
#135=CARTESIAN_POINT('',(-1.5,23.,3.));
#136=CARTESIAN_POINT('',(-15.,23.,3.));
#137=B_SPLINE_CURVE_WITH_KNOTS('',1,(#135,#136),.UNSPECIFIED.,.F.,.F.,(2,2),(0.0165,0.03),.UNSPECIFIED.);
#138=EDGE_CURVE('',#127,#134,#137,.T.);
#139=ORIENTED_EDGE('',*,*,#138,.T.);
#140=CARTESIAN_POINT('',(-15.,23.,3.));
#141=CARTESIAN_POINT('',(-6.367726165,4.09275672,3.));
#142=B_SPLINE_CURVE_WITH_KNOTS('',1,(#140,#141),.UNSPECIFIED.,.F.,.F.,(2,2),(0.,0.02078461),.UNSPECIFIED.);
#143=EDGE_CURVE('',#134,#81,#142,.T.);
#144=ORIENTED_EDGE('',*,*,#143,.T.);
#145=ORIENTED_EDGE('',*,*,#86,.T.);
#146=EDGE_LOOP('',(#125,#132,#139,#144,#145));
#147=FACE_BOUND('',#146,.T.);
#148=ADVANCED_FACE('',(#147),#117,.T.);
#149=CARTESIAN_POINT('',(-6.367726165,4.09275672,0.));
#150=CARTESIAN_POINT('',(-6.367726165,4.09275672,3.));
#151=CARTESIAN_POINT('',(-15.,23.,0.));
#152=CARTESIAN_POINT('',(-15.,23.,3.));
#153=B_SPLINE_SURFACE_WITH_KNOTS('',1,1,((#149,#150),(#151,#152)),.UNSPECIFIED.,.F.,.F.,.U.,(2,2),(2,2),(-0.02078461,0.),(-0.003,0.),.UNSPECIFIED.);
#154=CARTESIAN_POINT('',(-15.,23.,0.));
#155=VERTEX_POINT('',#154);
#156=CARTESIAN_POINT('',(-15.,23.,0.));
#157=CARTESIAN_POINT('',(-6.367726165,4.09275672,0.));
#158=B_SPLINE_CURVE_WITH_KNOTS('',1,(#156,#157),.UNSPECIFIED.,.F.,.F.,(2,2),(0.,0.02078461),.UNSPECIFIED.);
#159=EDGE_CURVE('',#155,#89,#158,.T.);
#160=ORIENTED_EDGE('',*,*,#159,.T.);
#161=ORIENTED_EDGE('',*,*,#93,.F.);
#162=ORIENTED_EDGE('',*,*,#143,.F.);
#163=CARTESIAN_POINT('',(-15.,23.,3.));
#164=CARTESIAN_POINT('',(-15.,23.,0.));
#165=B_SPLINE_CURVE_WITH_KNOTS('',1,(#163,#164),.UNSPECIFIED.,.F.,.F.,(2,2),(0.,0.003),.UNSPECIFIED.);
#166=EDGE_CURVE('',#134,#155,#165,.T.);
#167=ORIENTED_EDGE('',*,*,#166,.T.);
#168=EDGE_LOOP('',(#160,#161,#162,#167));
#169=FACE_BOUND('',#168,.T.);
#170=ADVANCED_FACE('',(#169),#153,.F.);
#171=CARTESIAN_POINT('',(-7.,7.,13.));
#172=CARTESIAN_POINT('',(-7.,7.,3.));
#173=CARTESIAN_POINT('',(-7.,12.630797666,13.));
#174=CARTESIAN_POINT('',(-7.,12.630797666,3.));
#175=CARTESIAN_POINT('',(-1.5,13.837397166,13.));
#176=CARTESIAN_POINT('',(-1.5,13.837397166,3.));
#177=(BOUNDED_SURFACE()
B_SPLINE_SURFACE(2,1,((#171,#172),(#173,#174),(#175,#176)),.UNSPECIFIED.,.F.,.F.,.U.)
B_SPLINE_SURFACE_WITH_KNOTS((3,3),(2,2),(0.,1.32841602),(-0.01,0.),.UNSPECIFIED.)
GEOMETRIC_REPRESENTATION_ITEM()
RATIONAL_B_SPLINE_SURFACE(((1.,1.),(0.682864036,0.682864036),(0.768028951,0.768028951)))
REPRESENTATION_ITEM('')
SURFACE()
);
#178=CARTESIAN_POINT('',(-1.5,13.837397166,13.));
#179=VERTEX_POINT('',#178);
#180=CARTESIAN_POINT('',(-1.5,13.837397166,13.));
#181=CARTESIAN_POINT('',(-7.,12.630797666,13.));
#182=CARTESIAN_POINT('',(-7.,7.,13.));
#183=(BOUNDED_CURVE()
B_SPLINE_CURVE(2,(#180,#181,#182),.UNSPECIFIED.,.F.,.F.)
B_SPLINE_CURVE_WITH_KNOTS((3,3),(4.928349479,6.283185307),.UNSPECIFIED.)
CURVE()
GEOMETRIC_REPRESENTATION_ITEM()
RATIONAL_B_SPLINE_CURVE((1.,0.779193722,1.))
REPRESENTATION_ITEM(''));
#184=EDGE_CURVE('',#179,#62,#183,.T.);
#185=ORIENTED_EDGE('',*,*,#184,.F.);
#186=CARTESIAN_POINT('',(-1.5,13.837397166,13.));
#187=CARTESIAN_POINT('',(-1.5,13.837397166,3.));
#188=B_SPLINE_CURVE_WITH_KNOTS('',1,(#186,#187),.UNSPECIFIED.,.F.,.F.,(2,2),(-0.01,0.),.UNSPECIFIED.);
#189=EDGE_CURVE('',#179,#119,#188,.T.);
#190=ORIENTED_EDGE('',*,*,#189,.T.);
#191=ORIENTED_EDGE('',*,*,#124,.F.);
#192=ORIENTED_EDGE('',*,*,#78,.F.);
#193=EDGE_LOOP('',(#185,#190,#191,#192));
#194=FACE_BOUND('',#193,.T.);
#195=ADVANCED_FACE('',(#194),#177,.T.);
#196=CARTESIAN_POINT('',(15.,23.,0.));
#197=CARTESIAN_POINT('',(15.,23.,3.));
#198=CARTESIAN_POINT('',(6.367726165,4.09275672,0.));
#199=CARTESIAN_POINT('',(6.367726165,4.09275672,3.));
#200=B_SPLINE_SURFACE_WITH_KNOTS('',1,1,((#196,#197),(#198,#199)),.UNSPECIFIED.,.F.,.F.,.U.,(2,2),(2,2),(-0.02078461,0.),(-0.003,0.),.UNSPECIFIED.);
#201=CARTESIAN_POINT('',(15.,23.,0.));
#202=VERTEX_POINT('',#201);
#203=CARTESIAN_POINT('',(6.367726165,4.09275672,0.));
#204=CARTESIAN_POINT('',(15.,23.,0.));
#205=B_SPLINE_CURVE_WITH_KNOTS('',1,(#203,#204),.UNSPECIFIED.,.F.,.F.,(2,2),(0.,0.02078461),.UNSPECIFIED.);
#206=EDGE_CURVE('',#96,#202,#205,.T.);
#207=ORIENTED_EDGE('',*,*,#206,.T.);
#208=CARTESIAN_POINT('',(15.,23.,3.));
#209=VERTEX_POINT('',#208);
#210=CARTESIAN_POINT('',(15.,23.,3.));
#211=CARTESIAN_POINT('',(15.,23.,0.));
#212=B_SPLINE_CURVE_WITH_KNOTS('',1,(#210,#211),.UNSPECIFIED.,.F.,.F.,(2,2),(0.,0.003),.UNSPECIFIED.);
#213=EDGE_CURVE('',#209,#202,#212,.T.);
#214=ORIENTED_EDGE('',*,*,#213,.F.);
#215=CARTESIAN_POINT('',(6.367726165,4.09275672,3.));
#216=CARTESIAN_POINT('',(15.,23.,3.));
#217=B_SPLINE_CURVE_WITH_KNOTS('',1,(#215,#216),.UNSPECIFIED.,.F.,.F.,(2,2),(0.,0.02078461),.UNSPECIFIED.);
#218=EDGE_CURVE('',#45,#209,#217,.T.);
#219=ORIENTED_EDGE('',*,*,#218,.F.);
#220=ORIENTED_EDGE('',*,*,#108,.T.);
#221=EDGE_LOOP('',(#207,#214,#219,#220));
#222=FACE_BOUND('',#221,.T.);
#223=ADVANCED_FACE('',(#222),#200,.F.);
#224=CARTESIAN_POINT('',(15.,23.,3.));
#225=CARTESIAN_POINT('',(15.,4.09275672,3.));
#226=CARTESIAN_POINT('',(1.5,23.,3.));
#227=CARTESIAN_POINT('',(1.5,4.09275672,3.));
#228=B_SPLINE_SURFACE_WITH_KNOTS('',1,1,((#224,#225),(#226,#227)),.UNSPECIFIED.,.F.,.F.,.U.,(2,2),(2,2),(-0.015,-0.0015),(-0.023,-0.004092757),.UNSPECIFIED.);
#229=CARTESIAN_POINT('',(1.5,23.,3.));
#230=VERTEX_POINT('',#229);
#231=CARTESIAN_POINT('',(1.5,13.837397166,3.));
#232=CARTESIAN_POINT('',(1.5,23.,3.));
#233=B_SPLINE_CURVE_WITH_KNOTS('',1,(#231,#232),.UNSPECIFIED.,.F.,.F.,(2,2),(0.000837397,0.01),.UNSPECIFIED.);
#234=EDGE_CURVE('',#43,#230,#233,.T.);
#235=ORIENTED_EDGE('',*,*,#234,.F.);
#236=ORIENTED_EDGE('',*,*,#52,.T.);
#237=ORIENTED_EDGE('',*,*,#218,.T.);
#238=CARTESIAN_POINT('',(15.,23.,3.));
#239=CARTESIAN_POINT('',(1.5,23.,3.));
#240=B_SPLINE_CURVE_WITH_KNOTS('',1,(#238,#239),.UNSPECIFIED.,.F.,.F.,(2,2),(0.,0.0135),.UNSPECIFIED.);
#241=EDGE_CURVE('',#209,#230,#240,.T.);
#242=ORIENTED_EDGE('',*,*,#241,.T.);
#243=EDGE_LOOP('',(#235,#236,#237,#242));
#244=FACE_BOUND('',#243,.T.);
#245=ADVANCED_FACE('',(#244),#228,.T.);
#246=CARTESIAN_POINT('',(27.,26.,0.));
#247=CARTESIAN_POINT('',(27.,0.,0.));
#248=CARTESIAN_POINT('',(-27.,26.,0.));
#249=CARTESIAN_POINT('',(-27.,0.,0.));
#250=B_SPLINE_SURFACE_WITH_KNOTS('',1,1,((#246,#247),(#248,#249)),.UNSPECIFIED.,.F.,.F.,.U.,(2,2),(2,2),(-0.027,0.027),(-0.026,0.),.UNSPECIFIED.);
#251=ORIENTED_EDGE('',*,*,#103,.F.);
#252=ORIENTED_EDGE('',*,*,#159,.F.);
#253=CARTESIAN_POINT('',(-27.,23.,0.));
#254=VERTEX_POINT('',#253);
#255=CARTESIAN_POINT('',(-27.,23.,0.));
#256=CARTESIAN_POINT('',(-15.,23.,0.));
#257=B_SPLINE_CURVE_WITH_KNOTS('',1,(#255,#256),.UNSPECIFIED.,.F.,.F.,(2,2),(-0.,0.012),.UNSPECIFIED.);
#258=EDGE_CURVE('',#254,#155,#257,.T.);
#259=ORIENTED_EDGE('',*,*,#258,.F.);
#260=CARTESIAN_POINT('',(-27.,26.,0.));
#261=VERTEX_POINT('',#260);
#262=CARTESIAN_POINT('',(-27.,26.,0.));
#263=CARTESIAN_POINT('',(-27.,23.,0.));
#264=B_SPLINE_CURVE_WITH_KNOTS('',1,(#262,#263),.UNSPECIFIED.,.F.,.F.,(2,2),(0.,0.003),.UNSPECIFIED.);
#265=EDGE_CURVE('',#261,#254,#264,.T.);
#266=ORIENTED_EDGE('',*,*,#265,.F.);
#267=CARTESIAN_POINT('',(27.,26.,-0.));
#268=VERTEX_POINT('',#267);
#269=CARTESIAN_POINT('',(-27.,26.,0.));
#270=CARTESIAN_POINT('',(27.,26.,-0.));
#271=B_SPLINE_CURVE_WITH_KNOTS('',1,(#269,#270),.UNSPECIFIED.,.F.,.F.,(2,2),(-0.,0.054),.UNSPECIFIED.);
#272=EDGE_CURVE('',#261,#268,#271,.T.);
#273=ORIENTED_EDGE('',*,*,#272,.T.);
#274=CARTESIAN_POINT('',(27.,23.,-0.));
#275=VERTEX_POINT('',#274);
#276=CARTESIAN_POINT('',(27.,26.,-0.));
#277=CARTESIAN_POINT('',(27.,23.,-0.));
#278=B_SPLINE_CURVE_WITH_KNOTS('',1,(#276,#277),.UNSPECIFIED.,.F.,.F.,(2,2),(0.,0.003),.UNSPECIFIED.);
#279=EDGE_CURVE('',#268,#275,#278,.T.);
#280=ORIENTED_EDGE('',*,*,#279,.T.);
#281=CARTESIAN_POINT('',(15.,23.,0.));
#282=CARTESIAN_POINT('',(27.,23.,-0.));
#283=B_SPLINE_CURVE_WITH_KNOTS('',1,(#281,#282),.UNSPECIFIED.,.F.,.F.,(2,2),(0.042,0.054),.UNSPECIFIED.);
#284=EDGE_CURVE('',#202,#275,#283,.T.);
#285=ORIENTED_EDGE('',*,*,#284,.F.);
#286=ORIENTED_EDGE('',*,*,#206,.F.);
#287=EDGE_LOOP('',(#251,#252,#259,#266,#273,#280,#285,#286));
#288=FACE_BOUND('',#287,.T.);
#289=ADVANCED_FACE('',(#288),#250,.F.);
#290=CARTESIAN_POINT('',(7.862097003,15.,13.));
#291=CARTESIAN_POINT('',(7.862097003,-0.450344397,13.));
#292=CARTESIAN_POINT('',(-7.,15.,13.));
#293=CARTESIAN_POINT('',(-7.,-0.450344397,13.));
#294=B_SPLINE_SURFACE_WITH_KNOTS('',1,1,((#290,#291),(#292,#293)),.UNSPECIFIED.,.F.,.F.,.U.,(2,2),(2,2),(-0.007862097,0.007),(-0.015,0.000450344),.UNSPECIFIED.);
#295=CARTESIAN_POINT('',(1.5,15.,13.));
#296=VERTEX_POINT('',#295);
#297=CARTESIAN_POINT('',(1.5,13.837397166,13.));
#298=CARTESIAN_POINT('',(1.5,15.,13.));
#299=B_SPLINE_CURVE_WITH_KNOTS('',1,(#297,#298),.UNSPECIFIED.,.F.,.F.,(2,2),(0.000837397,0.002),.UNSPECIFIED.);
#300=EDGE_CURVE('',#55,#296,#299,.T.);
#301=ORIENTED_EDGE('',*,*,#300,.T.);
#302=CARTESIAN_POINT('',(-1.5,15.,13.));
#303=VERTEX_POINT('',#302);
#304=CARTESIAN_POINT('',(1.5,15.,13.));
#305=CARTESIAN_POINT('',(-1.5,15.,13.));
#306=B_SPLINE_CURVE_WITH_KNOTS('',1,(#304,#305),.UNSPECIFIED.,.F.,.F.,(2,2),(-0.0015,0.0015),.UNSPECIFIED.);
#307=EDGE_CURVE('',#296,#303,#306,.T.);
#308=ORIENTED_EDGE('',*,*,#307,.T.);
#309=CARTESIAN_POINT('',(-1.5,13.837397166,13.));
#310=CARTESIAN_POINT('',(-1.5,15.,13.));
#311=B_SPLINE_CURVE_WITH_KNOTS('',1,(#309,#310),.UNSPECIFIED.,.F.,.F.,(2,2),(0.000837397,0.002),.UNSPECIFIED.);
#312=EDGE_CURVE('',#179,#303,#311,.T.);
#313=ORIENTED_EDGE('',*,*,#312,.F.);
#314=ORIENTED_EDGE('',*,*,#184,.T.);
#315=ORIENTED_EDGE('',*,*,#71,.T.);
#316=EDGE_LOOP('',(#301,#308,#313,#314,#315));
#317=FACE_BOUND('',#316,.T.);
#318=CARTESIAN_POINT('',(-4.05,7.,13.));
#319=VERTEX_POINT('',#318);
#320=CARTESIAN_POINT('',(-4.05,7.,13.));
#321=CARTESIAN_POINT('',(-4.05,2.95,13.));
#322=CARTESIAN_POINT('',(-0.,2.95,13.));
#323=CARTESIAN_POINT('',(4.05,2.95,13.));
#324=CARTESIAN_POINT('',(4.05,7.,13.));
#325=CARTESIAN_POINT('',(4.05,11.05,13.));
#326=CARTESIAN_POINT('',(0.,11.05,13.));
#327=CARTESIAN_POINT('',(-4.05,11.05,13.));
#328=CARTESIAN_POINT('',(-4.05,7.,13.));
#329=(BOUNDED_CURVE()
B_SPLINE_CURVE(2,(#320,#321,#322,#323,#324,#325,#326,#327,#328),.UNSPECIFIED.,.T.,.F.)
B_SPLINE_CURVE_WITH_KNOTS((3,2,2,2,3),(3.141592654,4.71238898,6.283185307,7.853981634,9.424777961),.UNSPECIFIED.)
CURVE()
GEOMETRIC_REPRESENTATION_ITEM()
RATIONAL_B_SPLINE_CURVE((1.,0.707106781,1.,0.707106781,1.,0.707106781,1.,0.707106781,1.))
REPRESENTATION_ITEM(''));
#330=EDGE_CURVE('',#319,#319,#329,.T.);
#331=ORIENTED_EDGE('',*,*,#330,.F.);
#332=EDGE_LOOP('',(#331));
#333=FACE_BOUND('',#332,.T.);
#334=ADVANCED_FACE('',(#317,#333),#294,.T.);
#335=CARTESIAN_POINT('',(-4.05,7.,13.));
#336=CARTESIAN_POINT('',(-4.05,7.,2.));
#337=CARTESIAN_POINT('',(-4.05,14.014805771,13.));
#338=CARTESIAN_POINT('',(-4.05,14.014805771,2.));
#339=CARTESIAN_POINT('',(2.025,10.507402885,13.));
#340=CARTESIAN_POINT('',(2.025,10.507402885,2.));
#341=CARTESIAN_POINT('',(8.1,7.,13.));
#342=CARTESIAN_POINT('',(8.1,7.,2.));
#343=CARTESIAN_POINT('',(2.025,3.492597115,13.));
#344=CARTESIAN_POINT('',(2.025,3.492597115,2.));
#345=CARTESIAN_POINT('',(-4.05,-0.014805771,13.));
#346=CARTESIAN_POINT('',(-4.05,-0.014805771,2.));
#347=CARTESIAN_POINT('',(-4.05,7.,13.));
#348=CARTESIAN_POINT('',(-4.05,7.,2.));
#349=(BOUNDED_SURFACE()
B_SPLINE_SURFACE(2,1,((#335,#336),(#337,#338),(#339,#340),(#341,#342),(#343,#344),(#345,#346),(#347,#348)),.UNSPECIFIED.,.T.,.F.,.U.)
B_SPLINE_SURFACE_WITH_KNOTS((3,2,2,3),(2,2),(0.,2.094395102,4.188790205,6.283185307),(0.000002,0.011002),.UNSPECIFIED.)
GEOMETRIC_REPRESENTATION_ITEM()
RATIONAL_B_SPLINE_SURFACE(((1.,1.),(0.5,0.5),(1.,1.),(0.5,0.5),(1.,1.),(0.5,0.5),(1.,1.)))
REPRESENTATION_ITEM('')
SURFACE()
);
#350=ORIENTED_EDGE('',*,*,#330,.T.);
#351=CARTESIAN_POINT('',(-4.05,7.,2.));
#352=VERTEX_POINT('',#351);
#353=CARTESIAN_POINT('',(-4.05,7.,13.));
#354=CARTESIAN_POINT('',(-4.05,7.,2.));
#355=B_SPLINE_CURVE_WITH_KNOTS('',1,(#353,#354),.UNSPECIFIED.,.F.,.F.,(2,2),(0.000002,0.011002),.UNSPECIFIED.);
#356=EDGE_CURVE('',#319,#352,#355,.T.);
#357=ORIENTED_EDGE('',*,*,#356,.T.);
#358=CARTESIAN_POINT('',(-4.05,7.,2.));
#359=CARTESIAN_POINT('',(-4.05,2.95,2.));
#360=CARTESIAN_POINT('',(-0.,2.95,2.));
#361=CARTESIAN_POINT('',(4.05,2.95,2.));
#362=CARTESIAN_POINT('',(4.05,7.,2.));
#363=CARTESIAN_POINT('',(4.05,11.05,2.));
#364=CARTESIAN_POINT('',(0.,11.05,2.));
#365=CARTESIAN_POINT('',(-4.05,11.05,2.));
#366=CARTESIAN_POINT('',(-4.05,7.,2.));
#367=(BOUNDED_CURVE()
B_SPLINE_CURVE(2,(#358,#359,#360,#361,#362,#363,#364,#365,#366),.UNSPECIFIED.,.T.,.F.)
B_SPLINE_CURVE_WITH_KNOTS((3,2,2,2,3),(0.,1.570796327,3.141592654,4.71238898,6.283185307),.UNSPECIFIED.)
CURVE()
GEOMETRIC_REPRESENTATION_ITEM()
RATIONAL_B_SPLINE_CURVE((1.,0.707106781,1.,0.707106781,1.,0.707106781,1.,0.707106781,1.))
REPRESENTATION_ITEM(''));
#368=EDGE_CURVE('',#352,#352,#367,.T.);
#369=ORIENTED_EDGE('',*,*,#368,.F.);
#370=ORIENTED_EDGE('',*,*,#356,.F.);
#371=EDGE_LOOP('',(#350,#357,#369,#370));
#372=FACE_BOUND('',#371,.T.);
#373=ADVANCED_FACE('',(#372),#349,.F.);
#374=CARTESIAN_POINT('',(4.05,11.05,2.));
#375=CARTESIAN_POINT('',(4.05,2.95,2.));
#376=CARTESIAN_POINT('',(-4.05,11.05,2.));
#377=CARTESIAN_POINT('',(-4.05,2.95,2.));
#378=B_SPLINE_SURFACE_WITH_KNOTS('',1,1,((#374,#375),(#376,#377)),.UNSPECIFIED.,.F.,.F.,.U.,(2,2),(2,2),(-0.00405,0.00405),(-0.01105,-0.00295),.UNSPECIFIED.);
#379=ORIENTED_EDGE('',*,*,#368,.T.);
#380=EDGE_LOOP('',(#379));
#381=FACE_BOUND('',#380,.T.);
#382=ADVANCED_FACE('',(#381),#378,.T.);
#383=CARTESIAN_POINT('',(27.,23.,28.));
#384=CARTESIAN_POINT('',(27.,26.,28.));
#385=CARTESIAN_POINT('',(27.,23.,-0.));
#386=CARTESIAN_POINT('',(27.,26.,-0.));
#387=B_SPLINE_SURFACE_WITH_KNOTS('',1,1,((#383,#384),(#385,#386)),.UNSPECIFIED.,.F.,.F.,.U.,(2,2),(2,2),(-0.028,0.),(-0.003,0.),.UNSPECIFIED.);
#388=CARTESIAN_POINT('',(27.,23.,28.));
#389=VERTEX_POINT('',#388);
#390=CARTESIAN_POINT('',(27.,23.,-0.));
#391=CARTESIAN_POINT('',(27.,23.,28.));
#392=B_SPLINE_CURVE_WITH_KNOTS('',1,(#390,#391),.UNSPECIFIED.,.F.,.F.,(2,2),(0.,0.028),.UNSPECIFIED.);
#393=EDGE_CURVE('',#275,#389,#392,.T.);
#394=ORIENTED_EDGE('',*,*,#393,.F.);
#395=ORIENTED_EDGE('',*,*,#279,.F.);
#396=CARTESIAN_POINT('',(27.,26.,28.));
#397=VERTEX_POINT('',#396);
#398=CARTESIAN_POINT('',(27.,26.,-0.));
#399=CARTESIAN_POINT('',(27.,26.,28.));
#400=B_SPLINE_CURVE_WITH_KNOTS('',1,(#398,#399),.UNSPECIFIED.,.F.,.F.,(2,2),(0.,0.028),.UNSPECIFIED.);
#401=EDGE_CURVE('',#268,#397,#400,.T.);
#402=ORIENTED_EDGE('',*,*,#401,.T.);
#403=CARTESIAN_POINT('',(27.,26.,28.));
#404=CARTESIAN_POINT('',(27.,23.,28.));
#405=B_SPLINE_CURVE_WITH_KNOTS('',1,(#403,#404),.UNSPECIFIED.,.F.,.F.,(2,2),(0.,0.003),.UNSPECIFIED.);
#406=EDGE_CURVE('',#397,#389,#405,.T.);
#407=ORIENTED_EDGE('',*,*,#406,.T.);
#408=EDGE_LOOP('',(#394,#395,#402,#407));
#409=FACE_BOUND('',#408,.T.);
#410=ADVANCED_FACE('',(#409),#387,.T.);
#411=CARTESIAN_POINT('',(-27.,23.,0.));
#412=CARTESIAN_POINT('',(-27.,26.,0.));
#413=CARTESIAN_POINT('',(-27.,23.,28.));
#414=CARTESIAN_POINT('',(-27.,26.,28.));
#415=B_SPLINE_SURFACE_WITH_KNOTS('',1,1,((#411,#412),(#413,#414)),.UNSPECIFIED.,.F.,.F.,.U.,(2,2),(2,2),(-0.028,0.),(-0.003,0.),.UNSPECIFIED.);
#416=CARTESIAN_POINT('',(-27.,23.,28.));
#417=VERTEX_POINT('',#416);
#418=CARTESIAN_POINT('',(-27.,23.,28.));
#419=CARTESIAN_POINT('',(-27.,23.,0.));
#420=B_SPLINE_CURVE_WITH_KNOTS('',1,(#418,#419),.UNSPECIFIED.,.F.,.F.,(2,2),(0.,0.028),.UNSPECIFIED.);
#421=EDGE_CURVE('',#417,#254,#420,.T.);
#422=ORIENTED_EDGE('',*,*,#421,.F.);
#423=CARTESIAN_POINT('',(-27.,26.,28.));
#424=VERTEX_POINT('',#423);
#425=CARTESIAN_POINT('',(-27.,26.,28.));
#426=CARTESIAN_POINT('',(-27.,23.,28.));
#427=B_SPLINE_CURVE_WITH_KNOTS('',1,(#425,#426),.UNSPECIFIED.,.F.,.F.,(2,2),(0.,0.003),.UNSPECIFIED.);
#428=EDGE_CURVE('',#424,#417,#427,.T.);
#429=ORIENTED_EDGE('',*,*,#428,.F.);
#430=CARTESIAN_POINT('',(-27.,26.,28.));
#431=CARTESIAN_POINT('',(-27.,26.,0.));
#432=B_SPLINE_CURVE_WITH_KNOTS('',1,(#430,#431),.UNSPECIFIED.,.F.,.F.,(2,2),(0.,0.028),.UNSPECIFIED.);
#433=EDGE_CURVE('',#424,#261,#432,.T.);
#434=ORIENTED_EDGE('',*,*,#433,.T.);
#435=ORIENTED_EDGE('',*,*,#265,.T.);
#436=EDGE_LOOP('',(#422,#429,#434,#435));
#437=FACE_BOUND('',#436,.T.);
#438=ADVANCED_FACE('',(#437),#415,.T.);
#439=CARTESIAN_POINT('',(22.,26.,15.45));
#440=CARTESIAN_POINT('',(22.,23.,15.45));
#441=CARTESIAN_POINT('',(26.416729559,26.,15.45));
#442=CARTESIAN_POINT('',(26.416729559,23.,15.45));
#443=CARTESIAN_POINT('',(24.20836478,26.,19.275));
#444=CARTESIAN_POINT('',(24.20836478,23.,19.275));
#445=CARTESIAN_POINT('',(22.,26.,23.1));
#446=CARTESIAN_POINT('',(22.,23.,23.1));
#447=CARTESIAN_POINT('',(19.79163522,26.,19.275));
#448=CARTESIAN_POINT('',(19.79163522,23.,19.275));
#449=CARTESIAN_POINT('',(19.45,26.,18.683270441));
#450=CARTESIAN_POINT('',(19.45,23.,18.683270441));
#451=CARTESIAN_POINT('',(19.45,26.,18.));
#452=CARTESIAN_POINT('',(19.45,23.,18.));
#453=(BOUNDED_SURFACE()
B_SPLINE_SURFACE(2,1,((#439,#440),(#441,#442),(#443,#444),(#445,#446),(#447,#448),(#449,#450),(#451,#452)),.UNSPECIFIED.,.F.,.F.,.U.)
B_SPLINE_SURFACE_WITH_KNOTS((3,2,2,3),(2,2),(0.,2.094395102,4.188790205,4.749981681),(-0.,0.003),.UNSPECIFIED.)
GEOMETRIC_REPRESENTATION_ITEM()
RATIONAL_B_SPLINE_SURFACE(((1.,1.),(0.5,0.5),(1.,1.),(0.5,0.5),(1.,1.),(0.866025404,0.866025404),(0.803847577,0.803847577)))
REPRESENTATION_ITEM('')
SURFACE()
);
#454=CARTESIAN_POINT('',(22.,23.,15.45));
#455=VERTEX_POINT('',#454);
#456=CARTESIAN_POINT('',(22.,26.,15.45));
#457=VERTEX_POINT('',#456);
#458=CARTESIAN_POINT('',(22.,23.,15.45));
#459=CARTESIAN_POINT('',(22.,26.,15.45));
#460=B_SPLINE_CURVE_WITH_KNOTS('',1,(#458,#459),.UNSPECIFIED.,.F.,.F.,(2,2),(0.,0.003),.UNSPECIFIED.);
#461=EDGE_CURVE('',#455,#457,#460,.T.);
#462=ORIENTED_EDGE('',*,*,#461,.F.);
#463=CARTESIAN_POINT('',(19.45,23.,18.));
#464=VERTEX_POINT('',#463);
#465=CARTESIAN_POINT('',(19.45,23.,18.));
#466=CARTESIAN_POINT('',(19.45,23.,20.55));
#467=CARTESIAN_POINT('',(22.,23.,20.55));
#468=CARTESIAN_POINT('',(24.55,23.,20.55));
#469=CARTESIAN_POINT('',(24.55,23.,18.));
#470=CARTESIAN_POINT('',(24.55,23.,15.45));
#471=CARTESIAN_POINT('',(22.,23.,15.45));
#472=CARTESIAN_POINT('',(19.45,23.,15.45));
#473=CARTESIAN_POINT('',(19.45,23.,18.));
#474=(BOUNDED_CURVE()
B_SPLINE_CURVE(2,(#465,#466,#467,#468,#469,#470,#471,#472,#473),.UNSPECIFIED.,.T.,.F.)
B_SPLINE_CURVE_WITH_KNOTS((3,2,2,2,3),(0.,1.570796327,3.141592654,4.71238898,6.283185307),.UNSPECIFIED.)
CURVE()
GEOMETRIC_REPRESENTATION_ITEM()
RATIONAL_B_SPLINE_CURVE((1.,0.707106781,1.,0.707106781,1.,0.707106781,1.,0.707106781,1.))
REPRESENTATION_ITEM(''));
#475=EDGE_CURVE('',#464,#455,#474,.T.);
#476=ORIENTED_EDGE('',*,*,#475,.F.);
#477=CARTESIAN_POINT('',(19.45,26.,18.));
#478=VERTEX_POINT('',#477);
#479=CARTESIAN_POINT('',(19.45,26.,18.));
#480=CARTESIAN_POINT('',(19.45,23.,18.));
#481=B_SPLINE_CURVE_WITH_KNOTS('',1,(#479,#480),.UNSPECIFIED.,.F.,.F.,(2,2),(0.,0.003),.UNSPECIFIED.);
#482=EDGE_CURVE('',#478,#464,#481,.T.);
#483=ORIENTED_EDGE('',*,*,#482,.F.);
#484=CARTESIAN_POINT('',(19.45,26.,18.));
#485=CARTESIAN_POINT('',(19.45,26.,20.55));
#486=CARTESIAN_POINT('',(22.,26.,20.55));
#487=CARTESIAN_POINT('',(24.55,26.,20.55));
#488=CARTESIAN_POINT('',(24.55,26.,18.));
#489=CARTESIAN_POINT('',(24.55,26.,15.45));
#490=CARTESIAN_POINT('',(22.,26.,15.45));
#491=CARTESIAN_POINT('',(19.45,26.,15.45));
#492=CARTESIAN_POINT('',(19.45,26.,18.));
#493=(BOUNDED_CURVE()
B_SPLINE_CURVE(2,(#484,#485,#486,#487,#488,#489,#490,#491,#492),.UNSPECIFIED.,.T.,.F.)
B_SPLINE_CURVE_WITH_KNOTS((3,2,2,2,3),(0.,1.570796327,3.141592654,4.71238898,6.283185307),.UNSPECIFIED.)
CURVE()
GEOMETRIC_REPRESENTATION_ITEM()
RATIONAL_B_SPLINE_CURVE((1.,0.707106781,1.,0.707106781,1.,0.707106781,1.,0.707106781,1.))
REPRESENTATION_ITEM(''));
#494=EDGE_CURVE('',#478,#457,#493,.T.);
#495=ORIENTED_EDGE('',*,*,#494,.T.);
#496=EDGE_LOOP('',(#462,#476,#483,#495));
#497=FACE_BOUND('',#496,.T.);
#498=ADVANCED_FACE('',(#497),#453,.F.);
#499=CARTESIAN_POINT('',(-27.,23.,28.));
#500=CARTESIAN_POINT('',(-27.,26.,28.));
#501=CARTESIAN_POINT('',(27.,23.,28.));
#502=CARTESIAN_POINT('',(27.,26.,28.));
#503=B_SPLINE_SURFACE_WITH_KNOTS('',1,1,((#499,#500),(#501,#502)),.UNSPECIFIED.,.F.,.F.,.U.,(2,2),(2,2),(-0.054,0.),(-0.003,0.),.UNSPECIFIED.);
#504=CARTESIAN_POINT('',(27.,23.,28.));
#505=CARTESIAN_POINT('',(-27.,23.,28.));
#506=B_SPLINE_CURVE_WITH_KNOTS('',1,(#504,#505),.UNSPECIFIED.,.F.,.F.,(2,2),(-0.,0.054),.UNSPECIFIED.);
#507=EDGE_CURVE('',#389,#417,#506,.T.);
#508=ORIENTED_EDGE('',*,*,#507,.F.);
#509=ORIENTED_EDGE('',*,*,#406,.F.);
#510=CARTESIAN_POINT('',(27.,26.,28.));
#511=CARTESIAN_POINT('',(-27.,26.,28.));
#512=B_SPLINE_CURVE_WITH_KNOTS('',1,(#510,#511),.UNSPECIFIED.,.F.,.F.,(2,2),(-0.,0.054),.UNSPECIFIED.);
#513=EDGE_CURVE('',#397,#424,#512,.T.);
#514=ORIENTED_EDGE('',*,*,#513,.T.);
#515=ORIENTED_EDGE('',*,*,#428,.T.);
#516=EDGE_LOOP('',(#508,#509,#514,#515));
#517=FACE_BOUND('',#516,.T.);
#518=ADVANCED_FACE('',(#517),#503,.T.);
#519=CARTESIAN_POINT('',(-22.,26.,15.45));
#520=CARTESIAN_POINT('',(-22.,23.,15.45));
#521=CARTESIAN_POINT('',(-17.583270441,26.,15.45));
#522=CARTESIAN_POINT('',(-17.583270441,23.,15.45));
#523=CARTESIAN_POINT('',(-19.79163522,26.,19.275));
#524=CARTESIAN_POINT('',(-19.79163522,23.,19.275));
#525=CARTESIAN_POINT('',(-22.,26.,23.1));
#526=CARTESIAN_POINT('',(-22.,23.,23.1));
#527=CARTESIAN_POINT('',(-24.20836478,26.,19.275));
#528=CARTESIAN_POINT('',(-24.20836478,23.,19.275));
#529=CARTESIAN_POINT('',(-24.55,26.,18.683270441));
#530=CARTESIAN_POINT('',(-24.55,23.,18.683270441));
#531=CARTESIAN_POINT('',(-24.55,26.,18.));
#532=CARTESIAN_POINT('',(-24.55,23.,18.));
#533=(BOUNDED_SURFACE()
B_SPLINE_SURFACE(2,1,((#519,#520),(#521,#522),(#523,#524),(#525,#526),(#527,#528),(#529,#530),(#531,#532)),.UNSPECIFIED.,.F.,.F.,.U.)
B_SPLINE_SURFACE_WITH_KNOTS((3,2,2,3),(2,2),(0.,2.094395102,4.188790205,4.749981681),(-0.,0.003),.UNSPECIFIED.)
GEOMETRIC_REPRESENTATION_ITEM()
RATIONAL_B_SPLINE_SURFACE(((1.,1.),(0.5,0.5),(1.,1.),(0.5,0.5),(1.,1.),(0.866025404,0.866025404),(0.803847577,0.803847577)))
REPRESENTATION_ITEM('')
SURFACE()
);
#534=CARTESIAN_POINT('',(-22.,23.,15.45));
#535=VERTEX_POINT('',#534);
#536=CARTESIAN_POINT('',(-22.,26.,15.45));
#537=VERTEX_POINT('',#536);
#538=CARTESIAN_POINT('',(-22.,23.,15.45));
#539=CARTESIAN_POINT('',(-22.,26.,15.45));
#540=B_SPLINE_CURVE_WITH_KNOTS('',1,(#538,#539),.UNSPECIFIED.,.F.,.F.,(2,2),(0.,0.003),.UNSPECIFIED.);
#541=EDGE_CURVE('',#535,#537,#540,.T.);
#542=ORIENTED_EDGE('',*,*,#541,.F.);
#543=CARTESIAN_POINT('',(-24.55,23.,18.));
#544=VERTEX_POINT('',#543);
#545=CARTESIAN_POINT('',(-24.55,23.,18.));
#546=CARTESIAN_POINT('',(-24.55,23.,20.55));
#547=CARTESIAN_POINT('',(-22.,23.,20.55));
#548=CARTESIAN_POINT('',(-19.45,23.,20.55));
#549=CARTESIAN_POINT('',(-19.45,23.,18.));
#550=CARTESIAN_POINT('',(-19.45,23.,15.45));
#551=CARTESIAN_POINT('',(-22.,23.,15.45));
#552=CARTESIAN_POINT('',(-24.55,23.,15.45));
#553=CARTESIAN_POINT('',(-24.55,23.,18.));
#554=(BOUNDED_CURVE()
B_SPLINE_CURVE(2,(#545,#546,#547,#548,#549,#550,#551,#552,#553),.UNSPECIFIED.,.T.,.F.)
B_SPLINE_CURVE_WITH_KNOTS((3,2,2,2,3),(0.,1.570796327,3.141592654,4.71238898,6.283185307),.UNSPECIFIED.)
CURVE()
GEOMETRIC_REPRESENTATION_ITEM()
RATIONAL_B_SPLINE_CURVE((1.,0.707106781,1.,0.707106781,1.,0.707106781,1.,0.707106781,1.))
REPRESENTATION_ITEM(''));
#555=EDGE_CURVE('',#544,#535,#554,.T.);
#556=ORIENTED_EDGE('',*,*,#555,.F.);
#557=CARTESIAN_POINT('',(-24.55,26.,18.));
#558=VERTEX_POINT('',#557);
#559=CARTESIAN_POINT('',(-24.55,26.,18.));
#560=CARTESIAN_POINT('',(-24.55,23.,18.));
#561=B_SPLINE_CURVE_WITH_KNOTS('',1,(#559,#560),.UNSPECIFIED.,.F.,.F.,(2,2),(0.,0.003),.UNSPECIFIED.);
#562=EDGE_CURVE('',#558,#544,#561,.T.);
#563=ORIENTED_EDGE('',*,*,#562,.F.);
#564=CARTESIAN_POINT('',(-24.55,26.,18.));
#565=CARTESIAN_POINT('',(-24.55,26.,20.55));
#566=CARTESIAN_POINT('',(-22.,26.,20.55));
#567=CARTESIAN_POINT('',(-19.45,26.,20.55));
#568=CARTESIAN_POINT('',(-19.45,26.,18.));
#569=CARTESIAN_POINT('',(-19.45,26.,15.45));
#570=CARTESIAN_POINT('',(-22.,26.,15.45));
#571=CARTESIAN_POINT('',(-24.55,26.,15.45));
#572=CARTESIAN_POINT('',(-24.55,26.,18.));
#573=(BOUNDED_CURVE()
B_SPLINE_CURVE(2,(#564,#565,#566,#567,#568,#569,#570,#571,#572),.UNSPECIFIED.,.T.,.F.)
B_SPLINE_CURVE_WITH_KNOTS((3,2,2,2,3),(0.,1.570796327,3.141592654,4.71238898,6.283185307),.UNSPECIFIED.)
CURVE()
GEOMETRIC_REPRESENTATION_ITEM()
RATIONAL_B_SPLINE_CURVE((1.,0.707106781,1.,0.707106781,1.,0.707106781,1.,0.707106781,1.))
REPRESENTATION_ITEM(''));
#574=EDGE_CURVE('',#558,#537,#573,.T.);
#575=ORIENTED_EDGE('',*,*,#574,.T.);
#576=EDGE_LOOP('',(#542,#556,#563,#575));
#577=FACE_BOUND('',#576,.T.);
#578=ADVANCED_FACE('',(#577),#533,.F.);
#579=CARTESIAN_POINT('',(27.,26.,-0.));
#580=CARTESIAN_POINT('',(27.,26.,28.));
#581=CARTESIAN_POINT('',(-27.,26.,-0.));
#582=CARTESIAN_POINT('',(-27.,26.,28.));
#583=B_SPLINE_SURFACE_WITH_KNOTS('',1,1,((#579,#580),(#581,#582)),.UNSPECIFIED.,.F.,.F.,.U.,(2,2),(2,2),(-0.027,0.027),(-0.0015,0.0265),.UNSPECIFIED.);
#584=ORIENTED_EDGE('',*,*,#401,.F.);
#585=ORIENTED_EDGE('',*,*,#272,.F.);
#586=ORIENTED_EDGE('',*,*,#433,.F.);
#587=ORIENTED_EDGE('',*,*,#513,.F.);
#588=EDGE_LOOP('',(#584,#585,#586,#587));
#589=FACE_BOUND('',#588,.T.);
#590=CARTESIAN_POINT('',(19.45,26.,18.));
#591=CARTESIAN_POINT('',(19.45,26.,20.55));
#592=CARTESIAN_POINT('',(22.,26.,20.55));
#593=CARTESIAN_POINT('',(24.55,26.,20.55));
#594=CARTESIAN_POINT('',(24.55,26.,18.));
#595=CARTESIAN_POINT('',(24.55,26.,15.45));
#596=CARTESIAN_POINT('',(22.,26.,15.45));
#597=CARTESIAN_POINT('',(19.45,26.,15.45));
#598=CARTESIAN_POINT('',(19.45,26.,18.));
#599=(BOUNDED_CURVE()
B_SPLINE_CURVE(2,(#590,#591,#592,#593,#594,#595,#596,#597,#598),.UNSPECIFIED.,.T.,.F.)
B_SPLINE_CURVE_WITH_KNOTS((3,2,2,2,3),(0.,1.570796327,3.141592654,4.71238898,6.283185307),.UNSPECIFIED.)
CURVE()
GEOMETRIC_REPRESENTATION_ITEM()
RATIONAL_B_SPLINE_CURVE((1.,0.707106781,1.,0.707106781,1.,0.707106781,1.,0.707106781,1.))
REPRESENTATION_ITEM(''));
#600=EDGE_CURVE('',#457,#478,#599,.T.);
#601=ORIENTED_EDGE('',*,*,#600,.F.);
#602=ORIENTED_EDGE('',*,*,#494,.F.);
#603=EDGE_LOOP('',(#601,#602));
#604=FACE_BOUND('',#603,.T.);
#605=CARTESIAN_POINT('',(-24.55,26.,18.));
#606=CARTESIAN_POINT('',(-24.55,26.,20.55));
#607=CARTESIAN_POINT('',(-22.,26.,20.55));
#608=CARTESIAN_POINT('',(-19.45,26.,20.55));
#609=CARTESIAN_POINT('',(-19.45,26.,18.));
#610=CARTESIAN_POINT('',(-19.45,26.,15.45));
#611=CARTESIAN_POINT('',(-22.,26.,15.45));
#612=CARTESIAN_POINT('',(-24.55,26.,15.45));
#613=CARTESIAN_POINT('',(-24.55,26.,18.));
#614=(BOUNDED_CURVE()
B_SPLINE_CURVE(2,(#605,#606,#607,#608,#609,#610,#611,#612,#613),.UNSPECIFIED.,.T.,.F.)
B_SPLINE_CURVE_WITH_KNOTS((3,2,2,2,3),(0.,1.570796327,3.141592654,4.71238898,6.283185307),.UNSPECIFIED.)
CURVE()
GEOMETRIC_REPRESENTATION_ITEM()
RATIONAL_B_SPLINE_CURVE((1.,0.707106781,1.,0.707106781,1.,0.707106781,1.,0.707106781,1.))
REPRESENTATION_ITEM(''));
#615=EDGE_CURVE('',#537,#558,#614,.T.);
#616=ORIENTED_EDGE('',*,*,#615,.F.);
#617=ORIENTED_EDGE('',*,*,#574,.F.);
#618=EDGE_LOOP('',(#616,#617));
#619=FACE_BOUND('',#618,.T.);
#620=ADVANCED_FACE('',(#589,#604,#619),#583,.T.);
#621=CARTESIAN_POINT('',(27.,23.,-0.));
#622=CARTESIAN_POINT('',(27.,23.,28.));
#623=CARTESIAN_POINT('',(-27.,23.,0.));
#624=CARTESIAN_POINT('',(-27.,23.,28.));
#625=B_SPLINE_SURFACE_WITH_KNOTS('',1,1,((#621,#622),(#623,#624)),.UNSPECIFIED.,.F.,.F.,.U.,(2,2),(2,2),(-0.027,0.027),(-0.0015,0.0265),.UNSPECIFIED.);
#626=CARTESIAN_POINT('',(-1.5,23.,21.));
#627=VERTEX_POINT('',#626);
#628=CARTESIAN_POINT('',(1.5,23.,21.));
#629=VERTEX_POINT('',#628);
#630=CARTESIAN_POINT('',(-1.5,23.,21.));
#631=CARTESIAN_POINT('',(1.5,23.,21.));
#632=B_SPLINE_CURVE_WITH_KNOTS('',1,(#630,#631),.UNSPECIFIED.,.F.,.F.,(2,2),(-0.0015,0.0015),.UNSPECIFIED.);
#633=EDGE_CURVE('',#627,#629,#632,.T.);
#634=ORIENTED_EDGE('',*,*,#633,.T.);
#635=CARTESIAN_POINT('',(1.5,23.,21.));
#636=CARTESIAN_POINT('',(1.5,23.,3.));
#637=B_SPLINE_CURVE_WITH_KNOTS('',1,(#635,#636),.UNSPECIFIED.,.F.,.F.,(2,2),(-0.008,0.01),.UNSPECIFIED.);
#638=EDGE_CURVE('',#629,#230,#637,.T.);
#639=ORIENTED_EDGE('',*,*,#638,.T.);
#640=ORIENTED_EDGE('',*,*,#241,.F.);
#641=ORIENTED_EDGE('',*,*,#213,.T.);
#642=ORIENTED_EDGE('',*,*,#284,.T.);
#643=ORIENTED_EDGE('',*,*,#393,.T.);
#644=ORIENTED_EDGE('',*,*,#507,.T.);
#645=ORIENTED_EDGE('',*,*,#421,.T.);
#646=ORIENTED_EDGE('',*,*,#258,.T.);
#647=ORIENTED_EDGE('',*,*,#166,.F.);
#648=ORIENTED_EDGE('',*,*,#138,.F.);
#649=CARTESIAN_POINT('',(-1.5,23.,3.));
#650=CARTESIAN_POINT('',(-1.5,23.,21.));
#651=B_SPLINE_CURVE_WITH_KNOTS('',1,(#649,#650),.UNSPECIFIED.,.F.,.F.,(2,2),(0.,0.018),.UNSPECIFIED.);
#652=EDGE_CURVE('',#127,#627,#651,.T.);
#653=ORIENTED_EDGE('',*,*,#652,.T.);
#654=EDGE_LOOP('',(#634,#639,#640,#641,#642,#643,#644,#645,#646,#647,#648,#653));
#655=FACE_BOUND('',#654,.T.);
#656=ORIENTED_EDGE('',*,*,#475,.T.);
#657=CARTESIAN_POINT('',(19.45,23.,18.));
#658=CARTESIAN_POINT('',(19.45,23.,20.55));
#659=CARTESIAN_POINT('',(22.,23.,20.55));
#660=CARTESIAN_POINT('',(24.55,23.,20.55));
#661=CARTESIAN_POINT('',(24.55,23.,18.));
#662=CARTESIAN_POINT('',(24.55,23.,15.45));
#663=CARTESIAN_POINT('',(22.,23.,15.45));
#664=CARTESIAN_POINT('',(19.45,23.,15.45));
#665=CARTESIAN_POINT('',(19.45,23.,18.));
#666=(BOUNDED_CURVE()
B_SPLINE_CURVE(2,(#657,#658,#659,#660,#661,#662,#663,#664,#665),.UNSPECIFIED.,.T.,.F.)
B_SPLINE_CURVE_WITH_KNOTS((3,2,2,2,3),(0.,1.570796327,3.141592654,4.71238898,6.283185307),.UNSPECIFIED.)
CURVE()
GEOMETRIC_REPRESENTATION_ITEM()
RATIONAL_B_SPLINE_CURVE((1.,0.707106781,1.,0.707106781,1.,0.707106781,1.,0.707106781,1.))
REPRESENTATION_ITEM(''));
#667=EDGE_CURVE('',#455,#464,#666,.T.);
#668=ORIENTED_EDGE('',*,*,#667,.T.);
#669=EDGE_LOOP('',(#656,#668));
#670=FACE_BOUND('',#669,.T.);
#671=ORIENTED_EDGE('',*,*,#555,.T.);
#672=CARTESIAN_POINT('',(-24.55,23.,18.));
#673=CARTESIAN_POINT('',(-24.55,23.,20.55));
#674=CARTESIAN_POINT('',(-22.,23.,20.55));
#675=CARTESIAN_POINT('',(-19.45,23.,20.55));
#676=CARTESIAN_POINT('',(-19.45,23.,18.));
#677=CARTESIAN_POINT('',(-19.45,23.,15.45));
#678=CARTESIAN_POINT('',(-22.,23.,15.45));
#679=CARTESIAN_POINT('',(-24.55,23.,15.45));
#680=CARTESIAN_POINT('',(-24.55,23.,18.));
#681=(BOUNDED_CURVE()
B_SPLINE_CURVE(2,(#672,#673,#674,#675,#676,#677,#678,#679,#680),.UNSPECIFIED.,.T.,.F.)
B_SPLINE_CURVE_WITH_KNOTS((3,2,2,2,3),(0.,1.570796327,3.141592654,4.71238898,6.283185307),.UNSPECIFIED.)
CURVE()
GEOMETRIC_REPRESENTATION_ITEM()
RATIONAL_B_SPLINE_CURVE((1.,0.707106781,1.,0.707106781,1.,0.707106781,1.,0.707106781,1.))
REPRESENTATION_ITEM(''));
#682=EDGE_CURVE('',#535,#544,#681,.T.);
#683=ORIENTED_EDGE('',*,*,#682,.T.);
#684=EDGE_LOOP('',(#671,#683));
#685=FACE_BOUND('',#684,.T.);
#686=ADVANCED_FACE('',(#655,#670,#685),#625,.F.);
#687=CARTESIAN_POINT('',(1.5,13.837397166,21.));
#688=CARTESIAN_POINT('',(1.5,23.,21.));
#689=CARTESIAN_POINT('',(1.5,13.837397166,3.));
#690=CARTESIAN_POINT('',(1.5,23.,3.));
#691=B_SPLINE_SURFACE_WITH_KNOTS('',1,1,((#687,#688),(#689,#690)),.UNSPECIFIED.,.F.,.F.,.U.,(2,2),(2,2),(-0.008,0.01),(0.000837397,0.01),.UNSPECIFIED.);
#692=ORIENTED_EDGE('',*,*,#59,.F.);
#693=ORIENTED_EDGE('',*,*,#234,.T.);
#694=ORIENTED_EDGE('',*,*,#638,.F.);
#695=CARTESIAN_POINT('',(1.5,23.,21.));
#696=CARTESIAN_POINT('',(1.5,15.,13.));
#697=B_SPLINE_CURVE_WITH_KNOTS('',1,(#695,#696),.UNSPECIFIED.,.F.,.F.,(2,2),(-0.,0.011313708),.UNSPECIFIED.);
#698=EDGE_CURVE('',#629,#296,#697,.T.);
#699=ORIENTED_EDGE('',*,*,#698,.T.);
#700=ORIENTED_EDGE('',*,*,#300,.F.);
#701=EDGE_LOOP('',(#692,#693,#694,#699,#700));
#702=FACE_BOUND('',#701,.T.);
#703=ADVANCED_FACE('',(#702),#691,.T.);
#704=CARTESIAN_POINT('',(-1.5,13.837397166,3.));
#705=CARTESIAN_POINT('',(-1.5,23.,3.));
#706=CARTESIAN_POINT('',(-1.5,13.837397166,21.));
#707=CARTESIAN_POINT('',(-1.5,23.,21.));
#708=B_SPLINE_SURFACE_WITH_KNOTS('',1,1,((#704,#705),(#706,#707)),.UNSPECIFIED.,.F.,.F.,.U.,(2,2),(2,2),(-0.,0.018),(0.000837397,0.01),.UNSPECIFIED.);
#709=ORIENTED_EDGE('',*,*,#189,.F.);
#710=ORIENTED_EDGE('',*,*,#312,.T.);
#711=CARTESIAN_POINT('',(-1.5,15.,13.));
#712=CARTESIAN_POINT('',(-1.5,23.,21.));
#713=B_SPLINE_CURVE_WITH_KNOTS('',1,(#711,#712),.UNSPECIFIED.,.F.,.F.,(2,2),(-0.011313708,0.),.UNSPECIFIED.);
#714=EDGE_CURVE('',#303,#627,#713,.T.);
#715=ORIENTED_EDGE('',*,*,#714,.T.);
#716=ORIENTED_EDGE('',*,*,#652,.F.);
#717=ORIENTED_EDGE('',*,*,#131,.F.);
#718=EDGE_LOOP('',(#709,#710,#715,#716,#717));
#719=FACE_BOUND('',#718,.T.);
#720=ADVANCED_FACE('',(#719),#708,.T.);
#721=CARTESIAN_POINT('',(-1.5,23.,21.));
#722=CARTESIAN_POINT('',(-1.5,15.,13.));
#723=CARTESIAN_POINT('',(1.5,23.,21.));
#724=CARTESIAN_POINT('',(1.5,15.,13.));
#725=B_SPLINE_SURFACE_WITH_KNOTS('',1,1,((#721,#722),(#723,#724)),.UNSPECIFIED.,.F.,.F.,.U.,(2,2),(2,2),(-0.0015,0.0015),(-0.,0.011313708),.UNSPECIFIED.);
#726=ORIENTED_EDGE('',*,*,#714,.F.);
#727=ORIENTED_EDGE('',*,*,#307,.F.);
#728=ORIENTED_EDGE('',*,*,#698,.F.);
#729=ORIENTED_EDGE('',*,*,#633,.F.);
#730=EDGE_LOOP('',(#726,#727,#728,#729));
#731=FACE_BOUND('',#730,.T.);
#732=ADVANCED_FACE('',(#731),#725,.F.);
#733=CARTESIAN_POINT('',(19.45,26.,18.));
#734=CARTESIAN_POINT('',(19.45,23.,18.));
#735=CARTESIAN_POINT('',(19.45,26.,15.45));
#736=CARTESIAN_POINT('',(19.45,23.,15.45));
#737=CARTESIAN_POINT('',(22.,26.,15.45));
#738=CARTESIAN_POINT('',(22.,23.,15.45));
#739=(BOUNDED_SURFACE()
B_SPLINE_SURFACE(2,1,((#733,#734),(#735,#736),(#737,#738)),.UNSPECIFIED.,.F.,.F.,.U.)
B_SPLINE_SURFACE_WITH_KNOTS((3,3),(2,2),(4.749981681,6.283185307),(-0.,0.003),.UNSPECIFIED.)
GEOMETRIC_REPRESENTATION_ITEM()
RATIONAL_B_SPLINE_SURFACE(((0.803847577,0.803847577),(0.633974596,0.633974596),(1.,1.)))
REPRESENTATION_ITEM('')
SURFACE()
);
#740=ORIENTED_EDGE('',*,*,#461,.T.);
#741=ORIENTED_EDGE('',*,*,#600,.T.);
#742=ORIENTED_EDGE('',*,*,#482,.T.);
#743=ORIENTED_EDGE('',*,*,#667,.F.);
#744=EDGE_LOOP('',(#740,#741,#742,#743));
#745=FACE_BOUND('',#744,.T.);
#746=ADVANCED_FACE('',(#745),#739,.F.);
#747=CARTESIAN_POINT('',(-24.55,26.,18.));
#748=CARTESIAN_POINT('',(-24.55,23.,18.));
#749=CARTESIAN_POINT('',(-24.55,26.,15.45));
#750=CARTESIAN_POINT('',(-24.55,23.,15.45));
#751=CARTESIAN_POINT('',(-22.,26.,15.45));
#752=CARTESIAN_POINT('',(-22.,23.,15.45));
#753=(BOUNDED_SURFACE()
B_SPLINE_SURFACE(2,1,((#747,#748),(#749,#750),(#751,#752)),.UNSPECIFIED.,.F.,.F.,.U.)
B_SPLINE_SURFACE_WITH_KNOTS((3,3),(2,2),(4.749981681,6.283185307),(-0.,0.003),.UNSPECIFIED.)
GEOMETRIC_REPRESENTATION_ITEM()
RATIONAL_B_SPLINE_SURFACE(((0.803847577,0.803847577),(0.633974596,0.633974596),(1.,1.)))
REPRESENTATION_ITEM('')
SURFACE()
);
#754=ORIENTED_EDGE('',*,*,#541,.T.);
#755=ORIENTED_EDGE('',*,*,#615,.T.);
#756=ORIENTED_EDGE('',*,*,#562,.T.);
#757=ORIENTED_EDGE('',*,*,#682,.F.);
#758=EDGE_LOOP('',(#754,#755,#756,#757));
#759=FACE_BOUND('',#758,.T.);
#760=ADVANCED_FACE('',(#759),#753,.F.);
#761=CLOSED_SHELL('',(#112,#148,#170,#195,#223,#245,#289,#334,#373,#382,#410,#438,#498,#518,#578,#620,#686,#703,#720,#732,#746,#760));
#762=MANIFOLD_SOLID_BREP('\X2\04220435043B043E\X0\_1:1',#761);
#763=COLOUR_RGB('',0.768627465,0.768627465,0.768627465);
#764=FILL_AREA_STYLE_COLOUR('',#763);
#765=FILL_AREA_STYLE('',(#764));
#766=SURFACE_STYLE_FILL_AREA(#765);
#767=SURFACE_SIDE_STYLE('',(#766));
#768=SURFACE_STYLE_USAGE(.BOTH.,#767);
#769=PRESENTATION_STYLE_ASSIGNMENT((#768));
#26=STYLED_ITEM('',(#769),#762);
#770=(NAMED_UNIT(*)PLANE_ANGLE_UNIT()SI_UNIT($,.RADIAN.));
#771=PLANE_ANGLE_MEASURE_WITH_UNIT(PLANE_ANGLE_MEASURE(0.0174532925),#770);
#772=(CONVERSION_BASED_UNIT('DEGREE',#771)NAMED_UNIT(#773)PLANE_ANGLE_UNIT());
#773=DIMENSIONAL_EXPONENTS(0.,0.,0.,0.,0.,0.,0.);
#774=(NAMED_UNIT(*)SI_UNIT($,.STERADIAN.)SOLID_ANGLE_UNIT());
#775=(LENGTH_UNIT()NAMED_UNIT(*)SI_UNIT(.MILLI.,.METRE.));
#776=UNCERTAINTY_MEASURE_WITH_UNIT(LENGTH_MEASURE(1.000000E-03),#775,'DISTANCE_ACCURACY_VALUE','Maximum Tolerance applied to model');
#777=(GEOMETRIC_REPRESENTATION_CONTEXT(3)GLOBAL_UNCERTAINTY_ASSIGNED_CONTEXT((#776))GLOBAL_UNIT_ASSIGNED_CONTEXT((#775,#772,#774))REPRESENTATION_CONTEXT('','0'));
#779=CARTESIAN_POINT('',(0.,0.,0.));
#780=DIRECTION('',(0.,0.,1.));
#781=DIRECTION('',(1.,0.,0.));
#782=AXIS2_PLACEMENT_3D('',#779,#780,#781);
#793=CARTESIAN_POINT('',(0.,0.,0.));
#794=DIRECTION('',(0.,0.,1.));
#795=DIRECTION('',(1.,0.,-0.));
#796=AXIS2_PLACEMENT_3D('',#793,#794,#795);
#797=ITEM_DEFINED_TRANSFORMATION('','',#796,#782);
#798=(REPRESENTATION_RELATIONSHIP('','',#783,#16)REPRESENTATION_RELATIONSHIP_WITH_TRANSFORMATION(#797)SHAPE_REPRESENTATION_RELATIONSHIP());
#799=NEXT_ASSEMBLY_USAGE_OCCURRENCE('Nodes_1','Nodes','Nodes',#25,#792,$);
#800=PRODUCT_DEFINITION_SHAPE('','',#799);
#801=CONTEXT_DEPENDENT_SHAPE_REPRESENTATION(#798,#800);
#783=SHAPE_REPRESENTATION('Nodes',(#782),#777);
#802=APPLICATION_CONTEXT('data for automotive mechanical design processes');
#803=APPLICATION_PROTOCOL_DEFINITION('international standard','automotive_design',1994,#802);
#804=PRODUCT_CONTEXT('',#802,'mechanical');
#805=PRODUCT_DEFINITION_CONTEXT('part definition',#802,'design');
#791=PRODUCT('0','0','',(#804));
#806=PRODUCT_RELATED_PRODUCT_CATEGORY('part','',(#791));
#807=PRODUCT_DEFINITION_FORMATION_WITH_SPECIFIED_SOURCE('','',#791,.NOT_KNOWN.);
#792=PRODUCT_DEFINITION('design','',#807,#805);
#790=PRODUCT_DEFINITION_SHAPE('','',#792);
#808=SHAPE_DEFINITION_REPRESENTATION(#790,#783);
#778=DRAUGHTING_MODEL('',(),#777);
#16=SHAPE_REPRESENTATION('\X2\041A04400435043F043B0435043D04380435\X0\ \X2\043D0430043F044004300432043B044F044E044904380445\X0\ \X2\043E04410438\X0\ Z',(#15,#796),#10);
#17=ADVANCED_BREP_SHAPE_REPRESENTATION('\X2\041A04400435043F043B0435043D04380435\X0\ \X2\043D0430043F044004300432043B044F044E044904380445\X0\ \X2\043E04410438\X0\ Z',(#762),#10);
#816=SHAPE_REPRESENTATION_RELATIONSHIP('','',#16,#17);
#24=PRODUCT('\X2\041A04400435043F043B0435043D04380435\X0\ \X2\043D0430043F044004300432043B044F044E044904380445\X0\ \X2\043E04410438\X0\ Z','\X2\041A04400435043F043B0435043D04380435\X0\ \X2\043D0430043F044004300432043B044F044E044904380445\X0\ \X2\043E04410438\X0\ Z','',(#804));
#817=PRODUCT_RELATED_PRODUCT_CATEGORY('part','',(#24));
#818=PRODUCT_DEFINITION_FORMATION_WITH_SPECIFIED_SOURCE('','',#24,.NOT_KNOWN.);
#25=PRODUCT_DEFINITION('design','',#818,#805);
#23=PRODUCT_DEFINITION_SHAPE('','',#25);
#819=SHAPE_DEFINITION_REPRESENTATION(#23,#16);
#11=DRAUGHTING_MODEL('',(),#10);
#1=MECHANICAL_DESIGN_GEOMETRIC_PRESENTATION_REPRESENTATION('',(#26),#10);
ENDSEC;
END-ISO-10303-21;
